<svg viewBox="0 0 124 113" fill="none"
    xmlns="http://www.w3.org/2000/svg">
    <path fill-rule="evenodd" clip-rule="evenodd" d="M77.2034 5.34989C50.8342 -0.509929 22.1707 11.4072 3.75706 30.1928C3.17716 30.7844 2.22746 30.7939 1.63585 30.214C1.04423 29.6341 1.03474 28.6844 1.61464 28.0928C20.5608 8.76385 50.2307 -3.71722 77.8542 2.42133C84.2612 3.84511 88.8502 6.2365 91.8023 9.35509C92.5956 10.1931 93.2634 11.0761 93.8127 11.9951C96.0205 11.4814 98.2473 11.2184 100.447 11.2445C108.177 11.3364 115.447 15.0098 120.136 23.5952C124.986 32.4763 123.892 41.4136 119.975 49.269C116.082 57.0792 109.371 63.9069 102.755 68.8493C82.4025 84.0538 56.6658 92.3987 32.9362 100.093C31.8553 100.443 30.7785 100.792 29.7066 101.141C23.4668 103.169 17.2627 105.089 10.78 106.385C9.96769 106.548 9.17745 106.021 9.01499 105.208C8.85252 104.396 9.37934 103.606 10.1917 103.443C16.4898 102.184 22.5516 100.312 28.7794 98.2877C29.8006 97.9558 30.8251 97.6235 31.8522 97.2904C55.7138 89.5511 81.017 81.3442 100.96 66.4459C107.344 61.6763 113.674 55.1851 117.29 47.9305C120.885 40.7211 121.771 32.8478 117.503 25.0332C113.345 17.4201 107.08 14.3236 100.411 14.2443C98.6627 14.2235 96.8785 14.4109 95.0911 14.7853C95.6696 16.5328 95.8945 18.3669 95.8062 20.2372C95.4395 27.9999 89.7147 36.2649 81.9716 42.2177C80.8693 43.0651 77.5734 45.4297 74.1479 46.9708C72.45 47.7347 70.5811 48.3612 68.8676 48.4149C67.0907 48.4705 65.2737 47.8936 64.2169 46.0441C62.875 43.6959 63.0506 40.9976 63.8857 38.4486C64.7227 35.894 66.2858 33.2763 68.0589 30.8606C71.6104 26.022 76.2356 21.6858 78.4905 19.8165C82.1772 16.7605 86.4058 14.3348 90.7976 12.8543C90.4534 12.3608 90.0628 11.8813 89.6237 11.4175C87.2141 8.87198 83.245 6.69247 77.2034 5.34989ZM92.1847 15.5565C88.0431 16.8847 83.9801 19.1627 80.4051 22.1262C78.2764 23.8907 73.8419 28.0519 70.4774 32.6357C68.7925 34.9313 67.4334 37.256 66.7366 39.3827C66.038 41.5151 66.0681 43.2371 66.8216 44.5557C67.155 45.1392 67.7093 45.4496 68.7738 45.4163C69.9016 45.381 71.3443 44.9425 72.9171 44.2349C76.0332 42.833 79.1161 40.6289 80.1431 39.8393C87.5421 34.151 92.5017 26.611 92.8095 20.0956C92.884 18.5192 92.6884 16.9967 92.1847 15.5565Z" fill="black"/>
    <path fill-rule="evenodd" clip-rule="evenodd" d="M19.7435 89.7943C20.4925 90.1484 20.8126 91.0425 20.4586 91.7915C19.5283 93.7593 18.5282 95.6565 17.3628 97.5361C17.2193 97.7674 17.074 98.004 16.9261 98.2447C15.4043 100.722 13.6213 103.624 10.9833 105.572C10.3168 106.064 9.37765 105.923 8.88557 105.256C8.39348 104.59 8.53483 103.651 9.20127 103.159C11.3449 101.576 12.8256 99.1757 14.4133 96.6021C14.5457 96.3876 14.6788 96.1718 14.8131 95.9552C15.9062 94.1922 16.8532 92.3986 17.7463 90.5094C18.1004 89.7604 18.9946 89.4403 19.7435 89.7943Z" fill="black"/>
    <path fill-rule="evenodd" clip-rule="evenodd" d="M8.39253 105.228C8.41349 104.4 9.10185 103.746 9.93001 103.767C12.5975 103.834 15.0132 104.561 17.26 105.473C18.3818 105.928 19.4783 106.436 20.5432 106.938C20.6993 107.011 20.8546 107.084 21.0091 107.157C21.9197 107.587 22.8068 108.005 23.7051 108.396C24.4648 108.726 24.8129 109.61 24.4826 110.37C24.1523 111.129 23.2686 111.477 22.5089 111.147C21.5648 110.737 20.6308 110.296 19.7222 109.867C19.5692 109.795 19.4169 109.723 19.2654 109.652C18.2037 109.152 17.1716 108.674 16.1321 108.252C14.0562 107.41 12.0183 106.821 9.85409 106.766C9.02592 106.745 8.37156 106.057 8.39253 105.228Z" fill="black"/>
</svg>
