<svg width="350" height="150" viewBox="0 0 286 131" fill="none"
    xmlns="http://www.w3.org/2000/svg">
    <path d="M217.351 30.4224C226.87 11.7307 254.686 -9.83676 273.425 10.5621C281.108 18.9264 282.574 30.2232 279.21 40.808C278.872 41.8715 269.978 56.8882 268.46 47.4585C267.894 43.9428 270.364 40.1814 273.151 38.3483C281.785 32.6717 284.566 43.5654 283.583 50.146C278.621 83.3373 242.288 84.0835 216.167 81.5307C178.196 77.8198 140.515 68.9345 102.107 71.7372C85.1743 72.9729 68.0995 76.6876 52.2741 82.8972C37.7253 88.606 22.7908 96.7571 15.7421 111.412C13.5824 115.902 12.5064 121.121 11.3236 125.943C10.293 130.145 6.55389 121.1 5.85748 120.067C5.02353 118.83 4.19427 117.586 3.26107 116.423C3.01774 116.12 2.29236 115.309 2.35005 115.694C2.48911 116.621 3.08584 117.422 3.53437 118.245C5.81118 122.424 8.67572 125.716 11.5514 128.813" stroke="#505050" stroke-width="1" stroke-linecap="round"/>
</svg>
