<svg viewBox="0 0 273 141" fill="none"
    xmlns="http://www.w3.org/2000/svg">
    <path fill-rule="evenodd" clip-rule="evenodd" d="M265.484 6.13764C265.173 5.86633 264.949 5.81184 264.853 5.81184C263.836 5.81184 262.856 6.34809 261.65 7.35824C261.221 7.71749 260.811 8.09384 260.374 8.49548C260.197 8.65759 260.016 8.82382 259.828 8.99471C259.199 9.56493 258.508 10.1647 257.763 10.6674C257.076 11.1308 256.144 10.9497 255.681 10.2629C255.217 9.5762 255.398 8.64387 256.085 8.18053C256.644 7.80382 257.203 7.32488 257.813 6.77168C257.969 6.6307 258.13 6.48255 258.296 6.33058C258.751 5.91216 259.239 5.46479 259.724 5.05844C261.044 3.95223 262.726 2.81184 264.853 2.81184C265.92 2.81184 266.819 3.32038 267.457 3.87832C268.106 4.44463 268.622 5.17544 268.94 5.90153C270.696 9.91421 271.553 15.2226 271.905 20.3186C272.258 25.4429 272.108 30.496 271.772 34.0815C269.693 56.2394 261.321 74.3267 241.414 86.144C229.233 93.3753 212.314 97.3348 198.126 95.2585C195.004 94.8016 191.997 93.944 189.178 92.7324C187.645 95.0345 185.967 97.271 184.179 99.4314C172.783 113.198 156.655 124.171 143.49 129.892C121.779 139.325 93.8496 142.604 70.9874 134.68C42.5339 124.819 21.6855 103.338 5.89778 78.7795C5.4498 78.0827 5.65155 77.1546 6.34841 76.7066C7.04526 76.2587 7.97334 76.4604 8.42131 77.1573C24.0123 101.41 44.3915 122.287 71.9698 131.846C93.9602 139.467 121.1 136.35 142.294 127.14C155.083 121.583 170.81 110.877 181.868 97.5185C183.51 95.5346 185.045 93.4986 186.449 91.4181C177.213 86.4677 170.474 77.5172 169.154 66.4613C168.373 59.9131 170.315 53.0658 175.176 48.3099C178.263 45.2901 182.459 43.262 186.508 43.4342C188.558 43.5214 190.56 44.1761 192.298 45.5439C194.032 46.9078 195.424 48.9181 196.367 51.5962C201.138 65.1352 197.923 78.4236 190.809 90.1665C193.257 91.1745 195.858 91.8947 198.56 92.2901C211.992 94.2557 228.224 90.4859 239.883 83.5643C258.748 72.3654 266.769 55.2866 268.785 33.8013C269.107 30.3667 269.253 25.4767 268.912 20.525C268.568 15.5448 267.74 10.6439 266.192 7.10398C266.043 6.76524 265.785 6.40059 265.484 6.13764ZM188.078 88.889C194.997 77.5986 197.952 65.1224 193.538 52.5932C192.746 50.345 191.648 48.8494 190.443 47.9015C189.244 46.9575 187.86 46.4944 186.381 46.4315C183.373 46.3035 179.941 47.8456 177.274 50.4544C173.172 54.4676 171.446 60.3446 172.133 66.1058C173.336 76.1806 179.528 84.3894 188.078 88.889Z" fill="currentColor"/>
    <path fill-rule="evenodd" clip-rule="evenodd" d="M7.01606 79.2412C8.91022 80.0516 10.8274 80.7556 12.6457 81.4233C12.8485 81.4978 13.0501 81.5718 13.2503 81.6455C23.3174 85.3502 34.0988 87.6606 44.7401 88.7704C46.398 88.9433 48.6395 89.1586 50.8056 88.9899C52.9328 88.8243 55.2903 88.2692 56.925 86.6346C57.5108 86.0488 57.5108 85.099 56.925 84.5132C56.3392 83.9275 55.3894 83.9275 54.8037 84.5132C53.9366 85.3803 52.4728 85.851 50.5727 85.999C48.7113 86.1439 46.7194 85.9606 45.0512 85.7866C34.6218 84.6989 24.0881 82.4371 14.2864 78.8301C14.1157 78.7673 13.9449 78.7045 13.774 78.6417C10.0401 77.2694 6.26721 75.8828 3.08622 73.8585C3.03807 73.8279 2.96751 73.7852 2.88303 73.744C2.82718 73.7167 2.63663 73.6242 2.37858 73.5916C2.14504 73.562 1.26954 73.5445 0.833695 74.412C0.670926 74.7359 0.665342 75.0335 0.675833 75.1931C0.686845 75.3606 0.723343 75.4923 0.747472 75.5673C0.823 75.8022 0.94687 75.9853 0.979301 76.0332C0.980617 76.0351 0.981783 76.0369 0.982788 76.0384C1.03801 76.1204 1.09889 76.2013 1.15387 76.2718C1.36675 76.5446 1.70817 76.936 2.04186 77.3152C2.12813 77.4132 2.21517 77.5119 2.30189 77.6101C2.56687 77.9104 2.82884 78.2073 3.05669 78.4728C3.36063 78.827 3.49925 79.0075 3.52831 79.0454C3.53259 79.051 3.53449 79.0534 3.5342 79.0529C6.43602 84.1507 7.48898 90.5565 7.62518 97.2744C7.75489 103.672 7.05378 110.195 6.43687 115.935C6.40698 116.213 6.37728 116.489 6.34789 116.764C6.25963 117.587 6.85584 118.327 7.67955 118.415C8.50327 118.503 9.24256 117.907 9.33082 117.083C9.36177 116.794 9.39314 116.503 9.4248 116.208C10.0382 110.505 10.7583 103.809 10.6246 97.2135C10.4975 90.9482 9.6006 84.631 7.01606 79.2412Z" fill="currentColor"/>
</svg>
