<svg viewBox="0 0 337 39" fill="none"
    xmlns="http://www.w3.org/2000/svg">


    <path d="M304.787 25.0528L304.189 27.5489L298.178 4.89066H299.479L304.787 25.0528ZM306.105 20.1836L305.455 22.6094L300.797 4.89066H302.08L306.105 20.1836ZM307.424 15.1387L306.756 17.5996L303.398 4.89066H304.717L307.424 15.1387ZM312.434 34H311.115L318.814 4.92581L318.797 4.89066H320.133V4.92581L323.561 16.7383L326.707 4.89066H328.025L320.309 34H318.99L315.545 22.2051L312.434 34ZM309.797 34H308.496L316.195 4.89066H317.496L309.797 34ZM307.178 34H305.877L313.594 4.89066H314.877L307.178 34ZM328.184 34H326.865L334.564 4.89066H335.883L328.184 34ZM325.547 34H324.246L331.945 4.89066H333.246L325.547 34ZM322.928 34H321.627L329.344 4.89066H330.627L322.928 34ZM303.908 31.5039L310.957 4.89066H312.275L304.559 34H303.24L295.541 4.89066H296.859L303.908 31.5039ZM316.213 19.7266L319.623 31.6094L320.291 29.0957L316.863 17.2481L316.213 19.7266ZM317.514 14.7696L320.941 26.6172L321.609 24.1387L318.182 12.2735L317.514 14.7696ZM318.814 9.84769L322.26 21.6953L322.91 19.1992L319.5 7.31644L318.814 9.84769Z" fill="currentColor" />
    <path d="M274.922 14.5235C273.563 15.8829 272.883 17.5235 272.883 19.4454C272.883 21.3672 273.563 23.0079 274.922 24.3672C276.281 25.7266 277.922 26.4063 279.844 26.4063C281.766 26.4063 283.406 25.7266 284.766 24.3672C286.125 23.0079 286.805 21.3672 286.805 19.4454C286.805 17.5235 286.125 15.8829 284.766 14.5235C283.406 13.1641 281.766 12.4844 279.844 12.4844C277.922 12.4844 276.281 13.1641 274.922 14.5235ZM272.268 22.6446C271.834 21.625 271.617 20.5586 271.617 19.4454C271.617 18.3321 271.834 17.2715 272.268 16.2637C272.701 15.2442 273.287 14.3653 274.025 13.627C274.764 12.8887 275.637 12.3028 276.645 11.8692C277.664 11.4356 278.73 11.2188 279.844 11.2188C280.957 11.2188 282.018 11.4356 283.025 11.8692C284.045 12.3028 284.924 12.8887 285.662 13.627C286.4 14.3653 286.986 15.2442 287.42 16.2637C287.854 17.2715 288.07 18.3321 288.07 19.4454C288.07 20.5586 287.854 21.625 287.42 22.6446C286.986 23.6524 286.4 24.5254 285.662 25.2637C284.924 26.002 284.045 26.5879 283.025 27.0215C282.018 27.4551 280.957 27.6719 279.844 27.6719C278.73 27.6719 277.664 27.4551 276.645 27.0215C275.637 26.5879 274.764 26.002 274.025 25.2637C273.287 24.5254 272.701 23.6524 272.268 22.6446ZM271.617 14.6817C270.773 16.1348 270.352 17.7227 270.352 19.4454C270.352 21.168 270.773 22.7559 271.617 24.209C272.473 25.6621 273.627 26.8164 275.08 27.6719C276.533 28.5157 278.121 28.9375 279.844 28.9375C281.566 28.9375 283.154 28.5157 284.607 27.6719C286.061 26.8164 287.209 25.6621 288.053 24.209C288.908 22.7559 289.336 21.168 289.336 19.4454C289.336 17.7227 288.908 16.1348 288.053 14.6817C287.209 13.2286 286.061 12.0801 284.607 11.2364C283.154 10.3809 281.566 9.95316 279.844 9.95316C278.121 9.95316 276.533 10.3809 275.08 11.2364C273.627 12.0801 272.473 13.2286 271.617 14.6817ZM270.527 24.8418C269.566 23.1895 269.086 21.3907 269.086 19.4454C269.086 17.5 269.566 15.7012 270.527 14.0489C271.488 12.3965 272.795 11.0899 274.447 10.1289C276.1 9.16801 277.898 8.68754 279.844 8.68754C281.789 8.68754 283.588 9.16801 285.24 10.1289C286.893 11.0899 288.199 12.3965 289.16 14.0489C290.121 15.7012 290.602 17.5 290.602 19.4454C290.602 21.3907 290.121 23.1895 289.16 24.8418C288.199 26.4942 286.893 27.8008 285.24 28.7618C283.588 29.7227 281.789 30.2032 279.844 30.2032C277.898 30.2032 276.1 29.7227 274.447 28.7618C272.795 27.8008 271.488 26.4942 270.527 24.8418ZM268.77 14.7696C268.137 16.2579 267.82 17.8164 267.82 19.4454C267.82 21.0743 268.137 22.6329 268.77 24.1211C269.402 25.6094 270.252 26.8926 271.318 27.9707C272.397 29.0371 273.68 29.8868 275.168 30.5196C276.656 31.1524 278.215 31.4688 279.844 31.4688C281.473 31.4688 283.031 31.1524 284.52 30.5196C286.008 29.8868 287.285 29.0371 288.352 27.9707C289.43 26.8926 290.285 25.6094 290.918 24.1211C291.551 22.6329 291.867 21.0743 291.867 19.4454C291.867 17.8164 291.551 16.2579 290.918 14.7696C290.285 13.2813 289.43 12.0039 288.352 10.9375C287.285 9.85941 286.008 9.00394 284.52 8.37113C283.031 7.73832 281.473 7.42191 279.844 7.42191C278.215 7.42191 276.656 7.73832 275.168 8.37113C273.68 9.00394 272.397 9.85941 271.318 10.9375C270.252 12.0039 269.402 13.2813 268.77 14.7696ZM268.33 26.1075C267.147 24.0684 266.555 21.8477 266.555 19.4454C266.555 17.043 267.147 14.8223 268.33 12.7832C269.525 10.7442 271.143 9.13285 273.182 7.94926C275.221 6.75394 277.441 6.15629 279.844 6.15629C282.246 6.15629 284.467 6.75394 286.506 7.94926C288.545 9.13285 290.156 10.7442 291.34 12.7832C292.535 14.8223 293.133 17.043 293.133 19.4454C293.133 21.8477 292.535 24.0684 291.34 26.1075C290.156 28.1465 288.545 29.7637 286.506 30.959C284.467 32.1426 282.246 32.7344 279.844 32.7344C277.441 32.7344 275.221 32.1426 273.182 30.959C271.143 29.7637 269.525 28.1465 268.33 26.1075ZM266.432 13.8028C265.67 15.5957 265.289 17.4766 265.289 19.4454C265.289 21.4141 265.67 23.3008 266.432 25.1055C267.205 26.8985 268.242 28.4454 269.543 29.7461C270.844 31.0469 272.391 32.084 274.184 32.8575C275.988 33.6192 277.875 34 279.844 34C281.813 34 283.693 33.6192 285.486 32.8575C287.291 32.084 288.844 31.0469 290.145 29.7461C291.445 28.4454 292.477 26.8985 293.238 25.1055C294.012 23.3008 294.398 21.4141 294.398 19.4454C294.398 17.4766 294.012 15.5957 293.238 13.8028C292.477 11.9981 291.445 10.4454 290.145 9.14457C288.844 7.84379 287.291 6.81254 285.486 6.05082C283.693 5.27738 281.813 4.89066 279.844 4.89066C277.875 4.89066 275.988 5.27738 274.184 6.05082C272.391 6.81254 270.844 7.84379 269.543 9.14457C268.242 10.4454 267.205 11.9981 266.432 13.8028ZM265.272 25.5977C264.439 23.6407 264.023 21.5899 264.023 19.4454C264.023 17.3008 264.439 15.2559 265.272 13.3106C266.115 11.3536 267.24 9.67191 268.647 8.26566C270.064 6.84769 271.746 5.72269 273.691 4.89066C275.648 4.04691 277.699 3.62504 279.844 3.62504C281.988 3.62504 284.033 4.04691 285.979 4.89066C287.936 5.72269 289.617 6.84769 291.023 8.26566C292.441 9.67191 293.566 11.3536 294.398 13.3106C295.242 15.2559 295.664 17.3008 295.664 19.4454C295.664 21.5899 295.242 23.6407 294.398 25.5977C293.566 27.543 292.441 29.2246 291.023 30.6426C289.617 32.0489 287.936 33.168 285.979 34C284.033 34.8438 281.988 35.2657 279.844 35.2657C277.699 35.2657 275.648 34.8438 273.691 34C271.746 33.168 270.064 32.0489 268.647 30.6426C267.24 29.2246 266.115 27.543 265.272 25.5977Z" fill="currentColor"/>
    <path d="M242.877 4.89065H244.143V34H242.877V4.89065ZM250.471 4.89065H251.736V27.6719H261.861V28.9375H251.736V30.2031H261.861V31.4688H251.736V32.7344H261.861V34H250.471V4.89065ZM247.939 4.89065H249.205V34H247.939V4.89065ZM245.408 4.89065H246.674V34H245.408V4.89065Z" fill="currentColor"/>
    <path d="M233.438 18.7949H234.703V34H233.438V18.7949ZM238.5 18.7949H239.766V34H238.5V18.7949ZM235.969 18.7949H237.234V34H235.969V18.7949ZM232.172 18.7949V34C229.945 34.8438 227.637 35.2656 225.246 35.2656C223.172 35.2656 221.186 34.8848 219.287 34.1231C217.389 33.3613 215.719 32.3067 214.277 30.959C212.836 29.5996 211.682 27.9238 210.814 25.9317C209.959 23.9277 209.531 21.7656 209.531 19.4453C209.531 17.3008 209.947 15.2559 210.779 13.3106C211.623 11.3535 212.748 9.67189 214.154 8.26564C215.572 6.84767 217.254 5.72267 219.199 4.89064C221.156 4.04689 223.207 3.62502 225.352 3.62502C228.023 3.62502 230.508 4.24611 232.805 5.4883C235.102 6.73048 236.977 8.41798 238.43 10.5508L237.375 11.2363C236.039 9.27931 234.311 7.73244 232.189 6.59572C230.08 5.459 227.801 4.89064 225.352 4.89064C223.383 4.89064 221.496 5.27736 219.691 6.0508C217.898 6.81252 216.352 7.84377 215.051 9.14455C213.75 10.4453 212.713 11.9981 211.939 13.8027C211.178 15.5957 210.797 17.4766 210.797 19.4453C210.797 21.5664 211.189 23.5469 211.975 25.3867C212.771 27.2266 213.826 28.7676 215.139 30.0098C216.463 31.252 217.998 32.2305 219.744 32.9453C221.49 33.6485 223.307 34 225.193 34C227.174 34 229.078 33.6895 230.906 33.0684V31.8555C229.16 32.4414 227.326 32.7344 225.404 32.7344C224.01 32.7344 222.65 32.541 221.326 32.1543C220.014 31.7559 218.795 31.1758 217.67 30.4141C216.557 29.6406 215.578 28.7266 214.734 27.6719C213.902 26.6055 213.246 25.3692 212.766 23.9629C212.297 22.5449 212.062 21.0391 212.062 19.4453C212.062 17.043 212.654 14.8223 213.838 12.7832C215.033 10.7442 216.65 9.13283 218.689 7.94923C220.729 6.75392 222.949 6.15627 225.352 6.15627C227.602 6.15627 229.693 6.68361 231.627 7.7383C233.561 8.78127 235.137 10.1992 236.355 11.9922L235.301 12.6777C234.199 11.0606 232.77 9.78322 231.012 8.84572C229.266 7.8965 227.379 7.42189 225.352 7.42189C223.723 7.42189 222.164 7.7383 220.676 8.37111C219.188 9.00392 217.904 9.85939 216.826 10.9375C215.76 12.0039 214.91 13.2813 214.277 14.7695C213.645 16.2578 213.328 17.8164 213.328 19.4453C213.328 20.9102 213.539 22.2871 213.961 23.5762C214.395 24.8535 214.986 25.9727 215.736 26.9336C216.498 27.8828 217.383 28.7031 218.391 29.3945C219.398 30.0742 220.494 30.5899 221.678 30.9414C222.873 31.293 224.098 31.4688 225.352 31.4688C227.297 31.4688 229.148 31.1406 230.906 30.4844V29.2188C229.172 29.8867 227.361 30.2207 225.475 30.2207C224.045 30.2207 222.68 29.9805 221.379 29.5C220.078 29.0078 218.918 28.3164 217.898 27.4258C216.891 26.5352 216.088 25.3985 215.49 24.0156C214.893 22.6328 214.594 21.1094 214.594 19.4453C214.594 17.5 215.074 15.7012 216.035 14.0488C216.996 12.3965 218.303 11.0899 219.955 10.1289C221.607 9.16798 223.406 8.68752 225.352 8.68752C227.168 8.68752 228.855 9.10939 230.414 9.95314C231.984 10.7969 233.262 11.9453 234.246 13.3985L233.191 14.084C232.324 12.8184 231.199 11.8164 229.816 11.0781C228.445 10.3281 226.957 9.95314 225.352 9.95314C223.629 9.95314 222.041 10.3809 220.588 11.2363C219.135 12.0801 217.98 13.2285 217.125 14.6817C216.281 16.1348 215.859 17.7227 215.859 19.4453C215.859 20.6406 216.029 21.7539 216.369 22.7852C216.709 23.8164 217.178 24.707 217.775 25.457C218.373 26.207 219.07 26.8457 219.867 27.3731C220.676 27.9004 221.543 28.2988 222.469 28.5684C223.395 28.8262 224.355 28.9551 225.352 28.9551C227.332 28.9551 229.184 28.5625 230.906 27.7774V26.5645C229.242 27.3027 227.443 27.6719 225.51 27.6719C224.396 27.6719 223.348 27.502 222.363 27.1621C221.379 26.8223 220.488 26.3242 219.691 25.668C218.906 25.0117 218.279 24.1504 217.811 23.084C217.354 22.0059 217.125 20.793 217.125 19.4453C217.125 18.332 217.342 17.2715 217.775 16.2637C218.209 15.2442 218.795 14.3652 219.533 13.627C220.271 12.8887 221.145 12.3027 222.152 11.8692C223.172 11.4356 224.238 11.2188 225.352 11.2188C226.746 11.2188 228.041 11.5469 229.236 12.2031C230.432 12.8477 231.404 13.7266 232.154 14.8399L231.117 15.5254C230.484 14.5879 229.658 13.8496 228.639 13.3106C227.631 12.7598 226.535 12.4844 225.352 12.4844C223.43 12.4844 221.789 13.1641 220.43 14.5235C219.07 15.8828 218.391 17.5235 218.391 19.4453C218.391 20.6289 218.584 21.6777 218.971 22.5918C219.357 23.4942 219.885 24.2207 220.553 24.7715C221.232 25.3106 221.982 25.7207 222.803 26.002C223.635 26.2715 224.525 26.4063 225.475 26.4063C227.42 26.4063 229.23 26.002 230.906 25.1934V18.7949H232.172Z" fill="currentColor"/>
    <path d="M199.811 20.2715V19.0059H203.625V20.2715H199.811ZM199.811 22.6973V21.4316H203.625V22.6973H199.811ZM197.877 23.8047V4.89063H199.143V23.8047C199.143 24.332 199.23 24.6895 199.406 24.877C199.594 25.0527 199.857 25.1406 200.197 25.1406H202.553V26.4063H200.145C199.488 26.4063 198.943 26.1895 198.51 25.7559C198.088 25.3223 197.877 24.6719 197.877 23.8047ZM195.346 23.8047V4.89063H196.611V23.8047C196.611 25.0469 196.934 26.002 197.578 26.6699C198.223 27.3379 199.043 27.6719 200.039 27.6719H202.553V28.9375H200.092C198.779 28.9375 197.66 28.4805 196.734 27.5664C195.809 26.6524 195.346 25.3984 195.346 23.8047ZM192.814 23.8047V4.89063H194.08V23.8047C194.08 25.1172 194.361 26.2715 194.924 27.2676C195.498 28.252 196.236 28.9902 197.139 29.4824C198.041 29.9629 199.025 30.2031 200.092 30.2031H202.553V31.4688H200.127C198.838 31.4688 197.643 31.1699 196.541 30.5723C195.439 29.9746 194.543 29.084 193.852 27.9004C193.16 26.7168 192.814 25.3516 192.814 23.8047ZM190.283 23.8047V4.89063H191.549V23.8047C191.549 25.1524 191.783 26.3945 192.252 27.5313C192.721 28.668 193.348 29.6113 194.133 30.3613C194.93 31.1113 195.838 31.6973 196.857 32.1191C197.889 32.5293 198.961 32.7344 200.074 32.7344H202.553V34H200.092C198.814 34 197.584 33.7598 196.4 33.2793C195.217 32.7988 194.168 32.1309 193.254 31.2754C192.352 30.4082 191.631 29.3301 191.092 28.041C190.553 26.7402 190.283 25.3281 190.283 23.8047ZM177.627 23.8574C177.627 24.7129 178.166 25.1406 179.244 25.1406H189.018V26.4063H179.244C178.377 26.4063 177.68 26.207 177.152 25.8086C176.625 25.4102 176.361 24.7598 176.361 23.8574C176.361 22.252 177.322 21.4492 179.244 21.4492H189.703V22.7149H179.244C178.717 22.7149 178.312 22.791 178.031 22.9434C177.762 23.0957 177.627 23.4004 177.627 23.8574ZM187.752 12.4844V13.75H179.244C178.775 13.75 178.389 13.8672 178.084 14.1016C177.779 14.3242 177.627 14.6348 177.627 15.0332C177.627 16.0059 178.166 16.4922 179.244 16.4922H189.703V17.7578H179.244C178.377 17.7578 177.68 17.5469 177.152 17.125C176.625 16.6914 176.361 15.9941 176.361 15.0332C176.361 14.3066 176.643 13.7031 177.205 13.2227C177.768 12.7305 178.447 12.4844 179.244 12.4844H187.752ZM187.752 9.95313V11.2188H179.244C178.154 11.2188 177.188 11.5996 176.344 12.3613C175.512 13.1231 175.096 14.0137 175.096 15.0332C175.096 16.2988 175.494 17.2832 176.291 17.9863C177.1 18.6777 178.084 19.0234 179.244 19.0234H189.703V20.2891H179.244C178.998 20.2891 178.816 20.2832 178.699 20.2715C177.516 20.377 176.619 20.7578 176.01 21.4141C175.4 22.0703 175.096 22.8262 175.096 23.6816C175.096 24.9473 175.494 25.9316 176.291 26.6348C177.1 27.3262 178.084 27.6719 179.244 27.6719H189.018V28.9375H179.244C177.744 28.9375 176.467 28.4629 175.412 27.5137C174.357 26.5527 173.83 25.2754 173.83 23.6816C173.83 21.666 174.75 20.3301 176.59 19.6738C175.746 19.2402 175.072 18.625 174.568 17.8281C174.076 17.0313 173.83 16.0996 173.83 15.0332C173.83 13.6738 174.369 12.4902 175.447 11.4824C176.537 10.4629 177.803 9.95313 179.244 9.95313H187.752ZM187.752 7.42188V8.68751H179.244C177.463 8.68751 175.904 9.32032 174.568 10.5859C173.232 11.8399 172.564 13.3223 172.564 15.0332C172.564 16.8145 173.215 18.3145 174.516 19.5332C173.906 19.9668 173.426 20.5996 173.074 21.4316C172.734 22.252 172.564 23.002 172.564 23.6816C172.564 25.5801 173.221 27.1445 174.533 28.375C175.846 29.5938 177.416 30.2031 179.244 30.2031H189.018V31.4688H179.244C177.838 31.4688 176.525 31.1406 175.307 30.4844C174.1 29.8164 173.127 28.8848 172.389 27.6895C171.662 26.4824 171.299 25.1465 171.299 23.6816C171.299 22.1699 171.879 20.7695 173.039 19.4805C171.879 18.1563 171.299 16.6738 171.299 15.0332C171.299 13.6856 171.662 12.4258 172.389 11.2539C173.115 10.0703 174.088 9.13868 175.307 8.45899C176.537 7.76759 177.85 7.42188 179.244 7.42188H187.752ZM187.752 4.89063V6.15626H179.244C177.615 6.15626 176.092 6.56055 174.674 7.36915C173.256 8.16602 172.125 9.25001 171.281 10.6211C170.449 11.9805 170.033 13.4512 170.033 15.0332C170.033 16.6504 170.555 18.1563 171.598 19.5508C171.082 20.1602 170.689 20.8633 170.42 21.6602C170.162 22.4453 170.033 23.1191 170.033 23.6816C170.033 24.9473 170.279 26.1426 170.771 27.2676C171.275 28.3926 171.943 29.3535 172.775 30.1504C173.607 30.9473 174.586 31.5801 175.711 32.0488C176.836 32.5059 178.014 32.7344 179.244 32.7344H189.018V34H179.244C177.826 34 176.484 33.7598 175.219 33.2793C173.953 32.7988 172.84 32.125 171.879 31.2578C170.93 30.3906 170.174 29.3066 169.611 28.0059C169.049 26.6934 168.768 25.252 168.768 23.6816C168.768 22.2871 169.254 20.916 170.227 19.5684C169.254 18.2676 168.768 16.7559 168.768 15.0332C168.768 13.2285 169.242 11.5469 170.191 9.98829C171.152 8.41798 172.436 7.17579 174.041 6.26173C175.658 5.34766 177.393 4.89063 179.244 4.89063H187.752ZM203.625 17.7578H199.811V16.4922H203.625V17.7578Z" fill="currentColor"/>
    <path d="M154.354 19.9903L153.088 17.8985V4.89065H154.354V19.9903ZM156.885 24.1387L155.619 22.0117V4.89065H156.885V24.1387ZM159.416 28.3399L158.15 26.1953V4.89065H159.416V28.3399ZM141.275 18.9004L142.541 20.9922V34H141.275V18.9004ZM138.744 14.752L140.01 16.8789V34H138.744V14.752ZM136.213 10.5508L137.479 12.6953V34H136.213V10.5508ZM136.652 4.89065H138.129L156.023 34H154.547L136.652 4.89065ZM139.641 4.89065H141.135L159.012 34H157.5L139.641 4.89065ZM142.611 4.89065H144.088L160.682 31.9434V4.89065H161.947V34C161.947 34 161.449 34 160.453 34L142.611 4.89065ZM134.947 6.94729V34H133.682V4.89065C133.682 4.89065 134.186 4.89065 135.193 4.89065L153.035 34H151.576L134.947 6.94729Z" fill="currentColor"/>
    <path d="M129.076 4.89065H130.342V34H129.076V4.89065ZM126.545 4.89065H127.811V34H126.545V4.89065ZM124.014 4.89065H125.279V34H124.014V4.89065ZM121.482 4.89065H122.748V34H121.482V4.89065Z" fill="currentColor" />
/>
    <path d="M98.4551 34H97.1894V4.89064H98.4551V34ZM95.9238 34H94.6582V4.89064H95.9238V34ZM93.3926 34H92.1269V4.89064H93.3926V34ZM100.986 27.6719H114.451V28.9375H100.986V30.2031H114.451V31.4688H100.986V32.7344H114.451V34H99.7207V4.89064H114.451V6.15627H100.986V7.42189H114.451V8.68752H100.986V9.95314H114.451V11.2188H100.986V16.2813H107.895V17.5469H100.986V18.8125H107.895V20.0781H100.986V21.3438H107.895V22.6094H100.986V27.6719Z" fill="currentColor"/>
    <path d="M67.7988 26.4063V12.4844C67.7988 12.4844 70.6758 12.4844 76.4297 12.4844C77.8242 12.4844 79.0195 13.1699 80.0156 14.541C81.0234 15.9004 81.5273 17.5352 81.5273 19.4453C81.5273 21.3672 81.0234 23.0078 80.0156 24.3672C79.0195 25.7266 77.8242 26.4063 76.4297 26.4063H67.7988ZM69.0645 25.1406H76.4297C77.4727 25.1406 78.3633 24.584 79.1016 23.4707C79.8516 22.3574 80.2266 21.0156 80.2266 19.4453C80.2266 17.8633 79.8516 16.5215 79.1016 15.4199C78.3633 14.3067 77.4727 13.75 76.4297 13.75H69.0645V25.1406ZM66.5332 27.6719H76.4297C78.1758 27.6719 79.6758 26.8692 80.9297 25.2637C82.1953 23.6465 82.8281 21.7071 82.8281 19.4453C82.8281 17.9571 82.5352 16.5801 81.9492 15.3145C81.375 14.0489 80.5957 13.0528 79.6113 12.3262C78.6387 11.5879 77.5781 11.2188 76.4297 11.2188H66.5332V27.6719ZM65.2676 28.9375V9.95315H76.4297C77.8008 9.95315 79.0781 10.375 80.2617 11.2188C81.4453 12.0625 82.3828 13.2168 83.0742 14.6817C83.7773 16.1348 84.1289 17.7227 84.1289 19.4453C84.1289 21.1563 83.7773 22.7442 83.0742 24.209C82.3828 25.6739 81.4453 26.8281 80.2617 27.6719C79.0781 28.5156 77.8008 28.9375 76.4297 28.9375H65.2676ZM64.002 30.2031H76.4297C78.0352 30.2031 79.5234 29.7227 80.8945 28.7617C82.2773 27.8008 83.3789 26.4942 84.1992 24.8418C85.0195 23.1895 85.4297 21.3906 85.4297 19.4453C85.4297 17.5117 85.0195 15.7188 84.1992 14.0664C83.3789 12.4024 82.2773 11.0899 80.8945 10.1289C79.5117 9.16799 78.0234 8.68752 76.4297 8.68752H64.002V30.2031ZM62.7363 31.4688V7.4219H76.4297C78.2578 7.4219 79.9629 7.96096 81.5449 9.03909C83.127 10.1055 84.3867 11.5645 85.3242 13.416C86.2617 15.2676 86.7305 17.2774 86.7305 19.4453C86.7305 21.6133 86.2617 23.6231 85.3242 25.4746C84.3867 27.3262 83.127 28.791 81.5449 29.8692C79.9629 30.9356 78.2578 31.4688 76.4297 31.4688H62.7363ZM61.4707 32.7344H76.4297C77.9648 32.7344 79.4473 32.3828 80.877 31.6797C82.3066 30.9766 83.543 30.0332 84.5859 28.8496C85.6289 27.666 86.4609 26.2539 87.082 24.6133C87.7148 22.961 88.0312 21.2383 88.0312 19.4453C88.0312 17.6524 87.7148 15.9356 87.082 14.2949C86.4609 12.6543 85.6289 11.2422 84.5859 10.0586C83.543 8.8633 82.3066 7.91409 80.877 7.21096C79.4473 6.50784 77.9648 6.15627 76.4297 6.15627H61.4707V32.7344ZM76.4297 34H60.2051V4.89065H76.4297C78.7148 4.89065 80.8477 5.54104 82.8281 6.84182C84.8086 8.1426 86.3848 9.91213 87.5566 12.1504C88.7402 14.3887 89.332 16.8203 89.332 19.4453C89.332 21.4141 88.9805 23.3008 88.2773 25.1055C87.5859 26.8985 86.6602 28.4453 85.5 29.7461C84.3398 31.0469 82.9629 32.084 81.3691 32.8574C79.7871 33.6192 78.1406 34 76.4297 34Z" fill="currentColor"/>
    <path d="M55.5996 4.89065H56.8652V34H55.5996V4.89065ZM53.0684 4.89065H54.334V34H53.0684V4.89065ZM50.5371 4.89065H51.8027V34H50.5371V4.89065ZM48.0059 4.89065H49.2715V34H48.0059V4.89065Z" fill="currentColor"/>
    <path d="M26.209 4.89064H27.4746V34H26.209V4.89064ZM33.8027 4.89064H35.0684V27.6719H45.1934V28.9375H35.0684V30.2031H45.1934V31.4688H35.0684V32.7344H45.1934V34H33.8027V4.89064ZM31.2715 4.89064H32.5371V34H31.2715V4.89064ZM28.7402 4.89064H30.0059V34H28.7402V4.89064Z" fill="currentColor"/>
    <path id="letter-1" d="M13.3945 16.2813H11.2676C10.3652 16.2813 9.71484 16.0527 9.3164 15.5957C8.91797 15.127 8.71875 14.5117 8.71875 13.75C8.71875 12.0625 9.97851 11.2188 12.498 11.2188C14.8652 11.2188 16.6465 11.5703 17.8418 12.2734L16.8223 13.0469C16.002 12.6719 14.5605 12.4844 12.498 12.4844C11.4902 12.4844 10.8105 12.5957 10.459 12.8184C10.1191 13.041 9.94922 13.3516 9.94922 13.75C9.94922 14.1484 10.043 14.459 10.2305 14.6816C10.418 14.9043 10.7637 15.0156 11.2676 15.0156H13.4473C15.0293 15.0156 16.4531 15.2852 17.7187 15.8242C18.9961 16.3633 20.0449 17.1016 20.8652 18.0391C21.6855 18.9649 22.3125 20.0371 22.7461 21.2559C23.1797 22.4629 23.3965 23.7578 23.3965 25.1406C23.3965 26.2656 23.2383 27.332 22.9219 28.3399C22.6055 29.3477 22.125 30.2734 21.4805 31.1172C20.8477 31.9609 20.0801 32.6934 19.1777 33.3145C18.2871 33.9238 17.2207 34.3984 15.9785 34.7383C14.748 35.0899 13.4121 35.2656 11.9707 35.2656C9.70898 35.2656 7.58789 34.9199 5.60742 34.2285C3.63867 33.5488 1.99804 32.5938 0.685545 31.3633L1.70508 30.6074C2.90039 31.6856 4.39453 32.5234 6.1875 33.1211C7.99219 33.707 9.91992 34 11.9707 34C13.5762 34 15.0234 33.7715 16.3125 33.3145C17.6133 32.8457 18.6797 32.207 19.5117 31.3984C20.3555 30.5899 21 29.6524 21.4453 28.5859C21.9023 27.5195 22.1309 26.3711 22.1309 25.1406C22.1309 23.5117 21.8027 22.041 21.1465 20.7285C20.4902 19.4043 19.4883 18.332 18.1406 17.5117C16.8047 16.6914 15.2227 16.2813 13.3945 16.2813ZM11.2676 17.5469H13.2715C15.6504 17.5469 17.5078 18.2734 18.8437 19.7266C20.1914 21.1797 20.8652 22.9844 20.8652 25.1406C20.8652 27.332 20.0859 29.1484 18.5273 30.5899C16.9687 32.0195 14.7832 32.7344 11.9707 32.7344C10.0957 32.7344 8.34375 32.4766 6.71484 31.9609C5.08594 31.4453 3.73242 30.7188 2.65429 29.7813L3.63867 28.9902C4.59961 29.7754 5.80664 30.3848 7.25976 30.8184C8.72461 31.252 10.2949 31.4688 11.9707 31.4688C14.4434 31.4688 16.3301 30.877 17.6309 29.6934C18.9434 28.5098 19.5996 26.9922 19.5996 25.1406C19.5996 23.3125 19.0488 21.8008 17.9473 20.6055C16.8574 19.4102 15.293 18.8125 13.2539 18.8125H11.2676C9.55664 18.8125 8.27344 18.3438 7.41797 17.4063C6.5625 16.4688 6.13476 15.25 6.13476 13.75C6.13476 12.25 6.66211 11.0313 7.71679 10.0938C8.7832 9.15626 10.377 8.68751 12.498 8.68751C13.9863 8.68751 15.3691 8.86329 16.6465 9.21485C17.9238 9.5547 18.9785 10.0469 19.8105 10.6914L18.8086 11.4649C17.3437 10.457 15.2402 9.95313 12.498 9.95313C10.7285 9.95313 9.43359 10.3047 8.61328 11.0078C7.80469 11.6992 7.40039 12.6133 7.40039 13.75C7.40039 14.8984 7.69922 15.8184 8.29687 16.5098C8.90625 17.2012 9.89648 17.5469 11.2676 17.5469ZM11.2676 20.0781H13.2012C14.9121 20.0781 16.1953 20.5527 17.0508 21.502C17.9062 22.4512 18.334 23.6641 18.334 25.1406C18.334 26.6406 17.8008 27.8594 16.7344 28.7969C15.6797 29.7344 14.0918 30.2031 11.9707 30.2031C10.4824 30.2031 9.09375 30.0332 7.80469 29.6934C6.52734 29.3418 5.47265 28.8438 4.64062 28.1992L5.64258 27.4258C7.10742 28.4336 9.21679 28.9375 11.9707 28.9375C13.7402 28.9375 15.0293 28.5918 15.8379 27.9004C16.6582 27.1973 17.0684 26.2774 17.0684 25.1406C17.0684 24.0039 16.7637 23.0899 16.1543 22.3984C15.5449 21.6953 14.5547 21.3438 13.1836 21.3438H11.2676C8.86523 21.3438 6.98437 20.6289 5.625 19.1992C4.27734 17.7578 3.60351 15.9414 3.60351 13.75C3.60351 11.5586 4.38281 9.74805 5.9414 8.31837C7.5 6.87696 9.68554 6.15626 12.498 6.15626C14.373 6.15626 16.1191 6.41407 17.7363 6.9297C19.3652 7.44532 20.7187 8.17188 21.7969 9.10938L20.8125 9.9004C19.8516 9.11524 18.6445 8.50587 17.1914 8.07227C15.7383 7.63868 14.1738 7.42188 12.498 7.42188C10.0254 7.42188 8.13281 8.01368 6.82031 9.19727C5.51953 10.3809 4.86914 11.8984 4.86914 13.75C4.86914 15.5899 5.41992 17.1074 6.52148 18.3027C7.62304 19.4863 9.20508 20.0781 11.2676 20.0781ZM11.2676 22.6094H13.2012C14.1035 22.6094 14.7539 22.8438 15.1523 23.3125C15.5508 23.7813 15.75 24.3906 15.75 25.1406C15.75 26.8281 14.4902 27.6719 11.9707 27.6719C9.59179 27.6719 7.80469 27.3203 6.60937 26.6172L7.6289 25.8438C8.44922 26.2188 9.89648 26.4063 11.9707 26.4063C12.9785 26.4063 13.6523 26.2949 13.9922 26.0723C14.3437 25.8496 14.5195 25.5391 14.5195 25.1406C14.5195 24.7539 14.4199 24.4492 14.2207 24.2266C14.0332 23.9922 13.6816 23.875 13.166 23.875H11.2676C9.65039 23.875 8.18554 23.6113 6.87304 23.084C5.57226 22.5566 4.5 21.8301 3.65625 20.9043C2.82422 19.9785 2.18554 18.9063 1.74023 17.6875C1.29492 16.4688 1.07226 15.1563 1.07226 13.75C1.07226 12.625 1.23047 11.5586 1.54687 10.5508C1.86328 9.54298 2.33789 8.6172 2.9707 7.77345C3.61523 6.9297 4.38281 6.20313 5.27344 5.59376C6.17578 4.97266 7.24219 4.4922 8.47265 4.15235C9.71484 3.80079 11.0566 3.62501 12.498 3.62501C14.7598 3.62501 16.875 3.97071 18.8437 4.66212C20.8125 5.3418 22.4531 6.29688 23.7656 7.52735L22.7461 8.28321C21.5508 7.20509 20.0566 6.37305 18.2637 5.78712C16.4707 5.18946 14.5488 4.89063 12.498 4.89063C10.8926 4.89063 9.43945 5.12501 8.13867 5.59376C6.84961 6.05079 5.7832 6.6836 4.93945 7.4922C4.10742 8.30079 3.46289 9.23829 3.00586 10.3047C2.56054 11.3711 2.33789 12.5195 2.33789 13.75C2.33789 15.4024 2.67187 16.8906 3.33984 18.2149C4.00781 19.5391 5.02734 20.6055 6.39844 21.4141C7.76953 22.2109 9.39258 22.6094 11.2676 22.6094Z" fill="currentColor" />
</svg>
