<svg width="100" height="147" viewBox="0 0 100 147" fill="none" xmlns="http://www.w3.org/2000/svg">
<path fill-rule="evenodd" clip-rule="evenodd" d="M91.3944 3.61745C88.5987 1.98897 84.9996 1.6043 80.7817 2.604C65.7084 6.17657 53.7585 19.5975 50.8179 34.4967C50.7714 34.7323 50.7476 34.9189 50.735 35.0473C50.7287 35.1114 50.7252 35.1617 50.7229 35.1974L50.7202 35.2433L50.7189 35.265L50.7188 35.2655C50.7185 35.2697 50.717 35.2906 50.7134 35.3138C50.7122 35.3213 50.7099 35.3355 50.7057 35.3531C50.7033 35.3633 50.6928 35.4083 50.6669 35.4606C50.6548 35.485 50.6229 35.5452 50.5603 35.6037C50.4915 35.6681 50.3516 35.7579 50.1594 35.7349C49.9857 35.7141 49.8821 35.6129 49.8426 35.5678C49.7994 35.5185 49.776 35.472 49.7662 35.4511C49.7456 35.4074 49.7363 35.3705 49.7337 35.3602C49.7297 35.3445 49.7273 35.3318 49.726 35.3248C49.7235 35.3106 49.722 35.299 49.7214 35.2939C49.7193 35.2765 49.7175 35.2545 49.7167 35.2447C49.7142 35.2153 49.7105 35.1709 49.704 35.1076C49.691 34.9812 49.6663 34.7755 49.618 34.4808C49.607 34.4135 49.5961 34.347 49.5853 34.2812C49.2356 32.1453 49.0205 30.8315 48.188 28.6974C46.4269 24.1824 43.8089 19.8674 40.4402 16.3934C37.1591 13.0098 33.4458 10.9923 29.6459 10.5464C25.8542 10.1016 21.9194 11.2144 18.1671 14.1965C6.61041 23.3805 -0.22265 41.0801 3.41441 55.6021C5.91954 65.6047 13.348 74.0192 20.0895 81.6555C20.217 81.7999 20.3442 81.944 20.4712 82.0879C26.1633 88.5377 31.8877 94.3747 38.8482 99.3128C39.0734 99.4726 39.1264 99.7847 38.9666 100.01C38.8069 100.235 38.4948 100.288 38.2695 100.128C31.2169 95.1249 25.4333 89.2218 19.7214 82.7496C19.5715 82.5797 19.4211 82.4094 19.2702 82.2385C12.5805 74.662 5.00959 66.0875 2.44437 55.8451C-1.2968 40.9073 5.71049 22.8184 17.5449 13.4136C21.4797 10.2866 25.675 9.07369 29.7624 9.55326C33.8415 10.0319 37.7562 12.189 41.1581 15.6973C44.6316 19.2793 47.3169 23.7123 49.1197 28.334C49.7331 29.9065 50.0283 31.0669 50.2714 32.362C53.8945 17.8975 65.726 5.14469 80.5511 1.63096C84.9453 0.589465 88.823 0.962302 91.8977 2.75337C94.9754 4.5462 97.1732 7.71607 98.2909 12.1164C100.214 19.6853 99.0893 27.3451 96.681 34.6838C94.3865 41.6756 90.9116 48.4172 87.7535 54.5441C87.5989 54.8441 87.445 55.1426 87.2921 55.4397C85.8955 58.1518 84.4813 60.8481 83.0701 63.5387C73.7806 81.2496 64.6225 98.7101 61.5103 118.773C60.2403 126.959 59.2087 137.254 61.8684 145.233C61.9558 145.495 61.8142 145.778 61.5522 145.865C61.2902 145.953 61.0071 145.811 60.9197 145.549C58.1747 137.314 59.2537 126.796 60.5221 118.619C63.6617 98.3799 72.9058 80.7593 82.1915 63.0595C83.6015 60.372 85.0124 57.6825 86.403 54.9819C86.5527 54.6912 86.7032 54.3993 86.8542 54.1061C90.0204 47.963 93.4619 41.2858 95.7308 34.372C98.1065 27.1327 99.1803 19.6793 97.3217 12.3626C96.2531 8.1559 94.1869 5.24417 91.3944 3.61745Z" fill="black"/>
<path fill-rule="evenodd" clip-rule="evenodd" d="M76.385 127.859C76.1174 127.752 75.806 127.774 75.3631 127.851C74.3851 128.022 73.4381 128.535 72.5375 129.214C71.6382 129.892 70.8173 130.711 70.0833 131.461C66.5403 135.084 64.3447 139.8 62.4019 144.524C62.4029 144.522 62.4023 144.524 62.3991 144.533C62.3958 144.542 62.3895 144.561 62.3794 144.591C62.3763 144.6 62.3731 144.609 62.3697 144.62C62.3551 144.663 62.337 144.717 62.3168 144.776C62.2672 144.92 62.2015 145.106 62.1309 145.277C62.0678 145.43 61.9768 145.634 61.8665 145.773C61.8359 145.811 61.7886 145.864 61.7234 145.911C61.6606 145.957 61.5411 146.024 61.3792 146.02C61.1995 146.016 61.0647 145.927 60.983 145.835C60.9103 145.754 60.8733 145.666 60.8535 145.609C60.6099 144.905 60.2657 144.228 59.8592 143.588C57.1321 139.291 53.409 135.991 48.8985 133.632C48.6538 133.504 48.5592 133.202 48.6872 132.957C48.8152 132.713 49.1173 132.618 49.362 132.746C54.0165 135.181 57.8756 138.597 60.7035 143.052C60.963 143.461 61.2023 143.888 61.4111 144.333C61.4385 144.251 61.4641 144.175 61.477 144.144C63.4225 139.413 65.6781 134.536 69.3683 130.762C70.1023 130.012 70.9697 129.144 71.9354 128.415C72.8997 127.688 73.9944 127.075 75.1911 126.866C75.6339 126.789 76.2009 126.708 76.7564 126.931C77.0128 127.033 77.1375 127.324 77.035 127.581C76.9324 127.837 76.6414 127.962 76.385 127.859Z" fill="black"/>
</svg>
