<svg width="64" height="85" viewBox="0 0 64 85" fill="none" xmlns="http://www.w3.org/2000/svg">
<path fill-rule="evenodd" clip-rule="evenodd" d="M59.9531 7.782C55.0392 0.856324 46.6423 0.68731 39.2804 4.03961C36.2619 5.41413 34.0594 7.40247 32.1748 10.1438C32.0423 10.3365 31.9014 10.5332 31.7572 10.7347C31.4302 11.1914 31.0858 11.6726 30.7817 12.1863C30.3449 12.9241 30.0558 13.6302 30.0558 14.2629C30.0558 14.3307 30.0538 14.3992 30.0467 14.4602C30.0432 14.4898 30.0369 14.533 30.0232 14.5801L30.0229 14.5812C30.0146 14.61 29.98 14.7294 29.8705 14.8293C29.8029 14.891 29.6998 14.9509 29.566 14.9612C29.4365 14.9712 29.3332 14.9303 29.2684 14.8923C29.158 14.8275 29.1008 14.7378 29.0856 14.7141L29.0854 14.7137C29.0435 14.648 29.0163 14.5766 29.0015 14.5361C28.9367 14.3581 28.8549 14.0303 28.7718 13.6889C28.7528 13.6109 28.7335 13.5311 28.714 13.4504C28.5492 12.7701 28.3682 12.0223 28.2195 11.6592C27.0559 8.81689 25.9126 6.56628 23.5795 4.61151C20.0724 1.67318 15.5135 1.11658 11.4024 3.07062C6.71339 5.29934 3.94231 9.8282 2.28178 14.7224C-0.490362 22.8929 2.35584 32.5753 6.36409 40.0617C8.39029 43.8462 10.7531 47.4808 13.6272 50.6518C16.961 54.3298 20.9959 57.3457 25.0148 60.3497C25.3874 60.6282 25.7599 60.9066 26.1316 61.1854C26.3525 61.3511 26.3973 61.6645 26.2316 61.8854C26.0659 62.1063 25.7525 62.1511 25.5316 61.9854C25.1578 61.7051 24.7824 61.4245 24.4061 61.1433C20.4009 58.1501 16.2885 55.0769 12.8863 51.3233C9.94141 48.0744 7.53426 44.366 5.4825 40.5337C1.43116 32.9668 -1.5721 22.9688 1.3348 14.4011C3.034 9.39293 5.93154 4.56374 10.9731 2.16745C15.4342 0.0470354 20.4123 0.653318 24.2217 3.84499C26.7458 5.95982 27.9644 8.3966 29.145 11.2803C29.2611 11.564 29.3859 12.0109 29.5024 12.4685C29.6281 12.1946 29.7716 11.9295 29.9212 11.6769C30.2482 11.1243 30.6367 10.5815 30.9734 10.1109C31.1103 9.91972 31.2385 9.74043 31.3507 9.57725C33.3238 6.70726 35.6606 4.58912 38.866 3.12952C46.4438 -0.321088 55.4575 -0.282152 60.7687 7.20334C62.9775 10.3165 63.6262 14.0678 63.4273 17.8115C63.2285 21.5547 62.1812 25.328 60.9543 28.5338C59.2458 32.9977 56.6835 37.6459 53.5442 41.2907C51.1499 44.0705 48.4603 46.5327 45.7961 48.9692L45.7621 49.0004C43.1023 51.4329 40.4693 53.8409 38.1294 56.5447C35.9408 59.0738 34.5749 62.7865 33.9791 66.1105C33.8862 66.6284 33.79 67.1442 33.694 67.6582C33.1736 70.4456 32.6623 73.1846 32.7567 75.971C32.7878 76.8892 33.0181 77.8201 33.2625 78.8078L33.2794 78.8759C33.5244 79.8666 33.78 80.9185 33.78 81.965C33.78 82.083 33.765 82.2361 33.6886 82.3798C33.5975 82.5508 33.4367 82.6732 33.2368 82.7048C33.0708 82.731 32.9278 82.6865 32.8431 82.6524C32.7508 82.6153 32.6666 82.5652 32.5978 82.5194C32.4605 82.4279 32.3239 82.3116 32.2231 82.2247C32.1682 82.1774 32.126 82.1404 32.0874 82.108C32.0626 82.0872 32.0473 82.075 32.0392 82.0688C32.0336 82.0645 32.0314 82.063 32.0319 82.0633C31.2881 81.5835 30.4676 81.1846 29.612 80.7977C29.5605 80.7744 29.5088 80.7511 29.4569 80.7278C29.5178 80.7793 29.5784 80.8306 29.6385 80.8813L29.7425 80.9691C30.1585 81.3206 30.5443 81.6465 30.8061 81.8774C30.9366 81.9925 31.0672 82.1114 31.1994 82.2316C31.5177 82.5213 31.845 82.8192 32.2019 83.0926C32.6936 83.4694 33.175 83.7444 33.6426 83.8361C33.6429 83.8359 33.6432 83.8358 33.6435 83.8357C33.6707 83.8229 33.7149 83.7939 33.7749 83.739C33.8662 83.6555 33.9363 83.5707 34.0116 83.4796C34.0464 83.4374 34.0824 83.3938 34.1221 83.3484C34.9128 82.4448 35.655 81.4975 36.4038 80.5368L36.5081 80.4029C37.2203 79.489 37.9409 78.5643 38.7053 77.6738C38.795 77.5693 38.9089 77.4292 39.0414 77.2663C39.3871 76.8413 39.8589 76.2611 40.3559 75.753C40.7054 75.3957 41.0901 75.0488 41.4867 74.7883C41.8761 74.5325 42.3266 74.327 42.7974 74.327C43.0735 74.327 43.2974 74.5508 43.2974 74.827C43.2974 75.1031 43.0735 75.327 42.7974 75.327C42.6091 75.327 42.3549 75.4145 42.0357 75.6241C41.7236 75.8291 41.3958 76.12 41.0708 76.4523C40.6077 76.9257 40.1954 77.4329 39.857 77.8493C39.7118 78.0279 39.5803 78.1898 39.4641 78.3251C38.7156 79.1971 38.0082 80.1048 37.2924 81.0234L37.1925 81.1515C36.4451 82.1104 35.6867 83.079 34.8747 84.0069C34.8635 84.0197 34.8468 84.04 34.8258 84.0655C34.7446 84.1639 34.5983 84.3412 34.4497 84.477C34.2746 84.6371 33.9283 84.9046 33.4894 84.8248C32.7806 84.6959 32.1386 84.304 31.5936 83.8864C31.201 83.5855 30.8225 83.2411 30.4935 82.9418C30.3696 82.829 30.2526 82.7226 30.1447 82.6274C29.8913 82.404 29.5138 82.0851 29.0937 81.7301L28.9931 81.6452C28.536 81.2589 28.0403 80.8392 27.6204 80.4704C27.2118 80.1115 26.8418 79.7722 26.6605 79.5571C26.6179 79.5065 26.5559 79.4288 26.5138 79.3402C26.4957 79.3022 26.4503 79.2006 26.4566 79.068C26.4602 78.9928 26.481 78.898 26.5415 78.8059C26.603 78.7123 26.6856 78.6519 26.7641 78.6168C26.9007 78.5558 27.0256 78.5696 27.0702 78.5757C27.1294 78.5837 27.1822 78.5992 27.2215 78.6124C27.3014 78.6393 27.3898 78.6793 27.4805 78.7247C28.0551 79.0119 28.6472 79.2742 29.2538 79.5429C29.5081 79.6555 29.7649 79.7693 30.0241 79.8865C30.8902 80.2782 31.7659 80.7016 32.5741 81.223C32.631 81.2598 32.6884 81.3069 32.7306 81.3423C32.7367 81.3474 32.743 81.3528 32.7494 81.3582C32.6803 80.6418 32.5028 79.9014 32.3086 79.116L32.2815 79.0067C32.0449 78.0512 31.792 77.0299 31.7573 76.0049C31.6588 73.0989 32.1942 70.2358 32.715 67.4508C32.8101 66.9425 32.9046 66.4369 32.9948 65.934C33.6085 62.51 35.0247 58.6042 37.3733 55.8903C39.7515 53.1422 42.4209 50.7009 45.0668 48.2811L45.1213 48.2313C47.7922 45.7886 50.4374 43.3655 52.7865 40.6381C55.8354 37.0983 58.344 32.5563 60.0203 28.1763C61.2252 25.0282 62.2374 21.362 62.4288 17.7584C62.6201 14.1553 61.9897 10.6524 59.9531 7.782ZM32.7791 81.9854C32.7791 81.985 32.7792 81.9838 32.7795 81.9819ZM29.9477 14.2109C29.9479 14.2113 29.9476 14.2107 29.9468 14.2088C29.9473 14.2099 29.9476 14.2106 29.9477 14.2109Z" fill="black"/>
</svg>
