<?xml version="1.0" encoding="utf-8"?>
<!-- Generator: Adobe Illustrator 27.5.0, SVG Export Plug-In . SVG Version: 6.00 Build 0)  -->
<svg version="1.1" xmlns="http://www.w3.org/2000/svg" xmlns:xlink="http://www.w3.org/1999/xlink" x="0px" y="0px"
	 viewBox="0 0 500 500" style="enable-background:new 0 0 500 500;" xml:space="preserve">
<g id="Floor">
	<ellipse id="Floor_1_" style="fill:#F5F5F5;" cx="250" cy="363.299" rx="216.855" ry="125.202"/>
</g>
<g id="Palms">
	<path style="fill:#EBEBEB;" d="M103.43,251.95c-0.05,7.28-0.56,14.04-1.2,19.72c-1.88,1.01-3.74,2.04-5.57,3.1
		c-2.65,1.53-5.21,3.09-7.69,4.67c2.4-11.04,5.48-30.55,3.5-52.21c-3.36-36.81-19.66-64.08-36.15-80.35l3.1-0.59
		c3.78,2.47,14.61,10.57,26.95,32.7C94.05,192.76,103.67,218.17,103.43,251.95z"/>
	<path style="fill:#EBEBEB;" d="M453.6,163.14c-14.4,11.47-29.58,31.63-35.33,60.43c-4.53,22.67-1.59,52.68-0.74,60.23
		c-3.3-2.32-6.76-4.58-10.39-6.78c-0.33-8.84-0.67-24.11,0.4-34.84c2.65-26.71,12.38-45.97,19.61-56.2
		c11.61-16.45,20.85-21.93,24.05-23.56L453.6,163.14z"/>
	<g id="Palm_22_">
		<g id="XMLID_262_">
			<g>
				<g>
					<path id="XMLID_549_" style="fill:#EBEBEB;" d="M58.077,145.643c-2.415-1.637-1.355-1.638-4.686-3.405
						c-5.053-2.681-13.26-2.532-20.03-0.257C21.439,145.989,10.755,154,7.14,166.393c4.357-4.929,10.36-6.707,16.689-7.299
						c1.331-2.769,2.659-5.521,4.109-8.231c0.3,2.552,0.562,5.1,0.748,7.663c2.984-0.149,5.648-1.253,8.36-2.431
						c1.359-3.393,2.93-6.677,4.606-9.924c-0.381,2.779-0.744,5.557-1.024,8.347C46.701,152.209,52.818,149.555,58.077,145.643z"/>
				</g>
				<g style="opacity:0.15;">
					<path id="XMLID_512_" style="fill:#EBEBEB;" d="M58.077,145.643c-2.415-1.637-1.355-1.638-4.686-3.405
						c-5.053-2.681-13.26-2.532-20.03-0.257C21.439,145.989,10.755,154,7.14,166.393c4.357-4.929,10.36-6.707,16.689-7.299
						c1.331-2.769,2.659-5.521,4.109-8.231c0.3,2.552,0.562,5.1,0.748,7.663c2.984-0.149,5.648-1.253,8.36-2.431
						c1.359-3.393,2.93-6.677,4.606-9.924c-0.381,2.779-0.744,5.557-1.024,8.347C46.701,152.209,52.818,149.555,58.077,145.643z"/>
				</g>
				<path id="XMLID_510_" style="fill:#EBEBEB;" d="M56.422,146.852c-0.002-0.001-1.705-3.638,2.711-10.772
					c6.929-11.194,18.687-16.275,25.012-17.508c6.325-1.233,15.886-1.032,21.175,2.38c0,0-7.054,0.225-14.719,5.439
					c0,0-6.248-2.059-12.765-1.426c0,0,7.198,2.507,8.933,4.091c0,0-3.144,4.475-9.819,6.89c0,0-5.854-4.408-11.185-3.276
					c0,0,5.241,0.792,8.251,5.077C74.016,137.748,65.784,143.307,56.422,146.852z"/>
				<path id="XMLID_487_" style="opacity:0.2;fill:#EBEBEB;" d="M56.422,146.852c-0.002-0.001-1.705-3.638,2.711-10.772
					c6.929-11.194,18.687-16.275,25.012-17.508c6.325-1.233,15.886-1.032,21.175,2.38c0,0-7.054,0.225-14.719,5.439
					c0,0-6.248-2.059-12.765-1.426c0,0,7.198,2.507,8.933,4.091c0,0-3.144,4.475-9.819,6.89c0,0-5.854-4.408-11.185-3.276
					c0,0,5.241,0.792,8.251,5.077C74.016,137.748,65.784,143.307,56.422,146.852z"/>
				<path id="XMLID_457_" style="fill:#EBEBEB;" d="M56.422,146.852c0,0,8.193-7.43,21.2-8.2
					c16.992-1.006,27.952,5.23,32.777,11.684c0,0-8.205-4.282-18.631,0.348l-7.313-5.796l2.076,7.524
					c-2.238,0.865-5.376,1.068-9.18,0.782l-7.65-8.1l3.409,7.725C73.109,152.819,62.768,152.285,56.422,146.852z"/>
				<path id="XMLID_452_" style="opacity:0.05;fill:#EBEBEB;" d="M56.422,146.852c0,0,8.193-7.43,21.2-8.2
					c16.992-1.006,27.952,5.23,32.777,11.684c0,0-8.205-4.282-18.631,0.348l-7.313-5.796l2.076,7.524
					c-2.238,0.865-5.376,1.068-9.18,0.782l-7.65-8.1l3.409,7.725C73.109,152.819,62.768,152.285,56.422,146.852z"/>
				<path id="XMLID_445_" style="fill:#EBEBEB;" d="M56.422,146.852c-0.001-0.003-3.139-0.412-8.624,3.204
					c-9.319,6.143-15.204,19.104-16.141,25.383c-0.937,6.279-0.322,15.681,3.267,20.738c0,0-0.087-6.953,4.711-14.726
					c0,0-2.3-6.06-1.961-12.502c0,0,2.782,6.975,4.417,8.614c0,0,4.268-3.29,6.354-9.965c0,0-4.594-5.57-3.712-10.867
					c0,0,1.008,5.124,5.358,7.9C50.09,164.633,53.341,156.222,56.422,146.852z"/>
				<path id="XMLID_402_" style="opacity:0.05;fill:#EBEBEB;" d="M56.422,146.852c-0.001-0.003-3.139-0.412-8.624,3.204
					c-9.319,6.143-15.204,19.104-16.141,25.383c-0.937,6.279-0.322,15.681,3.267,20.738c0,0-0.087-6.953,4.711-14.726
					c0,0-2.3-6.06-1.961-12.502c0,0,2.782,6.975,4.417,8.614c0,0,4.268-3.29,6.354-9.965c0,0-4.594-5.57-3.712-10.867
					c0,0,1.008,5.124,5.358,7.9C50.09,164.633,53.341,156.222,56.422,146.852z"/>
				<path style="fill:#EBEBEB;" d="M77.613,190.902c0,0-4.25-4.439-5.665-9.968c-0.392-1.536-0.718-3.179-1.018-4.885
					c-6.285-2.746-7.538-6.606-7.538-6.606c1.741,2.032,5.241,3.192,7.012,3.09c-0.106-3.788-1.379-7.353-2.25-10.552
					c-4.836-1.028-6.832-3.381-6.832-3.381c1.772,0.843,4.617,0.927,6.172,0.678c-2.65-6.607-7.747-11.437-11.072-12.425
					c0,0-3.264,3.222-1.498,16.276C56.749,176.606,66.177,188.268,77.613,190.902z"/>
			</g>
		</g>
	</g>
	<g id="Palm_23_">
		<g id="XMLID_550_">
			<g>
				<g>
					<path id="XMLID_561_" style="fill:#EBEBEB;" d="M452.31,162.017c2.046-1.09,1.208-1.18,3.989-2.296
						c4.218-1.693,10.689-0.884,15.845,1.483c9.081,4.169,16.847,11.397,18.66,21.492c-3.027-4.261-7.62-6.171-12.57-7.171
						c-0.818-2.3-1.635-4.586-2.553-6.848c-0.452,1.991-0.873,3.981-1.236,5.991c-2.345-0.369-4.356-1.465-6.4-2.624
						c-0.788-2.795-1.753-5.521-2.803-8.228c0.067,2.228,0.12,4.452,0.106,6.681C460.744,168.161,456.135,165.55,452.31,162.017z"/>
				</g>
				<g style="opacity:0.15;">
					<path id="XMLID_560_" style="fill:#EBEBEB;" d="M452.31,162.017c2.046-1.09,1.208-1.18,3.989-2.296
						c4.218-1.693,10.689-0.884,15.845,1.483c9.081,4.169,16.847,11.397,18.66,21.492c-3.027-4.261-7.62-6.171-12.57-7.171
						c-0.818-2.3-1.635-4.586-2.553-6.848c-0.452,1.991-0.873,3.981-1.236,5.991c-2.345-0.369-4.356-1.465-6.4-2.624
						c-0.788-2.795-1.753-5.521-2.803-8.228c0.067,2.228,0.12,4.452,0.106,6.681C460.744,168.161,456.135,165.55,452.31,162.017z"/>
				</g>
				<path id="XMLID_559_" style="fill:#EBEBEB;" d="M453.516,163.111c0.002,0,1.653-2.73-1.235-8.738
					c-4.531-9.426-13.393-14.43-18.286-15.936c-4.893-1.506-12.463-2.152-16.928,0.098c0,0,5.554,0.771,11.17,5.536
					c0,0,5.109-1.101,10.204-0.052c0,0-5.897,1.375-7.401,2.48c0,0,2.107,3.8,7.177,6.27c0,0,4.996-2.989,9.112-1.646
					c0,0-4.207,0.185-6.946,3.317C440.383,154.438,446.418,159.522,453.516,163.111z"/>
				<path id="XMLID_558_" style="opacity:0.2;fill:#EBEBEB;" d="M453.516,163.111c0.002,0,1.653-2.73-1.235-8.738
					c-4.531-9.426-13.393-14.43-18.286-15.936c-4.893-1.506-12.463-2.152-16.928,0.098c0,0,5.554,0.771,11.17,5.536
					c0,0,5.109-1.101,10.204-0.052c0,0-5.897,1.375-7.401,2.48c0,0,2.107,3.8,7.177,6.27c0,0,4.996-2.989,9.112-1.646
					c0,0-4.207,0.185-6.946,3.317C440.383,154.438,446.418,159.522,453.516,163.111z"/>
				<path id="XMLID_557_" style="fill:#EBEBEB;" d="M453.516,163.111c0,0-5.847-6.559-16.057-8.263
					c-13.339-2.225-22.522,1.779-26.877,6.471c0,0,6.842-2.692,14.689,1.844l6.265-3.964l-2.273,5.769
					c1.695,0.872,4.157,1.296,7.186,1.39l6.725-5.755l-3.343,5.815C439.831,166.42,448.045,166.869,453.516,163.111z"/>
				<path id="XMLID_556_" style="opacity:0.05;fill:#EBEBEB;" d="M453.516,163.111c0,0-5.847-6.559-16.057-8.263
					c-13.339-2.225-22.522,1.779-26.877,6.471c0,0,6.842-2.692,14.689,1.844l6.265-3.964l-2.273,5.769
					c1.695,0.872,4.157,1.296,7.186,1.39l6.725-5.755l-3.343,5.815C439.831,166.42,448.045,166.869,453.516,163.111z"/>
				<path id="XMLID_552_" style="fill:#EBEBEB;" d="M453.516,163.111c0.001-0.002,2.514-0.061,6.543,3.257
					c6.844,5.637,10.403,16.372,10.615,21.411c0.212,5.04-1.065,12.415-4.326,16.108c0,0,0.654-5.486-2.482-12.03
					c0,0,2.327-4.593,2.601-9.711c0,0-2.785,5.276-4.214,6.433c0,0-3.095-2.958-4.18-8.407c0,0,4.098-4.013,3.848-8.272
					c0,0-1.228,3.963-4.897,5.79C457.022,177.69,455.161,170.772,453.516,163.111z"/>
				<path id="XMLID_551_" style="opacity:0.05;fill:#EBEBEB;" d="M453.516,163.111c0.001-0.002,2.514-0.061,6.543,3.257
					c6.844,5.637,10.403,16.372,10.615,21.411c0.212,5.04-1.065,12.415-4.326,16.108c0,0,0.654-5.486-2.482-12.03
					c0,0,2.327-4.593,2.601-9.711c0,0-2.785,5.276-4.214,6.433c0,0-3.095-2.958-4.18-8.407c0,0,4.098-4.013,3.848-8.272
					c0,0-1.228,3.963-4.897,5.79C457.022,177.69,455.161,170.772,453.516,163.111z"/>
				<path style="fill:#EBEBEB;" d="M433.067,196.126c0,0,3.732-3.149,5.315-7.398c0.439-1.18,0.835-2.451,1.215-3.773
					c5.197-1.641,6.511-4.584,6.511-4.584c-1.547,1.459-4.409,2.081-5.8,1.851c0.403-2.983,1.708-5.693,2.666-8.147
					c3.907-0.405,5.682-2.096,5.682-2.096c-1.471,0.517-3.726,0.344-4.933,0.016c2.65-4.996,7.083-8.383,9.793-8.884
					c0,0,2.307,2.82-0.186,12.984C450.753,186.589,442.324,195.008,433.067,196.126z"/>
			</g>
		</g>
	</g>
</g>
<g id="Sun_and_Clouds">
	<circle id="Sun_4_" style="fill:#FFBDA7;" cx="64.874" cy="57.906" r="23.96"/>
	<path id="Cloud_11_" style="fill:#F5F5F5;" d="M403.817,31.362c-0.009-3.135-3.438-5.313-7.328-5.68
		c-4.584-0.432-7.836,1.611-7.945,5.221c-2.998-1.231-6.158-0.441-5.921,2.854c-0.78-0.899-3.697-0.874-4.744-0.623
		c-1.107,0.265-2.228,1.262-2.611,2.225c-0.31,0.779-0.326,1.14-0.272,1.687c-1.748-0.572-5.722-0.923-6.716,0.68
		c-1.769,2.854,5.299,2.943,6.725,2.08c0.302,2.22,7.898,2.585,9.737,0.536c1.437,1.447,3.5,1.767,5.728,1.899
		c3.758,0.224,6.063-1.049,8.994-2.547c3.187,2.702,8.702,2.752,11.574-0.34c0.733,0.691,2.751,0.906,4.368,0.519
		c1.062-0.253,1.307-0.706,1.307-0.706c0.569,0.263,1.246,0.438,1.95,0.586c2.084,0.437,5.961-0.024,4.334-1.901
		c-0.554-0.639-2.582-1.044-3.442-0.846c-0.909-1.788-4.558-3.482-6.651-1.97c-0.081-2.166-2.061-3.86-4.848-4.29
		C407.124,30.603,404.882,30.477,403.817,31.362z"/>
	<path id="Cloud_10_" style="fill:#F5F5F5;" d="M480.134,66.744c-0.943-0.427-2.066-0.467-2.877-0.531
		c-0.931-0.074-1.226-0.258-1.406-0.46c-2.265-3.241-6.009-3.365-8.244-2.436c-0.548-2.23-3.246-4.166-6.216-3.514
		c0.102-2.898-3.598-6.012-6.923-6.719c-3.188-0.679-5.968-0.394-7.787,1.703c-1.947-3.803-9.581-4.874-13.712-2.862
		c-2.376,1.157-4.391,2.344-5.376,4.521c-0.65,1.437-0.883,2.394-0.895,4.328c-1.61-1.419-4.833-1.803-6.984-0.971
		c-2.318,0.897-2.494,2.644-2.609,4.421c-2.273-0.573-3.793-0.202-4.22-0.076c-1.461,0.433-2.302,1.579-2.102,2.506
		c-1.155-0.064-3.908,0.87-3.592,2.09c0.355,1.369,3.499,1.231,4.673,1.188c0.972-0.036,2.231-0.296,3.287-0.516
		c0.321,0.159,1.173,0.328,1.71,0.325c2.002-0.014,2.849-0.872,3.171-1.617c0.977,2.057,4.454,3.624,6.912,4.254
		c4.629,1.185,11.178,0.463,14.028-2.997c0.299,0.622,0.799,1.202,1.379,1.68c1.131,0.932,2.658,1.583,4.282,1.735
		c1.901,0.178,7.002,0.422,8.439-2.601c1.018,2.01,5.559,2.925,9.012,2.434c1.292-0.183,2.742-0.632,3.867-1.167
		c0.907-0.432,1.423-0.853,2.223-1.333c0.681-0.408,0.988-0.404,1.895-0.13c2.37,0.715,5.121,1.007,7.54-0.008
		C481.542,69.18,481.945,67.564,480.134,66.744z"/>
</g>
<g id="Plants">
	<g id="Plants_1_">
		<g>
			<path style="fill:#BA68C8;" d="M122.324,396.995c-0.88-4.767-9.099-12.381-27.999-18.07
				c-16.961-5.105-19.796-12.176-12.158-18.423c7.638-6.247,23.057-2.093,32.193,7.445c11.034,11.521,11.549,26.407,11.549,26.407
				L122.324,396.995"/>
			<path style="opacity:0.35;fill:#FFFFFF;" d="M122.324,396.995c-0.88-4.767-9.099-12.381-27.999-18.07
				c-16.961-5.105-19.796-12.176-12.158-18.423c7.638-6.247,23.057-2.093,32.193,7.445c11.034,11.521,11.549,26.407,11.549,26.407
				L122.324,396.995"/>
			<path style="fill:none;stroke:#FFFFFF;stroke-linecap:round;stroke-linejoin:round;stroke-miterlimit:10;" d="M86.828,364.552
				c12.309,0,35.242,7.768,38.122,30.149"/>
		</g>
		<g>
			<path style="fill:#BA68C8;" d="M98.942,359.865c-6.643-4.156-17.883-9.309-23.916-14.31c-3.961-3.283-6.201-10.148-1.563-14.805
				c2.288-2.238,4.826-3.796,8.021-3.981c21.757-1.236,40.249,17.404,45.924,38.402c2.592,9.59,3.701,21.921,1.787,27.053
				l-5.143,3.499C121.735,376.515,110.131,366.866,98.942,359.865z"/>
			<path style="opacity:0.15;fill:#FFFFFF;" d="M98.942,359.865c-6.643-4.156-17.883-9.309-23.916-14.31
				c-3.961-3.283-6.201-10.148-1.563-14.805c2.288-2.238,4.826-3.796,8.021-3.981c21.757-1.236,40.249,17.404,45.924,38.402
				c2.592,9.59,3.701,21.921,1.787,27.053l-5.143,3.499C121.735,376.515,110.131,366.866,98.942,359.865z"/>
			<path style="fill:none;stroke:#FFFFFF;stroke-linecap:round;stroke-linejoin:round;stroke-miterlimit:10;" d="M83.14,334.76
				c19.442,5.71,41.81,23.281,44.267,56.471"/>
		</g>
	</g>
</g>
<g id="Shadows">
	<ellipse id="Shadow_21_" style="fill:#E0E0E0;" cx="174.161" cy="406.388" rx="84.003" ry="48.499"/>
	<path id="Shadow_7_" style="fill:#E0E0E0;" d="M404.432,397.066c-0.862-0.842-1.919-1.505-3.107-2.023
		c-3.704-1.618-8.682-1.837-13.006-1.72c-5.531,0.15-8.115-0.322-13.027-2.101c-2.486-0.9-4.988-1.469-7.708-1.928
		c-5.829-0.984-8.9,0.088-11.079,1.889c-2.594-7.561-8.959-14.777-19.109-20.637c-27.268-15.743-71.479-15.743-98.747,0
		c-27.268,15.743-27.269,41.268,0,57.012c27.227,15.719,71.342,15.741,98.62,0.069c0.248,0.216,0.495,0.431,0.756,0.655
		c2.13,1.825,6.139,4.177,9.599,4.85c5.376,1.045,9.164,0.495,12.421-0.392c3.688-1.005,5.689-3.121,8.347-5.646
		c1.086-1.032,2.315-2.277,3.764-2.785c1.325-0.464,3.048-0.287,4.463-0.389c3.759-0.272,7.555-0.165,11.284-0.776
		c5.859-0.96,10.948-4.236,10.506-8.085c-0.289-2.522-2.76-5.078,0.47-6.886c2.397-1.342,6.181-1.751,7.547-4.428
		C407.602,401.443,406.056,398.651,404.432,397.066z"/>
</g>
<g id="Character">
	<g id="Character_7_">
		<g id="Bottom_7_">
			<g>
				<path style="fill:#FFA8A7;" d="M211.628,372.605c-2.114-2.682-4.163-5.61-4.302-11.562c-0.194-8.328-1.718-67.954-2.47-81.065
					c-1.127-19.664-5.444-50.836-9.301-77.645c-1.475-10.254-4.281-21.677-6.16-28.526l-49.913-1.457
					c-6.717,10.207-20.389,27.613-19.464,53.366c1.457,40.554,4.518,66.845,4.518,66.845c-1.607,4.478-3.628,13.958-2.685,34.953
					c0.729,16.243,2.288,40.881,1.994,49.189c-0.096,2.728-1.404,21.159-0.731,26.828c1.012,8.517,12.314,8.047,13.162,3.042
					c0.849-5.005,3.815-26.746,3.987-28.965c0.35-6.523,12.493-64.385,15.99-82.183c3.174-16.158,5.39-46.972,5.39-46.972
					l11.785,38.012c0,0-1.26,11.828,1.47,25.564c2.129,10.712,13.684,52.608,14.442,57.68c0,0,8.29,6.325,12.987,10.443
					c1.856,1.627,7.247,6.425,12.804,9.737c3.479,2.074,12.197,1.186,13.272-1.07C222.69,383.77,216.056,378.222,211.628,372.605z"
					/>
				<path id="XMLID_656_" style="fill:#F28F8F;" d="M161.644,248.454l3.919-32.424c0,0,17.011-2.664,23.002-8.865
					c0,0-7.424,11.347-18.95,13.581l-3.99,23.913l7.74,41.469L161.644,248.454z"/>
			</g>
			<g>
				<g>
					<path style="fill:#263238;" d="M236.871,397.214c0.31,0.022,0.532,3.472-1.257,4.803c-2.064,1.536-7.967,3.877-15.433,2.359
						c-7.467-1.518-11.38-4.143-14.214-6.885c-2.834-2.741-6.805-6.606-10.16-7.604c-3.117-0.926-6.452-2.609-7.396-3.661
						c-0.943-1.052-0.489-5.394-0.489-5.394L236.871,397.214z"/>
					<path id="XMLID_662_" style="fill:#37474F;" d="M188.779,367.056c0,0-0.719,0.255-0.668,1.283
						c0.081,1.606,0.858,3.126,0.406,5.871c-0.46,2.792-0.815,5.871-0.561,8.131c0.255,2.26,5.306,4.181,8.515,5.675
						c3.277,1.526,6.985,4.452,10.203,7.52c3.331,3.175,10.571,6.642,15.478,7.068c7.491,0.65,12.495-1.034,14.188-3.621
						c2.096-3.201,2.181-6.817-6.149-11.432c-1.577-0.873-7.063-4.678-8.927-6.048c-5.045-3.706-9.946-8.713-11.953-14.774
						c-0.234-0.708-0.478-1.492-1.109-1.889c-0.484-0.305-1.094-0.31-1.665-0.272c-1.45,0.098-5.537,1.63-6.89,2.159
						c-1.196,0.468-2.663,1.343-2.744,2.826c-0.029,0.516,0.106,1.108,0.386,2.226c0.078,0.311,0.385,1.696,0.107,1.856
						c-0.262,0.151-0.61-1.118-0.798-1.355c-0.897-1.128-1.177-1.802-2.376-2.142c-1.128-0.32-4.319-0.602-5.11-1.861
						L188.779,367.056z"/>
					<path style="fill:#FAFAFA;" d="M231.533,388.309c-10.911-0.034-16.215,8.004-16.975,12.12c2.621,1.147,5.35,1.981,7.593,2.175
						c7.491,0.65,12.803-1.009,14.496-3.596C238.625,395.988,239.02,391.785,231.533,388.309z"/>
					<g>
						<g>
							<path style="fill:#F0F0F0;" d="M213.848,388.827c-0.118-0.008-0.234-0.056-0.327-0.144c-0.213-0.201-0.222-0.538-0.021-0.751
								c1.645-1.742,7.581-5.457,11.497-4.743c0.29,0.052,0.482,0.33,0.429,0.618c-0.052,0.288-0.322,0.48-0.618,0.428
								c-3.655-0.656-9.231,3.046-10.535,4.428C214.16,388.783,214.003,388.838,213.848,388.827z"/>
						</g>
						<g>
							<path style="fill:#F0F0F0;" d="M209.369,385.766c-0.118-0.008-0.234-0.056-0.327-0.144c-0.214-0.201-0.222-0.538-0.021-0.752
								c1.646-1.743,7.585-5.465,11.497-4.743c0.29,0.052,0.482,0.33,0.428,0.618c-0.052,0.288-0.317,0.481-0.618,0.428
								c-3.655-0.66-9.231,3.046-10.535,4.428C209.68,385.721,209.523,385.777,209.369,385.766z"/>
						</g>
						<g>
							<path style="fill:#F0F0F0;" d="M205.261,382.342c-0.118-0.009-0.234-0.056-0.327-0.144c-0.214-0.201-0.222-0.538-0.021-0.751
								c1.645-1.743,7.6-5.459,11.497-4.743c0.29,0.052,0.482,0.33,0.428,0.618c-0.052,0.288-0.318,0.479-0.618,0.428
								c-3.65-0.657-9.23,3.046-10.535,4.428C205.572,382.297,205.415,382.353,205.261,382.342z"/>
						</g>
						<g>
							<path style="fill:#F0F0F0;" d="M201.24,378.924c-0.115-0.008-0.229-0.054-0.321-0.139c-0.217-0.198-0.231-0.535-0.033-0.751
								c2.268-2.476,8.494-5.447,12.404-4.732c0.29,0.052,0.482,0.33,0.428,0.618c-0.052,0.288-0.319,0.473-0.618,0.428
								c-3.521-0.641-9.418,2.209-11.432,4.404C201.556,378.878,201.396,378.935,201.24,378.924z"/>
						</g>
					</g>
				</g>
			</g>
			<g>
				<g>
					<path style="fill:#263238;" d="M140.649,410.342c-0.104,4.961-0.816,9.056-2.882,11.583c-2.149,2.629-5.274,3.637-8.661,2.912
						c-3.388-0.725-7.77-2.838-8.891-7.072c-1.121-4.235-1.035-7.169-0.444-11.788L140.649,410.342z"/>
					<path id="XMLID_658_" style="fill:#37474F;" d="M123.898,374.931c-1.379,0.16-1.539,6.822-2.089,13.507
						c-0.589,7.165-1.373,10.231-1.919,16.108c-0.624,6.715-0.162,9.687,2.33,13.641c2.491,3.954,10.928,7.608,14.797,1.67
						c3.154-4.842,4.369-10.041,3.817-16.702c-0.571-6.886-0.271-11.68-0.184-16.925c0.083-5.013,1.004-10.1-0.219-10.612
						c-0.065,0.738-0.12,1.674-0.191,2.399c-0.055,0.556-0.092,3.27-0.866,3.325c-0.095-0.636-0.104-1.232-0.085-1.885
						c0.016-0.567-0.055-1.182-0.439-1.599c-0.387-0.421-0.996-0.538-1.56-0.628c-1.371-0.219-5.53-0.27-6.917-0.343
						c-0.691-0.036-2.62-0.08-3.311-0.046c-0.56,0.028-1.219,0.099-1.743,0.315c-0.322,0.133-0.615,0.376-0.723,0.707
						c-0.08,0.244-0.054,0.509-0.044,0.766c0.017,0.462-0.024,0.926-0.122,1.378c-0.043,0.199-0.17,0.445-0.37,0.404
						c-0.162-0.033-0.233-0.23-0.24-0.396c-0.035-0.806,0.045-1.397,0.048-2.336c0.001-0.434,0.05-1.028,0.04-1.463
						C123.898,375.788,123.885,375.36,123.898,374.931z"/>
					<path style="fill:#FAFAFA;" d="M119.652,408.433c-0.084,4.158,0.258,6.991,2.209,10.086c2.491,3.954,11.596,7.597,15.465,1.658
						c1.926-2.955,3.174-6.355,3.324-9.838C138.035,405.97,123.372,404.493,119.652,408.433z"/>
					<g>
						<g>
							<path style="fill:#F0F0F0;" d="M137.273,403.218c-0.058-0.004-0.115-0.017-0.172-0.041c-0.057-0.024-8.306-2.533-14.48-0.86
								c-0.273,0.069-0.554-0.088-0.63-0.362c-0.074-0.273,0.089-0.556,0.362-0.63c6.53-1.765,14.908,0.804,15.156,0.909
								c0.26,0.114,0.379,0.416,0.267,0.676C137.689,403.114,137.483,403.231,137.273,403.218z"/>
						</g>
						<g>
							<path style="fill:#F0F0F0;" d="M122.771,397.324c-0.194-0.012-0.374-0.135-0.448-0.329c-0.1-0.266,0.032-0.562,0.296-0.663
								c6.121-2.33,14.871,0.667,15.135,0.793c0.257,0.121,0.365,0.427,0.241,0.683c-0.123,0.255-0.433,0.358-0.683,0.242
								c-0.059-0.028-8.631-2.934-14.326-0.759C122.916,397.319,122.844,397.328,122.771,397.324z"/>
						</g>
						<g>
							<path style="fill:#F0F0F0;" d="M122.952,392.614c-0.191-0.012-0.367-0.132-0.444-0.32c-0.106-0.265,0.022-0.563,0.285-0.668
								c6.727-2.696,15.139,0.606,15.386,0.745c0.247,0.138,0.337,0.451,0.198,0.698c-0.138,0.248-0.457,0.338-0.698,0.198
								c-0.055-0.032-8.242-3.196-14.503-0.689C123.102,392.608,123.026,392.619,122.952,392.614z"/>
						</g>
						<g>
							<path style="fill:#EBEBEB;" d="M123.176,387.323c-0.188-0.012-0.363-0.128-0.441-0.314c-0.109-0.262,0.013-0.562,0.275-0.671
								c6.3-2.63,15.214,0.74,15.483,0.884c0.251,0.13,0.346,0.442,0.214,0.693c-0.131,0.251-0.44,0.351-0.693,0.214
								c-0.063-0.032-8.758-3.288-14.608-0.845C123.331,387.315,123.253,387.328,123.176,387.323z"/>
						</g>
					</g>
				</g>
			</g>
		</g>
		<g id="Top_4_">
			<path id="Hair_3_" style="fill:#263238;" d="M154.102,53.242c-5.473-7.559-18.262-3.77-23.023,2.601
				c-2.403,3.215-1.868,7.466-4.685,10.292c-2.486,2.494-6.07,3.742-8.129,6.693c-3.676,5.269,0.743,9.527,1.721,14.62
				c0.676,3.524-2.326,5.513-3.646,8.41c-1.734,3.807-0.895,7.98,1.713,11.101c2.328,2.786,7.028,3.414,8.244,6.99
				c0.589,1.732,0.47,3.46,1.661,4.977c1.22,1.554,2.923,2.846,4.643,3.779c3.629,1.967,8.142,1.555,12.126,1.128
				c2.281-0.245,4.7-0.819,6.697-1.983c1.006-0.586,1.832-1.291,2.455-2.279c0.806-1.279,1.279-1.65,2.465-2.705
				c2.209-1.966,2.666-4.123,2.799-6.953c0.216-4.606-0.179-8.572,2.426-12.679c2.613-4.12,6.489-7.199,5.736-12.562
				c-0.644-4.584-3.704-7.85-7.128-10.664c-1.798-1.477-3.728-2.872-5.033-4.836c-1.301-1.959-1.745-4.461-2.16-6.742
				c-0.372-2.047-0.606-4.121-0.733-6.197C152.222,55.726,154.406,53.661,154.102,53.242z"/>
			<path id="Arm_4_" style="fill:#FFA8A7;" d="M244.935,178.398c-7.826,0-20.148,0.679-30.589-0.709
				c-3.652-0.486-6.941-1.357-11.846-6.766c-4.904-5.408-13.935-16.942-13.935-16.942l-9.718-38.484
				c10.452,0,12.289,2.134,23.27,17.423c11.651,16.221,17.204,23.636,17.204,23.636s27.251,4.302,35.058,5.053
				c7.154,0.688,8.341-1.344,14.839-2.766c4.471-0.979,7.91-0.632,10.55-0.806c3.156-0.209,2.311,2.393,0.235,3.704
				c-2.026,1.28-7.018,1.589-7.928,3.156c-0.91,1.567,8.046,1.15,12.657,0.283c5.304-0.997,7.633-0.781,8.446,0.975
				c0.154,0.332-0.153,0.853-1.817,2.121c0.39,0.832,0.354,2.507-1.133,3.314c-0.378,2.614-0.734,5.113-5.416,7.271
				c-8.033,3.702-14.372,2.751-22.429,0.932C254.325,177.973,252.761,178.398,244.935,178.398z"/>
			<g>
				<path style="fill:#BA68C8;" d="M122.397,199.54c4.979-13.814,10.736-22.474,10.934-26.88c0,0-4.175-25.361-4.667-30.592
					c-1.28-13.614,1.256-19.954,4.012-21.357c1.595-0.812,8.104-2.619,10.185-3.176c9.448-2.531,22.934-2.657,31.692-2.389
					c3.282,0.223,4.294,0.351,4.294,0.351c2.975,2.334,7.856,6.418,11.641,10.951c6.836,8.187,8.934,13.655,7.693,21.947
					c-0.841,5.617-4.761,9.71-4.761,9.71c-0.6,4.012-1.65,15.399-1.65,15.399c0.035,4.473,0.786,10.643,2.88,21.46
					c0,0,6.459,31.213,8.794,53.645c-18.791,15.777-66.911,18.915-84.259,11.502C116.657,222.627,117.418,213.354,122.397,199.54z"
					/>
				<path style="opacity:0.2;fill:#FFFFFF;" d="M122.397,199.54c4.979-13.814,10.736-22.474,10.934-26.88
					c0,0-4.175-25.361-4.667-30.592c-1.28-13.614,1.256-19.954,4.012-21.357c1.595-0.812,8.104-2.619,10.185-3.176
					c9.448-2.531,22.934-2.657,31.692-2.389c3.282,0.223,4.294,0.351,4.294,0.351c2.975,2.334,7.856,6.418,11.641,10.951
					c6.836,8.187,8.934,13.655,7.693,21.947c-0.841,5.617-4.761,9.71-4.761,9.71c-0.6,4.012-1.65,15.399-1.65,15.399
					c0.035,4.473,0.786,10.643,2.88,21.46c0,0,6.459,31.213,8.794,53.645c-18.791,15.777-66.911,18.915-84.259,11.502
					C116.657,222.627,117.418,213.354,122.397,199.54z"/>
				<g>
					<path style="fill:#FAFAFA;" d="M176.958,143.604c-0.017,1.082-0.907,1.945-1.988,1.928c-1.081-0.017-1.945-0.907-1.928-1.989
						s0.907-1.945,1.988-1.928S176.975,142.523,176.958,143.604z"/>
					<path style="fill:#FAFAFA;" d="M178.724,156.046c-0.017,1.082-0.907,1.945-1.989,1.928c-1.082-0.017-1.945-0.907-1.928-1.989
						c0.017-1.081,0.907-1.945,1.989-1.928C177.877,154.074,178.74,154.964,178.724,156.046z"/>
					<path style="fill:#FAFAFA;" d="M178.523,168.995c-0.017,1.081-0.907,1.945-1.989,1.928c-1.081-0.017-1.945-0.907-1.928-1.989
						c0.017-1.081,0.907-1.945,1.989-1.928C177.676,167.023,178.54,167.914,178.523,168.995z"/>
					<path style="fill:#FAFAFA;" d="M177.647,186.945c-0.017,1.081-0.907,1.945-1.989,1.928c-1.081-0.017-1.945-0.907-1.928-1.988
						c0.017-1.081,0.907-1.945,1.989-1.928C176.8,184.973,177.663,185.863,177.647,186.945z"/>
					<path style="fill:#FAFAFA;" d="M178.191,201.348c-0.017,1.081-0.907,1.945-1.989,1.928c-1.081-0.017-1.944-0.907-1.928-1.988
						c0.017-1.081,0.907-1.945,1.988-1.928C177.344,199.376,178.208,200.267,178.191,201.348z"/>
					<path style="fill:#FAFAFA;" d="M179.182,214.22c-0.017,1.081-0.907,1.945-1.989,1.928s-1.945-0.907-1.928-1.988
						c0.017-1.081,0.907-1.945,1.989-1.928C178.336,212.249,179.199,213.139,179.182,214.22z"/>
					<path style="fill:#FAFAFA;" d="M180.935,227.488c-0.017,1.081-0.907,1.945-1.988,1.928c-1.081-0.017-1.945-0.907-1.928-1.989
						c0.017-1.082,0.907-1.945,1.988-1.928C180.089,225.516,180.952,226.407,180.935,227.488z"/>
					<path style="fill:#FAFAFA;" d="M182.66,242.578c-0.017,1.082-0.907,1.945-1.989,1.928c-1.082-0.017-1.945-0.907-1.928-1.989
						s0.907-1.945,1.989-1.928C181.813,240.607,182.676,241.497,182.66,242.578z"/>
				</g>
				<path style="opacity:0.2;" d="M185.1,226.899c-1.144-9.877-2.411-19.752-3.331-29.638c-0.913-9.88-0.597-19.833-0.055-29.753
					c0.131-2.478,0.281-4.973,0.289-7.468c0.013-2.495-0.09-4.991-0.329-7.474c-0.253-2.481-0.636-4.953-1.242-7.373
					c-0.597-2.418-1.407-4.799-2.606-6.983c1.115,2.227,1.843,4.617,2.381,7.036c0.539,2.421,0.854,4.887,1.041,7.358
					c0.193,2.471,0.259,4.952,0.205,7.43c-0.048,2.479-0.237,4.949-0.408,7.434c-0.679,9.923-0.991,19.919-0.142,29.87
					c0.469,4.964,1.073,9.899,1.665,14.839c0.604,4.938,1.202,9.876,1.871,14.805c1.303,9.862,2.656,19.718,4.128,29.557
					L185.1,226.899z"/>
				<path style="fill:#37474F;" d="M133.331,172.66c8.53,4.592,44.289,8.722,58.438,0.844l0.205,4.118c0,0-5.777,5.161-29.439,5.096
					c-23.662-0.065-29.937-6.582-29.937-6.582L133.331,172.66z"/>
			</g>
			<g>
				<g id="Head_4_">
					<path style="fill:#BA68C8;" d="M139.533,62.06c-3.298-3.249,3.713-9.387,8.546-9.664c4.8-0.276,4.271,3.639,4.271,3.639
						L139.533,62.06z"/>
					<path style="fill:#263238;" d="M180.626,61.618c-2.455-3.072-4.99-3.47-6.839-3.25c-2.676-3.073-11.395-5.547-15.345-5.461
						c-15.258,0.333-19.394,8.5-19.929,11.458c-7.207,1.719-14.149,14.918-5.218,28.353c3.869,5.82,11.575,12.342,12.537,15.818
						l8.495-2.262c0,0-0.532-10.387,9.36-15.712c9.771-5.259,15.223-8.448,16.529-10.743
						C185.72,72.671,183.53,65.253,180.626,61.618z"/>
					<g>
						<g id="XMLID_516_">
							<g id="XMLID_547_">
								<path id="XMLID_548_" style="fill:#FFA8A7;" d="M179.38,72.412c0.383,1.623,1.779,8.059,2.098,14.896
									c0.657,14.049-3.111,16.704-6.045,18.59c-1.835,1.18-3.521,1.718-7.911,1.981l0.484,7.276c0,0,19.588,20.635,9.82,23.055
									c-12.501,3.096-21.196-5.559-25.46-11.311c-3.335-4.499-5.305-8.126-5.305-8.126l-1.571-17.843c0,0-3.502,3.446-8.185-0.306
									c-3.633-2.91-4.831-9.429-1.913-12.363c2.901-2.918,6.8-2.457,9.22,1.827c1.721,3.046,3.864,0.279,2.908-3.127
									c-0.953-3.394,1.637-4.002,2.362-6.017c2.036-5.653-0.758-7.704,3.339-12.283c2.272-2.54,8.778-3.524,13.386,0.468
									C167.956,63.158,177.017,62.393,179.38,72.412z"/>
							</g>
							<g>
								<g id="XMLID_536_">
									<path id="XMLID_537_" style="fill:#B16668;" d="M161.589,94.666l7.537,1.692c-0.381,2.193-2.374,3.598-4.455,3.136
										C162.586,99.031,161.204,96.868,161.589,94.666z"/>
								</g>
								<path style="fill:#F28F8F;" d="M161.94,97.254c0.524,1.11,1.506,1.968,2.731,2.24c0.811,0.18,1.605,0.07,2.299-0.253
									c-0.35-1.637-1.81-2.787-3.464-2.611C162.925,96.692,162.386,96.925,161.94,97.254z"/>
							</g>
							<path style="fill:#263238;" d="M161.147,82.788c0.009,1.153-0.886,2.094-2.001,2.101c-1.117,0.007-2.031-0.925-2.04-2.081
								c-0.009-1.156,0.889-2.097,2.006-2.101C160.227,80.703,161.137,81.635,161.147,82.788z"/>
							<path style="fill:#263238;" d="M176.199,81.122c0.009,1.144-0.871,2.076-1.968,2.082c-1.098,0.006-1.996-0.918-2.005-2.065
								c-0.009-1.147,0.875-2.079,1.973-2.082C175.295,79.054,176.19,79.979,176.199,81.122z"/>
							<g id="XMLID_529_">
								<path id="XMLID_535_" style="fill:#263238;" d="M159.097,76.836l-4.655,2.754c-0.724-1.39-0.265-3.135,1.023-3.895
									C156.752,74.937,158.378,75.449,159.097,76.836z"/>
								<path id="XMLID_534_" style="fill:#263238;" d="M176.805,77.126l-4.975-1.982c0.468-1.465,1.963-2.204,3.336-1.654
									C176.538,74.038,177.271,75.665,176.805,77.126z"/>
								<polygon id="XMLID_533_" style="fill:#F28F8F;" points="165.514,79.417 167.497,92.297 174.161,89.35 								"/>
							</g>
							<g id="XMLID_526_">
								<path id="XMLID_528_" style="fill:#F28F8F;" d="M167.523,107.879c-4.95,0.047-9.597-0.989-13.167-2.801
									c-2.677-1.359-4.844-4.622-5.982-6.725c0.232,0.493,0.401,6.065,5.328,9.129c5.453,3.391,14.004,3.147,14.004,3.147
									L167.523,107.879z"/>
							</g>
						</g>
					</g>
				</g>
			</g>
			<g id="Arm_6_">
				<g>
					<path style="fill:#FFA8A7;" d="M171.242,115.739c-0.84-1.407-2.839-1.105-2.839-1.105s0.07-2.176-1.515-3.309
						c-0.821-0.58-2.47-0.171-2.47-0.171c0.229-1.203-0.993-3.515-2.4-3.506c-1.407,0.009-3.788,1.08-3.788,1.08
						s-0.983,0.773-2.579,4.081l0.691-5.294c0,0,1.502-2.038,2.483-3.551c2.13-3.284,0.728-5.075-0.097-5.003
						c-0.388,0.034-1.486,1.171-3.841,3.325c-2.415,2.208-3.053,2.703-3.492,4.281c-0.439,1.579-0.894,3.46-1.716,7.044
						c-0.821,3.584-1.025,4.654-0.395,6.437c0.63,1.783,1.616,5.353,3.108,9.875c0.908,2.752,0.05,4.794-1.363,7.85
						c-0.959,2.073-2.924,6.382-7.248,13.975l-1.57-5.245c-0.159-8.937-4.851-22.741-9.537-25.793
						c-7.527,2.103-12.572,7.29-13.433,12.818c-1.968,12.633,4.818,27.368,9.609,38.82c5.275,12.61,10.862,16.624,15.054,16.523
						c4.192-0.102,8.104-3.17,13.064-14.313c4.119-10.44,7.883-29.222,8.947-32.622c1.063-3.4,1.617-5.667,2.852-7.787
						c1.014-1.74,0.851-7.47,0.096-10.715c0.534,0.962,1.79,1.525,2.508,0.68C171.217,122.462,171.646,116.812,171.242,115.739z"/>
					<path style="fill:#B16668;" d="M165.915,141.938c0.472-1.525,0.896-3.065,1.407-4.58c0.257-0.756,0.541-1.505,0.886-2.228
						c0.166-0.363,0.366-0.714,0.552-1.065c0.183-0.348,0.287-0.734,0.371-1.121c0.306-1.56,0.312-3.169,0.243-4.757
						c-0.071-1.59-0.245-3.182-0.592-4.732c-0.01-0.045,0.018-0.09,0.063-0.1c0.037-0.008,0.073,0.009,0.091,0.04
						c0.241,0.424,0.624,0.779,1.077,0.952c0.448,0.184,0.989,0.096,1.29-0.289l-0.021,0.066c-0.083-1.412-0.002-2.806,0.016-4.205
						l0.021-2.095c-0.016-0.689-0.004-1.415-0.175-2.048l0.008,0.017c-0.267-0.438-0.7-0.754-1.192-0.913
						c-0.491-0.156-1.031-0.196-1.541-0.138c-0.062,0.007-0.118-0.037-0.125-0.099l-0.001-0.013
						c-0.015-1.011-0.328-2.076-1.027-2.817c-0.348-0.384-0.772-0.641-1.293-0.663c-0.504-0.046-1.03,0.011-1.526,0.122
						c-0.066,0.015-0.132-0.027-0.147-0.093c-0.003-0.015-0.003-0.033-0.001-0.047c0.097-0.662-0.153-1.371-0.489-1.97
						c-0.34-0.595-0.84-1.165-1.482-1.34c-0.641-0.119-1.374,0.102-2.043,0.286c-0.679,0.207-1.35,0.46-2,0.745l0.028-0.017
						c-0.27,0.246-0.523,0.578-0.751,0.898c-0.23,0.326-0.447,0.663-0.651,1.009c-0.411,0.689-0.78,1.405-1.13,2.13
						c-0.035,0.072-0.121,0.103-0.194,0.068c-0.058-0.028-0.089-0.089-0.081-0.149l0.691-5.294c0.003-0.024,0.014-0.049,0.027-0.067
						l1.908-2.718c0.659-0.892,1.255-1.826,1.539-2.877c0.136-0.521,0.191-1.067,0.088-1.585c-0.105-0.499-0.408-1.024-0.875-1.147
						c-0.213-0.073-0.407,0.124-0.632,0.283c-0.213,0.169-0.419,0.353-0.625,0.537l-1.222,1.126l-2.454,2.249
						c-0.799,0.755-1.681,1.476-2.147,2.457c-0.236,0.486-0.353,1.029-0.485,1.568l-0.396,1.615l-0.793,3.229
						c-0.268,1.075-0.527,2.154-0.758,3.237c-0.217,1.08-0.462,2.178-0.337,3.267c0.051,0.546,0.232,1.064,0.401,1.592l0.497,1.588
						l0.99,3.178l0.982,3.18c0.302,1.064,0.731,2.104,0.854,3.219c0.242,2.268-0.82,4.362-1.732,6.348
						c0.893-1.996,1.927-4.101,1.663-6.34c-0.132-1.098-0.57-2.131-0.884-3.193l-1.015-3.168l-1.008-3.17l-0.502-1.586
						c-0.171-0.526-0.36-1.063-0.415-1.627c-0.133-1.13,0.115-2.24,0.327-3.325c0.228-1.088,0.483-2.167,0.748-3.245l0.782-3.236
						l0.391-1.618c0.13-0.536,0.244-1.088,0.492-1.605c0.497-1.047,1.394-1.774,2.188-2.534l2.445-2.256l1.221-1.133
						c0.207-0.186,0.415-0.372,0.635-0.549c0.112-0.087,0.222-0.175,0.355-0.251c0.122-0.09,0.335-0.124,0.486-0.084
						c0.643,0.179,0.948,0.791,1.077,1.341c0.116,0.573,0.056,1.158-0.085,1.707c-0.293,1.105-0.914,2.076-1.565,2.964l-1.906,2.735
						l0.027-0.067l-0.691,5.294l-0.274-0.082c0.356-0.729,0.73-1.451,1.15-2.148c0.208-0.35,0.43-0.692,0.667-1.025
						c0.244-0.333,0.479-0.654,0.808-0.952c0.007-0.006,0.02-0.014,0.029-0.017c0.666-0.289,1.341-0.541,2.036-0.75
						c0.699-0.181,1.399-0.421,2.182-0.282c0.763,0.217,1.274,0.839,1.636,1.466c0.35,0.641,0.621,1.365,0.509,2.139l-0.148-0.14
						c0.529-0.116,1.063-0.172,1.608-0.122c0.27,0.028,0.546,0.087,0.799,0.219c0.254,0.144,0.446,0.324,0.638,0.521
						c0.748,0.808,1.065,1.908,1.078,2.982l-0.126-0.112c0.555-0.062,1.109-0.018,1.64,0.152c0.529,0.171,1.012,0.523,1.303,1.009
						l0.004,0.006l0.005,0.011c0.192,0.722,0.163,1.417,0.181,2.12l-0.028,2.101c-0.024,1.397-0.108,2.802-0.031,4.184
						c0.001,0.025-0.007,0.048-0.021,0.066c-0.344,0.444-1,0.546-1.487,0.335c-0.499-0.193-0.903-0.574-1.162-1.032l0.154-0.059
						c0.345,1.568,0.513,3.165,0.579,4.764c0.053,1.597,0.03,3.21-0.295,4.785c-0.089,0.391-0.198,0.782-0.392,1.141
						c-0.191,0.352-0.391,0.694-0.561,1.055c-0.351,0.715-0.642,1.459-0.907,2.212C166.843,138.881,166.404,140.418,165.915,141.938
						z"/>
					<g>
						<path style="fill:#B16668;" d="M164.545,111.251c0.058-0.305,0.025-0.778-0.083-1.17c-1.052,0.563-2.598,1.059-3.452,1.609
							c-1.145,0.738-1.375,1.98-1.375,1.98C160.004,113.042,161.237,112.005,164.545,111.251z"/>
						<path style="fill:#B16668;" d="M164.677,116.557c0.66-0.665,2.18-1.582,3.844-1.825c0,0,0.007-0.538-0.117-1.116
							C165.301,114.839,164.677,116.557,164.677,116.557z"/>
						<path style="fill:#B16668;" d="M168.97,124.388c-0.363-1.993-0.813-3.587-1.182-4.414c-0.366-0.82-0.526-1.283,0.47-1.394
							c0.996-0.11,2.073-1.593,2.011-0.71c-0.033,0.462-1.597,1.594-1.552,2.241C168.782,121.057,169.104,122.473,168.97,124.388z"
							/>
					</g>
					<path style="fill:#F28F8F;" d="M143.781,151.749c-6.466,7.946-9.166,13.513-8.608,19.893
						c-0.945-1.982-0.809-7.015,0.577-10.354c2.629-6.331,7.516-11.256,7.516-11.256L143.781,151.749z"/>
				</g>
				<g>
					<path style="fill:#BA68C8;" d="M156.004,99.762c-0.2,0.566-0.019,1.116,0.704,1.383c0.609,0.224,1.247,0.114,1.482,0.831
						c0.131,0.401-0.231,0.875,0.033,1.281c0.161,0.302,0.626,0.403,0.583,0.84c-0.093,0.961-0.167,2.726,1.475,2.294
						c0.925-0.512,0.248-1.57,0.592-2.597c0.477-1.423,1.507-2.821,0.746-4.43c-0.681-1.441-2.83-2.613-4.106-1.185
						C157.088,98.807,156.258,99.043,156.004,99.762z"/>
					<path style="opacity:0.1;" d="M156.004,99.762c-0.2,0.566-0.019,1.116,0.704,1.383c0.609,0.224,1.247,0.114,1.482,0.831
						c0.131,0.401-0.231,0.875,0.033,1.281c0.161,0.302,0.626,0.403,0.583,0.84c-0.093,0.961-0.167,2.726,1.475,2.294
						c0.925-0.512,0.248-1.57,0.592-2.597c0.477-1.423,1.507-2.821,0.746-4.43c-0.681-1.441-2.83-2.613-4.106-1.185
						C157.088,98.807,156.258,99.043,156.004,99.762z"/>
					<path style="opacity:0.2;" d="M160.282,106.391c0.402-0.222,0.496-0.551,0.508-0.933c-0.349,0.852-1.194,0.532-1.148-0.333
						c0.026-0.497,0.323-1.256,0.037-1.663c-0.198-0.282-0.623-0.372-0.748-0.693c-0.154-0.396,0.26-0.789,0.286-1.214
						c0.027-0.449-0.384-0.803-0.796-0.985c-0.423-0.187-0.888-0.277-1.35-0.26c-0.256,0.009-0.517,0.05-0.766-0.011
						c-0.137-0.034-0.267-0.113-0.359-0.218c-0.04,0.445,0.177,0.849,0.762,1.064c0.609,0.224,1.247,0.114,1.482,0.831
						c0.131,0.401-0.231,0.875,0.034,1.281c0.161,0.302,0.626,0.403,0.583,0.84C158.714,105.058,158.639,106.823,160.282,106.391z"
						/>
					<g>
						<path style="fill:#BA68C8;" d="M160.673,100.838c0.268,0.774,0.918,0.096,0.884-0.657c-0.029-0.653-0.545-1.436-1.221-1.575
							c-0.618,0.022-0.167,0.722-0.022,1.006C160.586,100.14,160.535,100.437,160.673,100.838z"/>
						<path style="fill:#BA68C8;" d="M160.653,101.818c0.047,0.366,0.619,0.43,0.671-0.048
							C161.382,101.242,160.664,101.386,160.653,101.818z"/>
					</g>
				</g>
			</g>
			<g>
				<path style="fill:#F28F8F;" d="M165.54,97.124c-1.786-1.272-4.32-0.477-4.469,1.897c-0.005,1.713,1.29,1.939,2.562,1.623
					c0.584-0.145,1.48-1.023,1.948-1.066c1.042-0.095,1.489-0.331,1.901-0.618C167.518,98.463,167.112,97.328,165.54,97.124z"/>
				<path style="fill:#B16668;" d="M166.606,96.869c-0.265-0.326-0.831-0.265-1.204-0.22c-0.453,0.055-0.905,0.161-1.32,0.356
					c-0.757,0.356-1.32,0.983-1.682,1.727c-0.008,0.017-0.001,0.06,0.022,0.031c0.446-0.573,1.049-1.074,1.733-1.33
					c0.398-0.149,0.835-0.279,1.258-0.271c0.331,0.006,0.593,0.037,0.799,0.127c0.219,0.096,0.206-0.063,0.364-0.129
					C166.685,97.113,166.666,96.943,166.606,96.869z"/>
			</g>
		</g>
	</g>
</g>
<g id="Speech_Bubble">
	<g id="Speech_Bubble_3_">
		<g id="Speech_Bubble_7_">
			<path style="fill:#455A64;" d="M225.84,49.134c-6.483-7.27-17.674-7.911-24.944-1.428c-6.523,5.817-7.703,15.419-3.195,22.583
				l-2.499,4.885c-0.427,0.834,0.396,1.757,1.274,1.428l5.139-1.926c6.603,5.295,16.276,5.217,22.799-0.599
				C231.683,67.595,232.324,56.405,225.84,49.134z M223.494,73.048c-3.206,2.859-7.238,4.208-11.229,4.113l-1.858-0.152
				c-3.694-0.513-7.235-2.283-9.907-5.28c-5.976-6.701-5.385-17.015,1.316-22.991c2.997-2.672,6.717-4.027,10.445-4.115l1.863,0.061
				c3.975,0.361,7.827,2.161,10.686,5.367C230.788,56.756,230.198,67.071,223.494,73.048z"/>
		</g>
		<path id="Heart_2_" style="fill:#BA68C8;" d="M212.685,70.984c-11.492-6.122-12.418-12.69-9.077-15.902
			c2.993-2.877,8.469-0.98,9.077,3.132c0.609-4.112,6.084-6.01,9.077-3.132C225.103,58.293,224.176,64.862,212.685,70.984z"/>
	</g>
</g>
<g id="Ice_Cream_1_">
	<g id="Ice_Cream">
		<g>
			<g>
				<g>
					<path style="fill:#FFBDA7;" d="M304.001,195.304l-78.89-15.128l-0.033,0.182c-4.871,25.875,30.529,220.786,30.529,220.786
						c0.689,3.783,3.625,6.938,7.628,7.702c4.003,0.764,7.892-1.088,9.926-4.35l0.003,0.001c0,0,104.743-168.23,109.828-194.18l0,0
						L304.001,195.304z"/>
					<path style="fill:#F0997A;" d="M357.626,217.671c-23.311,37.534-90.37,71.031-119.818,78.304l-1.686-10.827
						C236.123,285.148,308.152,270.087,357.626,217.671z"/>
					<path style="fill:#FFBDA7;" d="M357.626,217.671c-23.122,37.228-89.281,70.485-119.091,78.121
						c-2.574,0.659-4.192,3.198-3.651,5.799l20.722,99.553L357.626,217.671z"/>
					<path style="fill:#F0997A;" d="M353.713,238.172c-34.226,11.913-84.21,2.371-111.641-21.313
						c-27.43-23.684-21.921-52.543,12.305-64.456c34.227-11.914,84.211-2.372,111.641,21.313
						C393.449,197.4,387.94,226.259,353.713,238.172z"/>
					<path style="opacity:0.2;" d="M349.702,233.023c-31.119,10.085-76.789,1.367-102.005-19.473
						c-25.216-20.84-20.429-45.911,10.69-55.996c31.12-10.086,76.79-1.368,102.005,19.473
						C385.609,197.867,380.823,222.938,349.702,233.023z"/>
					<path style="opacity:0.2;" d="M355.422,203.063c-25.215-20.841-70.884-29.559-102.005-19.473
						c-8.795,2.85-15.483,6.899-19.989,11.71c2.416,6.132,7.143,12.36,14.27,18.25c25.217,20.84,70.886,29.559,102.005,19.473
						c8.796-2.85,15.484-6.899,19.99-11.71C367.275,215.181,362.549,208.953,355.422,203.063z"/>
				</g>
				<g>
					<path style="fill:#F0997A;" d="M363.018,246.161l-5.116,2.646l-2.559,1.334l-2.607,1.234c-3.72,1.87-7.534,3.508-11.404,5.097
						c-1.474,0.605-0.786,2.81,0.775,2.49c4.183-0.857,8.314-2.005,12.317-3.508l2.823-0.967c0.931-0.347,1.83-0.766,2.747-1.147
						c1.206-0.511,2.402-1.046,3.601-1.576c1.593-2.937,3.106-5.767,4.549-8.502C366.436,244.225,364.716,245.171,363.018,246.161z"
						/>
					<path style="fill:#F0997A;" d="M260.856,284.104c-6.347-4.098-12.518-8.202-18.539-12.507c-3.146-2.22-6.218-4.522-9.26-6.858
						c0.348,2.381,0.701,4.775,1.06,7.182c1.912,1.202,3.846,2.367,5.824,3.456C246.579,279.011,253.522,282.172,260.856,284.104z"
						/>
					<path style="fill:#F0997A;" d="M286.564,382.307l-2.232,0.359c-1.478-1.566-2.942-3.145-4.381-4.744
						c-2.643-2.79-5.018-5.802-7.545-8.698l-3.563-4.525l-1.792-2.262l-1.703-2.328c-2.642-3.436-5.056-7.019-7.437-10.668
						c-0.827-1.267-2.796-0.249-2.226,1.152c1.676,4.125,3.649,8.138,5.976,11.943l1.482,2.59c0.517,0.849,1.098,1.653,1.644,2.482
						c1.106,1.65,2.232,3.289,3.378,4.914c2.447,3.126,4.857,6.299,7.571,9.202c0.614,0.681,1.258,1.333,1.885,2.001
						c-3.333,0.451-6.686,0.802-10.069,1.15c-1.081,0.111-1.105,1.691-0.026,1.822c4.501,0.545,9.055,0.786,13.598,0.625
						c0.548,0.541,1.11,1.066,1.667,1.597c1.265-2.056,2.642-4.298,4.102-6.679L286.564,382.307z"/>
					<path style="fill:#F0997A;" d="M301.395,306.439c1.07,1.416,2.153,2.824,3.258,4.216c2.49,2.866,4.958,5.767,7.681,8.417
						c2.381,2.397,4.867,4.684,7.431,6.877c2.334-2.641,1.261-1.427,3.595-4.068c-2.371-2.239-4.707-4.509-7.003-6.815
						c-2.654-2.548-5.086-5.299-7.65-7.939l-1.636-1.844c0.246-0.064,0.491-0.129,0.738-0.189c1.926-0.485,3.849-0.993,5.765-1.524
						c3.768-1.251,7.567-2.451,11.215-4.027c3.551-1.459,7.038-3.074,10.443-4.84c0.88,0.828,1.791,1.623,2.694,2.426
						c0.943-1.618,1.882-3.233,2.815-4.844c-0.149-0.124-0.302-0.244-0.451-0.368c0.342-0.199,0.678-0.408,1.018-0.61
						c1.517-2.619,3.019-5.224,4.503-7.807c-0.737,0.384-1.471,0.777-2.21,1.156c-2.491,1.269-5,2.487-7.518,3.679
						c-1.879-1.632-3.742-3.284-5.563-4.99c-2.764-2.418-5.364-5.005-8.048-7.549c-1.406-1.217-6.745-7.972-8.022-7.767
						c-0.655,0.885,4.797,8.064,5.914,9.569c2.235,3.006,4.427,6.085,6.971,8.855c1.219,1.429,2.481,2.82,3.78,4.177
						c-2.812,1.265-5.637,2.496-8.485,3.664c-3.518,1.548-7.154,2.769-10.732,4.172l-5.461,1.83l-2.734,0.925l-0.198,0.059
						l-0.301-0.336l-1.758-2.129c-4.185-4.745-7.893-9.842-11.803-14.953c-0.342-0.447-1.043-0.047-0.833,0.476
						c2.406,5.994,5.403,11.799,9.075,17.147l0.806,1.22c-5.26,1.574-10.61,2.803-16.039,4.092
						c-0.694,0.165-0.589,1.194,0.124,1.206C288.996,308.106,295.267,307.661,301.395,306.439z"/>
					<path style="fill:#F0997A;" d="M250.296,249.581c1.376,0.908,2.763,1.8,4.171,2.654c3.575,2.125,7.257,4.108,11.066,5.788
						c1.43,0.631,2.542-1.313,1.266-2.217c-3.38-2.395-6.687-4.845-9.944-7.359c0.024-1.315,0.033-1.847,0.057-3.162
						c1.546-1.085,3.059-2.213,4.533-3.391c0.911-0.728-0.01-2.151-1.056-1.637c-2.89,1.419-5.781,2.797-8.682,4.134
						c-3.962-3.17-7.848-6.417-11.599-9.82c-4.318-3.914-8.587-7.896-12.698-12.058c0.324,2.777,0.672,5.642,1.04,8.581
						c2.517,2.676,5.155,5.242,7.875,7.71c3.163,2.876,6.518,5.532,9.991,8.022c0,0.002,0,0.001,0,0.003
						c-4.941,2.169-9.928,4.182-14.957,6.056c0.263,1.871,0.531,3.759,0.803,5.658c5.487-2.167,10.827-4.69,15.914-7.655
						C248.819,250.462,249.558,250.023,250.296,249.581z"/>
					<path style="fill:#F0997A;" d="M301.827,352.627c-2.349-2.214-4.646-4.471-6.912-6.754l1.335-0.157
						c0.983-0.143,1.951-0.363,2.928-0.541c1.951-0.371,3.9-0.766,5.845-1.184c2.039-0.547,4.086-1.083,6.118-1.665
						c1.467-2.439,2.952-4.915,4.45-7.416c-0.013-0.016-0.002-0.003-0.016-0.019c-3.905,1.529-7.943,2.607-11.926,3.906
						l-5.559,1.507l-2.783,0.763l-2.809,0.656c-0.714-0.214-1.54-0.46-2.254-0.674c-1.539-1.623-3.062-3.259-4.556-4.918
						c-2.643-2.79-5.018-5.802-7.545-8.698l-3.563-4.525l-1.792-2.262l-1.703-2.328c-3.387-4.405-9.09-12.798-12.141-17.516
						c-0.56-0.866-1.904-0.201-1.552,0.769c1.938,5.348,7.029,14.305,10.006,19.174l1.482,2.59c0.517,0.848,1.098,1.653,1.644,2.482
						c1.106,1.65,2.232,3.289,3.378,4.914c2.447,3.126,4.857,6.299,7.571,9.202c1.075,1.193,2.186,2.352,3.302,3.505
						c-3.377,0.666-6.781,1.252-10.216,1.856c-0.791,0.139-0.74,1.303,0.06,1.359c4.446,0.31,8.932,0.336,13.392-0.007
						c3.47,3.338,7.106,6.497,10.96,9.371c0.892,0.674,1.795,1.334,2.704,1.985c0.706-1.165,1.421-2.345,2.142-3.537
						C303.154,353.851,302.485,353.244,301.827,352.627z"/>
				</g>
				<path style="opacity:0.2;fill:#FFFFFF;" d="M306.975,263.875l-0.006-0.006c-25.033,15.929-52.152,27.752-68.434,31.922
					c-2.574,0.659-4.192,3.198-3.651,5.799l13.812,66.358l0,0c-5.156-24.773-8.062-61.653-5.211-65.385
					C246.336,298.831,283.074,284.195,306.975,263.875z"/>
			</g>
			<g>
				<path style="fill:#BA68C8;" d="M386.921,214.571c-2.669-4.946-3.739-8.584-2.836-12.452l0,0
					c0.465-1.771,0.747-3.594,1.095-5.419c8.261-43.272-20.121-85.047-63.393-93.308c-43.272-8.261-85.047,20.121-93.308,63.393
					c-0.34,1.781-0.598,3.558-0.816,5.331c-1.087,4.67-2.867,5.691-6.225,8.916c-2.176,2.089-4.82,4.292-6.254,6.946
					c-3.253,6.021-0.523,10.046,2.99,13.312c3.512,3.267,6.8,2.531,8.508,7.013c0.773,2.028,0.879,4.248,1.491,6.33
					c1.112,3.786,3.975,7.019,7.599,8.58c6.081,2.619,13.477,0.565,19.428,3.468c6.916,3.373,9.658,12.318,16.491,15.857
					c6.873,3.56,15.604,0.52,22.766,3.455c5.852,2.398,9.924,8.511,16.139,9.677c8.559,1.606,17.179-6.945,25.331-3.882
					c3.792,1.425,5.581,4.917,5.835,8.777c0.175,2.665-0.326,5.323-0.824,7.947c-0.2,1.055-0.328,2.113-0.539,3.178
					c-0.197,0.991-0.369,1.988-0.492,2.991c-0.249,2.017-0.301,4.072,0.04,6.082c0.632,3.731,2.875,7.402,6.412,8.747
					c2.737,1.04,6.016,0.495,8.269-1.375c3.13-2.598,3.929-7.044,4.079-11.109c0.239-6.458-0.626-12.941-0.028-19.376
					c0.279-3.002,0.925-5.993,2.076-8.786c0.971-2.357,2.319-4.578,4.113-6.401c0.449-0.456,0.98-0.845,1.404-1.323
					c0.299-0.337,0.48-0.75,0.763-1.098c0.475-0.584,1.126-1.041,1.72-1.489c1.279-0.965,2.643-1.808,4.023-2.619
					c2.765-1.625,5.284-3.627,8.073-5.246c2.492-1.447,4.446-3.196,5.42-5.396C388.651,219.92,388.168,216.882,386.921,214.571z"/>
				<path style="opacity:0.2;" d="M386.921,214.571c-2.669-4.946-3.739-8.584-2.836-12.452l0,0c0.465-1.771,0.747-3.594,1.095-5.419
					c8.261-43.272-20.121-85.047-63.393-93.308c-43.272-8.261-85.047,20.121-93.308,63.393c-0.34,1.781-0.598,3.558-0.816,5.331
					c-1.087,4.67-2.867,5.691-6.225,8.916c-2.176,2.089-4.82,4.292-6.254,6.946c-3.253,6.021-0.523,10.046,2.99,13.312
					c3.512,3.267,6.8,2.531,8.508,7.013c0.773,2.028,0.879,4.248,1.491,6.33c1.112,3.786,3.975,7.019,7.599,8.58
					c6.081,2.619,13.477,0.565,19.428,3.468c6.916,3.373,9.658,12.318,16.491,15.857c6.873,3.56,15.604,0.52,22.766,3.455
					c5.852,2.398,9.924,8.511,16.139,9.677c8.559,1.606,17.179-6.945,25.331-3.882c3.792,1.425,5.581,4.917,5.835,8.777
					c0.175,2.665-0.326,5.323-0.824,7.947c-0.2,1.055-0.328,2.113-0.539,3.178c-0.197,0.991-0.369,1.988-0.492,2.991
					c-0.249,2.017-0.301,4.072,0.04,6.082c0.632,3.731,2.875,7.402,6.412,8.747c2.737,1.04,6.016,0.495,8.269-1.375
					c3.13-2.598,3.929-7.044,4.079-11.109c0.239-6.458-0.626-12.941-0.028-19.376c0.279-3.002,0.925-5.993,2.076-8.786
					c0.971-2.357,2.319-4.578,4.113-6.401c0.449-0.456,0.98-0.845,1.404-1.323c0.299-0.337,0.48-0.75,0.763-1.098
					c0.475-0.584,1.126-1.041,1.72-1.489c1.279-0.965,2.643-1.808,4.023-2.619c2.765-1.625,5.284-3.627,8.073-5.246
					c2.492-1.447,4.446-3.196,5.42-5.396C388.651,219.92,388.168,216.882,386.921,214.571z"/>
				<path style="opacity:0.1;" d="M317.45,198.873c-2.007-1.191-4.592-1.422-6.233-3.081c-3.176-3.21-0.432-8.676,2.885-11.739
					c3.317-3.063,7.557-6.354,7.217-10.857c-0.137-1.806-1.042-3.463-2.071-4.954c-2.073-3.002-4.875-5.675-8.369-6.722
					c-3.495-1.046-7.732-0.113-9.838,2.865c-2.737,3.871-1.172,9.583-3.746,13.565c-3.643,5.636-12.193,3.977-18.449,1.55
					c-0.688-0.267-1.401-0.552-1.901-1.096c-0.84-0.914-0.86-2.298-0.741-3.534c0.451-4.662,2.223-9.189,5.056-12.919
					c2.495-3.282,5.958-6.354,6.139-10.473c0.282-6.436-7.358-10.046-13.741-10.917c-6.383-0.871-13.93-1.358-17.358-6.813
					c-3.154-5.02-0.854-11.367,3.091-16.118c-15.555,11.503-26.998,28.652-30.912,49.154c-0.34,1.781-0.598,3.558-0.816,5.331
					c-1.087,4.67-2.867,5.691-6.225,8.916c-2.175,2.089-4.82,4.292-6.254,6.946c-3.253,6.021-0.523,10.046,2.99,13.312
					c3.513,3.267,6.8,2.531,8.508,7.013c0.773,2.028,0.88,4.247,1.491,6.33c1.112,3.786,3.975,7.019,7.599,8.58
					c3.503,1.509,7.442,1.469,11.29,1.717c-0.221-1.025-0.588-2.023-1.154-2.955c-1.117-1.84-2.814-3.306-3.739-5.25
					c-0.925-1.944-0.693-4.761,1.267-5.652c0.948-0.431,2.044-0.297,3.075-0.155c6.914,0.954,9.481,6.804,19.364,5.74
					c-2.121-4.928-2.416-14.569,1.955-17.68c2.331-1.659,5.481-1.427,8.299-0.935c6.647,1.161,13.108,3.38,19.065,6.548
					c7.613,4.05,16.653,9.742,24.023,5.265C321.994,206.666,321.086,201.03,317.45,198.873z"/>
				<g style="opacity:0.2;">
					<path d="M275.551,243.881c-2.667-3.123-4.517-6.995-6.48-10.657c-2.58-4.812-5.855-9.731-10.946-11.707
						c-3.375-1.31-7.11-1.144-10.714-1.479c-3.604-0.335-7.475-1.392-9.594-4.327c-2.052-2.841-1.941-6.702-3.398-9.89
						c-2.368-5.182-8.305-7.61-13.822-9.028c-1.469-0.378-2.987-0.736-4.225-1.611c-1.248-0.881-2.054-2.205-2.477-3.677
						c-0.77,4.141,1.505,7.201,4.282,9.784c3.512,3.267,6.8,2.531,8.508,7.013c0.773,2.028,0.879,4.248,1.491,6.33
						c1.112,3.786,3.975,7.019,7.599,8.58c6.081,2.619,13.477,0.565,19.428,3.468c6.916,3.373,9.658,12.318,16.491,15.857
						C272.924,243.175,274.218,243.595,275.551,243.881z"/>
					<path d="M353.015,289.154c-3.924-0.64-7.57-3.318-8.441-7.16c-0.403-1.776-0.212-3.636,0.179-5.414
						c0.954-4.338,3.083-8.422,3.407-12.852c0.229-3.124-0.46-6.242-1.329-9.251c-0.985-3.409-2.344-6.941-5.165-9.093
						c-4.015-3.063-9.689-2.417-14.564-1.103c-4.875,1.314-9.916,3.166-14.839,2.041c-2.454-0.561-4.678-1.831-7.034-2.717
						c-1.897-0.714-3.892-1.162-5.91-1.351c-3.634-0.34-7.346,0.159-10.759,1.455c-0.589,0.224-1.375,0.494-2.1,0.861
						c2.76,0.101,5.476,0.389,7.996,1.422c5.852,2.398,9.924,8.511,16.139,9.677c8.559,1.606,17.179-6.945,25.331-3.882
						c3.792,1.425,5.581,4.917,5.835,8.777c0.175,2.665-0.326,5.323-0.824,7.947c-0.2,1.055-0.328,2.113-0.539,3.178
						c-0.197,0.991-0.369,1.988-0.492,2.991c-0.249,2.017-0.301,4.072,0.04,6.082c0.632,3.731,2.875,7.402,6.412,8.747
						C348.498,290.322,350.962,290.154,353.015,289.154z"/>
					<path d="M386.272,225.291c0.375-0.847,0.656-1.617,0.897-2.354c-2.241,1.021-5.031,1.17-7.546,1.585
						c-6.412,1.058-12.339,4.793-16.062,10.12c-3.629,5.194-5.097,11.832-4.047,18.079c0.325-1.314,0.725-2.608,1.241-3.859
						c0.971-2.357,2.319-4.578,4.113-6.401c0.449-0.456,0.98-0.845,1.404-1.323c0.299-0.337,0.48-0.75,0.763-1.098
						c0.475-0.584,1.126-1.041,1.72-1.489c1.279-0.965,2.643-1.808,4.023-2.619c2.765-1.625,5.284-3.627,8.073-5.246
						C383.343,229.241,385.298,227.491,386.272,225.291z"/>
				</g>
				<path style="opacity:0.1;" d="M236.823,191.065c2.492,3.532,2.407,8.64,5.579,11.576c3.215,2.976,8.636,2.583,11.672,5.742
					c0.901,0.938,1.509,2.116,2.332,3.123c3.58,4.377,10.18,4.576,14.975,7.573c4.571,2.857,7.297,8.148,12.064,10.666
					c3.191,1.685,6.852,1.873,10.386,1.693c3.676-0.187,7.346-0.748,11.035-0.547c0.578,0.031,1.156,0.13,1.733,0.138
					c0.195,0.003,0.389,0.016,0.582,0.038c0.386,0.045,0.768,0.127,1.141,0.238c0.755,0.224,1.473,0.563,2.155,0.954
					c0.164,0.094,0.326,0.191,0.486,0.29c1.379,0.856,2.654,1.884,4.095,2.629c1.57,0.812,3.305,1.268,5.055,1.517
					c0.425,0.061,0.859,0.109,1.28,0.031c0.257-0.048,0.515-0.149,0.684-0.349c0.313-0.37,0.205-0.96-0.103-1.334
					c-0.308-0.374-0.765-0.585-1.2-0.798c-0.321-0.157-0.69-0.29-0.954-0.54c-0.107-0.101-0.208-0.176-0.34-0.244
					c-0.304-0.157-0.602-0.324-0.89-0.508c-0.578-0.367-1.121-0.785-1.643-1.228c-1.059-0.899-2.027-1.896-3.051-2.833
					c-0.775-0.709-1.583-1.387-2.474-1.947c-1.012-0.636-2.117-1.113-3.243-1.513c-5.622-2-11.703-2.138-17.653-2.592
					c-0.793-0.061-1.597-0.132-2.356-0.383c-0.318-0.105-0.612-0.267-0.944-0.327c-0.279-0.051-0.524-0.118-0.781-0.244
					c-1.385-0.68-2.629-1.617-3.785-2.632c-0.272-0.238-0.539-0.482-0.803-0.728c-2.143-1.998-4.142-4.22-6.697-5.654
					c-2.244-1.259-4.792-1.84-7.223-2.684c-2.431-0.843-4.875-2.048-6.351-4.155c-0.746-1.064-1.202-2.299-1.836-3.434
					c-1.335-2.39-3.486-4.314-6.008-5.377c-1.44-0.606-3.001-0.943-4.346-1.739c-2.77-1.64-4.095-4.852-5.738-7.621
					c-1.081-1.822-2.367-3.522-3.824-5.059c-0.601-0.635-1.178-1.128-1.962-1.509c-0.334-0.162-0.642-0.349-0.928-0.588
					c-0.506-0.423-0.951-0.919-1.422-1.379c-0.655-0.64-1.45-1.29-1.724-2.201c-0.252-0.836-0.64-1.638-0.917-2.47
					c-0.589-1.764-0.999-3.586-1.223-5.432c-0.073-0.605-0.308-1.387-0.917-1.383c-0.431,0.003-0.724,0.433-0.887,0.832
					c-0.668,1.636-0.474,3.475-0.446,5.242c0.028,1.767-0.194,3.703-1.45,4.947c-0.327,0.324-0.714,0.588-1.005,0.944
					c-0.71,0.868-0.717,2.168-0.227,3.177c0.4,0.824,1.131,1.591,1.934,2.037c0.318,0.177,0.682,0.207,1.001,0.382
					c0.432,0.237,0.835,0.548,1.249,0.814c1.634,1.05,3.321,2.068,4.71,3.442C236.061,190.093,236.467,190.561,236.823,191.065z"/>
				<path style="opacity:0.1;" d="M378.154,212.506c-1.402,2.756-4.659,3.948-7.665,4.673s-6.271,1.339-8.41,3.571
					c-3,3.132-2.924,8.616-6.491,11.083c-0.951,0.658-2.07,1.014-3.214,1.138c-0.635,0.069-1.277,0.07-1.914,0.027
					c-0.271-0.018-0.637-0.127-0.896-0.037c-0.284,0.099-0.595,0.052-0.816-0.168c-0.208-0.207-0.283-0.538-0.184-0.814
					c0.074-0.207,0.232-0.373,0.398-0.518c0.664-0.58,1.502-0.919,2.229-1.418c1.08-0.74,1.894-1.818,2.496-2.981
					c0.602-1.163,1.005-2.416,1.396-3.665c0.01-0.03,0.019-0.061,0.029-0.091c0.237-0.757,0.472-1.516,0.702-2.275
					c0.041-0.136,0.108-0.241,0.174-0.369c0.185-0.357,0.372-0.712,0.565-1.064c0.395-0.723,0.812-1.434,1.273-2.117
					c0.889-1.316,1.955-2.522,3.272-3.421c2.073-1.415,4.652-1.998,6.612-3.566c2.192-1.753,3.309-4.477,4.65-6.944
					c1.38-2.538,4.897-7.233,8.309-5.061c1.09,0.693,0.901,1.707,0.401,2.732c-0.662,1.358-1.529,2.602-1.89,4.092
					C378.6,207.712,379.329,210.196,378.154,212.506z"/>
				<path style="opacity:0.5;fill:#BA68C8;" d="M335.433,117.541c-0.064,0.682-0.127,1.38,0.011,2.057
					c0.178,0.876,0.555,1.437,1.29,1.916c0.877,0.571,1.626,1.612,2.766,1.571c0.795-0.029,1.48-0.58,1.966-1.209
					c0.486-0.629,0.836-1.357,1.342-1.97c1.148-1.393,3.267-2.047,4.853-1.185c0.751,0.408,1.31,1.09,1.974,1.628
					c0.826,0.67,1.849,1.151,2.42,2.048c0.366,0.576,0.488,1.292,0.372,1.962c-0.057,0.326-0.166,0.703-0.369,0.971
					c-0.658,0.87-1.44,1.493-2.503,1.827c-1.263,0.398-2.777,0.804-3.219,2.052c-0.887,2.499,3.526,5.309,1.709,7.241
					c-1.673,1.779-5.881-1.131-6.659,1.184c-0.109,0.323-0.089,0.676-0.032,1.013c0.199,1.165,0.879,2.421,2.136,2.632
					c0.635,0.106,1.302,0.05,1.907,0.272c1.107,0.406,1.815,1.673,2.985,1.821c0.922,0.116,1.782-0.54,2.296-1.314
					c1.592-2.404,0.899-6.008,2.994-7.989c1.026-0.969,2.532-1.298,3.937-1.171c1.205,0.109,2.356,0.518,3.464,0.983
					c0.205,0.086,0.382,0.16,0.536,0.322c0.354,0.373,0.758,0.691,1.113,1.065c1.547,1.628,2.575,3.919,2.115,6.19
					c-0.521,2.576-2.705,4.438-4.791,6.037c-1.733,1.328-3.708,3.344-2.831,5.343c0.549,1.251,2.044,1.812,3.41,1.857
					c2.322,0.077,4.533-0.942,6.833-1.275c2.3-0.333,5.116,0.363,5.901,2.55c0.845,2.354-1.128,4.71-1.668,7.152
					c-0.698,3.154,1.437,6.667,4.558,7.501c0.868,0.232,1.796,0.283,2.601,0.684c1.531,0.763,2.23,2.648,2.105,4.354
					s-0.91,3.284-1.68,4.811c-1.757,3.484-3.691,7.161-7.071,9.112c-1.034,0.597-2.188,1.02-3.071,1.824
					c-3.027,2.755-1.266,8-3.218,11.598c-2.453,4.524-9.147,4.254-13.183,7.446c-2.425,1.917-3.67,4.911-5.258,7.564
					c-1.588,2.652-3.988,5.257-7.077,5.375c-3.782,0.145-6.843-4.462-5.244-7.893c1.091-2.341,3.692-3.642,6.243-4.046
					c1.195-0.189,2.525-0.271,3.379-1.128c0.651-0.652,0.867-1.608,1.055-2.511c1.091-5.235,1.994-11.296-1.424-15.408
					c-1.423-1.712-3.595-3.113-3.799-5.329c-0.261-2.83,2.821-4.719,5.518-5.615c2.697-0.896,5.905-1.924,6.728-4.644
					c1.442-4.764-5.969-8.524-5.187-13.44c0.143-0.901,0.568-1.766,0.514-2.677c-0.099-1.669-1.803-2.846-3.46-3.07
					c-0.538-0.073-1.083-0.074-1.624-0.036c-1.803,0.126-3.547,0.578-5.366,0.548c-0.812-0.013-1.621-0.098-2.432-0.128
					c-0.548-0.02-1.1-0.022-1.645-0.093c-1.114-0.146-1.977-0.744-2.778-1.504c-0.662-0.628-1.295-1.292-1.934-1.945
					c-0.55-0.563-1.103-1.168-1.367-1.924c-0.301-0.86-0.185-1.824,0.157-2.669c0.44-1.087,1.253-2.018,2.271-2.601
					c0.761-0.436,1.671-0.717,2.171-1.438c0.603-0.872,0.304-1.828,0.099-2.766c-0.064-0.292-0.01-0.58-0.052-0.87
					c-0.139-0.963-1.268-1.421-2.079-1.643c-3.508-0.959-7.36-0.603-10.633,0.985c-2.257,1.095-4.214,2.734-6.461,3.848
					c-2.247,1.115-5.022,1.65-7.219,0.438c-1.331-0.734-2.269-2.007-3.447-2.967c-1.128-0.92-2.459-1.537-3.843-1.965
					c-1.983-0.614-4.053-0.864-6.09-1.23c-1.727-0.311-3.881-0.555-5.222-1.786c-1.92-1.761-1.516-5.675,1.013-6.674
					c1.77-0.699,4.578-0.718,4.58-2.621c0-0.602-0.357-1.138-0.703-1.63c-1.384-1.966-2.896-4.184-2.51-6.558
					c0.253-1.555,1.299-2.867,2.465-3.927c3.713-3.375,9.068-4.852,13.986-3.858c2.43,0.491,4.722,1.539,7.156,2.01
					c2.434,0.471,5.21,0.254,7.007-1.454c0.711-0.675,1.227-1.545,1.989-2.161c2.18-1.762,5.386-0.875,8.016,0.092
					c2.19,0.806,4.688,1.947,5.191,4.226C335.578,116.051,335.503,116.795,335.433,117.541z"/>
				<path style="opacity:0.5;fill:#BA68C8;" d="M353.079,286.103c0.537-0.389,0.93-1.014,1.227-1.585
					c2.315-4.46,2.942-9.566,2.042-14.485c-0.062-0.337-0.029-0.753-0.189-1.058c-0.178-0.343-0.593-0.601-0.984-0.546
					c-0.666,0.093-1.133,0.684-1.526,1.229c-0.762,1.056-1.523,2.112-2.285,3.168c-0.492,0.682-0.984,1.364-1.453,2.063
					c-0.337,0.502-0.719,1.013-0.972,1.565c-0.097,0.213-0.124,0.429-0.176,0.653c-0.141,0.607-0.446,1.164-0.582,1.778
					c-0.273,1.234-0.233,2.537,0.108,3.754c0.242,0.863,0.637,1.684,1.177,2.4c0.343,0.454,0.78,0.867,1.315,1.082
					c0.358,0.144,0.785,0.369,1.18,0.365C352.391,286.482,352.76,286.334,353.079,286.103z"/>
				<path style="opacity:0.5;fill:#BA68C8;" d="M352.741,265.867c0.771,0.048,1.525-0.278,2.153-0.728
					c0.937-0.672,1.68-1.712,1.847-2.869c0.149-1.033-0.24-2.27-1.232-2.759c-2.131-1.051-4.036,1.799-4.442,3.495
					c-0.158,0.662-0.27,1.437,0.138,2.032C351.546,265.532,352.149,265.829,352.741,265.867z"/>
			</g>
			<path style="opacity:0.2;" d="M384.085,202.119c0.465-1.771,0.747-3.594,1.095-5.419c0.727-3.806,1.154-7.598,1.328-11.359
				c0.016-0.735,0.037-1.47,0.064-2.204c0.71-38.122-26.065-72.353-64.785-79.745c-23.871-4.557-47.273,2.053-64.858,16.146
				l2.068-0.415c-2.225,2.498-4.976,7.062-6.111,10.209c-1.134,3.147-0.871,7.036,1.527,9.368c1.79,1.742,4.455,2.365,6.21,4.142
				c2.382,2.412,2.576,6.406,5.014,8.761c2.728,2.636,7.721,2.685,9.348,6.112c1.479,3.116-0.838,7.348,1.298,10.057
				c1.148,1.457,3.303,1.974,4.158,3.62c1.093,2.104-0.549,4.506-1.258,6.769c-1.396,4.447,1.57,9.761,6.087,10.909
				c4.517,1.148,9.66-2.105,10.557-6.679c0.564-2.877-0.364-5.845-0.157-8.77c0.207-2.925,2.428-6.204,5.315-5.69
				c2.668,0.475,3.906,3.792,6.433,4.77c2.073,0.802,4.497-0.169,6.596,0.563c2.072,0.723,3.23,2.851,4.575,4.585
				c4.211,5.431,12.018,7.751,18.512,5.501c3.227-1.118,6.328-3.267,9.717-2.844c4.235,0.528,7.342,4.951,11.61,5.031
				c3.996,0.075,7.651-3.758,11.487-2.638c3.178,0.929,4.487,4.837,4.212,8.137c-0.275,3.3-1.613,6.468-1.648,9.779
				c-0.065,6.167,5.09,11.947,11.224,12.585c0.411-1.18,0.749-2.375,1.044-3.578C383.759,207.069,383.497,204.64,384.085,202.119z"
				/>
			<g>
				<path style="fill:#BA68C8;" d="M398.871,161.906c-3.3-8.8-5.268-11.869-1.981-19.307c4.234-11.749,5.377-24.58,3.146-36.879
					c-9.699-63.209-98.077-80.681-131.196-26.043c-4.244,6.634-6.774,15.132-14.427,18.723c-14.787,3.511-14.75,20.276-7.824,31.039
					c4.026-4.269,6.689-7.367,12.409-10.317c-2.798,7.451-4.261,13.039,4.136,17.021c2.977,2.846,3.156,7.651,6.42,10.417
					c6.69,5.669,10.973,1.309,12.042,6.923c-1.345,10.338-1.07,9.014,4.07,17.872c0.888,5.532-2.862,14.317,5.194,15.924
					c14.552,1.07,3.36-19.475,11.475-21.203c1.392-0.08,2.726,0.372,3.888,1.069c2.464,1.274,5.362-0.877,7.687,0.04
					c10.424,4.109,14.841,15.18,26.391,9.446c3.066-1.676,6.604-4.551,10.267-3.315c3.997,1.729,5.122,7.84,10.406,7.561
					c6.696-0.353,8.509-5.836,13.664-3.675c12.087,7.912-4.965,25.318,4.609,35.385c2.913,4.351,12.416,7.492,13.518,0.236
					c0.722-6.069-2.891-11.486-3.241-17.41C386.624,181.099,403.392,173.965,398.871,161.906z"/>
				<path style="opacity:0.1;" d="M335.227,121.838c3.553-1.971,7.961-3.944,8.623-7.952c0.266-1.608-0.172-3.249-0.754-4.772
					c-1.172-3.066-3.051-6.001-5.883-7.66c-2.832-1.66-6.735-1.748-9.211,0.407c-3.218,2.8-3.068,8.127-6.166,11.059
					c-4.386,4.15-11.506,0.877-16.458-2.578c-0.545-0.38-1.107-0.782-1.428-1.363c-0.54-0.978-0.262-2.192,0.106-3.247
					c1.388-3.979,3.902-7.559,7.174-10.215c2.88-2.337,6.563-4.284,7.599-7.846c0.685-2.355-0.048-4.724-1.48-6.641
					c-1.146-1.534-2.856-3.23-4.64-3.964c-1.216-0.5-2.399-1.094-3.611-1.609c-2.431-1.033-4.892-2.048-7.12-3.485
					c-0.466-0.3-0.92-0.618-1.359-0.956c-3.606-2.779-6.153-7.72-4.361-11.905c0.827-1.932,2.524-3.745,2.131-5.797
					c-11.652,5.279-22.028,13.956-29.548,26.364c-4.244,6.634-6.774,15.132-14.428,18.723c-14.787,3.511-14.75,20.276-7.824,31.039
					c4.026-4.269,6.689-7.367,12.409-10.317c-2.798,7.451-4.261,13.039,4.136,17.021c2.429,2.322,2.908,6.074,4.859,8.769
					c0.353-1.099,0.215-2.377-0.134-3.518c-0.662-2.163-2.014-4.116-2.475-6.332c-0.394-1.896,0.409-4.309,2.312-4.67
					c0.921-0.175,1.85,0.176,2.721,0.52c5.84,2.308,6.837,7.969,15.704,9.146c-0.803-4.76,0.994-13.25,5.478-15.038
					c2.391-0.954,5.095-0.079,7.454,0.952c5.563,2.432,10.737,5.749,15.269,9.789c5.792,5.163,12.48,12.067,19.877,9.724
					c3.106-2.197,3.515-7.317,0.796-9.978c-1.501-1.469-3.711-2.222-4.792-4.023C328.111,128.002,331.674,123.808,335.227,121.838z"
					/>
				<path style="opacity:0.1;" d="M266.178,111.492c1.426,3.619,0.262,8.066,2.409,11.309c2.176,3.287,6.999,4.1,8.979,7.508
					c0.588,1.012,0.868,2.172,1.373,3.227c2.196,4.59,7.924,6.17,11.476,9.813c3.387,3.472,4.642,8.678,8.272,11.895
					c2.43,2.154,5.591,3.098,8.718,3.694c3.253,0.62,6.581,0.913,9.763,1.874c0.498,0.151,0.983,0.36,1.485,0.49
					c0.17,0.044,0.337,0.097,0.501,0.157c0.328,0.121,0.644,0.275,0.946,0.451c0.612,0.357,1.167,0.806,1.681,1.293
					c0.123,0.117,0.244,0.236,0.363,0.357c1.023,1.042,1.918,2.213,3.02,3.172c1.2,1.044,2.619,1.813,4.095,2.404
					c0.358,0.143,0.728,0.278,1.113,0.3c0.234,0.013,0.482-0.021,0.672-0.159c0.352-0.257,0.384-0.796,0.194-1.188
					c-0.19-0.392-0.544-0.675-0.879-0.954c-0.247-0.206-0.541-0.401-0.719-0.676c-0.072-0.111-0.144-0.198-0.245-0.286
					c-0.232-0.202-0.457-0.411-0.67-0.633c-0.427-0.444-0.813-0.925-1.174-1.423c-0.734-1.011-1.368-2.09-2.063-3.127
					c-0.526-0.785-1.089-1.55-1.748-2.23c-0.749-0.772-1.613-1.424-2.513-2.014c-4.488-2.947-9.774-4.364-14.879-6.03
					c-0.68-0.222-1.368-0.455-1.978-0.837c-0.255-0.16-0.478-0.364-0.755-0.487c-0.233-0.104-0.433-0.214-0.63-0.38
					c-1.066-0.89-1.954-1.974-2.748-3.107c-0.187-0.266-0.368-0.536-0.547-0.808c-1.447-2.204-2.721-4.572-4.649-6.37
					c-1.693-1.579-3.796-2.63-5.741-3.886c-1.945-1.255-3.824-2.83-4.666-4.986c-0.425-1.089-0.561-2.266-0.873-3.393
					c-0.657-2.374-2.127-4.515-4.106-5.981c-1.13-0.837-2.422-1.464-3.428-2.447c-2.072-2.024-2.545-5.114-3.391-7.885
					c-0.557-1.823-1.318-3.583-2.264-5.238c-0.39-0.683-0.789-1.237-1.393-1.738c-0.257-0.213-0.487-0.442-0.686-0.712
					c-0.352-0.477-0.635-1.006-0.949-1.508c-0.436-0.699-0.992-1.437-1.038-2.292c-0.042-0.785-0.21-1.568-0.275-2.354
					c-0.138-1.667-0.109-3.348,0.089-5.009c0.065-0.544,0.027-1.278-0.506-1.405c-0.377-0.09-0.726,0.224-0.953,0.538
					c-0.933,1.288-1.155,2.937-1.507,4.488c-0.352,1.551-0.959,3.196-2.322,4.015c-0.355,0.213-0.749,0.362-1.08,0.611
					c-0.806,0.607-1.089,1.743-0.876,2.729c0.174,0.806,0.65,1.632,1.256,2.193c0.24,0.222,0.552,0.326,0.794,0.547
					c0.327,0.299,0.613,0.657,0.918,0.978c1.204,1.266,2.462,2.516,3.383,4.013C265.72,110.48,265.975,110.975,266.178,111.492z"/>
				<path style="opacity:0.1;" d="M385.153,160.366c-1.813,2.11-4.915,2.457-7.697,2.45c-2.782-0.007-5.767-0.166-8.113,1.329
					c-3.29,2.098-4.393,6.909-8.037,8.304c-0.972,0.372-2.026,0.445-3.052,0.309c-0.57-0.075-1.131-0.211-1.679-0.384
					c-0.233-0.074-0.53-0.247-0.775-0.223c-0.27,0.026-0.531-0.081-0.677-0.321c-0.138-0.225-0.133-0.53,0.013-0.751
					c0.109-0.166,0.283-0.277,0.459-0.368c0.704-0.366,1.509-0.484,2.251-0.764c1.102-0.417,2.044-1.185,2.817-2.074
					c0.774-0.888,1.393-1.898,2.002-2.907c0.015-0.024,0.03-0.049,0.044-0.073c0.369-0.611,0.735-1.224,1.099-1.839
					c0.065-0.11,0.146-0.187,0.231-0.285c0.237-0.272,0.477-0.543,0.72-0.81c0.499-0.548,1.016-1.081,1.564-1.579
					c1.057-0.96,2.246-1.787,3.59-2.293c2.113-0.795,4.492-0.755,6.54-1.707c2.29-1.065,3.847-3.208,5.545-5.078
					c1.747-1.925,5.823-5.279,8.343-2.653c0.805,0.838,0.423,1.684-0.232,2.474c-0.868,1.046-1.891,1.949-2.525,3.174
					C386.565,156.271,386.672,158.598,385.153,160.366z"/>
				<path style="opacity:0.1;" d="M389.776,215.179c-4.527-1.325-8.038-5.589-8.47-10.286c-0.377-4.098,1.372-8.048,2.777-11.916
					c0.128-0.351,0.252-0.704,0.371-1.059c0.788-2.349,1.401-4.831,1.277-7.327c-0.057-1.136-0.227-2.411-0.777-3.423
					c-0.447-0.821-0.428-1.702-0.701-2.603c-0.761-2.515-2.655-4.878-5.316-5.467c-3.482-0.77-6.903,1.592-10.468,1.69
					c-0.772,0.021-1.546-0.065-2.314,0.012c-3.49,0.349-5.973,3.839-9.35,4.603c1.101,0.936,2.399,1.566,4.169,1.473
					c6.696-0.353,8.509-5.836,13.664-3.675c12.087,7.912-4.965,25.318,4.609,35.386c2.449,3.658,9.539,6.435,12.395,2.922
					C390.933,215.445,390.286,215.328,389.776,215.179z"/>
				<path style="opacity:0.05;fill:#FFFFFF;" d="M368.054,68.244c-0.201,0.583-0.405,1.179-0.429,1.8
					c-0.031,0.804,0.179,1.374,0.72,1.95c0.645,0.686,1.077,1.756,2.083,1.963c0.701,0.144,1.418-0.191,1.977-0.637
					c0.559-0.446,1.02-1.008,1.593-1.436c1.301-0.973,3.292-1.093,4.495-0.001c0.57,0.517,0.913,1.232,1.379,1.844
					c0.579,0.762,1.371,1.4,1.678,2.306c0.198,0.582,0.152,1.234-0.093,1.794c-0.119,0.273-0.295,0.579-0.53,0.77
					c-0.76,0.621-1.577,0.998-2.577,1.064c-1.189,0.078-2.599,0.111-3.252,1.107c-1.308,1.996,1.95,5.392-0.05,6.694
					c-1.841,1.198-4.899-2.242-6.073-0.385c-0.164,0.26-0.222,0.572-0.243,0.878c-0.074,1.061,0.252,2.304,1.306,2.756
					c0.532,0.228,1.128,0.322,1.609,0.644c0.881,0.591,1.23,1.85,2.221,2.228c0.781,0.298,1.673-0.092,2.287-0.66
					c1.904-1.762,2.067-5.06,4.321-6.345c1.103-0.629,2.49-0.595,3.691-0.184c1.03,0.352,1.949,0.955,2.819,1.598
					c0.16,0.119,0.3,0.221,0.4,0.396c0.23,0.401,0.515,0.766,0.746,1.168c1.005,1.753,1.415,3.975,0.53,5.862
					c-1.005,2.141-3.311,3.303-5.475,4.256c-1.798,0.791-3.954,2.133-3.614,4.067c0.213,1.211,1.4,2.02,2.585,2.351
					c2.014,0.562,4.163,0.143,6.245,0.342c2.081,0.199,4.395,1.408,4.615,3.487c0.237,2.238-1.99,3.877-2.983,5.896
					c-1.283,2.609-0.165,6.134,2.385,7.529c0.71,0.388,1.51,0.631,2.128,1.152c1.176,0.993,1.385,2.79,0.912,4.255
					c-0.473,1.465-1.496,2.677-2.494,3.848c-2.279,2.672-4.753,5.473-8.123,6.458c-1.031,0.301-2.13,0.425-3.073,0.939
					c-3.234,1.763-2.812,6.723-5.285,9.452c-3.109,3.431-8.902,1.769-13.112,3.698c-2.528,1.159-4.255,3.511-6.209,5.491
					c-1.954,1.98-4.607,3.745-7.332,3.189c-3.337-0.68-5.03-5.36-2.901-8.017c1.453-1.814,4.004-2.397,6.32-2.206
					c1.085,0.089,2.265,0.301,3.195-0.265c0.708-0.431,1.101-1.221,1.458-1.97c2.069-4.344,4.152-9.449,2.04-13.772
					c-0.879-1.8-2.479-3.487-2.185-5.469c0.375-2.53,3.472-3.524,6.02-3.732c2.549-0.208,5.572-0.423,6.871-2.625
					c2.277-3.857-3.4-8.724-1.669-12.855c0.317-0.757,0.873-1.423,1.02-2.23c0.27-1.48-0.969-2.872-2.37-3.422
					c-0.455-0.178-0.931-0.296-1.412-0.378c-1.603-0.274-3.224-0.251-4.808-0.665c-0.707-0.185-1.396-0.431-2.099-0.63
					c-0.475-0.134-0.957-0.254-1.418-0.432c-0.942-0.365-1.57-1.072-2.108-1.907c-0.445-0.69-0.857-1.406-1.276-2.112
					c-0.361-0.609-0.715-1.256-0.785-1.973c-0.08-0.816,0.227-1.634,0.706-2.299c0.616-0.856,1.526-1.497,2.54-1.79
					c0.758-0.219,1.614-0.27,2.204-0.794c0.713-0.633,0.655-1.533,0.676-2.397c0.006-0.269,0.115-0.509,0.14-0.772
					c0.084-0.871-0.805-1.512-1.467-1.88c-2.862-1.587-6.306-2.096-9.505-1.406c-2.206,0.476-4.266,1.491-6.468,1.987
					c-2.202,0.495-4.742,0.371-6.404-1.156c-1.007-0.926-1.556-2.238-2.381-3.329c-0.79-1.045-1.822-1.868-2.94-2.537
					c-1.602-0.959-3.359-1.619-5.061-2.373c-1.443-0.64-3.274-1.313-4.184-2.674c-1.303-1.948-0.116-5.284,2.309-5.618
					c1.697-0.234,4.155,0.348,4.562-1.315c0.129-0.526-0.069-1.071-0.267-1.575c-0.791-2.014-1.639-4.275-0.796-6.268
					c0.552-1.306,1.747-2.23,2.992-2.907c3.965-2.159,8.961-2.308,13.048-0.391c2.02,0.947,3.8,2.352,5.828,3.283
					c2.027,0.931,4.5,1.333,6.435,0.223c0.765-0.439,1.402-1.089,2.2-1.465c2.281-1.076,4.895,0.383,6.988,1.79
					c1.743,1.171,3.683,2.701,3.637,4.801C368.499,66.973,368.275,67.607,368.054,68.244z"/>
				<path style="opacity:0.2;fill:#FFFFFF;" d="M345.659,53.875c-3.118,0.52-1.355,2.448-3.767,3.675
					c-1.614,0.821-4.705,1.216-5.111,2.98c-0.364,1.581,0.633,3.224,1.987,4.118c1.354,0.894,3,1.202,4.596,1.491
					c3.441,0.623,6.883,1.246,10.324,1.869c2.052,0.371,4.517,1.122,4.954,3.16c0.143,0.666,0.026,1.373,0.209,2.029
					c0.556,1.991,3.23,2.274,5.29,2.105c2.06-0.168,4.7-0.048,5.438,1.882c0.22,0.576,0.208,1.213,0.358,1.811
					c0.598,2.376,3.354,3.332,5.594,4.326c6.099,2.707,10.73,8.499,12.029,15.044c0.302,1.519,1.181,3.584,2.648,3.088
					c0.987-0.334,1.185-1.625,1.175-2.667c-0.113-11.389-4.91-21.476-13.038-29.454S356.586,52.053,345.659,53.875z"/>
				<path style="opacity:0.2;fill:#FFFFFF;" d="M388.467,110.175c0.128,0.472,0.359,0.951,0.78,1.199
					c0.27,0.159,0.59,0.206,0.902,0.235c0.616,0.058,1.275,0.051,1.804-0.27c0.63-0.383,0.945-1.139,1.027-1.872
					c0.15-1.333-0.38-3.088-1.65-3.749c-1.353-0.704-2.404,0.743-2.785,1.882C388.272,108.427,388.24,109.334,388.467,110.175z"/>
				<path style="opacity:0.2;fill:#FFFFFF;" d="M383.922,202.725c-0.282,1.497-0.098,3.046,0.238,4.532
					c0.291,1.286,0.718,2.587,1.594,3.573c0.63,0.709,1.476,1.223,2.396,1.455c0.195,0.049,0.4,0.086,0.596,0.04
					c0.196-0.045,0.364-0.169,0.51-0.306c1.087-1.017,1.156-2.695,1.081-4.181c-0.11-2.168-0.386-4.377-1.222-6.397
					c-0.392-0.948-0.924-2.014-1.676-2.732c-0.735-0.7-1.411-0.249-1.909,0.454C384.781,200.225,384.164,201.444,383.922,202.725z"
					/>
			</g>
			<path style="opacity:0.2;fill:#FFFFFF;" d="M392.164,162.844c-0.13,0.198-0.253,0.401-0.373,0.605
				c-0.559,0.947-1.075,1.919-1.545,2.913c-0.595,1.259-1.118,2.733-0.554,4.006c0.333,0.75,0.999,1.286,1.719,1.643
				c0.323,0.16,0.611,0.266,0.966,0.16c0.396-0.117,0.806-0.206,1.191-0.357c0.324-0.128,0.632-0.294,0.914-0.498
				c0.679-0.491,1.193-1.028,1.565-1.767c0.558-1.11,1.121-2.233,1.408-3.441c0.288-1.209,0.28-2.53-0.274-3.642
				c-0.361-0.726-0.993-1.363-1.788-1.524c-0.767-0.155-1.572,0.158-2.173,0.659C392.801,161.951,392.464,162.384,392.164,162.844z"
				/>
		</g>
		<g>
			<path style="fill:#BA68C8;" d="M394.397,390.924c1.188,0.519,2.245,1.182,3.107,2.023c1.624,1.585,3.17,4.377,1.995,6.679
				c-1.367,2.677-5.15,3.086-7.547,4.428c-3.23,1.808-0.76,4.364-0.47,6.886c0.442,3.849-4.647,7.125-10.506,8.085
				c-3.729,0.611-7.526,0.504-11.284,0.776c-1.415,0.102-3.138-0.075-4.463,0.389c-1.449,0.508-2.678,1.753-3.764,2.785
				c-2.658,2.525-4.659,4.641-8.347,5.646c-3.257,0.887-7.5,0.995-10.765,0.09c-2.713-0.753-5.745-2.971-7.441-5.205
				c-1.903-2.505-4.368-4.573-7.372-5.527c-7.808-2.481-16.242-4.547-19.052-10.062c-2.579-5.061,2.238-9.047,9.92-10.485
				c7.086-1.326,16.143,0.336,22.383-2.19c7.721-3.126,5.995-12.407,19.868-10.066c2.72,0.459,5.222,1.027,7.708,1.928
				c4.912,1.779,7.496,2.251,13.027,2.101C385.715,389.088,390.692,389.306,394.397,390.924z"/>
			<path style="opacity:0.2;" d="M394.397,390.924c1.188,0.519,2.245,1.182,3.107,2.023c1.624,1.585,3.17,4.377,1.995,6.679
				c-1.367,2.677-5.15,3.086-7.547,4.428c-3.23,1.808-0.76,4.364-0.47,6.886c0.442,3.849-4.647,7.125-10.506,8.085
				c-3.729,0.611-7.526,0.504-11.284,0.776c-1.415,0.102-3.138-0.075-4.463,0.389c-1.449,0.508-2.678,1.753-3.764,2.785
				c-2.658,2.525-4.659,4.641-8.347,5.646c-3.257,0.887-7.5,0.995-10.765,0.09c-2.713-0.753-5.745-2.971-7.441-5.205
				c-1.903-2.505-4.368-4.573-7.372-5.527c-7.808-2.481-16.242-4.547-19.052-10.062c-2.579-5.061,2.238-9.047,9.92-10.485
				c7.086-1.326,16.143,0.336,22.383-2.19c7.721-3.126,5.995-12.407,19.868-10.066c2.72,0.459,5.222,1.027,7.708,1.928
				c4.912,1.779,7.496,2.251,13.027,2.101C385.715,389.088,390.692,389.306,394.397,390.924z"/>
			<path style="opacity:0.5;fill:#BA68C8;" d="M397.504,392.948c-0.863-0.842-1.919-1.505-3.107-2.023
				c-3.704-1.618-8.682-1.837-13.006-1.72c-5.531,0.15-8.115-0.322-13.027-2.101c-2.486-0.901-4.989-1.469-7.708-1.928
				c-13.872-2.341-12.147,6.94-19.868,10.066c-1.76,0.712-3.748,1.085-5.849,1.292c0.596,0.221,1.224,0.367,1.846,0.411
				c2.147,0.152,4.254-0.52,6.354-0.99c2.525-0.565,5.115-0.846,7.702-0.833c0.915,0.004,1.934,0.092,2.547,0.771
				c0.605,0.671,0.597,1.68,0.932,2.52c0.878,2.202,3.74,2.692,6.11,2.696c4.048,0.008,8.105-0.434,12.138-0.078
				c4.033,0.356,8.164,1.618,11.011,4.497c2.847,2.878,4.023,7.638,1.943,11.112c-0.329,0.549-0.73,1.047-1.145,1.535
				c4.277-1.455,7.455-4.16,7.103-7.233c-0.289-2.522-2.76-5.078,0.47-6.886c2.397-1.342,6.181-1.751,7.548-4.428
				C400.674,397.325,399.129,394.533,397.504,392.948z"/>
			<g>
				<path style="opacity:0.15;" d="M356.247,427.319c-1.903,0.368-3.835,0.581-5.751,0.37c-2.406-0.265-4.881-0.65-7.112-1.622
					c-2.258-0.983-4.092-3.006-5.632-4.892c-1.898-2.324-3.705-4.6-6.428-6.012c-2.925-1.516-6.018-2.404-9.137-3.422
					c-3.705-1.21-8.28-1.686-11.205-4.448c-1.192-1.126-2.242-2.348-2.284-4.063c-0.005-0.201-0.008-0.514,0.006-0.856
					c-1.093,1.604-1.268,3.484-0.219,5.542c2.81,5.515,11.243,7.581,19.052,10.062c3.004,0.955,5.47,3.022,7.372,5.528
					c1.696,2.234,4.728,4.453,7.441,5.205c3.265,0.906,7.508,0.798,10.765-0.09C354.311,428.297,355.327,427.853,356.247,427.319z"
					/>
				<path style="opacity:0.15;" d="M398.691,395.891c-0.135,1.916-0.455,2.97-2.225,3.956c-1.199,0.668-2.406,1.22-3.683,1.736
					c-0.825,0.333-2.452,0.818-2.938,1.617c-0.631,1.035-0.063,2.216,0.47,3.327c-0.025-0.91,0.349-1.751,1.637-2.473
					c2.398-1.342,6.181-1.751,7.548-4.428c0.919-1.799,0.173-3.895-0.971-5.482C398.611,394.732,398.731,395.325,398.691,395.891z"
					/>
			</g>
			<path style="opacity:0.5;fill:#BA68C8;" d="M388.838,408.754c-0.279-0.534-0.734-0.928-1.472-0.993
				c-1.429-0.125-2.763,1.681-3.49,2.692c-1.93,2.681-5.337,4.17-8.367,5.188c-0.588,0.198-2.343,0.378-2.299,1.243
				c0.037,0.72,1.098,0.788,1.623,0.844c4.268,0.459,8.608-0.682,12.088-3.189c1.113-0.802,2.351-2.21,2.335-3.646
				C389.247,410.194,389.164,409.379,388.838,408.754z"/>
			<path style="opacity:0.5;fill:#BA68C8;" d="M371.504,416.438c-0.091-0.11-0.24-0.215-0.462-0.311
				c-0.658-0.284-2.036-0.047-2.517,0.488c-0.629,0.699,0.572,1.089,1.18,1.175C370.524,417.906,372.042,417.089,371.504,416.438z"
				/>
			<path style="opacity:0.1;fill:#FFFFFF;" d="M359.763,387.142c-2.367-0.375-4.895-0.032-7.099,0.825
				c-1.042,0.405-3.351,1.212-3.215,3.829c0.126,2.423,3.618,1.4,4.632,1.026c2.522-0.93,4.638-1.418,7.2-1.481
				c2.03-0.05,3.599,0.432,5.493,1.058c0.761,0.252,2.233,1.02,2.986-0.055c0.609-0.92-1.123-1.879-1.771-2.333
				C365.517,388.28,362.522,387.578,359.763,387.142z"/>
			<path style="opacity:0.5;fill:#BA68C8;" d="M315.939,399.469c-2.359,0.876-5.208,2.524-4.694,4.957
				c0.247,1.165,1.806,2.713,3.041,2.199c1.118-0.465,0.801-1.905,0.989-2.85c0.08-0.401,0.195-0.893,0.412-1.243
				c0.212-0.341,0.492-0.646,0.817-0.886c0.859-0.636,1.818-0.946,2.828-1.266c0.939-0.297,1.875-0.623,2.836-0.824
				c0.408-0.085,2.163-0.404,1.309-1.038c-0.493-0.366-1.352-0.294-1.922-0.262c-1.354,0.076-2.709,0.362-4.018,0.707
				C317.072,399.083,316.52,399.252,315.939,399.469z"/>
			<path style="opacity:0.5;fill:#BA68C8;" d="M316.549,406.442c-0.614-0.16-1.248,0.018-1.443,0.709
				c-0.271,0.959,0.509,1.35,1.29,1.623c0.74,0.259,1.798,0.169,1.498-0.884c-0.171-0.599-0.592-1.188-1.193-1.401
				C316.651,406.471,316.6,406.456,316.549,406.442z"/>
		</g>
		<g>
			<path style="fill:#BA68C8;" d="M382.66,237.952c-1.684,2.943-1.307,6.525-2.429,9.687c-1.047,2.929-1.775,6.366,0.489,8.882
				c3.24,3.602,8.831,3.584,11.94,0.514c2.176-2.148,3.136-5.415,1.223-8.815c-1.624-3.574-1.373-6.885-3.148-10.381
				C389.339,235.092,384.199,235.11,382.66,237.952z"/>
			<path style="opacity:0.2;" d="M392.383,257.28c-0.719,0.493-1.893,0.721-3.46,0.537c-2.996-0.352-4.788-2.007-5.206-4.199
				c-0.581-3.048,1.32-6.149,0.859-9.217c-0.254-1.692-1.041-3.342-0.814-5.038c0.188-1.401,1.03-2.546,2.119-3.481
				c-1.342,0.217-2.587,0.9-3.221,2.07c-1.684,2.943-1.307,6.525-2.429,9.687c-1.047,2.93-1.775,6.366,0.488,8.882
				C383.868,260.021,389.229,260.094,392.383,257.28z"/>
			<path style="opacity:0.2;fill:#FFFFFF;" d="M388.322,248.299c-0.667,0.713-0.948,1.716-0.988,2.692
				c-0.019,0.451,0.012,0.916,0.198,1.328c0.162,0.358,0.432,0.655,0.712,0.931c0.503,0.496,1.064,0.95,1.717,1.217
				c0.654,0.267,1.414,0.329,2.062,0.049c0.307-0.133,0.587-0.346,0.757-0.634c0.138-0.235,0.196-0.507,0.234-0.776
				c0.186-1.304-0.069-2.665-0.708-3.816c-0.295-0.532-0.703-0.977-1.133-1.403c-0.302-0.299-0.61-0.449-1.043-0.424
				C389.448,247.5,388.79,247.799,388.322,248.299z"/>
		</g>
		<g>
			<path style="fill:#BA68C8;" d="M346.75,311.916c-2.084,3.642-1.618,8.075-3.006,11.988c-1.295,3.625-2.197,7.878,0.605,10.992
				c4.01,4.457,10.928,4.435,14.775,0.636c2.693-2.659,3.88-6.701,1.513-10.908c-2.01-4.423-1.699-8.52-3.896-12.847
				C355.015,308.378,348.655,308.399,346.75,311.916z"/>
			<path style="opacity:0.2;" d="M346.75,311.916c-2.084,3.642-1.618,8.075-3.006,11.988c-1.295,3.625-2.197,7.878,0.605,10.992
				c4.01,4.457,10.928,4.435,14.775,0.636c2.693-2.659,3.88-6.701,1.513-10.908c-2.01-4.423-1.699-8.52-3.896-12.847
				C355.015,308.378,348.655,308.399,346.75,311.916z"/>
			<path style="opacity:0.2;" d="M358.782,335.835c-0.889,0.611-2.343,0.892-4.281,0.664c-3.708-0.436-5.925-2.483-6.443-5.196
				c-0.719-3.772,1.634-7.609,1.064-11.406c-0.314-2.094-1.289-4.136-1.008-6.235c0.232-1.733,1.275-3.15,2.622-4.308
				c-1.66,0.268-3.202,1.114-3.985,2.562c-2.084,3.642-1.618,8.075-3.006,11.988c-1.295,3.625-2.197,7.878,0.604,10.992
				C348.245,339.227,354.879,339.318,358.782,335.835z"/>
			<path style="opacity:0.5;fill:#BA68C8;" d="M353.757,324.721c-0.826,0.882-1.173,2.124-1.223,3.331
				c-0.023,0.558,0.014,1.134,0.245,1.643c0.2,0.443,0.534,0.811,0.881,1.152c0.622,0.613,1.316,1.176,2.125,1.506
				c0.809,0.33,1.75,0.407,2.552,0.06c0.38-0.164,0.727-0.428,0.936-0.785c0.17-0.29,0.243-0.627,0.29-0.96
				c0.23-1.613-0.085-3.298-0.876-4.722c-0.365-0.658-0.87-1.209-1.402-1.736c-0.374-0.37-0.755-0.555-1.29-0.525
				C355.15,323.732,354.335,324.103,353.757,324.721z"/>
		</g>
		<path style="opacity:0.2;" d="M294.056,86.817c1.423-4.293,0.499-9.566-3.06-12.358c-0.863-0.677-1.875-1.067-2.781-1.664
			c-0.358-0.236-0.698-0.346-1.124-0.41c-1.194-0.18-2.417-0.217-3.622-0.167c-2.447,0.1-4.863,0.597-7.208,1.285
			c-1.009,0.295-2.005,0.628-2.995,0.983c-0.452,0.69-0.897,1.389-1.33,2.104c-3.595,5.621-5.972,12.567-11.265,16.747
			c-1.68,2.072-3.672,3.852-6.258,5.065c-1.775,0.421-3.33,1.038-4.691,1.808c0.016,0.028,0.024,0.061,0.042,0.088
			c0.366,0.568,0.942,0.966,1.527,1.306c2.604,1.511,5.633,2.138,8.632,2.394c9.002,0.769,18.247-1.715,25.651-6.892
			C289.28,94.513,292.633,91.11,294.056,86.817z"/>
		<g>
			<g>
				<path style="fill:#37474F;" d="M292.216,67.193c3.59,14.343-5.352,27.983-19.695,31.573
					c-14.343,3.59-28.657-4.228-32.247-18.571c-3.59-14.343,10.296-26.261,22.082-22.039
					C271.441,48.179,288.626,52.85,292.216,67.193z"/>
				<path style="fill:#263238;" d="M266.261,20.563c-1.519,0.029-2.773,0.476-4.009,1.393c-1.311,0.973-2.613,1.931-3.444,3.546
					c-1.841,3.577-2.467,8.239-2.362,12.632c0.104,4.383,0.773,9.097,2.039,13.332c1.203,4.025,2.731,7.399,4.888,9.915
					c0.105,0.122,1.595-0.632,1.537-0.708c-4.456-5.833-5.109-17.191-4.446-22.761c0.807-6.784,3.067-12.501,6.241-16.042
					C266.989,21.553,266.656,20.556,266.261,20.563z"/>
				<path style="fill:#263238;" d="M268.972,59.146c-1.197,0.247-2.318,0.783-3.526,1.023c-1.166,0.232-2.335,0.345-3.52,0.214
					c-1.738-0.192-4.428-1.049-5.858,0.362c-0.057,0.056-0.074,0.226,0.03,0.244c0.516,0.09,1.056,0.071,1.578,0.124
					c0.621,0.063,1.232,0.183,1.842,0.314c1.176,0.253,2.329,0.604,3.537,0.667c2.22,0.118,4.837-0.529,6.067-2.535
					C269.183,59.461,269.151,59.109,268.972,59.146z"/>
			</g>
			<path style="opacity:0.2;fill:#FFFFFF;" d="M275.97,58.58c-0.755,1.222-0.711,2.891,0.108,4.072
				c0.568,0.819,1.434,1.371,2.248,1.946c2.208,1.561,4.186,3.448,5.849,5.579c0.438,0.561,0.864,1.149,1.446,1.559
				c0.582,0.41,1.365,0.615,2.014,0.324c0.823-0.369,1.145-1.36,1.275-2.253c0.427-2.943-0.309-6.039-2.014-8.475
				c-1.025-1.465-2.394-2.682-3.955-3.551c-0.778-0.433-1.614-0.799-2.474-1.033c-0.685-0.187-1.394,0.01-2.074,0.156
				C277.409,57.115,276.502,57.719,275.97,58.58z"/>
			<path style="opacity:0.2;fill:#FFFFFF;" d="M284.536,78.026c-0.382,1.004-0.601,2.087-0.488,3.156
				c0.059,0.564,0.246,1.169,0.721,1.478c0.331,0.215,0.753,0.249,1.144,0.194c0.94-0.134,1.768-0.753,2.292-1.545
				s0.768-1.742,0.849-2.688c0.067-0.786,0.016-1.619-0.393-2.294c-0.327-0.539-1.144-1.158-1.815-0.911
				c-0.283,0.104-0.633,0.281-0.854,0.48c-0.455,0.411-0.58,0.569-0.844,0.936C284.885,77.196,284.695,77.608,284.536,78.026z"/>
		</g>
	</g>
</g>
</svg>
