<svg viewBox="0 0 199 66" fill="none"
    xmlns="http://www.w3.org/2000/svg">
    <path d="M20.0649 7.96705C19.1399 6.69882 18.0276 4.46347 16.4171 3.8697C13.8706 2.9308 9.94764 4.25097 7.75023 5.52481C3.21975 8.15113 0.285221 13.7733 1.75203 18.9249C3.02122 23.3825 7.9583 26.8942 12.5262 26.8723C17.7495 26.8472 20.7863 24.3805 24.7552 21.6957" stroke="black" stroke-linecap="round"/>
    <path d="M30.2805 2.68314C30.15 10.8068 32.479 35.0605 32.6861 26.9384" stroke="black" stroke-linecap="round"/>
    <path d="M41.0025 17.0697C41.6245 19.4152 42.396 21.7175 42.3337 24.1602" stroke="black" stroke-linecap="round"/>
    <path d="M39.1289 11.4775C39.299 10.8853 39.7899 7.42671 41.187 7.63765C42.5767 7.84748 41.9824 10.2198 41.6072 10.9246C40.2075 13.5543 39.9631 9.38378 40.2134 8.48089" stroke="black" stroke-linecap="round"/>
    <path d="M55.6487 15.9311C53.4806 15.1171 50.8867 13.9763 49.7994 16.902C49.0085 19.0303 49.6976 21.2844 51.6744 22.4383C54.2443 23.9383 57.3974 23.6387 60.0151 22.595" stroke="black" stroke-linecap="round"/>
    <path d="M66.5221 4.61551C66.4569 9.10652 66.9542 13.3921 67.4445 17.8561C67.746 20.6011 67.7391 24.6645 68.9791 26.8559" stroke="black" stroke-linecap="round"/>
    <path d="M74.8796 12.8933C74.8554 12.9378 68.9018 22.2535 68.1387 20.282C67.854 19.5465 69.7691 19.8143 69.9985 19.8254C72.7856 19.9599 78.1949 21.2473 78.123 24.0649" stroke="black" stroke-linecap="round"/>
    <path d="M99.8699 1.43367C99.6538 9.90507 100.062 18.2767 101.242 26.6707" stroke="black" stroke-linecap="round"/>
    <path d="M95.4805 15.4348C96.4855 15.297 106.111 13.6597 106.071 15.2009" stroke="black" stroke-linecap="round"/>
    <path d="M115.642 15.445C112.076 15.9175 108.215 16.9963 109.778 21.3719C110.796 24.2199 112.038 26.5711 115.409 25.6879C117.456 25.1514 121.618 21.6274 120.253 19.0909C119.008 16.7773 114.834 16.3015 112.607 15.8716" stroke="black" stroke-linecap="round"/>
    <path d="M145.419 15.1653C141.774 15.9179 139.074 15.8199 138.967 20.0034C138.919 21.8952 139.381 23.3185 140.909 24.4738C143.395 26.3543 147.303 27.2354 149.249 24.0757C151.991 19.6224 145.773 13.5441 141.974 16.648" stroke="black" stroke-linecap="round"/>
    <path d="M155.166 12.4129C156.141 17.7256 156.684 23.0188 157.259 28.408C157.453 30.2307 157.335 35.0412 158.553 36.5071" stroke="black" stroke-linecap="round"/>
    <path d="M155.023 18.0048C156.763 15.1445 158.881 11.6078 162.644 12.8083C165.642 13.7648 166.527 17.2749 165.757 20.1812C164.62 24.4739 160.632 24.2277 158.103 22.0789" stroke="black" stroke-linecap="round"/>
    <path d="M169.958 20.7512C171.718 20.9631 180.56 20.1722 177.359 16.02C175.415 13.4983 172.175 15.8366 171.388 18.0702C168.893 25.1535 179.262 25.4174 181.954 21.0571" stroke="black" stroke-linecap="round"/>
    <path d="M186.156 13.2033C186.487 17.4934 186.797 21.9663 187.977 26.0737C188.403 27.5544 188.009 24.6285 187.966 24.3422C187.548 21.5467 186.604 17.4981 189.394 15.9148C193.21 13.7491 196.31 16.3714 197.759 20.7447C198.387 22.6413 197.037 28.5643 197.176 28.4884" stroke="black" stroke-linecap="round"/>
    <path d="M42.7234 40.0034C42.3306 46.7602 43.3656 53.2913 43.8871 60.0056C43.9991 61.4476 43.7556 62.8879 44.9631 63.7137" stroke="black" stroke-linecap="round"/>
    <path d="M53.8078 40.1342C54.4631 46.1314 56.4941 51.7947 57.127 57.7823C57.3602 59.9884 58.0309 66.5903 58.057 64.3721C58.0882 61.7291 57.1648 59.4385 57.1372 56.9146C57.1193 55.2709 58.6158 49.9936 61.2347 51.3079C65.1499 53.2728 64.6509 60.7291 64.607 64.4494" stroke="black" stroke-linecap="round"/>
    <path d="M70.2444 56.4533C71.4106 56.6809 74.2977 57.7571 75.5017 56.9353C76.5499 56.2198 76.5471 53.0602 75.4999 52.3441C73.5785 51.0301 71.4938 56.8684 71.5701 57.9807C71.9105 62.943 76.9226 65.6851 80.2617 61.6106" stroke="black" stroke-linecap="round"/>
    <path d="M96.0116 50.7104C96.2966 54.205 97.5999 64.6395 97.3723 61.1407C97.1803 58.1902 96.0874 54.39 98.5429 52.0841C103.16 47.7486 106.336 59.1546 104.188 60.0453C103.097 60.4976 105.693 47.3049 109.613 51.0949C112.384 53.7748 112.695 60.8125 109.971 63.4729" stroke="black" stroke-linecap="round"/>
    <path d="M117.096 57.5101C119.32 56.9578 121.837 56.5738 123.262 54.5314C124.232 53.1402 123.742 51.2567 121.988 50.933C118.876 50.3584 117.61 55.4147 117.963 57.5203C119.025 63.8426 124.588 65.3691 128.15 60.1601" stroke="black" stroke-linecap="round"/>
    <path d="M128.773 50.0892C130.165 53.6747 131.11 57.1051 131.557 60.9281C131.777 62.8183 131.729 57.948 131.823 57.3759C132.024 56.1425 135.287 47.8711 137.836 50.756C140.226 53.4617 139.888 57.499 140.545 60.7542C140.784 61.9366 141.153 63.0339 142.447 63.2962C142.504 63.3078 144.016 63.3707 143.23 63.3615" stroke="black" stroke-linecap="round"/>
    <path d="M148.411 51.3287C148.412 54.8336 149.522 67.1175 155.783 62.4178C157.106 61.4244 159.614 55.826 157.443 54.5708C156.927 54.2725 158.391 60.3005 158.683 60.9963C160.44 65.1847 165.676 61.6075 166.964 59.1063" stroke="black" stroke-linecap="round"/>
    <path d="M37.8551 53.4469C40.4526 52.0078 42.7129 50.7691 45.7437 50.5862C46.6963 50.5288 47.7596 51.1064 48.3877 51.1064" stroke="black" stroke-linecap="round"/>
</svg>
