<svg width="246" height="53" viewBox="0 0 246 53" fill="none" xmlns="http://www.w3.org/2000/svg">
<path d="M242.723 47.48C242.496 47.48 242.303 47.38 242.143 47.18C241.983 46.98 241.903 46.6867 241.903 46.3C241.903 45.8467 241.969 45.2 242.103 44.36C242.249 43.52 242.463 42.4067 242.743 41.02C242.383 41.8733 241.983 42.68 241.543 43.44C241.116 44.2 240.663 44.82 240.183 45.3C239.703 45.78 239.209 46.02 238.703 46.02C238.209 46.02 237.769 45.8267 237.383 45.44C237.009 45.0533 236.823 44.3733 236.823 43.4C236.823 42.8533 236.869 42.24 236.963 41.56C237.056 40.8667 237.176 40.18 237.323 39.5C237.469 38.82 237.616 38.2133 237.763 37.68C237.909 37.1333 238.043 36.7333 238.163 36.48C238.256 36.2667 238.349 36.1267 238.443 36.06C238.536 35.98 238.663 35.94 238.823 35.94C239.009 35.94 239.209 36.02 239.423 36.18C239.636 36.34 239.743 36.6067 239.743 36.98C239.743 37.0733 239.696 37.2933 239.603 37.64C239.523 37.9733 239.416 38.3867 239.283 38.88C239.163 39.36 239.036 39.88 238.903 40.44C238.769 41 238.656 41.56 238.563 42.12C238.483 42.68 238.443 43.1933 238.443 43.66C238.443 43.9133 238.469 44.12 238.523 44.28C238.576 44.44 238.709 44.52 238.923 44.52C239.109 44.52 239.343 44.3333 239.623 43.96C239.916 43.5867 240.229 43.0933 240.563 42.48C240.909 41.8533 241.263 41.16 241.623 40.4C241.996 39.64 242.356 38.86 242.703 38.06C243.063 37.26 243.389 36.5 243.683 35.78C243.789 35.54 243.903 35.3933 244.023 35.34C244.143 35.2733 244.276 35.24 244.423 35.24C244.663 35.24 244.876 35.34 245.063 35.54C245.263 35.7267 245.363 35.9733 245.363 36.28C245.363 36.48 245.323 36.8267 245.243 37.32C245.176 37.8133 245.076 38.3933 244.943 39.06C244.823 39.7133 244.683 40.4067 244.523 41.14C244.376 41.8733 244.229 42.6 244.083 43.32C243.936 44.0267 243.796 44.6733 243.663 45.26C243.543 45.8467 243.443 46.32 243.363 46.68C243.296 47.0133 243.203 47.2267 243.083 47.32C242.976 47.4267 242.856 47.48 242.723 47.48Z" fill="black"/>
<path d="M222.585 46.54C222.199 46.54 221.852 46.32 221.545 45.88C221.239 45.44 221.085 44.8733 221.085 44.18C221.085 43.42 221.185 42.6067 221.385 41.74C221.599 40.8733 221.859 39.9933 222.165 39.1C222.472 38.1933 222.772 37.32 223.065 36.48C223.132 36.3067 223.225 36.18 223.345 36.1C223.479 36.0067 223.679 35.96 223.945 35.96C224.425 35.96 224.665 36.1933 224.665 36.66C224.665 36.7667 224.612 37.0067 224.505 37.38C224.399 37.7533 224.259 38.2133 224.085 38.76C223.925 39.3067 223.759 39.9 223.585 40.54C223.412 41.1667 223.259 41.8 223.125 42.44C222.992 43.08 222.899 43.6733 222.845 44.22C223.059 43.9933 223.299 43.6467 223.565 43.18C223.845 42.7133 224.145 42.1867 224.465 41.6C224.785 41 225.119 40.4 225.465 39.8C225.812 39.1867 226.159 38.6267 226.505 38.12C226.865 37.6 227.212 37.1867 227.545 36.88C227.892 36.56 228.212 36.4 228.505 36.4C228.932 36.4 229.292 36.5333 229.585 36.8C229.892 37.0533 230.125 37.5067 230.285 38.16C230.459 38.8 230.545 39.7067 230.545 40.88C230.545 41.5067 230.605 42.0933 230.725 42.64C230.859 43.1867 231.065 43.6267 231.345 43.96C231.639 44.28 232.012 44.44 232.465 44.44C233.145 44.44 233.752 44.32 234.285 44.08C234.819 43.8267 235.279 43.5467 235.665 43.24C236.065 42.92 236.399 42.64 236.665 42.4C236.932 42.1467 237.139 42.02 237.285 42.02C237.592 42.02 237.745 42.18 237.745 42.5C237.745 42.6333 237.645 42.8467 237.445 43.14C237.259 43.42 236.992 43.74 236.645 44.1C236.312 44.4467 235.925 44.7867 235.485 45.12C235.059 45.44 234.599 45.7067 234.105 45.92C233.625 46.1333 233.139 46.24 232.645 46.24C231.725 46.24 230.972 46.06 230.385 45.7C229.812 45.34 229.385 44.7467 229.105 43.92C228.839 43.0933 228.705 41.9867 228.705 40.6C228.705 39.84 228.659 39.2867 228.565 38.94C228.485 38.58 228.332 38.34 228.105 38.22C227.945 38.5 227.739 38.9 227.485 39.42C227.232 39.9267 226.939 40.4933 226.605 41.12C226.285 41.7467 225.945 42.38 225.585 43.02C225.239 43.6467 224.885 44.2267 224.525 44.76C224.165 45.2933 223.819 45.7267 223.485 46.06C223.152 46.38 222.852 46.54 222.585 46.54Z" fill="black"/>
<path d="M218.061 38.38C218.061 38.8067 217.928 39.2267 217.661 39.64C217.394 40.04 217.041 40.4267 216.601 40.8C216.161 41.16 215.674 41.5 215.141 41.82C214.608 42.14 214.074 42.42 213.541 42.66C213.008 42.9 212.521 43.0933 212.081 43.24C211.974 43.76 211.921 44.22 211.921 44.62C211.921 44.8733 211.981 45.0533 212.101 45.16C212.221 45.2667 212.408 45.32 212.661 45.32C213.221 45.32 213.814 45.22 214.441 45.02C215.068 44.82 215.708 44.56 216.361 44.24C217.014 43.92 217.641 43.58 218.241 43.22C218.841 42.86 219.388 42.52 219.881 42.2C220.388 41.88 220.808 41.62 221.141 41.42C221.474 41.22 221.694 41.12 221.801 41.12C221.961 41.12 222.081 41.1733 222.161 41.28C222.254 41.3733 222.301 41.4867 222.301 41.62C222.301 41.7267 222.134 41.9333 221.801 42.24C221.481 42.5467 221.048 42.9067 220.501 43.32C219.954 43.72 219.341 44.1333 218.661 44.56C217.981 44.9867 217.274 45.3867 216.541 45.76C215.821 46.1333 215.121 46.4333 214.441 46.66C213.774 46.8867 213.174 47 212.641 47C211.948 47 211.408 46.74 211.021 46.22C210.634 45.7 210.441 44.8933 210.441 43.8C210.441 43.0667 210.534 42.3267 210.721 41.58C210.921 40.8333 211.188 40.12 211.521 39.44C211.868 38.7467 212.248 38.1333 212.661 37.6C213.088 37.0533 213.534 36.6267 214.001 36.32C214.468 36 214.921 35.84 215.361 35.84C216.201 35.84 216.861 36.0733 217.341 36.54C217.821 37.0067 218.061 37.62 218.061 38.38ZM212.501 41.7C212.914 41.4467 213.341 41.18 213.781 40.9C214.221 40.62 214.628 40.3333 215.001 40.04C215.374 39.7467 215.674 39.44 215.901 39.12C216.141 38.7867 216.261 38.4467 216.261 38.1C216.261 37.6067 215.994 37.36 215.461 37.36C215.128 37.36 214.774 37.5733 214.401 38C214.041 38.4133 213.694 38.9533 213.361 39.62C213.028 40.2867 212.741 40.98 212.501 41.7Z" fill="black"/>
<path d="M206.048 46.4C206.034 46.6133 205.948 46.7867 205.788 46.92C205.628 47.0533 205.441 47.12 205.228 47.12C204.988 47.12 204.788 47.04 204.628 46.88C204.468 46.72 204.388 46.4733 204.388 46.14C204.388 45.2733 204.428 44.3333 204.508 43.32C204.588 42.2933 204.688 41.28 204.808 40.28C204.928 39.2667 205.048 38.3333 205.168 37.48C204.728 38.1067 204.248 38.8 203.728 39.56C203.221 40.32 202.701 41.0733 202.168 41.82C201.634 42.5667 201.114 43.2533 200.608 43.88C200.101 44.4933 199.641 44.9933 199.228 45.38C198.814 45.7533 198.474 45.94 198.208 45.94C197.714 45.94 197.288 45.7467 196.928 45.36C196.568 44.96 196.388 44.46 196.388 43.86C196.388 43.62 196.414 43.2933 196.468 42.88C196.521 42.4533 196.581 42.0067 196.648 41.54C196.714 41.0733 196.774 40.64 196.828 40.24C196.881 39.8267 196.908 39.52 196.908 39.32C196.908 39.1333 196.888 38.9733 196.848 38.84C196.821 38.6933 196.754 38.62 196.648 38.62C196.488 38.62 196.268 38.8 195.988 39.16C195.708 39.5067 195.394 39.9533 195.048 40.5C194.714 41.0467 194.368 41.6267 194.008 42.24C193.661 42.8533 193.334 43.4333 193.028 43.98C192.721 44.5133 192.461 44.9333 192.248 45.24C192.074 45.5333 191.914 45.7467 191.768 45.88C191.621 46.0133 191.441 46.08 191.228 46.08C190.974 46.08 190.741 45.9467 190.528 45.68C190.328 45.4133 190.228 45.0867 190.228 44.7C190.228 44.4733 190.268 44.12 190.348 43.64C190.428 43.1467 190.528 42.6067 190.648 42.02C190.781 41.4333 190.908 40.86 191.028 40.3C191.161 39.7267 191.274 39.24 191.368 38.84C191.474 38.3867 191.608 38.08 191.768 37.92C191.928 37.76 192.101 37.68 192.288 37.68C192.541 37.68 192.741 37.7733 192.888 37.96C193.048 38.1333 193.128 38.4067 193.128 38.78C193.128 38.8467 193.088 39.0267 193.008 39.32C192.928 39.6 192.828 39.9467 192.708 40.36C192.601 40.76 192.481 41.18 192.348 41.62C192.228 42.06 192.128 42.4667 192.048 42.84C192.341 42.3467 192.648 41.8133 192.968 41.24C193.301 40.6667 193.634 40.1 193.968 39.54C194.301 38.9667 194.634 38.4467 194.968 37.98C195.301 37.5 195.628 37.12 195.948 36.84C196.268 36.56 196.574 36.42 196.868 36.42C197.214 36.42 197.534 36.5267 197.828 36.74C198.134 36.9533 198.381 37.24 198.568 37.6C198.754 37.96 198.848 38.36 198.848 38.8C198.848 39.1067 198.794 39.54 198.688 40.1C198.581 40.6467 198.468 41.24 198.348 41.88C198.241 42.52 198.174 43.1267 198.148 43.7C198.148 43.8333 198.188 43.9 198.268 43.9C198.334 43.9 198.414 43.8533 198.508 43.76C198.894 43.3333 199.321 42.82 199.788 42.22C200.254 41.6067 200.728 40.96 201.208 40.28C201.701 39.6 202.188 38.9333 202.668 38.28C203.148 37.6133 203.594 37.0133 204.008 36.48C204.434 35.9333 204.808 35.5 205.128 35.18C205.461 34.86 205.721 34.7 205.908 34.7C206.308 34.7 206.614 34.8133 206.828 35.04C207.041 35.2667 207.148 35.6467 207.148 36.18C207.148 36.6067 207.114 37.16 207.048 37.84C206.994 38.52 206.921 39.26 206.828 40.06C206.748 40.86 206.654 41.6667 206.548 42.48C206.454 43.28 206.361 44.0267 206.268 44.72C206.174 45.4 206.101 45.96 206.048 46.4Z" fill="black"/>
<path d="M171.925 47.38C171.712 47.38 171.532 47.2933 171.385 47.12C171.239 46.9467 171.165 46.7067 171.165 46.4C171.165 46.1733 171.212 45.8 171.305 45.28C171.412 44.7467 171.525 44.1267 171.645 43.42C171.779 42.7133 171.892 41.98 171.985 41.22C172.079 40.4467 172.125 39.7067 172.125 39C172.125 38.6533 172.212 38.4 172.385 38.24C172.572 38.0667 172.779 37.98 173.005 37.98C173.219 37.98 173.379 38.1133 173.485 38.38C173.592 38.6467 173.612 39.18 173.545 39.98C174.159 38.62 174.832 37.5267 175.565 36.7C176.312 35.86 177.052 35.26 177.785 34.9C178.519 34.5267 179.179 34.34 179.765 34.34C180.152 34.34 180.432 34.42 180.605 34.58C180.792 34.7267 180.885 34.8933 180.885 35.08C180.885 35.3333 180.779 35.5333 180.565 35.68C180.365 35.8133 180.012 35.9733 179.505 36.16C178.919 36.3867 178.379 36.6533 177.885 36.96C177.405 37.2533 176.945 37.64 176.505 38.12C176.079 38.6 175.659 39.2133 175.245 39.96C174.832 40.6933 174.419 41.6 174.005 42.68C173.592 43.76 173.152 45.06 172.685 46.58C172.605 46.8733 172.499 47.08 172.365 47.2C172.245 47.32 172.099 47.38 171.925 47.38Z" fill="black"/>
<path d="M157.757 47.52C157.25 47.52 156.83 47.2867 156.497 46.82C156.177 46.34 156.017 45.72 156.017 44.96C156.017 44.2533 156.19 43.5533 156.537 42.86C156.897 42.1667 157.37 41.5 157.957 40.86C158.544 40.22 159.184 39.6333 159.877 39.1C160.57 38.5533 161.264 38.08 161.957 37.68C162.664 37.28 163.31 36.9667 163.897 36.74C164.484 36.5133 164.95 36.4 165.297 36.4C165.484 36.4 165.637 36.44 165.757 36.52C165.877 36.5867 165.937 36.7133 165.937 36.9C165.937 37.02 165.89 37.1333 165.797 37.24C165.81 37.24 165.824 37.24 165.837 37.24C166.13 37.24 166.277 37.4133 166.277 37.76C166.277 37.88 166.23 38.1267 166.137 38.5C166.044 38.86 165.937 39.3133 165.817 39.86C165.697 40.4067 165.59 41.0133 165.497 41.68C165.404 42.3333 165.357 43 165.357 43.68C165.357 44.2533 165.577 44.54 166.017 44.54C166.51 44.54 167.01 44.4267 167.517 44.2C168.024 43.9733 168.517 43.7 168.997 43.38C169.477 43.0467 169.917 42.72 170.317 42.4C170.717 42.0667 171.057 41.7867 171.337 41.56C171.617 41.3333 171.817 41.22 171.937 41.22C172.044 41.22 172.137 41.2533 172.217 41.32C172.297 41.3867 172.337 41.4933 172.337 41.64C172.337 41.7733 172.204 42.0133 171.937 42.36C171.67 42.7067 171.317 43.1 170.877 43.54C170.437 43.98 169.944 44.4067 169.397 44.82C168.85 45.2333 168.29 45.5733 167.717 45.84C167.144 46.1067 166.597 46.24 166.077 46.24C165.677 46.24 165.31 46.12 164.977 45.88C164.657 45.6267 164.397 45.2 164.197 44.6C164.01 44 163.917 43.1733 163.917 42.12V41.62C163.264 42.7 162.577 43.6867 161.857 44.58C161.15 45.4733 160.444 46.1867 159.737 46.72C159.044 47.2533 158.384 47.52 157.757 47.52ZM164.917 37.84C164.85 37.8667 164.757 37.9067 164.637 37.96C164.024 38.24 163.384 38.5867 162.717 39C162.064 39.4133 161.424 39.8733 160.797 40.38C160.184 40.8867 159.63 41.4133 159.137 41.96C158.644 42.5067 158.25 43.06 157.957 43.62C157.664 44.18 157.517 44.7267 157.517 45.26C157.517 45.4333 157.55 45.5667 157.617 45.66C157.697 45.7533 157.83 45.8 158.017 45.8C158.284 45.8 158.63 45.6333 159.057 45.3C159.484 44.9533 159.95 44.5 160.457 43.94C160.977 43.38 161.497 42.76 162.017 42.08C162.537 41.4 163.03 40.7133 163.497 40.02C163.977 39.3267 164.39 38.6867 164.737 38.1C164.79 38.0067 164.85 37.92 164.917 37.84Z" fill="black"/>
<path d="M146.119 47.02C145.546 47.02 145.139 46.9067 144.899 46.68C144.659 46.4533 144.539 46.12 144.539 45.68C144.539 43.4667 144.939 41.1533 145.739 38.74C146.539 36.3133 147.659 33.88 149.099 31.44C149.286 31.1333 149.433 30.94 149.539 30.86C149.659 30.78 149.799 30.74 149.959 30.74C150.146 30.74 150.313 30.8067 150.459 30.94C150.606 31.0733 150.679 31.2533 150.679 31.48C150.679 31.6 150.559 31.9267 150.319 32.46C150.079 32.98 149.773 33.6533 149.399 34.48C149.026 35.3067 148.626 36.2333 148.199 37.26C147.786 38.2733 147.393 39.3333 147.019 40.44C146.646 41.5467 146.346 42.6467 146.119 43.74C146.426 43.2867 146.793 42.8 147.219 42.28C147.659 41.76 148.126 41.24 148.619 40.72C149.113 40.2 149.613 39.7267 150.119 39.3C150.639 38.8733 151.139 38.5333 151.619 38.28C152.099 38.0267 152.539 37.9 152.939 37.9C153.459 37.9 153.913 38.12 154.299 38.56C154.699 38.9867 154.899 39.6333 154.899 40.5C154.899 41.2333 154.699 41.9867 154.299 42.76C153.899 43.52 153.313 44.2267 152.539 44.88C151.779 45.52 150.859 46.04 149.779 46.44C148.699 46.8267 147.479 47.02 146.119 47.02ZM146.199 45.5C147.306 45.5 148.313 45.3133 149.219 44.94C150.126 44.5667 150.899 44.0933 151.539 43.52C152.193 42.9333 152.693 42.3267 153.039 41.7C153.399 41.06 153.579 40.48 153.579 39.96C153.579 39.5867 153.453 39.4 153.199 39.4C152.893 39.4 152.499 39.5467 152.019 39.84C151.539 40.1333 151.019 40.52 150.459 41C149.913 41.48 149.366 42 148.819 42.56C148.273 43.1067 147.766 43.64 147.299 44.16C146.846 44.68 146.479 45.1267 146.199 45.5Z" fill="black"/>
<path d="M141.323 38.38C141.323 38.8067 141.189 39.2267 140.923 39.64C140.656 40.04 140.303 40.4267 139.863 40.8C139.423 41.16 138.936 41.5 138.403 41.82C137.869 42.14 137.336 42.42 136.803 42.66C136.269 42.9 135.783 43.0933 135.343 43.24C135.236 43.76 135.183 44.22 135.183 44.62C135.183 44.8733 135.243 45.0533 135.363 45.16C135.483 45.2667 135.669 45.32 135.923 45.32C136.483 45.32 137.076 45.22 137.703 45.02C138.329 44.82 138.969 44.56 139.623 44.24C140.276 43.92 140.903 43.58 141.503 43.22C142.103 42.86 142.649 42.52 143.143 42.2C143.649 41.88 144.069 41.62 144.403 41.42C144.736 41.22 144.956 41.12 145.063 41.12C145.223 41.12 145.343 41.1733 145.423 41.28C145.516 41.3733 145.563 41.4867 145.563 41.62C145.563 41.7267 145.396 41.9333 145.063 42.24C144.743 42.5467 144.309 42.9067 143.763 43.32C143.216 43.72 142.603 44.1333 141.923 44.56C141.243 44.9867 140.536 45.3867 139.803 45.76C139.083 46.1333 138.383 46.4333 137.703 46.66C137.036 46.8867 136.436 47 135.903 47C135.209 47 134.669 46.74 134.283 46.22C133.896 45.7 133.703 44.8933 133.703 43.8C133.703 43.0667 133.796 42.3267 133.983 41.58C134.183 40.8333 134.449 40.12 134.783 39.44C135.129 38.7467 135.509 38.1333 135.923 37.6C136.349 37.0533 136.796 36.6267 137.263 36.32C137.729 36 138.183 35.84 138.623 35.84C139.463 35.84 140.123 36.0733 140.603 36.54C141.083 37.0067 141.323 37.62 141.323 38.38ZM135.763 41.7C136.176 41.4467 136.603 41.18 137.043 40.9C137.483 40.62 137.889 40.3333 138.263 40.04C138.636 39.7467 138.936 39.44 139.163 39.12C139.403 38.7867 139.523 38.4467 139.523 38.1C139.523 37.6067 139.256 37.36 138.723 37.36C138.389 37.36 138.036 37.5733 137.663 38C137.303 38.4133 136.956 38.9533 136.623 39.62C136.289 40.2867 136.003 40.98 135.763 41.7Z" fill="black"/>
<path d="M128.945 36.94C129.305 36.0733 129.645 35.18 129.965 34.26C130.299 33.34 130.599 32.4 130.865 31.44C130.945 31.1733 131.065 30.96 131.225 30.8C131.399 30.6267 131.599 30.54 131.825 30.54C131.985 30.54 132.119 30.6 132.225 30.72C132.345 30.84 132.405 31 132.405 31.2C132.405 31.4533 132.305 31.8933 132.105 32.52C131.919 33.1467 131.679 33.94 131.385 34.9C131.105 35.86 130.819 36.9667 130.525 38.22C130.245 39.46 130.005 40.8333 129.805 42.34C129.619 43.8467 129.525 45.4533 129.525 47.16C129.525 47.5333 129.445 47.84 129.285 48.08C129.125 48.3333 128.932 48.46 128.705 48.46C128.572 48.46 128.445 48.4267 128.325 48.36C128.205 48.2933 128.099 48.1333 128.005 47.88C127.925 47.64 127.859 47.26 127.805 46.74C127.752 46.2067 127.725 45.4867 127.725 44.58C127.725 43.8867 127.765 43.1333 127.845 42.32C127.232 43.4267 126.565 44.3933 125.845 45.22C125.139 46.0333 124.452 46.66 123.785 47.1C123.132 47.54 122.572 47.76 122.105 47.76C121.532 47.76 121.065 47.5667 120.705 47.18C120.359 46.8067 120.185 46.2467 120.185 45.5C120.185 44.8467 120.339 44.1733 120.645 43.48C120.952 42.7867 121.359 42.1067 121.865 41.44C122.372 40.76 122.932 40.12 123.545 39.52C124.159 38.92 124.772 38.3933 125.385 37.94C126.012 37.4733 126.592 37.1133 127.125 36.86C127.659 36.5933 128.092 36.46 128.425 36.46C128.559 36.46 128.679 36.5067 128.785 36.6C128.892 36.6933 128.945 36.8067 128.945 36.94ZM128.685 37.56C128.592 37.6533 128.479 37.7467 128.345 37.84C128.212 37.9333 128.065 38.0333 127.905 38.14C127.319 38.5533 126.672 39.0333 125.965 39.58C125.272 40.1133 124.605 40.7 123.965 41.34C123.339 41.9667 122.825 42.6267 122.425 43.32C122.025 44.0133 121.825 44.7267 121.825 45.46C121.825 45.78 121.985 45.94 122.305 45.94C122.745 45.94 123.225 45.7333 123.745 45.32C124.279 44.8933 124.825 44.3067 125.385 43.56C125.945 42.8 126.505 41.9133 127.065 40.9C127.625 39.8733 128.165 38.76 128.685 37.56Z" fill="black"/>
<path d="M116.429 47.1C116.176 47.1 115.949 47.0067 115.749 46.82C115.549 46.62 115.449 46.3133 115.449 45.9C115.449 45.6067 115.489 45.2 115.569 44.68C115.649 44.1467 115.756 43.5667 115.889 42.94C116.023 42.3133 116.163 41.6933 116.309 41.08C116.469 40.4533 116.629 39.8933 116.789 39.4C116.949 38.9067 117.089 38.54 117.209 38.3C117.316 38.1133 117.416 37.9933 117.509 37.94C117.616 37.8867 117.716 37.86 117.809 37.86C117.996 37.86 118.156 37.92 118.289 38.04C118.436 38.16 118.509 38.3933 118.509 38.74C118.509 38.94 118.469 39.2733 118.389 39.74C118.323 40.1933 118.229 40.7267 118.109 41.34C118.003 41.94 117.883 42.56 117.749 43.2C117.629 43.8267 117.509 44.4267 117.389 45C117.269 45.5733 117.176 46.0533 117.109 46.44C117.056 46.6533 116.963 46.82 116.829 46.94C116.709 47.0467 116.576 47.1 116.429 47.1ZM118.389 36.04C118.083 36.04 117.789 35.9467 117.509 35.76C117.243 35.5733 117.109 35.2733 117.109 34.86C117.109 34.5133 117.189 34.2333 117.349 34.02C117.523 33.8067 117.723 33.6533 117.949 33.56C118.189 33.4533 118.396 33.4 118.569 33.4C118.743 33.4 118.936 33.44 119.149 33.52C119.376 33.5867 119.569 33.72 119.729 33.92C119.889 34.1067 119.969 34.3867 119.969 34.76C119.969 35.0133 119.883 35.24 119.709 35.44C119.536 35.6267 119.323 35.7733 119.069 35.88C118.829 35.9867 118.603 36.04 118.389 36.04Z" fill="black"/>
<path d="M108.603 47.44C108.31 47.44 108.083 47.3533 107.923 47.18C107.777 47.02 107.703 46.8333 107.703 46.62C107.703 46.4333 107.783 46.26 107.943 46.1C108.117 45.9267 108.35 45.7733 108.643 45.64C109.177 45.36 109.677 45.08 110.143 44.8C110.623 44.52 111.01 44.22 111.303 43.9C111.597 43.58 111.743 43.24 111.743 42.88C111.743 42.5733 111.643 42.34 111.443 42.18C111.243 42.0067 110.97 41.92 110.623 41.92C110.423 41.92 110.143 41.96 109.783 42.04C109.423 42.1067 109.03 42.1867 108.603 42.28C108.19 42.36 107.783 42.44 107.383 42.52C106.983 42.5867 106.643 42.62 106.363 42.62C105.857 42.62 105.477 42.5 105.223 42.26C104.97 42.0067 104.843 41.6667 104.843 41.24C104.843 41.0267 104.97 40.7067 105.223 40.28C105.477 39.8533 105.81 39.38 106.223 38.86C106.65 38.3267 107.117 37.7933 107.623 37.26C108.13 36.7267 108.643 36.2333 109.163 35.78C109.697 35.3267 110.19 34.96 110.643 34.68C111.11 34.4 111.497 34.26 111.803 34.26C112.11 34.26 112.343 34.36 112.503 34.56C112.663 34.76 112.743 35.0133 112.743 35.32C112.743 35.56 112.703 35.7667 112.623 35.94C112.543 36.1 112.377 36.2267 112.123 36.32C111.883 36.4133 111.51 36.4667 111.003 36.48C110.483 36.8933 109.93 37.3667 109.343 37.9C108.77 38.42 108.243 38.96 107.763 39.52C107.297 40.0667 106.957 40.5933 106.743 41.1C107.183 40.9533 107.717 40.8267 108.343 40.72C108.983 40.6 109.63 40.54 110.283 40.54C111.31 40.54 112.07 40.7733 112.563 41.24C113.07 41.6933 113.323 42.2933 113.323 43.04C113.323 43.52 113.17 44.02 112.863 44.54C112.57 45.0467 112.183 45.52 111.703 45.96C111.223 46.4 110.71 46.7533 110.163 47.02C109.617 47.3 109.097 47.44 108.603 47.44Z" fill="black"/>
<path d="M93.4127 38.38C93.4127 38.8067 93.2793 39.2267 93.0127 39.64C92.746 40.04 92.3927 40.4267 91.9527 40.8C91.5127 41.16 91.026 41.5 90.4927 41.82C89.9593 42.14 89.426 42.42 88.8927 42.66C88.3593 42.9 87.8727 43.0933 87.4327 43.24C87.326 43.76 87.2727 44.22 87.2727 44.62C87.2727 44.8733 87.3327 45.0533 87.4527 45.16C87.5727 45.2667 87.7593 45.32 88.0127 45.32C88.5727 45.32 89.166 45.22 89.7927 45.02C90.4193 44.82 91.0593 44.56 91.7127 44.24C92.366 43.92 92.9927 43.58 93.5927 43.22C94.1927 42.86 94.7393 42.52 95.2327 42.2C95.7393 41.88 96.1593 41.62 96.4927 41.42C96.826 41.22 97.046 41.12 97.1527 41.12C97.3127 41.12 97.4327 41.1733 97.5127 41.28C97.606 41.3733 97.6527 41.4867 97.6527 41.62C97.6527 41.7267 97.486 41.9333 97.1527 42.24C96.8327 42.5467 96.3993 42.9067 95.8527 43.32C95.306 43.72 94.6927 44.1333 94.0127 44.56C93.3327 44.9867 92.626 45.3867 91.8927 45.76C91.1727 46.1333 90.4727 46.4333 89.7927 46.66C89.126 46.8867 88.526 47 87.9927 47C87.2993 47 86.7593 46.74 86.3727 46.22C85.986 45.7 85.7927 44.8933 85.7927 43.8C85.7927 43.0667 85.886 42.3267 86.0727 41.58C86.2727 40.8333 86.5393 40.12 86.8727 39.44C87.2193 38.7467 87.5993 38.1333 88.0127 37.6C88.4393 37.0533 88.886 36.6267 89.3527 36.32C89.8193 36 90.2727 35.84 90.7127 35.84C91.5527 35.84 92.2127 36.0733 92.6927 36.54C93.1727 37.0067 93.4127 37.62 93.4127 38.38ZM87.8527 41.7C88.266 41.4467 88.6927 41.18 89.1327 40.9C89.5727 40.62 89.9793 40.3333 90.3527 40.04C90.726 39.7467 91.026 39.44 91.2527 39.12C91.4927 38.7867 91.6127 38.4467 91.6127 38.1C91.6127 37.6067 91.346 37.36 90.8127 37.36C90.4793 37.36 90.126 37.5733 89.7527 38C89.3927 38.4133 89.046 38.9533 88.7127 39.62C88.3793 40.2867 88.0927 40.98 87.8527 41.7Z" fill="black"/>
<path d="M69.377 47.9C69.0837 47.9 68.857 47.8133 68.697 47.64C68.537 47.48 68.457 47.0733 68.457 46.42C68.457 45.82 68.5637 45.04 68.777 44.08C68.9904 43.1067 69.277 42.0267 69.637 40.84C69.997 39.6533 70.4037 38.4267 70.857 37.16C71.3104 35.88 71.7837 34.6267 72.277 33.4C72.7837 32.16 73.2704 31.0267 73.737 30C73.9104 29.6267 74.0904 29.3667 74.277 29.22C74.4637 29.0733 74.6837 29 74.937 29C75.1104 29 75.257 29.0533 75.377 29.16C75.5104 29.2533 75.577 29.4133 75.577 29.64C75.577 29.72 75.4904 29.98 75.317 30.42C75.157 30.86 74.9304 31.44 74.637 32.16C74.357 32.88 74.0437 33.6867 73.697 34.58C73.3504 35.4733 72.997 36.4133 72.637 37.4C72.277 38.3867 71.937 39.38 71.617 40.38C71.297 41.3667 71.0237 42.3133 70.797 43.22C70.5704 44.1267 70.417 44.94 70.337 45.66C70.657 45.2733 71.0237 44.78 71.437 44.18C71.8504 43.58 72.2904 42.9333 72.757 42.24C73.2237 41.5467 73.697 40.86 74.177 40.18C74.657 39.5 75.1304 38.88 75.597 38.32C76.0637 37.76 76.497 37.3133 76.897 36.98C77.3104 36.6333 77.6704 36.46 77.977 36.46C78.4837 36.46 78.8904 36.62 79.197 36.94C79.517 37.2467 79.677 37.7533 79.677 38.46C79.677 38.86 79.597 39.34 79.437 39.9C79.2904 40.46 79.117 41.0467 78.917 41.66C78.717 42.2733 78.537 42.86 78.377 43.42C78.2304 43.98 78.157 44.46 78.157 44.86C78.157 45.4067 78.3637 45.68 78.777 45.68C79.417 45.68 80.057 45.54 80.697 45.26C81.3504 44.98 81.9704 44.6333 82.557 44.22C83.1437 43.7933 83.6837 43.3667 84.177 42.94C84.6704 42.5 85.0904 42.1267 85.437 41.82C85.8104 41.4867 86.1237 41.32 86.377 41.32C86.697 41.32 86.857 41.4867 86.857 41.82C86.857 41.9133 86.837 42.02 86.797 42.14C86.757 42.26 86.6504 42.4133 86.477 42.6C86.2637 42.84 85.957 43.1533 85.557 43.54C85.1704 43.9267 84.717 44.34 84.197 44.78C83.6904 45.22 83.137 45.6333 82.537 46.02C81.9504 46.4067 81.3437 46.7267 80.717 46.98C80.1037 47.22 79.5037 47.34 78.917 47.34C78.117 47.34 77.497 47.1133 77.057 46.66C76.6304 46.1933 76.417 45.5533 76.417 44.74C76.417 44.2333 76.497 43.62 76.657 42.9C76.817 42.18 77.017 41.42 77.257 40.62C77.5104 39.8067 77.7637 39.0133 78.017 38.24C77.5904 38.5333 77.1237 38.9733 76.617 39.56C76.1237 40.1333 75.6037 40.7867 75.057 41.52C74.5104 42.24 73.9637 42.9733 73.417 43.72C72.8837 44.4667 72.3637 45.16 71.857 45.8C71.3637 46.4267 70.9037 46.9333 70.477 47.32C70.0504 47.7067 69.6837 47.9 69.377 47.9Z" fill="black"/>
<path d="M57.5663 40.6C57.2063 40.5733 57.0396 40.34 57.0663 39.9C57.0796 39.7933 57.1529 39.6667 57.2863 39.52C57.4196 39.36 57.5729 39.2733 57.7463 39.26C58.1596 39.22 58.6663 39.16 59.2663 39.08C59.8796 38.9867 60.5529 38.88 61.2863 38.76C61.4196 38.1067 61.5796 37.42 61.7663 36.7C61.9529 35.98 62.1596 35.28 62.3863 34.6C62.6129 33.9067 62.8529 33.28 63.1062 32.72C63.3596 32.16 63.6263 31.72 63.9063 31.4C64.0529 31.2533 64.1863 31.1533 64.3063 31.1C64.4263 31.0333 64.5329 31 64.6263 31C64.8129 31 64.9596 31.08 65.0663 31.24C65.1863 31.4 65.2463 31.58 65.2463 31.78C65.2463 31.8867 65.2262 31.9933 65.1862 32.1C64.9196 32.8467 64.6329 33.7667 64.3262 34.86C64.0196 35.9533 63.6929 37.1467 63.3463 38.44C64.5729 38.24 65.7996 38.0267 67.0263 37.8C68.2529 37.5733 69.3062 37.3667 70.1862 37.18C70.4396 37.0733 70.6329 37.0933 70.7663 37.24C70.9129 37.3867 70.9863 37.5333 70.9863 37.68C70.9863 37.8667 70.9329 38.0067 70.8262 38.1C70.7329 38.1933 70.6329 38.2733 70.5263 38.34L70.5062 38.36C70.2396 38.4667 69.8396 38.5933 69.3063 38.74C68.7729 38.8733 68.1596 39.02 67.4662 39.18C66.7729 39.3267 66.0329 39.4733 65.2463 39.62C64.4729 39.7667 63.7063 39.9 62.9463 40.02C62.6396 41.1933 62.3262 42.4 62.0062 43.64C61.6996 44.8667 61.3929 46.0733 61.0863 47.26C60.9529 47.74 60.7996 48.04 60.6263 48.16C60.4663 48.2933 60.2929 48.36 60.1063 48.36C59.8929 48.36 59.7062 48.28 59.5462 48.12C59.3996 47.96 59.3796 47.6333 59.4863 47.14L60.9463 40.32C60.1463 40.44 59.4396 40.5267 58.8262 40.58C58.2262 40.6333 57.8063 40.64 57.5663 40.6Z" fill="black"/>
<path d="M36.1597 46.54C35.773 46.54 35.4263 46.32 35.1197 45.88C34.813 45.44 34.6597 44.8733 34.6597 44.18C34.6597 43.42 34.7597 42.6067 34.9597 41.74C35.173 40.8733 35.433 39.9933 35.7397 39.1C36.0464 38.1933 36.3463 37.32 36.6397 36.48C36.7063 36.3067 36.7997 36.18 36.9197 36.1C37.053 36.0067 37.253 35.96 37.5197 35.96C37.9997 35.96 38.2397 36.1933 38.2397 36.66C38.2397 36.7667 38.1864 37.0067 38.0797 37.38C37.973 37.7533 37.833 38.2133 37.6597 38.76C37.4997 39.3067 37.333 39.9 37.1597 40.54C36.9863 41.1667 36.833 41.8 36.6997 42.44C36.5664 43.08 36.473 43.6733 36.4197 44.22C36.633 43.9933 36.873 43.6467 37.1397 43.18C37.4197 42.7133 37.7197 42.1867 38.0397 41.6C38.3597 41 38.693 40.4 39.0397 39.8C39.3864 39.1867 39.733 38.6267 40.0797 38.12C40.4397 37.6 40.7863 37.1867 41.1197 36.88C41.4663 36.56 41.7864 36.4 42.0797 36.4C42.5064 36.4 42.8664 36.5333 43.1597 36.8C43.4663 37.0533 43.6997 37.5067 43.8597 38.16C44.033 38.8 44.1197 39.7067 44.1197 40.88C44.1197 41.5067 44.1797 42.0933 44.2997 42.64C44.433 43.1867 44.6397 43.6267 44.9197 43.96C45.213 44.28 45.5864 44.44 46.0397 44.44C46.7197 44.44 47.3264 44.32 47.8597 44.08C48.393 43.8267 48.853 43.5467 49.2397 43.24C49.6397 42.92 49.973 42.64 50.2397 42.4C50.5064 42.1467 50.713 42.02 50.8597 42.02C51.1664 42.02 51.3197 42.18 51.3197 42.5C51.3197 42.6333 51.2197 42.8467 51.0197 43.14C50.833 43.42 50.5664 43.74 50.2197 44.1C49.8864 44.4467 49.4997 44.7867 49.0597 45.12C48.633 45.44 48.173 45.7067 47.6797 45.92C47.1997 46.1333 46.713 46.24 46.2197 46.24C45.2997 46.24 44.5463 46.06 43.9597 45.7C43.3863 45.34 42.9597 44.7467 42.6797 43.92C42.413 43.0933 42.2797 41.9867 42.2797 40.6C42.2797 39.84 42.233 39.2867 42.1397 38.94C42.0597 38.58 41.9064 38.34 41.6797 38.22C41.5197 38.5 41.313 38.9 41.0597 39.42C40.8064 39.9267 40.513 40.4933 40.1797 41.12C39.8597 41.7467 39.5197 42.38 39.1597 43.02C38.813 43.6467 38.4597 44.2267 38.0997 44.76C37.7397 45.2933 37.393 45.7267 37.0597 46.06C36.7264 46.38 36.4264 46.54 36.1597 46.54Z" fill="black"/>
<path d="M31.6353 38.38C31.6353 38.8067 31.502 39.2267 31.2353 39.64C30.9686 40.04 30.6153 40.4267 30.1753 40.8C29.7353 41.16 29.2486 41.5 28.7153 41.82C28.182 42.14 27.6486 42.42 27.1153 42.66C26.582 42.9 26.0953 43.0933 25.6553 43.24C25.5486 43.76 25.4953 44.22 25.4953 44.62C25.4953 44.8733 25.5553 45.0533 25.6753 45.16C25.7953 45.2667 25.982 45.32 26.2353 45.32C26.7953 45.32 27.3886 45.22 28.0153 45.02C28.642 44.82 29.282 44.56 29.9353 44.24C30.5886 43.92 31.2153 43.58 31.8153 43.22C32.4153 42.86 32.962 42.52 33.4553 42.2C33.962 41.88 34.382 41.62 34.7153 41.42C35.0486 41.22 35.2686 41.12 35.3753 41.12C35.5353 41.12 35.6553 41.1733 35.7353 41.28C35.8286 41.3733 35.8753 41.4867 35.8753 41.62C35.8753 41.7267 35.7086 41.9333 35.3753 42.24C35.0553 42.5467 34.622 42.9067 34.0753 43.32C33.5286 43.72 32.9153 44.1333 32.2353 44.56C31.5553 44.9867 30.8486 45.3867 30.1153 45.76C29.3953 46.1333 28.6953 46.4333 28.0153 46.66C27.3486 46.8867 26.7486 47 26.2153 47C25.522 47 24.982 46.74 24.5953 46.22C24.2086 45.7 24.0153 44.8933 24.0153 43.8C24.0153 43.0667 24.1086 42.3267 24.2953 41.58C24.4953 40.8333 24.762 40.12 25.0953 39.44C25.442 38.7467 25.822 38.1333 26.2353 37.6C26.662 37.0533 27.1086 36.6267 27.5753 36.32C28.042 36 28.4953 35.84 28.9353 35.84C29.7753 35.84 30.4353 36.0733 30.9153 36.54C31.3953 37.0067 31.6353 37.62 31.6353 38.38ZM26.0753 41.7C26.4886 41.4467 26.9153 41.18 27.3553 40.9C27.7953 40.62 28.202 40.3333 28.5753 40.04C28.9486 39.7467 29.2486 39.44 29.4753 39.12C29.7153 38.7867 29.8353 38.4467 29.8353 38.1C29.8353 37.6067 29.5686 37.36 29.0353 37.36C28.702 37.36 28.3486 37.5733 27.9753 38C27.6153 38.4133 27.2686 38.9533 26.9353 39.62C26.602 40.2867 26.3153 40.98 26.0753 41.7Z" fill="black"/>
<path d="M10.9534 52.94C10.7268 52.94 10.5468 52.86 10.4134 52.7C10.2934 52.54 10.2334 52.2333 10.2334 51.78C10.2334 51.1267 10.2801 50.3667 10.3734 49.5C10.4668 48.6333 10.5934 47.7134 10.7534 46.74C10.9268 45.7667 11.1134 44.7933 11.3134 43.82C11.5268 42.8467 11.7468 41.92 11.9734 41.04C12.2134 40.16 12.4468 39.38 12.6734 38.7C12.9001 38.0067 13.1068 37.46 13.2934 37.06C13.4934 36.66 13.6668 36.46 13.8134 36.46C14.0668 36.46 14.2668 36.5333 14.4134 36.68C14.5734 36.8267 14.6534 37.0467 14.6534 37.34C14.6534 37.7133 14.5401 38.32 14.3134 39.16C14.0868 39.9867 13.7934 41.0667 13.4334 42.4C13.7668 41.7867 14.1268 41.1467 14.5134 40.48C14.9001 39.8133 15.3068 39.1667 15.7334 38.54C16.1601 37.9 16.5868 37.3267 17.0134 36.82C17.4534 36.3133 17.8801 35.9067 18.2934 35.6C18.7068 35.2933 19.1068 35.14 19.4934 35.14C19.9068 35.14 20.2734 35.2733 20.5934 35.54C20.9134 35.7933 21.1601 36.14 21.3334 36.58C21.5201 37.0067 21.6134 37.4867 21.6134 38.02C21.6134 39.1267 21.4268 40.2 21.0534 41.24C20.6801 42.2667 20.1601 43.1933 19.4934 44.02C18.8401 44.8333 18.0668 45.48 17.1734 45.96C16.2934 46.44 15.3401 46.68 14.3134 46.68C13.9268 46.68 13.5801 46.66 13.2734 46.62C12.9668 46.58 12.7001 46.5333 12.4734 46.48C12.3134 47.36 12.1601 48.2667 12.0134 49.2C11.8668 50.1333 11.7201 51.1267 11.5734 52.18C11.5334 52.46 11.4668 52.6534 11.3734 52.76C11.2801 52.88 11.1401 52.94 10.9534 52.94ZM19.8534 36.66C19.5734 36.66 19.2401 36.82 18.8534 37.14C18.4801 37.46 18.0734 37.8867 17.6334 38.42C17.2068 38.94 16.7734 39.52 16.3334 40.16C15.8934 40.7867 15.4668 41.4267 15.0534 42.08C14.6401 42.7333 14.2601 43.34 13.9134 43.9C13.5801 44.46 13.3068 44.9267 13.0934 45.3C14.1334 45.2733 15.0468 45.0667 15.8334 44.68C16.6201 44.28 17.2934 43.7733 17.8534 43.16C18.4134 42.5333 18.8668 41.86 19.2134 41.14C19.5734 40.4067 19.8334 39.7 19.9934 39.02C20.1534 38.3267 20.2334 37.7267 20.2334 37.22C20.2334 36.8467 20.1068 36.66 19.8534 36.66Z" fill="black"/>
<path d="M3.02 47.2C2.23334 47.2 1.61334 46.9 1.16 46.3C0.70667 45.7 0.480003 44.92 0.480003 43.96C0.480003 43.6133 0.52667 43.2467 0.620003 42.86C0.72667 42.46 0.860003 42.1 1.02 41.78C0.92667 41.6867 0.853337 41.56 0.800003 41.4C0.74667 41.2267 0.720003 41.0133 0.720003 40.76C0.720003 39.9733 0.853337 39.2533 1.12 38.6C1.38667 37.9466 1.74 37.38 2.18 36.9C2.62 36.4067 3.10667 36.0266 3.64 35.76C4.18667 35.4933 4.74 35.36 5.3 35.36C6.22 35.36 6.96667 35.6933 7.54 36.36C8.11334 37.0133 8.4 38.0133 8.4 39.36C8.4 40.0667 8.29334 40.7867 8.08 41.52C7.88 42.2533 7.6 42.96 7.24 43.64C6.89334 44.32 6.48667 44.9267 6.02 45.46C5.56667 45.9933 5.08 46.42 4.56 46.74C4.05334 47.0467 3.54 47.2 3.02 47.2ZM2.34 41.1C2.42 41.2067 2.46 41.3467 2.46 41.52C2.46 41.72 2.42 41.92 2.34 42.12C2.27334 42.32 2.2 42.5933 2.12 42.94C2.04 43.2867 2 43.78 2 44.42C2 45.06 2.25334 45.38 2.76 45.38C3.32 45.38 3.84 45.16 4.32 44.72C4.8 44.2667 5.22667 43.6867 5.6 42.98C5.97334 42.2733 6.26 41.52 6.46 40.72C6.67334 39.9067 6.78 39.14 6.78 38.42C6.78 37.9533 6.69334 37.6267 6.52 37.44C6.34667 37.24 6.03334 37.14 5.58 37.14C5.11334 37.14 4.62667 37.3 4.12 37.62C3.62667 37.9267 3.21334 38.3467 2.88 38.88C2.54667 39.4133 2.38 40.0133 2.38 40.68C2.38 40.8267 2.36667 40.9667 2.34 41.1Z" fill="black"/>
<path d="M239.661 19.2C238.874 19.2 238.254 18.9 237.801 18.3C237.347 17.7 237.121 16.92 237.121 15.96C237.121 15.6133 237.167 15.2467 237.261 14.86C237.367 14.46 237.501 14.1 237.661 13.78C237.567 13.6867 237.494 13.56 237.441 13.4C237.387 13.2267 237.361 13.0133 237.361 12.76C237.361 11.9733 237.494 11.2533 237.761 10.6C238.027 9.94667 238.381 9.38 238.821 8.9C239.261 8.40667 239.747 8.02667 240.281 7.76C240.827 7.49333 241.381 7.36 241.941 7.36C242.861 7.36 243.607 7.69333 244.181 8.36C244.754 9.01333 245.041 10.0133 245.041 11.36C245.041 12.0667 244.934 12.7867 244.721 13.52C244.521 14.2533 244.241 14.96 243.881 15.64C243.534 16.32 243.127 16.9267 242.661 17.46C242.207 17.9933 241.721 18.42 241.201 18.74C240.694 19.0467 240.181 19.2 239.661 19.2ZM238.981 13.1C239.061 13.2067 239.101 13.3467 239.101 13.52C239.101 13.72 239.061 13.92 238.981 14.12C238.914 14.32 238.841 14.5933 238.761 14.94C238.681 15.2867 238.641 15.78 238.641 16.42C238.641 17.06 238.894 17.38 239.401 17.38C239.961 17.38 240.481 17.16 240.961 16.72C241.441 16.2667 241.867 15.6867 242.241 14.98C242.614 14.2733 242.901 13.52 243.101 12.72C243.314 11.9067 243.421 11.14 243.421 10.42C243.421 9.95333 243.334 9.62667 243.161 9.44C242.987 9.24 242.674 9.14 242.221 9.14C241.754 9.14 241.267 9.3 240.761 9.62C240.267 9.92667 239.854 10.3467 239.521 10.88C239.187 11.4133 239.021 12.0133 239.021 12.68C239.021 12.8267 239.007 12.9667 238.981 13.1Z" fill="black"/>
<path d="M225.75 12.6C225.39 12.5733 225.223 12.34 225.25 11.9C225.263 11.7933 225.337 11.6667 225.47 11.52C225.603 11.36 225.757 11.2733 225.93 11.26C226.343 11.22 226.85 11.16 227.45 11.08C228.063 10.9867 228.737 10.88 229.47 10.76C229.603 10.1067 229.763 9.42 229.95 8.7C230.137 7.98 230.343 7.28 230.57 6.6C230.797 5.90667 231.037 5.28 231.29 4.72C231.543 4.16 231.81 3.72 232.09 3.4C232.237 3.25333 232.37 3.15333 232.49 3.1C232.61 3.03333 232.717 3 232.81 3C232.997 3 233.143 3.08 233.25 3.24C233.37 3.4 233.43 3.58 233.43 3.78C233.43 3.88667 233.41 3.99333 233.37 4.1C233.103 4.84667 232.817 5.76667 232.51 6.86C232.203 7.95333 231.877 9.14667 231.53 10.44C232.757 10.24 233.983 10.0267 235.21 9.8C236.437 9.57333 237.49 9.36667 238.37 9.18C238.623 9.07333 238.817 9.09333 238.95 9.24C239.097 9.38667 239.17 9.53333 239.17 9.68C239.17 9.86667 239.117 10.0067 239.01 10.1C238.917 10.1933 238.817 10.2733 238.71 10.34L238.69 10.36C238.423 10.4667 238.023 10.5933 237.49 10.74C236.957 10.8733 236.343 11.02 235.65 11.18C234.957 11.3267 234.217 11.4733 233.43 11.62C232.657 11.7667 231.89 11.9 231.13 12.02C230.823 13.1933 230.51 14.4 230.19 15.64C229.883 16.8667 229.577 18.0733 229.27 19.26C229.137 19.74 228.983 20.04 228.81 20.16C228.65 20.2933 228.477 20.36 228.29 20.36C228.077 20.36 227.89 20.28 227.73 20.12C227.583 19.96 227.563 19.6333 227.67 19.14L229.13 12.32C228.33 12.44 227.623 12.5267 227.01 12.58C226.41 12.6333 225.99 12.64 225.75 12.6Z" fill="black"/>
<path d="M207.354 19.72C206.968 19.72 206.694 19.5933 206.534 19.34C206.374 19.0867 206.294 18.6533 206.294 18.04C206.294 17.5467 206.354 16.9333 206.474 16.2C206.608 15.4667 206.768 14.66 206.954 13.78C207.141 12.8867 207.334 11.9667 207.534 11.02C206.721 12.1267 205.821 13.0133 204.834 13.68C203.861 14.3333 202.781 14.76 201.594 14.96C201.314 15.6133 200.994 16.2067 200.634 16.74C200.274 17.2733 199.881 17.7 199.454 18.02C199.028 18.34 198.581 18.5 198.114 18.5C197.541 18.5 197.054 18.2667 196.654 17.8C196.268 17.3333 196.074 16.6533 196.074 15.76C196.074 15.1467 196.154 14.6 196.314 14.12C196.474 13.6267 196.654 13.2733 196.854 13.06C196.668 12.5667 196.574 12 196.574 11.36C196.574 10.5733 196.754 9.88 197.114 9.28C197.474 8.66667 197.954 8.19334 198.554 7.86C199.154 7.51334 199.801 7.34 200.494 7.34C201.054 7.34 201.554 7.6 201.994 8.12C202.434 8.64 202.654 9.38667 202.654 10.36C202.654 11.2667 202.494 12.2733 202.174 13.38C202.908 13.1 203.641 12.6733 204.374 12.1C205.121 11.5267 205.841 10.84 206.534 10.04C207.228 9.24 207.854 8.35334 208.414 7.38C208.561 7.14 208.768 7.02 209.034 7.02C209.274 7.02 209.461 7.09334 209.594 7.24C209.741 7.37334 209.814 7.56 209.814 7.8C209.814 7.86667 209.774 8.09334 209.694 8.48C209.628 8.86667 209.534 9.36 209.414 9.96C209.308 10.56 209.188 11.22 209.054 11.94C208.921 12.66 208.788 13.3867 208.654 14.12C208.534 14.8533 208.434 15.5333 208.354 16.16C208.661 15.5733 209.008 14.9333 209.394 14.24C209.781 13.5467 210.174 12.8667 210.574 12.2C210.988 11.52 211.381 10.9 211.754 10.34C212.141 9.78 212.481 9.33334 212.774 9C213.081 8.65334 213.321 8.48 213.494 8.48C213.814 8.48 214.094 8.58667 214.334 8.8C214.574 9.01334 214.694 9.23334 214.694 9.46C214.694 9.76667 214.661 10.2333 214.594 10.86C214.528 11.4733 214.448 12.1667 214.354 12.94C214.261 13.7133 214.168 14.4867 214.074 15.26C213.981 16.0333 213.901 16.7333 213.834 17.36C213.768 17.9867 213.734 18.4533 213.734 18.76C213.734 18.96 213.648 19.14 213.474 19.3C213.301 19.46 213.108 19.54 212.894 19.54C212.748 19.54 212.621 19.4933 212.514 19.4C212.421 19.32 212.348 19.1333 212.294 18.84C212.241 18.5467 212.214 18.0933 212.214 17.48C212.214 16.88 212.234 16.2267 212.274 15.52C212.314 14.8 212.368 14.0867 212.434 13.38C212.514 12.66 212.601 12.0133 212.694 11.44C212.388 11.9467 212.034 12.5533 211.634 13.26C211.248 13.9667 210.841 14.6933 210.414 15.44C209.988 16.1867 209.574 16.8867 209.174 17.54C208.774 18.1933 208.414 18.72 208.094 19.12C207.774 19.52 207.528 19.72 207.354 19.72ZM200.414 13.7C200.574 13.1933 200.701 12.6533 200.794 12.08C200.901 11.4933 200.954 10.9067 200.954 10.32C200.954 9.97334 200.888 9.69334 200.754 9.48C200.621 9.26667 200.441 9.16 200.214 9.16C199.868 9.16 199.528 9.26 199.194 9.46C198.861 9.64667 198.581 9.91334 198.354 10.26C198.141 10.6067 198.034 11.02 198.034 11.5C198.034 12.1 198.261 12.6133 198.714 13.04C199.181 13.4533 199.748 13.6733 200.414 13.7ZM199.874 15.08C198.968 15.04 198.234 14.7733 197.674 14.28C197.648 14.4533 197.621 14.62 197.594 14.78C197.568 14.9267 197.554 15.0733 197.554 15.22C197.554 15.6333 197.621 15.96 197.754 16.2C197.901 16.4267 198.121 16.54 198.414 16.54C198.654 16.54 198.901 16.4067 199.154 16.14C199.408 15.8733 199.648 15.52 199.874 15.08Z" fill="black"/>
<path d="M188.168 19.28C187.514 19.28 186.948 19.1333 186.468 18.84C186.001 18.5333 185.641 18.14 185.388 17.66C185.134 17.18 185.008 16.6867 185.008 16.18C185.008 15.1133 185.194 14.14 185.568 13.26C185.941 12.3667 186.408 11.58 186.968 10.9C187.541 10.2067 188.128 9.61999 188.728 9.13999C189.341 8.65999 189.894 8.29999 190.388 8.05999C190.894 7.80666 191.254 7.67999 191.468 7.67999C191.894 7.67999 192.108 7.89333 192.108 8.31999C192.108 8.51999 191.974 8.75333 191.708 9.01999C191.441 9.27333 191.101 9.57333 190.688 9.91999C190.274 10.2667 189.834 10.66 189.368 11.1C188.901 11.5267 188.461 12.0133 188.048 12.56C187.634 13.0933 187.294 13.6933 187.028 14.36C186.761 15.0133 186.628 15.7333 186.628 16.52C186.628 17.32 186.954 17.72 187.608 17.72C188.208 17.72 188.821 17.6067 189.448 17.38C190.088 17.1533 190.714 16.86 191.328 16.5C191.954 16.1267 192.554 15.74 193.128 15.34C193.701 14.94 194.221 14.56 194.688 14.2C195.154 13.8267 195.548 13.5267 195.868 13.3C196.188 13.0733 196.414 12.96 196.548 12.96C196.814 12.96 196.948 13.1067 196.948 13.4C196.948 13.6267 196.794 13.9267 196.488 14.3C196.181 14.6733 195.768 15.08 195.248 15.52C194.728 15.96 194.148 16.4067 193.508 16.86C192.868 17.3 192.221 17.7067 191.568 18.08C190.914 18.44 190.288 18.7333 189.688 18.96C189.101 19.1733 188.594 19.28 188.168 19.28Z" fill="black"/>
<path d="M180.16 19.1C179.906 19.1 179.68 19.0067 179.48 18.82C179.28 18.62 179.18 18.3133 179.18 17.9C179.18 17.6067 179.22 17.2 179.3 16.68C179.38 16.1467 179.486 15.5667 179.62 14.94C179.753 14.3133 179.893 13.6933 180.04 13.08C180.2 12.4533 180.36 11.8933 180.52 11.4C180.68 10.9067 180.82 10.54 180.94 10.3C181.046 10.1133 181.146 9.99333 181.24 9.93999C181.346 9.88666 181.446 9.85999 181.54 9.85999C181.726 9.85999 181.886 9.91999 182.02 10.04C182.166 10.16 182.24 10.3933 182.24 10.74C182.24 10.94 182.2 11.2733 182.12 11.74C182.053 12.1933 181.96 12.7267 181.84 13.34C181.733 13.94 181.613 14.56 181.48 15.2C181.36 15.8267 181.24 16.4267 181.12 17C181 17.5733 180.906 18.0533 180.84 18.44C180.786 18.6533 180.693 18.82 180.56 18.94C180.44 19.0467 180.306 19.1 180.16 19.1ZM182.12 8.03999C181.813 8.03999 181.52 7.94666 181.24 7.75999C180.973 7.57333 180.84 7.27333 180.84 6.85999C180.84 6.51333 180.92 6.23333 181.08 6.01999C181.253 5.80666 181.453 5.65333 181.68 5.55999C181.92 5.45333 182.126 5.39999 182.3 5.39999C182.473 5.39999 182.666 5.43999 182.88 5.51999C183.106 5.58666 183.3 5.71999 183.46 5.91999C183.62 6.10666 183.7 6.38666 183.7 6.75999C183.7 7.01333 183.613 7.23999 183.44 7.43999C183.266 7.62666 183.053 7.77333 182.8 7.87999C182.56 7.98666 182.333 8.03999 182.12 8.03999Z" fill="black"/>
<path d="M164.402 19.48C164.176 19.48 163.982 19.38 163.822 19.18C163.662 18.98 163.582 18.6867 163.582 18.3C163.582 17.8467 163.649 17.2 163.782 16.36C163.929 15.52 164.142 14.4067 164.422 13.02C164.062 13.8733 163.662 14.68 163.222 15.44C162.796 16.2 162.342 16.82 161.862 17.3C161.382 17.78 160.889 18.02 160.382 18.02C159.889 18.02 159.449 17.8267 159.062 17.44C158.689 17.0533 158.502 16.3733 158.502 15.4C158.502 14.8533 158.549 14.24 158.642 13.56C158.736 12.8667 158.856 12.18 159.002 11.5C159.149 10.82 159.296 10.2133 159.442 9.68001C159.589 9.13334 159.722 8.73334 159.842 8.48001C159.936 8.26667 160.029 8.12667 160.122 8.06001C160.216 7.98001 160.342 7.94001 160.502 7.94001C160.689 7.94001 160.889 8.02001 161.102 8.18001C161.316 8.34001 161.422 8.60667 161.422 8.98001C161.422 9.07334 161.376 9.29334 161.282 9.64001C161.202 9.97334 161.096 10.3867 160.962 10.88C160.842 11.36 160.716 11.88 160.582 12.44C160.449 13 160.336 13.56 160.242 14.12C160.162 14.68 160.122 15.1933 160.122 15.66C160.122 15.9133 160.149 16.12 160.202 16.28C160.256 16.44 160.389 16.52 160.602 16.52C160.789 16.52 161.022 16.3333 161.302 15.96C161.596 15.5867 161.909 15.0933 162.242 14.48C162.589 13.8533 162.942 13.16 163.302 12.4C163.676 11.64 164.036 10.86 164.382 10.06C164.742 9.26001 165.069 8.5 165.362 7.78C165.469 7.54 165.582 7.39334 165.702 7.34001C165.822 7.27334 165.956 7.24001 166.102 7.24001C166.342 7.24001 166.556 7.34001 166.742 7.54001C166.942 7.72667 167.042 7.97334 167.042 8.28001C167.042 8.48001 167.002 8.82667 166.922 9.32001C166.856 9.81334 166.756 10.3933 166.622 11.06C166.502 11.7133 166.362 12.4067 166.202 13.14C166.056 13.8733 165.909 14.6 165.762 15.32C165.616 16.0267 165.476 16.6733 165.342 17.26C165.222 17.8467 165.122 18.32 165.042 18.68C164.976 19.0133 164.882 19.2267 164.762 19.32C164.656 19.4267 164.536 19.48 164.402 19.48Z" fill="black"/>
<path d="M144.265 18.54C143.879 18.54 143.532 18.32 143.225 17.88C142.919 17.44 142.765 16.8733 142.765 16.18C142.765 15.42 142.865 14.6067 143.065 13.74C143.279 12.8733 143.539 11.9933 143.845 11.1C144.152 10.1933 144.452 9.31999 144.745 8.47999C144.812 8.30666 144.905 8.17999 145.025 8.09999C145.159 8.00666 145.359 7.95999 145.625 7.95999C146.105 7.95999 146.345 8.19333 146.345 8.65999C146.345 8.76666 146.292 9.00666 146.185 9.37999C146.078 9.75333 145.939 10.2133 145.765 10.76C145.605 11.3067 145.439 11.9 145.265 12.54C145.092 13.1667 144.939 13.8 144.805 14.44C144.672 15.08 144.579 15.6733 144.525 16.22C144.739 15.9933 144.979 15.6467 145.245 15.18C145.525 14.7133 145.825 14.1867 146.145 13.6C146.465 13 146.799 12.4 147.145 11.8C147.492 11.1867 147.838 10.6267 148.185 10.12C148.545 9.59999 148.892 9.18666 149.225 8.87999C149.572 8.55999 149.892 8.39999 150.185 8.39999C150.612 8.39999 150.972 8.53333 151.265 8.79999C151.572 9.05333 151.805 9.50666 151.965 10.16C152.139 10.8 152.225 11.7067 152.225 12.88C152.225 13.5067 152.285 14.0933 152.405 14.64C152.538 15.1867 152.745 15.6267 153.025 15.96C153.319 16.28 153.692 16.44 154.145 16.44C154.825 16.44 155.432 16.32 155.965 16.08C156.499 15.8267 156.959 15.5467 157.345 15.24C157.745 14.92 158.079 14.64 158.345 14.4C158.612 14.1467 158.819 14.02 158.965 14.02C159.272 14.02 159.425 14.18 159.425 14.5C159.425 14.6333 159.325 14.8467 159.125 15.14C158.939 15.42 158.672 15.74 158.325 16.1C157.992 16.4467 157.605 16.7867 157.165 17.12C156.739 17.44 156.279 17.7067 155.785 17.92C155.305 18.1333 154.818 18.24 154.325 18.24C153.405 18.24 152.652 18.06 152.065 17.7C151.492 17.34 151.065 16.7467 150.785 15.92C150.519 15.0933 150.385 13.9867 150.385 12.6C150.385 11.84 150.339 11.2867 150.245 10.94C150.165 10.58 150.012 10.34 149.785 10.22C149.625 10.5 149.419 10.9 149.165 11.42C148.912 11.9267 148.619 12.4933 148.285 13.12C147.965 13.7467 147.625 14.38 147.265 15.02C146.919 15.6467 146.565 16.2267 146.205 16.76C145.845 17.2933 145.499 17.7267 145.165 18.06C144.832 18.38 144.532 18.54 144.265 18.54Z" fill="black"/>
<path d="M139.741 10.38C139.741 10.8067 139.607 11.2267 139.341 11.64C139.074 12.04 138.721 12.4267 138.281 12.8C137.841 13.16 137.354 13.5 136.821 13.82C136.287 14.14 135.754 14.42 135.221 14.66C134.687 14.9 134.201 15.0933 133.761 15.24C133.654 15.76 133.601 16.22 133.601 16.62C133.601 16.8733 133.661 17.0533 133.781 17.16C133.901 17.2667 134.087 17.32 134.341 17.32C134.901 17.32 135.494 17.22 136.121 17.02C136.747 16.82 137.387 16.56 138.041 16.24C138.694 15.92 139.321 15.58 139.921 15.22C140.521 14.86 141.067 14.52 141.561 14.2C142.067 13.88 142.487 13.62 142.821 13.42C143.154 13.22 143.374 13.12 143.481 13.12C143.641 13.12 143.761 13.1733 143.841 13.28C143.934 13.3733 143.981 13.4867 143.981 13.62C143.981 13.7267 143.814 13.9333 143.481 14.24C143.161 14.5467 142.727 14.9067 142.181 15.32C141.634 15.72 141.021 16.1333 140.341 16.56C139.661 16.9867 138.954 17.3867 138.221 17.76C137.501 18.1333 136.801 18.4333 136.121 18.66C135.454 18.8867 134.854 19 134.321 19C133.627 19 133.087 18.74 132.701 18.22C132.314 17.7 132.121 16.8933 132.121 15.8C132.121 15.0667 132.214 14.3267 132.401 13.58C132.601 12.8333 132.867 12.12 133.201 11.44C133.547 10.7467 133.927 10.1333 134.341 9.6C134.767 9.05333 135.214 8.62666 135.681 8.32C136.147 8 136.601 7.84 137.041 7.84C137.881 7.84 138.541 8.07333 139.021 8.54C139.501 9.00666 139.741 9.62 139.741 10.38ZM134.181 13.7C134.594 13.4467 135.021 13.18 135.461 12.9C135.901 12.62 136.307 12.3333 136.681 12.04C137.054 11.7467 137.354 11.44 137.581 11.12C137.821 10.7867 137.941 10.4467 137.941 10.1C137.941 9.60666 137.674 9.36 137.141 9.36C136.807 9.36 136.454 9.57333 136.081 10C135.721 10.4133 135.374 10.9533 135.041 11.62C134.707 12.2867 134.421 12.98 134.181 13.7Z" fill="black"/>
<path d="M127.727 18.4C127.714 18.6133 127.627 18.7867 127.467 18.92C127.307 19.0533 127.121 19.12 126.907 19.12C126.667 19.12 126.467 19.04 126.307 18.88C126.147 18.72 126.067 18.4733 126.067 18.14C126.067 17.2733 126.107 16.3333 126.187 15.32C126.267 14.2933 126.367 13.28 126.487 12.28C126.607 11.2667 126.727 10.3333 126.847 9.48C126.407 10.1067 125.927 10.8 125.407 11.56C124.901 12.32 124.381 13.0733 123.847 13.82C123.314 14.5667 122.794 15.2533 122.287 15.88C121.781 16.4933 121.321 16.9933 120.907 17.38C120.494 17.7533 120.154 17.94 119.887 17.94C119.394 17.94 118.967 17.7467 118.607 17.36C118.247 16.96 118.067 16.46 118.067 15.86C118.067 15.62 118.094 15.2933 118.147 14.88C118.201 14.4533 118.261 14.0067 118.327 13.54C118.394 13.0733 118.454 12.64 118.507 12.24C118.561 11.8267 118.587 11.52 118.587 11.32C118.587 11.1333 118.567 10.9733 118.527 10.84C118.501 10.6933 118.434 10.62 118.327 10.62C118.167 10.62 117.947 10.8 117.667 11.16C117.387 11.5067 117.074 11.9533 116.727 12.5C116.394 13.0467 116.047 13.6267 115.687 14.24C115.341 14.8533 115.014 15.4333 114.707 15.98C114.401 16.5133 114.141 16.9333 113.927 17.24C113.754 17.5333 113.594 17.7467 113.447 17.88C113.301 18.0133 113.121 18.08 112.907 18.08C112.654 18.08 112.421 17.9467 112.207 17.68C112.007 17.4133 111.907 17.0867 111.907 16.7C111.907 16.4733 111.947 16.12 112.027 15.64C112.107 15.1467 112.207 14.6067 112.327 14.02C112.461 13.4333 112.587 12.86 112.707 12.3C112.841 11.7267 112.954 11.24 113.047 10.84C113.154 10.3867 113.287 10.08 113.447 9.92C113.607 9.76 113.781 9.68 113.967 9.68C114.221 9.68 114.421 9.77333 114.567 9.96C114.727 10.1333 114.807 10.4067 114.807 10.78C114.807 10.8467 114.767 11.0267 114.687 11.32C114.607 11.6 114.507 11.9467 114.387 12.36C114.281 12.76 114.161 13.18 114.027 13.62C113.907 14.06 113.807 14.4667 113.727 14.84C114.021 14.3467 114.327 13.8133 114.647 13.24C114.981 12.6667 115.314 12.1 115.647 11.54C115.981 10.9667 116.314 10.4467 116.647 9.98C116.981 9.5 117.307 9.12 117.627 8.84C117.947 8.56 118.254 8.42 118.547 8.42C118.894 8.42 119.214 8.52666 119.507 8.74C119.814 8.95333 120.061 9.24 120.247 9.6C120.434 9.96 120.527 10.36 120.527 10.8C120.527 11.1067 120.474 11.54 120.367 12.1C120.261 12.6467 120.147 13.24 120.027 13.88C119.921 14.52 119.854 15.1267 119.827 15.7C119.827 15.8333 119.867 15.9 119.947 15.9C120.014 15.9 120.094 15.8533 120.187 15.76C120.574 15.3333 121.001 14.82 121.467 14.22C121.934 13.6067 122.407 12.96 122.887 12.28C123.381 11.6 123.867 10.9333 124.347 10.28C124.827 9.61333 125.274 9.01333 125.687 8.48C126.114 7.93333 126.487 7.5 126.807 7.18C127.141 6.86 127.401 6.7 127.587 6.7C127.987 6.7 128.294 6.81333 128.507 7.04C128.721 7.26666 128.827 7.64666 128.827 8.18C128.827 8.60666 128.794 9.16 128.727 9.84C128.674 10.52 128.601 11.26 128.507 12.06C128.427 12.86 128.334 13.6667 128.227 14.48C128.134 15.28 128.041 16.0267 127.947 16.72C127.854 17.4 127.781 17.96 127.727 18.4Z" fill="black"/>
<path d="M99.9166 10.38C99.9166 10.8067 99.7832 11.2267 99.5166 11.64C99.2499 12.04 98.8966 12.4267 98.4566 12.8C98.0166 13.16 97.5299 13.5 96.9966 13.82C96.4632 14.14 95.9299 14.42 95.3966 14.66C94.8632 14.9 94.3766 15.0933 93.9366 15.24C93.8299 15.76 93.7766 16.22 93.7766 16.62C93.7766 16.8733 93.8366 17.0533 93.9566 17.16C94.0766 17.2667 94.2632 17.32 94.5166 17.32C95.0766 17.32 95.6699 17.22 96.2966 17.02C96.9232 16.82 97.5632 16.56 98.2166 16.24C98.8699 15.92 99.4966 15.58 100.097 15.22C100.697 14.86 101.243 14.52 101.737 14.2C102.243 13.88 102.663 13.62 102.997 13.42C103.33 13.22 103.55 13.12 103.657 13.12C103.817 13.12 103.937 13.1733 104.017 13.28C104.11 13.3733 104.157 13.4867 104.157 13.62C104.157 13.7267 103.99 13.9333 103.657 14.24C103.337 14.5467 102.903 14.9067 102.357 15.32C101.81 15.72 101.197 16.1333 100.517 16.56C99.8366 16.9867 99.1299 17.3867 98.3966 17.76C97.6766 18.1333 96.9766 18.4333 96.2966 18.66C95.6299 18.8867 95.0299 19 94.4966 19C93.8032 19 93.2632 18.74 92.8766 18.22C92.4899 17.7 92.2966 16.8933 92.2966 15.8C92.2966 15.0667 92.3899 14.3267 92.5766 13.58C92.7766 12.8333 93.0432 12.12 93.3766 11.44C93.7232 10.7467 94.1032 10.1333 94.5166 9.6C94.9432 9.05333 95.3899 8.62666 95.8566 8.32C96.3232 8 96.7766 7.84 97.2166 7.84C98.0566 7.84 98.7166 8.07333 99.1966 8.54C99.6766 9.00666 99.9166 9.62 99.9166 10.38ZM94.3566 13.7C94.7699 13.4467 95.1966 13.18 95.6366 12.9C96.0766 12.62 96.4832 12.3333 96.8566 12.04C97.2299 11.7467 97.5299 11.44 97.7566 11.12C97.9966 10.7867 98.1166 10.4467 98.1166 10.1C98.1166 9.60666 97.8499 9.36 97.3166 9.36C96.9832 9.36 96.6299 9.57333 96.2566 10C95.8966 10.4133 95.5499 10.9533 95.2166 11.62C94.8832 12.2867 94.5966 12.98 94.3566 13.7Z" fill="black"/>
<path d="M75.8809 19.9C75.5876 19.9 75.3609 19.8133 75.2009 19.64C75.0409 19.48 74.9609 19.0733 74.9609 18.42C74.9609 17.82 75.0676 17.04 75.2809 16.08C75.4943 15.1067 75.7809 14.0267 76.1409 12.84C76.5009 11.6533 76.9076 10.4267 77.3609 9.16C77.8143 7.88 78.2876 6.62667 78.7809 5.4C79.2876 4.16 79.7743 3.02667 80.2409 2C80.4143 1.62667 80.5943 1.36667 80.7809 1.22C80.9676 1.07333 81.1876 1 81.4409 1C81.6143 1 81.7609 1.05333 81.8809 1.16C82.0143 1.25333 82.0809 1.41333 82.0809 1.64C82.0809 1.72 81.9943 1.98 81.8209 2.42C81.6609 2.86 81.4343 3.44 81.1409 4.16C80.8609 4.88 80.5476 5.68667 80.2009 6.58C79.8543 7.47333 79.5009 8.41333 79.1409 9.4C78.7809 10.3867 78.4409 11.38 78.1209 12.38C77.8009 13.3667 77.5276 14.3133 77.3009 15.22C77.0743 16.1267 76.9209 16.94 76.8409 17.66C77.1609 17.2733 77.5276 16.78 77.9409 16.18C78.3543 15.58 78.7943 14.9333 79.2609 14.24C79.7276 13.5467 80.2009 12.86 80.6809 12.18C81.1609 11.5 81.6343 10.88 82.1009 10.32C82.5676 9.76 83.0009 9.31333 83.4009 8.98C83.8143 8.63333 84.1743 8.46 84.4809 8.46C84.9876 8.46 85.3943 8.62 85.7009 8.94C86.0209 9.24667 86.1809 9.75333 86.1809 10.46C86.1809 10.86 86.1009 11.34 85.9409 11.9C85.7943 12.46 85.6209 13.0467 85.4209 13.66C85.2209 14.2733 85.0409 14.86 84.8809 15.42C84.7343 15.98 84.6609 16.46 84.6609 16.86C84.6609 17.4067 84.8676 17.68 85.2809 17.68C85.9209 17.68 86.5609 17.54 87.2009 17.26C87.8543 16.98 88.4743 16.6333 89.0609 16.22C89.6476 15.7933 90.1876 15.3667 90.6809 14.94C91.1743 14.5 91.5943 14.1267 91.9409 13.82C92.3143 13.4867 92.6276 13.32 92.8809 13.32C93.2009 13.32 93.3609 13.4867 93.3609 13.82C93.3609 13.9133 93.3409 14.02 93.3009 14.14C93.2609 14.26 93.1543 14.4133 92.9809 14.6C92.7676 14.84 92.4609 15.1533 92.0609 15.54C91.6743 15.9267 91.2209 16.34 90.7009 16.78C90.1943 17.22 89.6409 17.6333 89.0409 18.02C88.4543 18.4067 87.8476 18.7267 87.2209 18.98C86.6076 19.22 86.0076 19.34 85.4209 19.34C84.6209 19.34 84.0009 19.1133 83.5609 18.66C83.1343 18.1933 82.9209 17.5533 82.9209 16.74C82.9209 16.2333 83.0009 15.62 83.1609 14.9C83.3209 14.18 83.5209 13.42 83.7609 12.62C84.0143 11.8067 84.2676 11.0133 84.5209 10.24C84.0943 10.5333 83.6276 10.9733 83.1209 11.56C82.6276 12.1333 82.1076 12.7867 81.5609 13.52C81.0143 14.24 80.4676 14.9733 79.9209 15.72C79.3876 16.4667 78.8676 17.16 78.3609 17.8C77.8676 18.4267 77.4076 18.9333 76.9809 19.32C76.5543 19.7067 76.1876 19.9 75.8809 19.9Z" fill="black"/>
<path d="M64.0702 12.6C63.7102 12.5733 63.5435 12.34 63.5702 11.9C63.5835 11.7933 63.6568 11.6667 63.7902 11.52C63.9235 11.36 64.0768 11.2733 64.2501 11.26C64.6635 11.22 65.1702 11.16 65.7702 11.08C66.3835 10.9867 67.0568 10.88 67.7902 10.76C67.9235 10.1067 68.0835 9.42 68.2702 8.7C68.4568 7.98 68.6635 7.28 68.8902 6.6C69.1168 5.90667 69.3568 5.28 69.6101 4.72C69.8635 4.16 70.1302 3.72 70.4102 3.4C70.5568 3.25333 70.6902 3.15333 70.8102 3.1C70.9302 3.03333 71.0368 3 71.1302 3C71.3168 3 71.4635 3.08 71.5702 3.24C71.6902 3.4 71.7502 3.58 71.7502 3.78C71.7502 3.88667 71.7302 3.99333 71.6902 4.1C71.4235 4.84667 71.1368 5.76667 70.8302 6.86C70.5235 7.95333 70.1968 9.14667 69.8502 10.44C71.0768 10.24 72.3035 10.0267 73.5302 9.8C74.7568 9.57333 75.8102 9.36667 76.6902 9.18C76.9435 9.07333 77.1368 9.09333 77.2702 9.24C77.4168 9.38667 77.4902 9.53333 77.4902 9.68C77.4902 9.86667 77.4368 10.0067 77.3302 10.1C77.2368 10.1933 77.1368 10.2733 77.0302 10.34L77.0102 10.36C76.7435 10.4667 76.3435 10.5933 75.8102 10.74C75.2768 10.8733 74.6635 11.02 73.9702 11.18C73.2768 11.3267 72.5368 11.4733 71.7502 11.62C70.9768 11.7667 70.2102 11.9 69.4502 12.02C69.1435 13.1933 68.8302 14.4 68.5102 15.64C68.2035 16.8667 67.8968 18.0733 67.5902 19.26C67.4568 19.74 67.3035 20.04 67.1302 20.16C66.9702 20.2933 66.7968 20.36 66.6101 20.36C66.3968 20.36 66.2102 20.28 66.0502 20.12C65.9035 19.96 65.8835 19.6333 65.9902 19.14L67.4502 12.32C66.6502 12.44 65.9435 12.5267 65.3302 12.58C64.7302 12.6333 64.3102 12.64 64.0702 12.6Z" fill="black"/>
<path d="M50.4934 20.06C49.6268 20.06 48.8268 19.8533 48.0934 19.44C47.3734 19.0267 46.7201 18.4933 46.1334 17.84C45.5601 17.1867 45.0468 16.4867 44.5934 15.74C44.1534 14.98 43.7734 14.2667 43.4534 13.6C43.2268 14.68 43.0468 15.5533 42.9134 16.22C42.7934 16.8867 42.6934 17.3933 42.6134 17.74C42.5468 18.0867 42.4801 18.32 42.4134 18.44C42.3468 18.56 42.2601 18.62 42.1534 18.62C41.8601 18.62 41.5801 18.46 41.3134 18.14C41.0468 17.82 40.9134 17.4067 40.9134 16.9C40.9134 16.3667 41.0068 15.66 41.1934 14.78C41.3801 13.8867 41.6268 12.9 41.9334 11.82C42.2534 10.7267 42.6201 9.60001 43.0334 8.44001C43.4468 7.26667 43.8734 6.12667 44.3134 5.02C44.7668 3.9 45.2201 2.88 45.6734 1.96C45.9001 1.50667 46.0934 1.21334 46.2534 1.08C46.4268 0.946671 46.6334 0.880005 46.8734 0.880005C47.2601 0.880005 47.4534 1.06 47.4534 1.42C47.4534 1.55334 47.4134 1.7 47.3334 1.86C47.2668 2.02 47.1934 2.2 47.1134 2.4C46.8734 2.98667 46.6068 3.64667 46.3134 4.38001C46.0334 5.11334 45.7468 5.88 45.4534 6.68C45.1734 7.48 44.9068 8.27334 44.6534 9.06001C44.4001 9.84667 44.1801 10.5733 43.9934 11.24C44.5668 10.84 45.2401 10.44 46.0134 10.04C46.7868 9.64 47.5868 9.28001 48.4134 8.96C49.2401 8.62667 50.0201 8.36 50.7534 8.16C51.4868 7.96 52.0934 7.86 52.5734 7.86C52.8268 7.86 53.0201 7.94 53.1534 8.1C53.3001 8.24667 53.3734 8.41334 53.3734 8.6C53.3734 8.74667 53.3268 8.89334 53.2334 9.04C53.1534 9.17334 52.9801 9.29334 52.7134 9.40001C51.8334 9.70667 50.9601 10.02 50.0934 10.34C49.2268 10.6467 48.3201 10.98 47.3734 11.34C46.4401 11.6867 45.4201 12.1 44.3134 12.58C44.6601 13.1667 45.0668 13.8 45.5334 14.48C46.0001 15.1467 46.5001 15.78 47.0334 16.38C47.5668 16.9667 48.1134 17.4533 48.6734 17.84C49.2334 18.2133 49.7934 18.4 50.3534 18.4C51.0868 18.4 51.7934 18.2467 52.4734 17.94C53.1534 17.6333 53.7801 17.26 54.3534 16.82C54.9401 16.38 55.4534 15.9533 55.8934 15.54C56.3334 15.1133 56.6801 14.78 56.9334 14.54C57.0668 14.42 57.1868 14.34 57.2934 14.3C57.4134 14.2467 57.5201 14.22 57.6134 14.22C57.8001 14.22 57.9268 14.32 57.9934 14.52C58.0734 14.7067 58.0068 14.9133 57.7934 15.14C57.6334 15.3267 57.3868 15.6133 57.0534 16C56.7201 16.3867 56.3134 16.8133 55.8334 17.28C55.3668 17.7333 54.8468 18.1733 54.2734 18.6C53.7134 19.0267 53.1068 19.3733 52.4534 19.64C51.8134 19.92 51.1601 20.06 50.4934 20.06Z" fill="black"/>
<path d="M33.1091 19.28C32.4557 19.28 31.8891 19.1333 31.4091 18.84C30.9424 18.5333 30.5824 18.14 30.3291 17.66C30.0757 17.18 29.9491 16.6867 29.9491 16.18C29.9491 15.1133 30.1357 14.14 30.5091 13.26C30.8824 12.3667 31.3491 11.58 31.9091 10.9C32.4824 10.2067 33.0691 9.61999 33.6691 9.13999C34.2824 8.65999 34.8357 8.29999 35.3291 8.05999C35.8357 7.80666 36.1957 7.67999 36.4091 7.67999C36.8357 7.67999 37.0491 7.89333 37.0491 8.31999C37.0491 8.51999 36.9157 8.75333 36.6491 9.01999C36.3824 9.27333 36.0424 9.57333 35.6291 9.91999C35.2157 10.2667 34.7757 10.66 34.3091 11.1C33.8424 11.5267 33.4024 12.0133 32.9891 12.56C32.5757 13.0933 32.2357 13.6933 31.9691 14.36C31.7024 15.0133 31.5691 15.7333 31.5691 16.52C31.5691 17.32 31.8957 17.72 32.5491 17.72C33.1491 17.72 33.7624 17.6067 34.3891 17.38C35.0291 17.1533 35.6557 16.86 36.2691 16.5C36.8957 16.1267 37.4957 15.74 38.0691 15.34C38.6424 14.94 39.1624 14.56 39.6291 14.2C40.0957 13.8267 40.4891 13.5267 40.8091 13.3C41.1291 13.0733 41.3557 12.96 41.4891 12.96C41.7557 12.96 41.8891 13.1067 41.8891 13.4C41.8891 13.6267 41.7357 13.9267 41.4291 14.3C41.1224 14.6733 40.7091 15.08 40.1891 15.52C39.6691 15.96 39.0891 16.4067 38.4491 16.86C37.8091 17.3 37.1624 17.7067 36.5091 18.08C35.8557 18.44 35.2291 18.7333 34.6291 18.96C34.0424 19.1733 33.5357 19.28 33.1091 19.28Z" fill="black"/>
<path d="M25.1011 19.1C24.8478 19.1 24.6211 19.0067 24.4211 18.82C24.2211 18.62 24.1211 18.3133 24.1211 17.9C24.1211 17.6067 24.1611 17.2 24.2411 16.68C24.3211 16.1467 24.4278 15.5667 24.5611 14.94C24.6944 14.3133 24.8344 13.6933 24.9811 13.08C25.1411 12.4533 25.3011 11.8933 25.4611 11.4C25.6211 10.9067 25.7611 10.54 25.8811 10.3C25.9878 10.1133 26.0878 9.99333 26.1811 9.93999C26.2878 9.88666 26.3878 9.85999 26.4811 9.85999C26.6678 9.85999 26.8278 9.91999 26.9611 10.04C27.1078 10.16 27.1811 10.3933 27.1811 10.74C27.1811 10.94 27.1411 11.2733 27.0611 11.74C26.9944 12.1933 26.9011 12.7267 26.7811 13.34C26.6744 13.94 26.5544 14.56 26.4211 15.2C26.3011 15.8267 26.1811 16.4267 26.0611 17C25.9411 17.5733 25.8478 18.0533 25.7811 18.44C25.7278 18.6533 25.6344 18.82 25.5011 18.94C25.3811 19.0467 25.2478 19.1 25.1011 19.1ZM27.0611 8.03999C26.7544 8.03999 26.4611 7.94666 26.1811 7.75999C25.9144 7.57333 25.7811 7.27333 25.7811 6.85999C25.7811 6.51333 25.8611 6.23333 26.0211 6.01999C26.1944 5.80666 26.3944 5.65333 26.6211 5.55999C26.8611 5.45333 27.0678 5.39999 27.2411 5.39999C27.4144 5.39999 27.6078 5.43999 27.8211 5.51999C28.0478 5.58666 28.2411 5.71999 28.4011 5.91999C28.5611 6.10666 28.6411 6.38666 28.6411 6.75999C28.6411 7.01333 28.5544 7.23999 28.3811 7.43999C28.2078 7.62666 27.9944 7.77333 27.7411 7.87999C27.5011 7.98666 27.2744 8.03999 27.0611 8.03999Z" fill="black"/>
<path d="M18.2025 19.8C17.1758 19.8 16.3692 19.4667 15.7825 18.8C15.2092 18.12 14.9225 17.1733 14.9225 15.96C14.9225 15.2133 15.0225 14.34 15.2225 13.34C15.4358 12.3267 15.7025 11.26 16.0225 10.14C16.3558 9.00666 16.7158 7.88666 17.1025 6.78C17.4892 5.67333 17.8625 4.64666 18.2225 3.69999C18.5958 2.74 18.9225 1.94 19.2025 1.29999C19.3625 0.939995 19.5892 0.759995 19.8825 0.759995C20.2825 0.759995 20.4825 1.00666 20.4825 1.49999C20.4825 1.65999 20.4092 1.98666 20.2625 2.48C20.1158 2.97333 19.9225 3.58666 19.6825 4.32C19.4425 5.04 19.1825 5.84 18.9025 6.72C18.6225 7.59999 18.3358 8.50666 18.0425 9.43999C17.7625 10.36 17.5025 11.2733 17.2625 12.18C17.0225 13.0733 16.8292 13.9133 16.6825 14.7C16.5358 15.4867 16.4625 16.16 16.4625 16.72C16.4625 17.08 16.5558 17.3667 16.7425 17.58C16.9425 17.78 17.2092 17.88 17.5425 17.88C18.1558 17.88 18.7692 17.76 19.3825 17.52C20.0092 17.2667 20.6092 16.96 21.1825 16.6C21.7558 16.2267 22.2758 15.86 22.7425 15.5C23.2225 15.1267 23.6292 14.82 23.9625 14.58C24.2958 14.3267 24.5292 14.2 24.6625 14.2C24.9558 14.2 25.1025 14.36 25.1025 14.68C25.1025 14.7867 24.9958 14.9867 24.7825 15.28C24.5692 15.56 24.2825 15.8933 23.9225 16.28C23.5625 16.6667 23.1425 17.0667 22.6625 17.48C22.1958 17.88 21.7025 18.26 21.1825 18.62C20.6758 18.9667 20.1625 19.2467 19.6425 19.46C19.1358 19.6867 18.6558 19.8 18.2025 19.8Z" fill="black"/>
<path d="M9.86 16.04C10.0067 16.04 10.1467 16.1 10.28 16.22C10.4133 16.34 10.48 16.5333 10.48 16.8C10.48 17.0133 10.32 17.2667 10 17.56C9.68 17.84 9.26667 18.1133 8.76 18.38C8.26667 18.6467 7.73333 18.8667 7.16 19.04C6.58667 19.2267 6.04667 19.32 5.54 19.32C4.82 19.32 4.14 19.1333 3.5 18.76C2.87333 18.3867 2.36 17.8467 1.96 17.14C1.56 16.42 1.36 15.5467 1.36 14.52C1.36 13.6133 1.52667 12.7067 1.86 11.8C2.19333 10.8933 2.63333 10.02 3.18 9.18C3.74 8.34 4.35333 7.56 5.02 6.83999C5.7 6.11999 6.38 5.49333 7.06 4.96C7.74 4.42666 8.37333 4.01333 8.96 3.71999C9.56 3.41333 10.0533 3.25999 10.44 3.25999C10.7067 3.25999 10.92 3.35999 11.08 3.56C11.2533 3.74666 11.34 3.95333 11.34 4.17999C11.34 4.31333 11.3 4.44666 11.22 4.58C11.1533 4.71333 11.0333 4.82 10.86 4.89999C9.99333 5.32666 9.11333 5.87333 8.22 6.53999C7.32667 7.20666 6.5 7.96666 5.74 8.82C4.98 9.66 4.36667 10.5733 3.9 11.56C3.43333 12.5333 3.2 13.56 3.2 14.64C3.2 15.5733 3.42 16.2867 3.86 16.78C4.3 17.26 4.9 17.5 5.66 17.5C6.06 17.5 6.47333 17.4267 6.9 17.28C7.34 17.1333 7.75333 16.9667 8.14 16.78C8.54 16.58 8.88667 16.4067 9.18 16.26C9.48667 16.1133 9.71333 16.04 9.86 16.04Z" fill="black"/>
</svg>
