<svg viewBox="0 0 202 113" fill="none"
    xmlns="http://www.w3.org/2000/svg">
    <path fill-rule="evenodd" clip-rule="evenodd" d="M11.4881 5.6251C13.0893 5.2033 14.8178 5.04031 16.2394 5.52362C17.196 5.84887 17.9701 6.63824 18.5963 7.42861C18.915 7.83081 19.2098 8.25251 19.4796 8.64326C19.5117 8.68979 19.5434 8.73577 19.5747 8.78118C19.8102 9.12281 20.0234 9.43204 20.2258 9.69517C20.3942 9.91405 20.3532 10.228 20.1343 10.3963C19.9155 10.5647 19.6015 10.5238 19.4332 10.3049C19.2136 10.0194 18.9842 9.68658 18.7513 9.34858C18.7198 9.30292 18.6882 9.25717 18.6567 9.21142C18.3873 8.8213 18.1089 8.42361 17.8125 8.04965C17.2088 7.2877 16.5859 6.69767 15.9174 6.47039C14.7693 6.08004 13.269 6.19009 11.7428 6.59212C10.2288 6.99093 8.76077 7.65817 7.71823 8.29859C3.41023 10.9449 0.763105 16.4207 2.27915 21.2721C2.93071 23.3571 4.45174 25.224 6.37901 26.5557C8.30635 27.8875 10.6011 28.657 12.7601 28.5916C17.3159 28.4535 20.076 26.4544 23.4728 23.9943C23.8329 23.7334 24.2002 23.4674 24.5776 23.1978C24.8023 23.0373 25.1146 23.0894 25.2751 23.3141C25.4356 23.5388 25.3836 23.851 25.1589 24.0115C24.7828 24.2802 24.4139 24.5479 24.0493 24.8124C20.6708 27.2639 17.6672 29.4433 12.7904 29.5911C10.3835 29.664 7.88276 28.8103 5.81052 27.3784C3.73821 25.9464 2.05552 23.9091 1.32467 21.5704C-0.354638 16.1966 2.57871 10.2821 7.19481 7.44651C8.31648 6.75748 9.87459 6.05012 11.4881 5.6251Z" fill="black"/>
    <path fill-rule="evenodd" clip-rule="evenodd" d="M29.9023 3.95742C30.1784 3.95482 30.4044 4.17655 30.407 4.45268C30.445 8.48452 31.1976 16.5382 31.9436 22.5826C32.2237 24.8523 32.501 26.8224 32.7366 28.1823C32.7962 28.1573 32.8616 28.1435 32.9303 28.1435C33.2064 28.1435 33.4303 28.3673 33.4303 28.6435C33.4303 29.1561 33.4187 29.5532 33.3955 29.8403C33.384 29.9829 33.3687 30.1097 33.3475 30.2151C33.3369 30.2677 33.3231 30.3242 33.3038 30.3789C33.2867 30.4276 33.2544 30.5073 33.1931 30.5835C33.1296 30.6625 32.9883 30.7906 32.7673 30.7887C32.5644 30.7869 32.4333 30.6745 32.3802 30.6206C32.2781 30.5168 32.2216 30.3817 32.1925 30.3076C32.1208 30.1252 32.0505 29.8584 31.9805 29.5427C31.6972 28.2643 31.324 25.7262 30.9511 22.7051C30.2046 16.6564 29.4456 8.55468 29.407 4.46211C29.4044 4.18598 29.6262 3.96003 29.9023 3.95742ZM33.1397 29.9794C33.1397 29.9794 33.1391 29.9785 33.1381 29.9764C33.1392 29.9783 33.1397 29.9793 33.1397 29.9794Z" fill="black"/>
    <path fill-rule="evenodd" clip-rule="evenodd" d="M40.8518 18.086C41.1168 18.0085 41.3946 18.1604 41.4721 18.4255C41.5756 18.779 41.6838 19.1348 41.7927 19.493C42.3872 21.4486 43.0039 23.4772 43.0039 25.6202C43.0039 25.8963 42.78 26.1202 42.5039 26.1202C42.2278 26.1202 42.0039 25.8963 42.0039 25.6202C42.0039 23.6389 41.4384 21.7737 40.8447 19.8155C40.7338 19.4495 40.6218 19.0802 40.5124 18.7064C40.4348 18.4413 40.5868 18.1636 40.8518 18.086Z" fill="black"/>
    <path fill-rule="evenodd" clip-rule="evenodd" d="M39.5617 12.6516C39.5217 12.8639 39.4874 13.0464 39.4607 13.149C39.3913 13.4163 39.1184 13.5766 38.8511 13.5072C38.5838 13.4378 38.4234 13.1649 38.4928 12.8976C38.5121 12.8236 38.5347 12.7025 38.5663 12.5329C38.5913 12.3992 38.6219 12.2354 38.6609 12.0408C38.7437 11.6275 38.8567 11.1221 39.0128 10.6356C39.1663 10.1574 39.3739 9.65667 39.6634 9.27847C39.9567 8.89537 40.4005 8.56138 40.9983 8.6361C41.518 8.70106 41.8813 8.98755 42.0933 9.37899C42.2906 9.7434 42.3472 10.1765 42.3451 10.57C42.341 11.3553 42.0999 12.206 41.8874 12.631C41.7112 12.9835 41.5324 13.2629 41.3429 13.4563C41.1585 13.6444 40.8874 13.8248 40.5506 13.7785C40.2248 13.7337 40.0227 13.5002 39.9109 13.3224C39.7922 13.1336 39.7078 12.9033 39.6454 12.6763C39.6275 12.611 39.6107 12.5437 39.5951 12.4747C39.5836 12.5352 39.5724 12.5945 39.5617 12.6516ZM40.4681 9.87258C40.489 9.95145 40.4908 10.0366 40.4696 10.1213C40.4314 10.274 40.4069 10.6434 40.4282 11.1116C40.449 11.5668 40.5101 12.0491 40.6097 12.4112C40.6393 12.5192 40.6698 12.6067 40.699 12.6748C40.7764 12.5754 40.8753 12.4191 40.993 12.1838C41.1375 11.8947 41.3418 11.195 41.3451 10.5648C41.3468 10.2506 41.2976 10.0097 41.2139 9.85523C41.1449 9.72781 41.0519 9.65059 40.8743 9.62838C40.7731 9.61573 40.644 9.64818 40.4681 9.87258ZM40.5762 12.8018C40.5762 12.8017 40.5775 12.8009 40.5799 12.7996C40.5774 12.8013 40.5762 12.8019 40.5762 12.8018ZM40.7829 12.8257C40.7854 12.8279 40.7866 12.8292 40.7866 12.8294C40.7865 12.8295 40.7853 12.8284 40.7829 12.8257Z" fill="black"/>
    <path fill-rule="evenodd" clip-rule="evenodd" d="M55.4627 16.475C55.5667 16.5115 55.6687 16.5473 55.7685 16.5819C56.0294 16.6723 56.1676 16.9572 56.0771 17.2181C55.9867 17.479 55.7018 17.6172 55.4409 17.5267C55.3455 17.4936 55.2502 17.4604 55.1553 17.4272C54.1214 17.0662 53.1236 16.7178 52.2552 16.7225C51.8015 16.7249 51.4196 16.826 51.1025 17.0532C50.7849 17.2808 50.4836 17.6698 50.2551 18.3362C49.5903 20.2753 50.265 22.2471 52.0386 23.2226C54.4596 24.5541 57.4294 24.2222 59.9426 23.1451C60.1964 23.0363 60.4904 23.1539 60.5992 23.4077C60.7079 23.6615 60.5904 23.9555 60.3365 24.0643C57.6693 25.2074 54.3502 25.6352 51.5567 24.0988C49.319 22.8681 48.5012 20.3683 49.3092 18.0119C49.5868 17.202 49.9929 16.6181 50.5201 16.2404C51.0477 15.8623 51.6479 15.7258 52.2498 15.7225C53.3026 15.7169 54.4699 16.1265 55.4627 16.475Z" fill="black"/>
    <path fill-rule="evenodd" clip-rule="evenodd" d="M66.1806 4.96518C66.4567 4.96215 66.683 5.18353 66.6861 5.45966C66.7329 9.72321 67.2858 13.7897 67.8636 18.0393C67.8894 18.2294 67.9153 18.4198 67.9412 18.6107C68.0268 19.2414 68.0979 19.9404 68.171 20.6594C68.1784 20.732 68.1858 20.8047 68.1932 20.8776C68.2748 21.6772 68.3613 22.4999 68.476 23.3026C68.7079 24.9254 69.0463 26.3922 69.6381 27.3785C69.7802 27.6152 69.7034 27.9224 69.4666 28.0644C69.2298 28.2065 68.9227 28.1297 68.7806 27.893C68.0769 26.7201 67.7193 25.0762 67.486 23.444C67.3682 22.6192 67.2799 21.7783 67.1984 20.9791C67.191 20.9067 67.1837 20.8347 67.1764 20.7631C67.1029 20.0401 67.0335 19.3582 66.9503 18.7451C66.9236 18.5482 66.8968 18.3515 66.8701 18.1551C66.2943 13.9206 65.7337 9.79805 65.6861 5.47064C65.6831 5.19452 65.9045 4.96821 66.1806 4.96518Z" fill="black"/>
    <path fill-rule="evenodd" clip-rule="evenodd" d="M74.9799 13.0821C75.2257 13.208 75.3229 13.5093 75.197 13.7551C75.1687 13.8103 73.7177 16.2111 72.1787 18.3472C71.7279 18.9729 71.2613 19.5877 70.8137 20.12C72.1807 20.2251 73.9045 20.5342 75.3874 21.0962C76.2726 21.4316 77.1042 21.869 77.7225 22.4331C78.347 23.0028 78.7791 23.7281 78.7791 24.6124C78.7791 24.8886 78.5553 25.1124 78.2791 25.1124C78.003 25.1124 77.7791 24.8886 77.7791 24.6124C77.7791 24.0875 77.5312 23.6122 77.0485 23.1718C76.5595 22.7257 75.8567 22.3434 75.0331 22.0313C73.3871 21.4076 71.3874 21.112 70.0378 21.0813C70.0084 21.0806 69.9723 21.0787 69.9307 21.0761C69.9231 21.0833 69.9155 21.0905 69.908 21.0977C69.5762 21.4106 69.2149 21.692 68.8628 21.8005C68.6756 21.8582 68.4409 21.8823 68.2084 21.7806C67.9707 21.6765 67.8245 21.4802 67.74 21.2776C67.6674 21.1031 67.6362 20.8917 67.7165 20.6784C67.7942 20.4717 67.9468 20.3429 68.0792 20.2661C68.3251 20.1236 68.6428 20.0784 68.8878 20.0598C69.1116 20.0429 69.3426 20.0446 69.5388 20.0517C70.0895 19.4682 70.7296 18.6479 71.3674 17.7627C72.8024 15.7709 74.1407 13.5722 74.2927 13.3226C74.3024 13.3066 74.3073 13.2986 74.307 13.2992C74.4328 13.0534 74.7341 12.9563 74.9799 13.0821Z" fill="black"/>
    <path fill-rule="evenodd" clip-rule="evenodd" d="M99.4419 0.934128C99.7181 0.934128 99.9419 1.15799 99.9419 1.43413C99.9419 9.88358 100.562 18.2144 101.951 26.5457C101.996 26.8181 101.812 27.0757 101.54 27.1211C101.267 27.1665 101.01 26.9825 100.964 26.7101C99.5657 18.3192 98.9419 9.933 98.9419 1.43413C98.9419 1.15799 99.1658 0.934128 99.4419 0.934128Z" fill="black"/>
    <path fill-rule="evenodd" clip-rule="evenodd" d="M96.0053 15.9454C95.7678 15.9881 95.5914 16.0198 95.4915 16.0361C95.2189 16.0806 94.9619 15.8958 94.9174 15.6232C94.8729 15.3507 95.0578 15.0937 95.3303 15.0492C95.4185 15.0348 95.5812 15.0055 95.8038 14.9655C96.7896 14.7882 98.9508 14.3994 101.018 14.1548C102.284 14.005 103.545 13.905 104.5 13.9446C104.972 13.964 105.412 14.0186 105.749 14.1411C106.065 14.2556 106.492 14.5142 106.492 15.0388C106.492 15.3149 106.268 15.5388 105.992 15.5388C105.744 15.5388 105.538 15.3575 105.499 15.1199C105.48 15.1098 105.451 15.0966 105.408 15.0811C105.218 15.012 104.902 14.962 104.459 14.9437C103.587 14.9076 102.391 14.9993 101.136 15.1478C99.1089 15.3877 97.0102 15.7648 96.0053 15.9454ZM105.53 15.1412C105.53 15.1414 105.526 15.1388 105.521 15.133C105.529 15.1382 105.531 15.1411 105.53 15.1412Z" fill="black"/>
    <path fill-rule="evenodd" clip-rule="evenodd" d="M116.06 14.9605C116.103 15.2332 115.917 15.4894 115.644 15.5326C115.624 15.5358 115.604 15.539 115.584 15.5422C116.02 15.6316 116.462 15.7351 116.893 15.8578C118.403 16.288 119.947 16.9956 120.703 18.3178C121.145 19.0917 121.147 19.9365 120.906 20.733C120.667 21.5212 120.184 22.2872 119.612 22.965C118.477 24.3074 116.873 25.4347 115.733 25.7645C114.837 26.0239 114.044 26.0728 113.338 25.9278C112.628 25.782 112.038 25.4469 111.539 24.9876C110.565 24.089 109.933 22.7008 109.389 21.2935C108.945 20.1452 108.845 19.1514 109.056 18.2953C109.268 17.4334 109.78 16.771 110.448 16.2638C110.916 15.9084 111.468 15.6229 112.067 15.39C112.141 15.1572 112.377 15.0081 112.625 15.0495C112.721 15.0654 112.821 15.0815 112.925 15.0978C113.762 14.8492 114.646 14.6784 115.488 14.545C115.76 14.5017 116.017 14.6878 116.06 14.9605ZM112.999 16.1213C112.245 16.3609 111.574 16.6642 111.053 17.06C110.527 17.4592 110.174 17.9389 110.027 18.5343C109.879 19.1356 109.928 19.9143 110.322 20.9331C110.868 22.3468 111.432 23.5286 112.217 24.2524C112.599 24.6044 113.029 24.8435 113.539 24.9482C114.052 25.0536 114.677 25.029 115.455 24.804C116.348 24.5454 117.796 23.5639 118.848 22.3195C119.368 21.7039 119.763 21.0569 119.949 20.443C120.132 19.8372 120.107 19.2906 119.835 18.814C119.287 17.8551 118.087 17.2376 116.619 16.8196C115.5 16.501 114.323 16.3223 113.314 16.1692C113.207 16.153 113.102 16.1371 112.999 16.1213Z" fill="black"/>
    <path fill-rule="evenodd" clip-rule="evenodd" d="M145.674 15.868C145.773 15.7533 145.818 15.5956 145.783 15.4367C145.725 15.1668 145.459 14.9955 145.189 15.054C144.726 15.1544 144.277 15.2419 143.841 15.327L143.84 15.3272C143.406 15.4119 142.982 15.4946 142.58 15.5835C141.78 15.7605 141.027 15.9701 140.384 16.2993C139.731 16.6338 139.182 17.0965 138.803 17.7767C138.428 18.4501 138.244 19.295 138.244 20.3575C138.244 21.3137 138.379 22.1883 138.751 22.9783C139.126 23.7739 139.724 24.4484 140.594 25.0285C141.968 25.9441 143.733 26.6106 145.436 26.6326C147.159 26.6549 148.841 26.0119 149.918 24.2896C151.459 21.8238 150.316 19.0488 148.426 17.3771C147.642 16.6838 146.684 16.1402 145.674 15.868ZM141.271 16.9966C141.119 17.0562 140.975 17.1201 140.84 17.1894C140.325 17.4532 139.94 17.7898 139.677 18.263C139.41 18.7429 139.244 19.4054 139.244 20.3575C139.244 21.2233 139.367 21.9389 139.656 22.5523C139.942 23.1601 140.408 23.7021 141.149 24.1964C142.399 25.0297 143.979 25.6137 145.449 25.6327C146.899 25.6514 148.216 25.126 149.07 23.7596C150.249 21.872 149.454 19.6215 147.764 18.1262C146.068 16.6263 143.737 16.1193 142.08 17.4447C141.864 17.6172 141.55 17.5823 141.377 17.3666C141.29 17.2581 141.256 17.1245 141.271 16.9966Z" fill="black"/>
    <path fill-rule="evenodd" clip-rule="evenodd" d="M155.255 13.041C155.524 12.9765 155.794 13.1419 155.858 13.4105C156.928 17.866 157.6 22.3129 158.28 26.8071C158.315 27.0396 158.351 27.2721 158.386 27.5048C158.445 27.8967 158.49 28.4318 158.539 29.0146C158.543 29.0584 158.547 29.1024 158.551 29.1467C158.605 29.79 158.667 30.4991 158.76 31.1952C158.853 31.8932 158.975 32.5621 159.146 33.1257C159.32 33.701 159.528 34.108 159.757 34.3364C159.952 34.5317 159.952 34.8482 159.757 35.0435C159.561 35.2388 159.245 35.2388 159.05 35.0435C158.646 34.6395 158.379 34.0418 158.189 33.4157C157.996 32.778 157.865 32.0488 157.769 31.3276C157.672 30.6046 157.608 29.8734 157.554 29.2309C157.551 29.1922 157.548 29.1539 157.544 29.1161C157.494 28.5148 157.451 28.012 157.397 27.6546C157.363 27.4258 157.328 27.1973 157.293 26.969C156.612 22.4646 155.945 18.0566 154.886 13.6438C154.822 13.3753 154.987 13.1054 155.255 13.041Z" fill="black"/>
    <path fill-rule="evenodd" clip-rule="evenodd" d="M155.812 18.3021L155.798 18.3247C155.653 18.5597 155.345 18.6326 155.11 18.4875C154.875 18.3425 154.802 18.0344 154.947 17.7994C154.964 17.7711 154.982 17.7427 154.999 17.7141C155.769 16.4671 156.67 15.0062 157.84 13.9796C159.068 12.9021 160.618 12.2806 162.613 12.8206C165.852 13.6974 166.8 17.1377 166.102 19.8656C165.567 21.9564 164.223 23.0326 162.638 23.2801C161.099 23.5204 159.404 22.9707 158.095 21.9892C157.875 21.8235 157.83 21.5101 157.995 21.2892C158.161 21.0683 158.475 21.0235 158.695 21.1892C159.84 22.0476 161.269 22.4817 162.483 22.292C163.652 22.1095 164.692 21.342 165.133 19.6177C165.757 17.1798 164.853 14.4628 162.352 13.7859C160.745 13.3508 159.531 13.8267 158.5 14.7313C157.444 15.6579 156.609 17.01 155.812 18.3021Z" fill="black"/>
    <path fill-rule="evenodd" clip-rule="evenodd" d="M175.706 14.2775C176.436 14.3797 177.124 14.7542 177.702 15.4458C178.154 15.986 178.433 16.5155 178.525 17.0366C178.62 17.5702 178.512 18.0572 178.257 18.4807C177.769 19.2887 176.77 19.8299 175.737 20.1999C174.677 20.5793 173.465 20.819 172.413 20.9542C172.187 20.9833 171.966 21.0078 171.753 21.0279C171.842 21.2376 171.953 21.4266 172.081 21.5961C172.664 22.3671 173.685 22.8475 174.93 23.0038C176.167 23.1592 177.562 22.9835 178.799 22.5109C180.039 22.0371 181.073 21.2838 181.649 20.3242C181.791 20.0874 182.098 20.0106 182.335 20.1527C182.572 20.2948 182.648 20.6019 182.506 20.8387C181.782 22.0462 180.534 22.9183 179.156 23.445C177.774 23.973 176.214 24.1729 174.805 23.996C173.403 23.8199 172.086 23.26 171.283 22.1994C171.034 21.869 170.841 21.5001 170.712 21.0941C170.4 21.1026 170.136 21.0974 169.939 21.0793C169.664 21.054 169.461 20.8106 169.487 20.5356C169.512 20.2607 169.755 20.0582 170.03 20.0835C170.154 20.0949 170.323 20.1 170.529 20.0976C170.485 19.4003 170.596 18.6208 170.882 17.764C171.293 16.5312 172.371 15.2848 173.633 14.6617C174.272 14.3464 174.987 14.1766 175.706 14.2775ZM171.528 20.0443C171.765 20.0236 172.02 19.9965 172.286 19.9624C173.296 19.8326 174.431 19.6053 175.399 19.2585C176.394 18.9023 177.103 18.4581 177.4 17.9643C177.537 17.7369 177.591 17.4939 177.541 17.2112C177.489 16.9161 177.316 16.5431 176.935 16.0874C176.502 15.5694 176.031 15.3328 175.567 15.2678C175.094 15.2014 174.583 15.3081 174.076 15.5584C173.046 16.0665 172.155 17.1074 171.831 18.0802C171.577 18.8403 171.491 19.4906 171.528 20.0443Z" fill="black"/>
    <path fill-rule="evenodd" clip-rule="evenodd" d="M185.545 13.0307C185.82 12.9979 186.068 13.1936 186.101 13.4678C186.117 13.5987 186.132 13.7296 186.148 13.8606C186.318 15.2859 186.489 16.7207 186.709 18.1422C186.915 17.0372 187.486 16.0243 188.734 15.3785C190.779 14.3211 192.711 14.3715 194.347 15.2351C195.959 16.0867 197.225 17.697 198.047 19.6605C198.263 20.1757 198.31 20.9012 198.295 21.6253C198.279 22.3698 198.193 23.1928 198.091 23.9491C197.996 24.6559 197.886 25.315 197.804 25.8078C197.798 25.8433 197.792 25.878 197.786 25.9118C197.744 26.1662 197.712 26.3615 197.695 26.4908C197.692 26.5126 197.689 26.5314 197.687 26.5473C197.722 26.7577 197.618 26.9748 197.417 27.0752C197.356 27.1057 197.259 27.1386 197.138 27.1258C197.011 27.1124 196.911 27.054 196.842 26.9882C196.732 26.882 196.704 26.7581 196.697 26.7313L196.697 26.7301C196.68 26.6556 196.682 26.5878 196.683 26.566L196.683 26.565C196.685 26.5029 196.694 26.4279 196.704 26.3574C196.723 26.2092 196.758 25.9967 196.8 25.7474C196.806 25.714 196.811 25.6797 196.817 25.6447C196.9 25.1509 197.007 24.5062 197.1 23.8159C197.2 23.0752 197.28 22.2943 197.295 21.6038C197.31 20.8929 197.253 20.3525 197.125 20.0467C196.362 18.224 195.227 16.8308 193.88 16.1194C192.555 15.4201 190.969 15.3482 189.194 16.2667C188.019 16.8745 187.633 17.9006 187.614 19.1553C187.598 20.213 187.843 21.3471 188.074 22.4147C188.125 22.6511 188.175 22.8843 188.222 23.1126C188.249 23.2435 188.383 23.955 188.452 24.4783C188.469 24.6095 188.483 24.7369 188.49 24.844C188.493 24.8971 188.495 24.9529 188.494 25.0054C188.493 25.0444 188.49 25.1326 188.459 25.2234C188.446 25.2633 188.404 25.3774 188.29 25.4699C188.135 25.5952 187.939 25.6095 187.783 25.5498C187.666 25.505 187.596 25.4292 187.57 25.3996C187.536 25.3617 187.512 25.3243 187.495 25.2972C187.436 25.1985 187.377 25.0564 187.319 24.8965C186.041 21.4113 185.589 17.6159 185.16 14.0201C185.143 13.8753 185.126 13.7307 185.108 13.5865C185.075 13.3123 185.271 13.0635 185.545 13.0307ZM187.494 24.9875C187.494 24.9874 187.494 24.9852 187.494 24.9811C187.494 24.9856 187.494 24.9877 187.494 24.9875Z" fill="black"/>
    <path fill-rule="evenodd" clip-rule="evenodd" d="M51.5968 40.237C51.8726 40.2498 52.0859 40.4838 52.0731 40.7596C51.8461 45.6646 52.3736 50.4243 52.9104 55.2681C53.1086 57.0564 53.3081 58.8562 53.4713 60.679C53.4976 60.9727 53.5099 61.2695 53.5214 61.5472C53.5246 61.6237 53.5277 61.6987 53.531 61.7719C53.5469 62.1201 53.5677 62.4338 53.6177 62.7214C53.715 63.281 53.9135 63.698 54.3704 64.0026C54.6002 64.1558 54.6623 64.4662 54.5091 64.696C54.3559 64.9258 54.0455 64.9879 53.8157 64.8347C53.0555 64.3278 52.7586 63.6176 52.6325 62.8927C52.5709 62.538 52.5481 62.1701 52.5321 61.8173C52.5283 61.7354 52.525 61.6546 52.5217 61.5745C52.5103 61.3005 52.4993 61.0357 52.4753 60.7682C52.3163 58.9919 52.1199 57.2201 51.9234 55.4475C51.3836 50.5782 50.8432 45.703 51.0742 40.7134C51.087 40.4375 51.321 40.2242 51.5968 40.237Z" fill="black"/>
    <path fill-rule="evenodd" clip-rule="evenodd" d="M54.489 54.679C54.1502 54.672 53.5472 54.7348 52.3909 54.9451C50.7264 55.2477 49.6275 55.904 48.2421 56.7313C47.9407 56.9113 47.6257 57.0994 47.2884 57.2938C47.0491 57.4316 46.7434 57.3494 46.6055 57.1101C46.4677 56.8708 46.5499 56.5651 46.7892 56.4273C47.0985 56.2491 47.3958 56.071 47.6876 55.8963C49.0849 55.0595 50.355 54.2988 52.212 53.9612C53.3683 53.751 54.06 53.6699 54.5097 53.6792C54.7412 53.684 54.9327 53.7128 55.102 53.7736C55.2767 53.8364 55.3962 53.9226 55.4826 53.9887C55.4978 54.0003 55.5114 54.0108 55.524 54.0205C55.5835 54.0665 55.6183 54.0934 55.6724 54.1236C55.7322 54.157 55.8261 54.1986 55.9902 54.2375C56.3314 54.3182 56.9435 54.3795 58.1094 54.3452C58.3854 54.3371 58.6157 54.5543 58.6238 54.8303C58.632 55.1063 58.4148 55.3367 58.1388 55.3448C56.9466 55.3799 56.2301 55.3218 55.76 55.2106C55.5186 55.1535 55.3362 55.0811 55.1852 54.9969C55.0599 54.927 54.962 54.8507 54.901 54.8031C54.8913 54.7956 54.8826 54.7887 54.8748 54.7828C54.8172 54.7387 54.7942 54.7256 54.7637 54.7147C54.7279 54.7018 54.6517 54.6823 54.489 54.679Z" fill="black"/>
    <path fill-rule="evenodd" clip-rule="evenodd" d="M62.5988 40.2401C62.8729 40.2069 63.1221 40.4022 63.1553 40.6763C63.5123 43.6211 64.2051 46.4846 64.9056 49.3796L64.9169 49.4262C65.352 51.2245 65.7894 53.0352 66.1438 54.8722C66.3057 54.3469 66.5093 53.8154 66.7524 53.3283C67.1099 52.6121 67.5824 51.9305 68.1903 51.5188C68.8329 51.0836 69.6063 50.968 70.4361 51.3723C72.6485 52.4501 73.5597 55.0342 73.9518 57.6215C74.2847 59.8183 74.2649 62.1776 74.2498 63.963C74.2469 64.3057 74.2442 64.6273 74.2442 64.9225C74.2442 65.1987 74.0204 65.4225 73.7442 65.4225C73.4681 65.4225 73.2442 65.1987 73.2442 64.9225C73.2442 64.6139 73.2469 64.2824 73.2498 63.9328C73.2644 62.1443 73.2828 59.881 72.9631 57.7713C72.5762 55.2181 71.7239 53.112 69.9981 52.2713C69.5108 52.0338 69.1171 52.0989 68.7511 52.3468C68.3504 52.6182 67.9728 53.1224 67.6471 53.7749C66.9952 55.081 66.6694 56.7354 66.686 57.465C66.7124 58.6292 66.937 59.7434 67.1741 60.919C67.1832 60.9645 67.1924 61.0102 67.2016 61.0559C67.4459 62.2691 67.6938 63.5449 67.6938 64.9225C67.6938 65.0656 67.6909 65.1845 67.6839 65.2763C67.6805 65.3213 67.6754 65.3708 67.6664 65.4182C67.6619 65.4419 67.6548 65.4739 67.6431 65.509C67.6336 65.5378 67.6103 65.6022 67.5598 65.6689C67.5095 65.7355 67.3774 65.871 67.1558 65.8723C66.9513 65.8736 66.8246 65.7571 66.7824 65.7129C66.7025 65.6294 66.6662 65.5334 66.6568 65.5085L66.6559 65.5062C66.6266 65.4295 66.6033 65.3341 66.5843 65.2468C66.5049 64.8824 66.4007 64.176 66.2916 63.3575C66.1054 61.9611 65.896 60.169 65.7576 58.9846C65.7324 58.7683 65.7095 58.5722 65.6895 58.4026C65.3418 55.4474 64.6491 52.5716 63.945 49.6614L63.9273 49.5885C63.2311 46.7114 62.5266 43.7997 62.1626 40.7967C62.1294 40.5225 62.3247 40.2733 62.5988 40.2401Z" fill="black"/>
    <path fill-rule="evenodd" clip-rule="evenodd" d="M83.6879 52.0239C84.0607 51.9635 84.4306 52.0466 84.7709 52.2735C85.1685 52.5386 85.4168 52.9906 85.568 53.4428C85.7235 53.9079 85.8007 54.4445 85.8072 54.9698C85.8138 55.495 85.7499 56.0333 85.6058 56.502C85.4656 56.9578 85.2282 57.4157 84.8363 57.69C84.4244 57.9784 83.9074 58.0791 83.4058 58.0972C82.8972 58.1156 82.3468 58.0506 81.8205 57.9563C81.6071 57.9181 81.3944 57.8744 81.1866 57.8284C81.1853 57.8355 81.1839 57.8425 81.1826 57.8496C81.134 58.1045 81.1234 58.2631 81.1289 58.3321C81.3159 60.6556 82.585 62.3905 84.1184 63.0817C85.6154 63.7564 87.459 63.4806 88.974 61.5869C89.1465 61.3713 89.4611 61.3363 89.6767 61.5089C89.8924 61.6814 89.9273 61.996 89.7548 62.2116C87.9789 64.4315 85.655 64.8711 83.7075 63.9933C81.7965 63.132 80.3441 61.0466 80.1321 58.4123C80.1153 58.2034 80.1482 57.9356 80.2003 57.6623C80.2045 57.6398 80.209 57.617 80.2137 57.5939C80.177 57.5846 80.1409 57.5754 80.1054 57.5664C79.7326 57.4719 79.4268 57.3944 79.1969 57.3524C78.9253 57.3027 78.7453 57.0422 78.795 56.7706C78.8447 56.4989 79.1052 56.319 79.3768 56.3687C79.6431 56.4174 79.9892 56.5052 80.3585 56.5989C80.3937 56.6078 80.4291 56.6168 80.4647 56.6258C80.678 55.9306 80.9852 55.1324 81.3567 54.403C81.7338 53.6624 82.2014 52.9439 82.7392 52.4932C83.0114 52.2651 83.3297 52.0818 83.6879 52.0239ZM81.439 56.86C81.6238 56.9006 81.8106 56.9386 81.9969 56.972C82.4909 57.0605 82.9624 57.1126 83.3698 57.0979C83.7843 57.0829 84.0776 57.0005 84.2628 56.8708C84.3908 56.7812 84.5382 56.5713 84.65 56.208C84.7577 55.8576 84.8128 55.4257 84.8073 54.9822C84.8018 54.5387 84.736 54.108 84.6197 53.76C84.499 53.3992 84.3464 53.1924 84.2162 53.1056C84.0724 53.0097 83.9556 52.9935 83.8478 53.011C83.7254 53.0308 83.5691 53.1024 83.3815 53.2597C82.9994 53.5798 82.6055 54.1543 82.2478 54.8568C81.9165 55.5074 81.637 56.2262 81.439 56.86Z" fill="black"/>
    <path fill-rule="evenodd" clip-rule="evenodd" d="M113.527 54.2591C113.476 54.1389 113.422 54.0199 113.367 53.9025C112.785 52.6626 111.948 51.5018 110.88 50.9639C110.332 50.6878 109.722 50.5766 109.076 50.7092C108.437 50.8406 107.804 51.2021 107.185 51.7973C106.515 52.4417 106.094 53.1817 105.842 53.9669C105.687 52.7046 105.556 51.5565 105.482 50.7675C105.457 50.4925 105.213 50.2905 104.938 50.3162C104.663 50.3419 104.461 50.5856 104.487 50.8605C104.651 52.6178 105.09 56.1042 105.454 58.71C105.636 60.0106 105.801 61.1053 105.904 61.6581C105.93 61.7939 105.954 61.912 105.977 61.9947L105.977 61.9969C105.985 62.0246 106.005 62.101 106.045 62.1711C106.056 62.192 106.083 62.2369 106.129 62.2832C106.166 62.3217 106.282 62.4278 106.471 62.4344C106.688 62.442 106.826 62.3168 106.885 62.2424C106.939 62.1736 106.962 62.1072 106.971 62.0811C106.999 61.994 107.001 61.9039 107.001 61.876C107.001 61.8746 107.001 61.8734 107.001 61.8723C107.002 61.8246 107.001 61.7683 106.999 61.7065C106.994 61.5817 106.984 61.4099 106.967 61.1891C106.922 60.609 106.843 59.9944 106.763 59.3803C106.74 59.1975 106.716 59.0148 106.693 58.833C106.593 58.0302 106.509 57.232 106.504 56.4597C106.496 54.9153 106.806 53.549 107.878 52.5181C108.401 52.0159 108.87 51.7724 109.277 51.6888C109.678 51.6065 110.059 51.6703 110.43 51.857C111.2 52.2445 111.913 53.1599 112.462 54.3277C112.697 54.8271 112.893 55.356 113.047 55.8815C112.83 56.738 112.675 57.5624 112.59 58.2517C112.52 58.8212 112.493 59.3275 112.527 59.6917C112.543 59.8602 112.578 60.0681 112.675 60.2367C112.728 60.327 112.823 60.4498 112.987 60.5179C113.165 60.5916 113.338 60.5669 113.467 60.5113C113.94 60.3087 114.186 59.8521 114.308 59.3996C114.433 58.9357 114.459 58.3722 114.416 57.7786C114.373 57.1851 114.259 56.5326 114.083 55.872C114.206 55.4087 114.349 54.9387 114.509 54.4802C114.989 53.1048 115.598 51.9185 116.271 51.3009C116.599 51.0005 116.901 50.8711 117.181 50.8696C117.458 50.8681 117.812 50.9913 118.246 51.4015C119.514 52.5995 120.293 54.8689 120.402 57.2305C120.512 59.597 119.941 61.8563 118.74 63.0574C118.544 63.2526 118.544 63.5692 118.74 63.7645C118.935 63.9597 119.251 63.9597 119.447 63.7645C120.938 62.2731 121.516 59.6694 121.401 57.1843C121.286 54.6943 120.467 52.1234 118.933 50.6744C118.376 50.1487 117.786 49.8663 117.175 49.8696C116.567 49.8728 116.037 50.1586 115.595 50.5641C114.73 51.3583 114.054 52.7466 113.564 54.1507C113.552 54.1868 113.539 54.2229 113.527 54.2591ZM106.001 61.866C106.001 61.8658 106.001 61.8623 106.001 61.8562C106.001 61.8632 106.001 61.8662 106.001 61.866ZM106.944 61.7409C106.945 61.7449 106.946 61.7472 106.946 61.7474C106.946 61.7475 106.945 61.7455 106.944 61.7409Z" fill="black"/>
    <path fill-rule="evenodd" clip-rule="evenodd" d="M128.666 50.8524C129.312 50.3405 130.113 50.0763 131.047 50.2373C132.107 50.4201 132.824 51.0936 133.111 51.9506C133.393 52.7929 133.249 53.7745 132.691 54.5943C131.917 55.7335 130.841 56.4026 129.705 56.8581C129.011 57.1362 128.273 57.3421 127.555 57.5253C128.141 60.4045 129.685 62.0524 131.359 62.4742C133.066 62.9042 135.143 62.1168 136.817 59.6064C136.97 59.3767 137.28 59.3146 137.51 59.4678C137.74 59.6209 137.802 59.9314 137.649 60.1611C135.822 62.9015 133.358 64.0091 131.115 63.4439C128.96 62.901 127.228 60.8669 126.584 57.7686C126.479 57.7951 126.376 57.8216 126.274 57.8482C126.006 57.9179 125.733 57.7578 125.664 57.4906C125.594 57.2234 125.754 56.9503 126.021 56.8806C126.165 56.843 126.309 56.8064 126.453 56.7702C126.409 55.6278 126.662 54.1218 127.22 52.8561C127.561 52.0809 128.034 51.353 128.666 50.8524ZM127.448 56.5201C128.096 56.3529 128.729 56.172 129.333 55.9299C130.358 55.5192 131.239 54.9519 131.864 54.032C132.261 53.4493 132.338 52.7908 132.163 52.268C131.992 51.7598 131.575 51.343 130.877 51.2228C130.251 51.1149 129.733 51.2828 129.287 51.6361C128.827 52.0007 128.438 52.571 128.135 53.259C127.665 54.3266 127.447 55.5744 127.448 56.5201Z" fill="black"/>
    <path fill-rule="evenodd" clip-rule="evenodd" d="M141.979 55.2741C141.616 56.1811 141.403 56.8848 141.366 57.1311C141.351 57.2308 141.341 57.5961 141.334 58.1252C141.332 58.3433 141.33 58.5847 141.328 58.831C141.325 59.1465 141.322 59.4702 141.318 59.7638C141.311 60.2783 141.299 60.7616 141.269 60.9965C141.265 61.0291 141.259 61.0655 141.252 61.1013C141.246 61.1276 141.231 61.1924 141.197 61.2604C141.181 61.2915 141.139 61.369 141.053 61.4361C140.946 61.5195 140.776 61.579 140.59 61.5211C140.442 61.4751 140.361 61.3771 140.332 61.3394C140.298 61.2936 140.277 61.2508 140.266 61.2267C140.23 61.1433 140.21 61.0451 140.198 60.9802C140.183 60.8994 140.168 60.7976 140.152 60.6754C139.667 56.9078 138.695 53.5302 137.273 49.9927C137.17 49.7365 137.294 49.4453 137.55 49.3423C137.806 49.2393 138.097 49.3636 138.2 49.6198C139.146 51.973 139.901 54.2665 140.448 56.653C140.559 56.2287 140.772 55.5981 141.05 54.9027C141.42 53.9778 141.926 52.886 142.513 51.9181C143.09 50.9672 143.786 50.0673 144.559 49.6044C144.956 49.3666 145.405 49.2253 145.882 49.2875C146.362 49.3501 146.796 49.6094 147.177 50.0307C148.481 51.4719 149.036 53.2611 149.359 55.046C149.506 55.8541 149.607 56.6763 149.705 57.4716C149.715 57.5546 149.725 57.6374 149.735 57.7198C149.844 58.5983 149.954 59.4394 150.122 60.2269C150.247 60.8094 150.392 61.301 150.629 61.6714C150.847 62.0119 151.147 62.2563 151.635 62.3552C151.644 62.3557 151.657 62.3564 151.673 62.3572C151.716 62.3594 151.774 62.362 151.843 62.3648C151.892 62.3669 151.946 62.3691 152.001 62.3713C152.099 62.3753 152.203 62.3796 152.295 62.3836C152.422 62.3892 152.572 62.396 152.634 62.4044C152.641 62.4054 152.653 62.4072 152.668 62.41L152.668 62.4102C152.677 62.4118 152.715 62.4192 152.759 62.4368L152.759 62.4371C152.776 62.4437 152.846 62.4712 152.914 62.5347C152.952 62.5695 153.015 62.639 153.051 62.7485C153.091 62.8725 153.079 63.0027 153.028 63.1134C152.95 63.2809 152.808 63.3454 152.787 63.3548C152.787 63.3551 152.786 63.3553 152.786 63.3555C152.744 63.3748 152.71 63.3841 152.696 63.3876C152.647 63.3999 152.603 63.4025 152.601 63.4026C152.587 63.4037 152.573 63.4043 152.562 63.4047C152.518 63.4064 152.447 63.407 152.349 63.407C152.292 63.407 152.237 63.3975 152.186 63.3798C152.114 63.3767 152.038 63.3736 151.964 63.3706C151.908 63.3683 151.853 63.3661 151.801 63.364C151.732 63.3611 151.67 63.3583 151.622 63.3559C151.599 63.3548 151.577 63.3536 151.559 63.3524C151.557 63.3523 151.512 63.35 151.472 63.3422C150.677 63.1908 150.143 62.7677 149.787 62.2107C149.446 61.678 149.273 61.0334 149.145 60.4364C148.966 59.6003 148.851 58.7185 148.743 57.8424C148.733 57.7603 148.722 57.6782 148.712 57.5961C148.614 56.7964 148.516 56.0027 148.375 55.2242C148.064 53.5075 147.554 51.9376 146.436 50.7016C146.171 50.4092 145.941 50.3036 145.753 50.2791C145.561 50.2541 145.338 50.3033 145.072 50.4624C144.52 50.7933 143.929 51.5127 143.368 52.4368C142.818 53.3438 142.335 54.3826 141.979 55.2741ZM151.614 62.3537C151.614 62.3537 151.616 62.3538 151.619 62.3542C151.616 62.3539 151.614 62.3537 151.614 62.3537Z" fill="black"/>
    <path fill-rule="evenodd" clip-rule="evenodd" d="M157.382 50.314C157.658 50.3107 157.884 50.5318 157.888 50.8079C157.909 52.5376 158.231 56.4137 159.296 59.2428C159.834 60.6724 160.519 61.719 161.343 62.1627C162.096 62.5685 163.123 62.5439 164.585 61.419C164.827 61.2329 165.185 60.7692 165.557 60.0923C165.92 59.4335 166.266 58.63 166.506 57.8226C166.512 57.8008 166.519 57.779 166.525 57.7572C166.455 57.4723 166.386 57.1827 166.321 56.8971C166.142 56.1175 165.985 55.3552 165.907 54.8004C165.868 54.531 165.843 54.2762 165.853 54.0865C165.857 54.0129 165.868 53.8494 165.957 53.7045C166.011 53.6167 166.119 53.4947 166.303 53.4526C166.48 53.412 166.624 53.4694 166.703 53.5134C167.452 53.9349 167.753 54.7123 167.817 55.5148C167.874 56.2147 167.761 57.0018 167.559 57.7711C167.658 58.1694 167.758 58.5525 167.851 58.894C168.032 59.5628 168.174 60.0283 168.232 60.1608C168.634 61.0877 169.189 61.519 169.779 61.6784C170.393 61.8444 171.131 61.7385 171.915 61.411C173.494 60.7502 175.013 59.2912 175.584 58.1485C175.707 57.9015 176.008 57.8014 176.255 57.9249C176.502 58.0484 176.602 58.3488 176.478 58.5957C175.792 59.9693 174.084 61.5877 172.3 62.3335C171.402 62.7092 170.425 62.8889 169.518 62.6437C168.586 62.3919 167.816 61.7153 167.314 60.5585C167.237 60.3804 167.112 59.9717 166.971 59.4677C166.803 59.8605 166.621 60.2345 166.433 60.5747C166.048 61.2751 165.609 61.8933 165.195 62.2116C163.554 63.4733 162.097 63.7049 160.869 63.0431C159.711 62.4192 158.916 61.0743 158.36 59.595C157.235 56.6062 156.909 52.595 156.888 50.8201C156.884 50.544 157.105 50.3174 157.382 50.314ZM166.854 54.1122C166.855 54.1124 166.854 54.116 166.853 54.1223C166.854 54.1151 166.854 54.112 166.854 54.1122Z" fill="black"/>
    <path fill-rule="evenodd" clip-rule="evenodd" d="M193.926 52.9529C192.005 51.9231 189.616 51.5784 186.735 52.3065C186.467 52.3742 186.195 52.212 186.128 51.9443C186.06 51.6766 186.222 51.4047 186.49 51.337C189.585 50.5546 192.234 50.9113 194.399 52.0715C196.555 53.2275 198.188 55.1572 199.306 57.4497C201.536 62.0204 201.779 68.1398 199.985 72.8816C197.531 79.3682 193.282 85.9673 187.026 89.4883C180.472 93.177 172.537 92.844 165.469 92.3226C162.569 92.1086 159.569 91.6314 156.563 91.1533C156.282 91.1087 156.002 91.064 155.721 91.0196C152.425 90.4976 149.128 90.0031 145.901 89.8633C139.459 89.5841 133.361 90.7202 128.236 95.8446C124.953 99.1278 123.336 103.606 123.928 108.22C123.961 108.475 124.103 109.071 124.301 109.519C124.358 109.649 124.409 109.742 124.451 109.807C124.631 109.735 124.844 109.772 124.989 109.918C125.185 110.113 125.185 110.43 124.989 110.625C124.853 110.762 124.662 110.876 124.425 110.878C124.195 110.881 124.013 110.778 123.891 110.675C123.662 110.484 123.499 110.18 123.385 109.922C123.146 109.379 122.98 108.689 122.936 108.347C122.303 103.413 124.037 98.63 127.529 95.1375C132.927 89.74 139.35 88.5784 145.944 88.8642C149.235 89.0068 152.584 89.5104 155.877 90.0319C156.157 90.0761 156.435 90.1204 156.714 90.1647C159.728 90.6441 162.687 91.1146 165.542 91.3253C172.643 91.8491 180.28 92.1377 186.535 88.6169C192.507 85.2558 196.639 78.8996 199.05 72.5277C200.748 68.0392 200.515 62.2067 198.407 57.8882C197.357 55.7362 195.856 53.987 193.926 52.9529Z" fill="black"/>
    <path fill-rule="evenodd" clip-rule="evenodd" d="M135.142 100.944C135.284 101.181 135.207 101.488 134.97 101.63C134.363 101.995 133.764 102.335 133.176 102.67C131.417 103.671 129.75 104.619 128.217 105.996C127.257 106.859 126.703 107.721 126.242 108.644C126.046 109.036 125.869 109.434 125.682 109.855C125.646 109.937 125.609 110.02 125.571 110.104C125.344 110.614 125.098 111.151 124.796 111.712C124.778 111.745 124.761 111.777 124.744 111.808C124.651 111.982 124.568 112.137 124.498 112.251C124.457 112.319 124.407 112.395 124.349 112.46C124.303 112.513 124.189 112.634 124.004 112.676C123.761 112.731 123.57 112.617 123.466 112.51C123.38 112.421 123.33 112.317 123.301 112.251C123.239 112.11 123.181 111.912 123.119 111.696C122.063 107.998 121.089 105.336 119.162 101.953C119.026 101.713 119.11 101.408 119.35 101.271C119.59 101.134 119.895 101.218 120.031 101.458C121.953 104.832 122.952 107.516 123.989 111.101C124.24 110.622 124.452 110.158 124.658 109.696C124.694 109.616 124.73 109.535 124.766 109.454C124.953 109.033 125.14 108.611 125.347 108.197C125.847 107.196 126.47 106.222 127.549 105.253C129.17 103.796 130.966 102.775 132.749 101.761C133.321 101.436 133.892 101.111 134.456 100.773C134.693 100.631 135 100.708 135.142 100.944Z" fill="black"/>
</svg>
