<svg width="144" height="43" viewBox="0 0 144 43" fill="none" xmlns="http://www.w3.org/2000/svg">
<path fill-rule="evenodd" clip-rule="evenodd" d="M14.653 4.51C17.1541 3.50164 19.883 3.24487 22.7053 4.52489C27.8289 6.84859 31.4939 10.9058 32.728 16.3468C32.7891 16.6161 32.6203 16.884 32.351 16.945C32.0817 17.0061 31.8138 16.8373 31.7528 16.568C30.5967 11.4707 27.169 7.64734 22.2922 5.4356C19.7735 4.29329 17.336 4.50651 15.0269 5.43746C12.7025 6.37463 10.5271 8.03304 8.58108 9.75008C2.80768 14.8443 0.173377 22.9882 2.26547 30.4876C3.53335 35.0325 6.11079 38.3356 9.45618 40.205C12.8026 42.0748 16.9632 42.5355 21.4429 41.3089C23.8523 40.6492 26.3145 39.2307 28.1686 37.3306C30.0226 35.4305 31.2365 33.0844 31.2365 30.566C31.2365 30.2898 31.4604 30.066 31.7365 30.066C32.0126 30.066 32.2365 30.2898 32.2365 30.566C32.2365 33.4165 30.8639 36.0001 28.8843 38.0289C26.9047 40.0577 24.2861 41.5673 21.707 42.2734C17.0096 43.5597 12.5737 43.0925 8.96839 41.0779C5.36207 39.0628 2.63255 35.5249 1.30225 30.7563C-0.898156 22.8687 1.87368 14.3347 7.91946 9.00024C9.88907 7.26235 12.1674 5.51214 14.653 4.51Z" fill="black"/>
<path fill-rule="evenodd" clip-rule="evenodd" d="M50.4191 4.3698C50.6944 4.39146 50.9 4.63218 50.8784 4.90747C50.0882 14.9543 51.4989 26.4684 54.8818 35.9404C54.9747 36.2005 54.8392 36.4866 54.5791 36.5795C54.3191 36.6723 54.0329 36.5368 53.9401 36.2768C50.5072 26.6647 49.0808 15.0086 49.8815 4.82906C49.9031 4.55377 50.1438 4.34815 50.4191 4.3698Z" fill="black"/>
<path fill-rule="evenodd" clip-rule="evenodd" d="M68.8885 18.4953C69.1545 18.4209 69.4304 18.5761 69.5048 18.842C70.7219 23.1888 71.7274 27.5559 72.5933 31.9816C72.6618 32.3319 72.6953 32.7024 72.7223 33.0239C72.7246 33.0509 72.7268 33.0774 72.729 33.1035C72.7475 33.3256 72.7633 33.5148 72.7844 33.6721C72.978 33.5477 73.2386 33.5702 73.4079 33.7395C73.6032 33.9348 73.6032 34.2514 73.4079 34.4467C73.2733 34.5813 73.1293 34.7012 72.9754 34.7779C72.8175 34.8566 72.5949 34.9147 72.3598 34.8227C72.1361 34.7352 72.0163 34.5554 71.9539 34.4266C71.8897 34.2941 71.8522 34.1466 71.8268 34.0141C71.7812 33.7761 71.7568 33.4805 71.7334 33.1987C71.7309 33.1681 71.7283 33.1377 71.7258 33.1075C71.6986 32.7833 71.6686 32.4635 71.6119 32.1736C70.7502 27.7694 69.7506 23.4287 68.5419 19.1116C68.4674 18.8457 68.6226 18.5698 68.8885 18.4953ZM72.8556 33.9939C72.8556 33.994 72.8552 33.9933 72.8544 33.9918C72.8552 33.9931 72.8556 33.9939 72.8556 33.9939Z" fill="black"/>
<path fill-rule="evenodd" clip-rule="evenodd" d="M92.0509 15.8938C93.859 15.5977 95.7438 15.856 97.8845 16.4814C98.1496 16.5588 98.3017 16.8364 98.2242 17.1015C98.1468 17.3666 97.8692 17.5187 97.6041 17.4412C95.5369 16.8373 93.815 16.6182 92.2125 16.8807C90.6174 17.1419 89.0914 17.8885 87.431 19.3016C86.0813 20.4503 85.4836 21.7017 85.4217 22.9992C85.3589 24.3151 85.8441 25.7486 86.8004 27.2455C88.8398 30.4376 92.1627 32.4752 95.8485 33.3837C99.8001 34.3577 102.381 32.9375 105.801 31.0556C106.054 30.9163 106.311 30.7744 106.575 30.6309C106.817 30.4986 107.121 30.588 107.253 30.8304C107.385 31.0728 107.296 31.3765 107.054 31.5088C106.779 31.6583 106.509 31.8074 106.242 31.9548C102.863 33.8189 99.9521 35.425 95.6091 34.3546C91.7297 33.3984 88.1633 31.2361 85.9577 27.7839C84.9364 26.1853 84.3467 24.5464 84.4228 22.9515C84.4998 21.3381 85.2549 19.8404 86.7829 18.54C88.5466 17.039 90.2353 16.1911 92.0509 15.8938Z" fill="black"/>
<path fill-rule="evenodd" clip-rule="evenodd" d="M120.376 0.33909C120.651 0.315507 120.893 0.51943 120.917 0.794563C121.036 2.17938 121.161 3.57109 121.286 4.96797C121.991 12.8116 122.71 20.8181 122.402 28.682C122.391 28.9658 122.317 29.4041 122.224 29.8681C122.128 30.3435 122.005 30.8822 121.885 31.3845C121.764 31.8873 121.644 32.3573 121.554 32.6965C121.509 32.8657 121.471 33.0044 121.444 33.0992C121.431 33.1453 121.418 33.1866 121.408 33.2171L121.408 33.218C121.405 33.2281 121.395 33.2576 121.382 33.2873C121.378 33.2959 121.369 33.3156 121.355 33.3391C121.349 33.3508 121.336 33.3715 121.317 33.3954C121.303 33.4133 121.261 33.465 121.19 33.5098C121.117 33.5564 120.935 33.6383 120.722 33.545C120.539 33.4648 120.474 33.3115 120.457 33.2677C120.421 33.1753 120.422 33.0933 120.423 33.0858L120.423 33.0853C120.423 33.0134 120.438 32.945 120.465 32.8832C120.469 32.869 120.475 32.8494 120.482 32.8239C120.507 32.7383 120.543 32.6067 120.587 32.4403C120.675 32.1084 120.793 31.6458 120.912 31.1505C121.032 30.6547 121.151 30.1296 121.243 29.6714C121.337 29.2018 121.395 28.8366 121.403 28.6428C121.708 20.8491 120.996 12.9163 120.291 5.07047C120.165 3.67044 120.04 2.27317 119.921 0.879964C119.897 0.604831 120.101 0.362673 120.376 0.33909ZM120.457 32.9104C120.457 32.9104 120.457 32.9093 120.458 32.9075C120.457 32.9096 120.457 32.9105 120.457 32.9104ZM121.421 33.0439C121.423 33.0679 121.423 33.0833 121.423 33.0852L121.423 33.0853C121.423 33.0714 121.422 33.0576 121.421 33.0439Z" fill="black"/>
<path fill-rule="evenodd" clip-rule="evenodd" d="M135.409 15.6265C135.59 15.8353 135.567 16.1511 135.358 16.3317C134.884 16.7415 132.369 18.7476 129.975 20.5902C128.775 21.513 127.598 22.4008 126.715 23.0321C126.46 23.2147 126.226 23.378 126.021 23.5156C130.344 23.5163 133.811 24.7161 137.147 27.5538C137.521 27.872 138.268 28.6805 139.115 29.7108C139.97 30.751 140.953 32.0483 141.797 33.3629C142.634 34.6681 143.36 36.0274 143.671 37.1842C143.826 37.7617 143.89 38.3349 143.776 38.8434C143.657 39.377 143.344 39.8172 142.813 40.0829C142.566 40.2064 142.266 40.1063 142.142 39.8593C142.019 39.6123 142.119 39.312 142.366 39.1885C142.61 39.0662 142.742 38.8854 142.8 38.6251C142.864 38.3396 142.84 37.9459 142.705 37.4433C142.436 36.4397 141.778 35.1857 140.955 33.9031C140.138 32.6297 139.18 31.3645 138.343 30.3459C137.497 29.3173 136.799 28.5705 136.499 28.3154C133.352 25.638 130.116 24.5156 126.017 24.5156C125.404 24.5156 125.007 24.285 124.767 24.0476C124.721 24.0018 124.683 23.9573 124.651 23.9173C124.538 23.8287 124.476 23.7038 124.459 23.5824L124.458 23.5809C124.457 23.571 124.452 23.5392 124.451 23.5061C124.451 23.5058 124.451 23.5055 124.451 23.505C124.451 23.4943 124.447 23.4268 124.469 23.3482C124.479 23.3098 124.515 23.1944 124.628 23.0982C124.744 22.9995 124.88 22.9708 124.998 22.9813C125.028 22.9638 125.064 22.9427 125.106 22.9173C125.346 22.7702 125.698 22.5303 126.134 22.2186C127.002 21.5978 128.168 20.7187 129.365 19.7977C131.763 17.9526 134.255 15.9634 134.704 15.5754C134.913 15.3947 135.229 15.4176 135.409 15.6265ZM124.867 23.048C124.867 23.0479 124.87 23.0469 124.874 23.0456C124.869 23.0474 124.867 23.0481 124.867 23.048Z" fill="black"/>
</svg>
