<svg viewBox="0 0 272 68" fill="none"
    xmlns="http://www.w3.org/2000/svg">
    <path d="M263.936 43.2481C264.331 43.3565 264.705 43.4438 265.058 43.5101C265.412 43.5556 265.724 43.6006 265.994 43.6451C266.306 43.6901 266.598 43.7245 266.868 43.7482C267.16 43.7721 267.503 43.7966 267.899 43.8217C268.253 43.8463 268.68 43.8613 269.18 43.8666C269.68 43.872 270.273 43.8783 270.961 43.8856C270.341 45.3166 269.839 46.5301 269.453 47.526C269.068 48.5011 268.767 49.3104 268.552 49.954C268.315 50.7015 268.142 51.3143 268.033 51.7923C267.944 52.2706 267.834 52.8528 267.701 53.5389C267.591 54.1419 267.437 54.8799 267.24 55.7528C267.043 56.6258 266.824 57.6652 266.582 58.871L263.833 58.7166C264.012 57.6143 264.136 56.6781 264.207 55.908C264.278 55.117 264.337 54.4614 264.384 53.941C264.433 53.3373 264.459 52.8376 264.463 52.4418C264.467 52.0251 264.443 51.3998 264.389 50.5659C264.355 49.878 264.302 48.9503 264.231 47.7828C264.161 46.5944 264.062 45.0829 263.936 43.2481ZM267.182 61.2525C267.325 61.4832 267.405 61.7445 267.423 62.0364C267.462 62.3077 267.438 62.5887 267.352 62.8794C267.286 63.1496 267.148 63.4085 266.937 63.6563C266.747 63.9043 266.484 64.0994 266.15 64.2417C265.48 64.5471 264.885 64.624 264.366 64.4727C263.847 64.3004 263.464 64.0255 263.218 63.6479C263.075 63.438 262.994 63.2079 262.976 62.9577C262.978 62.6869 263.033 62.4271 263.14 62.1782C263.247 61.9085 263.417 61.6603 263.648 61.4336C263.88 61.2069 264.173 61.0225 264.529 60.8804C265.22 60.5961 265.783 60.498 266.22 60.586C266.677 60.6742 266.998 60.8964 267.182 61.2525Z" fill="black"/>
    <path d="M245.131 51.2041C245.672 51.314 246.14 51.4024 246.535 51.4691C246.951 51.5152 247.305 51.5606 247.596 51.6054C247.929 51.6506 248.22 51.685 248.47 51.7085C248.72 51.732 249.011 51.7559 249.344 51.7803C249.906 51.8072 250.698 51.8156 251.719 51.8057C251.115 51.7576 250.635 51.9087 250.277 52.2591C249.94 52.5888 249.686 52.9715 249.514 53.4072C249.3 53.9258 249.179 54.5287 249.151 55.216C249.1 56.1321 249.112 56.9657 249.187 57.7165C249.283 58.4467 249.454 59.0736 249.698 59.5971C249.964 60.0999 250.314 60.4787 250.749 60.7333C251.184 60.9672 251.746 61.0357 252.434 60.9388C253.123 60.842 253.646 60.608 254.004 60.2368C254.383 59.845 254.659 59.3688 254.832 58.8081C255.005 58.2265 255.106 57.5713 255.134 56.8424C255.184 56.1138 255.223 55.3537 255.252 54.5623C255.261 53.7707 255.256 53.2081 255.239 52.8746C255.243 52.5204 255.235 52.2912 255.215 52.1868C255.195 52.0824 255.165 52.0404 255.123 52.0608C255.081 52.0603 255.03 52.0077 254.968 51.9029C254.927 51.8191 254.866 51.7351 254.783 51.6509C254.722 51.5669 254.639 51.4723 254.536 51.367C254.434 51.2409 254.32 51.1147 254.197 50.9883C254.738 51.015 255.217 51.0409 255.633 51.0662C256.071 51.0709 256.435 51.0852 256.727 51.1091C257.06 51.1335 257.351 51.1574 257.601 51.1809C257.83 51.2042 258.132 51.2387 258.506 51.2844C258.818 51.3294 259.224 51.3754 259.724 51.4224C260.223 51.4694 260.816 51.5382 261.503 51.6289C261.022 51.7279 260.635 51.88 260.342 52.0852C260.048 52.2905 259.816 52.4963 259.647 52.7029C259.457 52.93 259.319 53.1786 259.233 53.4485C259.167 53.802 259.161 54.3436 259.216 55.0734C259.251 55.7196 259.345 56.6061 259.5 57.7328C259.655 58.8596 259.899 60.3414 260.234 62.1784L257.75 63.6207L257.294 59.4594C256.679 60.4737 256.025 61.2584 255.331 61.8136C254.659 62.3481 254.03 62.7372 253.444 62.981C252.753 63.2653 252.085 63.4248 251.438 63.4596C250.584 63.4505 249.845 63.3905 249.221 63.2797C248.619 63.1482 248.099 62.9864 247.664 62.7943C247.229 62.6021 246.877 62.39 246.608 62.158C246.361 61.9053 246.176 61.6533 246.054 61.402C245.768 60.8781 245.619 60.2098 245.606 59.3971C245.594 58.5636 245.635 57.7411 245.727 56.9295C245.819 56.0971 245.921 55.3377 246.032 54.6514C246.144 53.965 246.18 53.4967 246.141 53.2462C246.101 53.0583 246.041 52.8493 245.96 52.6193C245.879 52.4309 245.777 52.2214 245.654 51.991C245.532 51.7396 245.358 51.4773 245.131 51.2041Z" fill="black"/>
    <path d="M227.078 61.9495C227.231 61.2636 227.342 60.6606 227.41 60.1404C227.499 59.5997 227.566 59.1525 227.612 58.7988C227.658 58.3826 227.682 58.0286 227.686 57.737C227.669 57.3826 227.652 56.9657 227.636 56.4864C227.642 55.9864 227.626 55.4966 227.59 55.017C227.574 54.5169 227.548 54.079 227.51 53.7036C227.472 53.3074 227.423 53.0256 227.363 52.8583C227.281 52.6907 227.168 52.5124 227.025 52.3234C226.737 51.9661 226.313 51.6178 225.754 51.2785C226.235 51.1794 226.642 51.1005 226.976 51.0415C227.331 50.962 227.623 50.8922 227.853 50.8321C228.104 50.7515 228.323 50.6809 228.512 50.6204C228.679 50.5597 228.878 50.4993 229.107 50.4392C229.295 50.3996 229.525 50.3499 229.796 50.2903C230.068 50.2307 230.381 50.1612 230.736 50.0816L230.612 52.9242C231.287 52.1397 231.971 51.5532 232.662 51.1647C233.354 50.7763 234.003 50.5019 234.609 50.3417C235.298 50.1407 235.977 50.0438 236.643 50.0509C237.476 50.1015 238.245 50.2451 238.951 50.4818C239.678 50.7188 240.3 50.9962 240.817 51.3143C241.356 51.6117 241.79 51.9289 242.12 52.2657C242.45 52.6026 242.644 52.8964 242.704 53.147C242.946 53.9622 243 54.7128 242.868 55.3989C242.736 56.0642 242.562 56.7186 242.347 57.3622C242.153 57.9852 241.979 58.6084 241.827 59.2318C241.695 59.8554 241.74 60.533 241.961 61.2646C242.043 61.4529 242.124 61.6413 242.205 61.8297C242.287 61.9972 242.389 62.165 242.512 62.333C242.636 62.501 242.78 62.638 242.946 62.7439C242.717 62.7206 242.488 62.7078 242.258 62.7053C242.029 62.682 241.821 62.659 241.634 62.6362C241.405 62.6129 241.197 62.5898 241.01 62.567C240.802 62.5439 240.521 62.5305 240.166 62.5267C239.562 62.5203 238.625 62.5415 237.353 62.5905C237.545 62.155 237.695 61.792 237.802 61.5014C237.931 61.1903 238.037 60.9414 238.123 60.7548C238.208 60.5265 238.273 60.3501 238.316 60.2256C238.572 59.6241 238.725 58.9382 238.775 58.1679C238.846 57.3978 238.802 56.616 238.644 55.8226C238.585 55.5511 238.484 55.2271 238.342 54.8506C238.2 54.474 238.006 54.1074 237.76 53.7505C237.535 53.3939 237.257 53.0889 236.926 52.8353C236.616 52.582 236.253 52.4323 235.837 52.3862C235.421 52.3401 234.951 52.4392 234.427 52.6837C233.925 52.9283 233.378 53.3808 232.788 54.0412C232.344 54.599 231.993 55.2828 231.735 56.0926C231.498 56.7776 231.333 57.6405 231.238 58.6812C231.144 59.7011 231.256 60.9003 231.575 62.2788C231.284 62.234 231.013 62.2103 230.763 62.2076C230.513 62.1841 230.305 62.161 230.139 62.1384C229.931 62.1154 229.743 62.0925 229.577 62.0699C229.389 62.0679 229.181 62.0553 228.952 62.032C228.744 62.0298 228.484 62.027 228.171 62.0237C227.859 61.9995 227.495 61.9748 227.078 61.9495Z" fill="black"/>
    <path d="M216.564 60.2434C217.148 60.2496 217.69 60.1929 218.191 60.0733C218.609 59.9735 219.007 59.8111 219.384 59.586C219.783 59.3402 220.047 58.9784 220.177 58.5006C220.593 58.5884 220.946 58.6651 221.237 58.7307C221.528 58.7755 221.778 58.8198 221.986 58.8637C222.214 58.9286 222.412 58.9724 222.578 58.995C222.744 59.0385 222.942 59.0822 223.17 59.1264C223.378 59.1702 223.628 59.225 223.919 59.2906C224.231 59.3356 224.595 59.402 225.01 59.4898C224.698 59.4448 224.375 59.4726 224.041 59.5732C223.727 59.674 223.424 59.7853 223.131 59.9072C222.796 60.0495 222.482 60.2232 222.188 60.4284C221.999 60.5514 221.778 60.7366 221.526 60.9839C221.294 61.2314 220.958 61.4675 220.518 61.6919C220.078 61.9164 219.493 62.1081 218.762 62.267C218.052 62.4052 217.135 62.4475 216.01 62.3939C214.657 62.3377 213.524 62.0861 212.612 61.6388C211.7 61.1707 210.966 60.6108 210.411 59.959C209.856 59.2863 209.457 58.5633 209.215 57.7898C208.973 57.0164 208.846 56.2962 208.832 55.6293C208.818 54.9625 209.024 54.2667 209.448 53.5421C209.873 52.8174 210.463 52.157 211.219 51.5609C211.997 50.9649 212.929 50.4853 214.016 50.1219C215.104 49.7376 216.293 49.5524 217.585 49.5662C218.335 49.5742 219.021 49.6753 219.644 49.8694C220.288 50.043 220.869 50.2784 221.387 50.5756C221.925 50.873 222.39 51.2113 222.782 51.5905C223.174 51.9489 223.504 52.317 223.77 52.6949C224.037 53.0936 224.262 53.5127 224.445 53.9522C224.607 54.3289 224.738 54.7574 224.837 55.2377C224.936 55.7179 224.962 56.2078 224.915 56.7073C223.331 56.7321 222.05 56.7497 221.071 56.7601C220.112 56.7707 219.362 56.7731 218.82 56.7673L217.414 56.7523L216.352 56.7409C215.977 56.7369 215.487 56.7421 214.883 56.7565C214.278 56.7709 213.539 56.7942 212.663 56.8266C212.758 57.661 213.012 58.3095 213.424 58.7723C213.857 59.2144 214.311 59.5526 214.788 59.7869C215.327 60.0427 215.919 60.1948 216.564 60.2434ZM213.812 54.5887C214.478 54.6375 215.03 54.6746 215.467 54.7001C215.925 54.7259 216.3 54.7507 216.592 54.7746C216.904 54.7988 217.154 54.8119 217.341 54.8139L218.122 54.8222C218.643 54.8278 219.612 54.8069 221.029 54.7595C220.977 53.8422 220.786 53.1422 220.458 52.6595C220.151 52.1771 219.821 51.8194 219.47 51.5864C219.056 51.332 218.599 51.1813 218.099 51.1343C216.745 51.1406 215.732 51.4111 215.059 51.9456C214.408 52.4804 213.992 53.3614 213.812 54.5887Z" fill="black"/>
    <path d="M180.765 50.0794C181.244 50.0429 181.651 50.0056 181.985 49.9674C182.339 49.9296 182.631 49.891 182.861 49.8518C183.132 49.813 183.362 49.7738 183.55 49.7341C183.737 49.7153 183.946 49.6759 184.176 49.6158C184.385 49.5764 184.615 49.5267 184.865 49.4669C185.137 49.3865 185.43 49.2958 185.743 49.195L185.513 53.1615C185.979 52.4373 186.516 51.8909 187.125 51.5224C187.733 51.133 188.309 50.8475 188.853 50.6658C189.501 50.4435 190.148 50.315 190.794 50.2803C191.461 50.3082 192.074 50.4189 192.635 50.6124C193.112 50.7842 193.588 51.0497 194.064 51.409C194.56 51.7685 194.94 52.2934 195.203 52.9837C195.919 52.2622 196.623 51.7071 197.315 51.3187C198.028 50.9096 198.656 50.6038 199.2 50.4012C199.848 50.179 200.454 50.05 201.017 50.0144C201.767 50.0015 202.453 50.1339 203.075 50.4114C203.718 50.6891 204.277 51.0388 204.751 51.4606C205.226 51.8615 205.607 52.2927 205.894 52.7541C206.181 53.1947 206.343 53.5818 206.381 53.9156C206.439 54.3746 206.401 54.968 206.269 55.6957C206.136 56.4027 205.983 57.1303 205.808 57.8785C205.633 58.6058 205.47 59.2812 205.317 59.9046C205.186 60.5074 205.129 60.9339 205.148 61.1841C205.208 61.3931 205.351 61.6446 205.577 61.9387C205.783 62.1909 206.081 62.5066 206.473 62.8858C206.886 63.2444 207.475 63.6674 208.241 64.1548C207.575 64.1268 206.981 64.0997 206.461 64.0733C205.961 64.0471 205.534 64.0113 205.18 63.9658C204.764 63.9197 204.4 63.8846 204.088 63.8604C203.838 63.8578 203.536 63.8337 203.182 63.7883C202.891 63.7643 202.506 63.729 202.027 63.6822C201.569 63.6356 201.038 63.5883 200.435 63.5402C200.664 63.4801 200.853 63.3675 201.001 63.2024C201.149 63.0165 201.275 62.8408 201.381 62.6752C201.488 62.468 201.574 62.2397 201.639 61.9904C201.683 61.7826 201.728 61.4497 201.774 60.9918C201.821 60.534 201.858 60.0135 201.885 59.4304C201.933 58.8476 201.96 58.2332 201.967 57.5874C201.995 56.9419 202.001 56.3273 201.987 55.7438C201.972 55.1603 201.936 54.6286 201.879 54.1488C201.821 53.669 201.742 53.3035 201.64 53.0524C201.559 52.8641 201.415 52.7167 201.208 52.6103C201.001 52.4831 200.762 52.4076 200.491 52.3839C200.221 52.3393 199.95 52.3469 199.678 52.4065C199.407 52.4452 199.167 52.526 198.957 52.6488C198.768 52.7926 198.516 52.9878 198.201 53.2345C197.927 53.4607 197.57 53.7694 197.128 54.1606C196.687 54.5517 196.129 55.0458 195.456 55.6428C195.38 56.9546 195.316 58.0165 195.266 58.8285C195.237 59.6199 195.209 60.2238 195.184 60.6402C195.158 61.14 195.144 61.4836 195.142 61.6711C195.119 61.8375 195.128 61.9938 195.168 62.1401C195.206 62.453 195.328 62.746 195.534 63.0191C195.284 62.9539 195.014 62.9093 194.723 62.8854C194.452 62.8617 194.202 62.8382 193.973 62.8149C193.703 62.7912 193.432 62.7779 193.161 62.775C192.932 62.7725 192.682 62.7803 192.411 62.7982C192.181 62.8166 191.9 62.8449 191.566 62.883C191.233 62.9002 190.868 62.9276 190.471 62.965C190.639 62.8626 190.776 62.7391 190.882 62.5944C190.987 62.4497 191.072 62.3152 191.136 62.1908C191.221 62.0459 191.285 61.9112 191.328 61.7866C191.35 61.6618 191.395 61.3602 191.462 60.8817C191.53 60.3824 191.578 59.7996 191.606 59.1332C191.634 58.4668 191.642 57.7689 191.628 57.0395C191.616 56.2894 191.55 55.6115 191.431 55.0061C191.313 54.3798 191.121 53.8673 190.854 53.4686C190.608 53.0701 190.277 52.8895 189.86 52.9267C189.359 52.963 188.848 53.0826 188.325 53.2853C187.885 53.4473 187.414 53.6923 186.91 54.0203C186.407 54.3482 185.933 54.7911 185.49 55.3489C185.39 56.9104 185.325 58.1494 185.294 59.0658C185.284 59.9824 185.287 60.6804 185.303 61.1598C185.318 61.7224 185.334 62.1081 185.353 62.3166C185.372 62.4627 185.423 62.609 185.505 62.7557C185.566 62.8814 185.637 63.028 185.719 63.1956C185.821 63.3633 185.934 63.5208 186.057 63.668L181.092 63.3649C181.259 63.2834 181.406 63.1808 181.532 63.0571C181.659 62.9126 181.765 62.7679 181.85 62.623C181.935 62.4572 182.02 62.2914 182.105 62.1257C182.169 61.9805 182.225 61.6373 182.272 61.0961C182.34 60.5552 182.399 59.9204 182.449 59.1917C182.498 58.4422 182.538 57.6613 182.568 56.8491C182.618 56.0162 182.647 55.2457 182.655 54.5374C182.683 53.8085 182.7 53.194 182.706 52.694C182.711 52.1732 182.704 51.8607 182.684 51.7563C182.624 51.5473 182.512 51.3273 182.348 51.0964C182.204 50.9282 182.008 50.749 181.76 50.5588C181.512 50.3478 181.18 50.188 180.765 50.0794Z" fill="black"/>
    <path d="M155.049 49.6487C155.445 49.6737 155.799 49.6879 156.111 49.6912C156.445 49.674 156.726 49.6561 156.956 49.6378C157.227 49.6198 157.466 49.6015 157.675 49.5829C157.988 49.5446 158.311 49.496 158.645 49.437C158.937 49.3985 159.24 49.3496 159.553 49.2905C159.887 49.2107 160.211 49.1204 160.525 49.0196C160.396 49.3307 160.289 49.6004 160.204 49.8287C160.118 50.0569 160.053 50.2542 160.01 50.4204C159.945 50.6072 159.912 50.7631 159.911 50.8881C159.889 51.0337 159.876 51.2107 159.874 51.419C159.85 51.7729 159.843 52.3458 159.856 53.1377C160.949 52.2118 161.863 51.4923 162.598 50.9793C163.353 50.4665 163.951 50.0666 164.392 49.7796C164.916 49.4519 165.325 49.2375 165.618 49.1364C166.39 49.0197 167.065 49.204 167.643 49.6893C167.891 49.9003 168.127 50.1841 168.353 50.5407C168.578 50.8765 168.771 51.3265 168.932 51.8907C169.093 52.455 169.211 53.1334 169.285 53.9259C169.361 54.6975 169.361 55.6247 169.287 56.7073C168.849 56.7443 168.453 56.7817 168.098 56.8196C167.764 56.8577 167.483 56.886 167.254 56.9043C166.982 56.9431 166.732 56.9613 166.503 56.9588L165.658 57.0436C165.366 57.0821 165.001 57.1199 164.563 57.1569C164.146 57.1733 163.635 57.2095 163.031 57.2655C163.913 56.5666 164.482 55.958 164.738 55.4399C165.014 54.9012 165.134 54.4545 165.096 54.0999C165.058 53.7036 164.875 53.3579 164.544 53.0627C164.151 52.8293 163.725 52.7414 163.266 52.799C162.87 52.8365 162.409 53.0087 161.885 53.3156C161.361 53.6225 160.803 54.1999 160.21 55.0478C160.238 56.3815 160.268 57.4861 160.3 58.3614C160.353 59.2371 160.398 59.9459 160.434 60.488C160.489 61.1136 160.536 61.6037 160.574 61.9583C160.633 62.2715 160.755 62.6061 160.939 62.9623C161.081 63.2555 161.286 63.5806 161.553 63.9376C161.82 64.2947 162.171 64.6526 162.604 65.0114C161.688 64.96 160.938 64.952 160.354 64.9874C160 65.0045 159.687 65.022 159.416 65.0399C159.124 65.0784 158.811 65.1168 158.477 65.1549C158.185 65.1934 157.841 65.2314 157.445 65.2689C157.069 65.3274 156.652 65.3854 156.193 65.443C156.362 65.2156 156.5 64.9463 156.608 64.6349C156.715 64.3444 156.802 64.064 156.867 63.7939C156.954 63.4823 157.02 63.16 157.065 62.8272C157.089 62.5357 157.104 62.0984 157.11 61.5151C157.137 60.932 157.134 60.2757 157.1 59.5461C157.087 58.7959 157.064 58.0248 157.031 57.2327C156.998 56.4198 156.954 55.6589 156.899 54.9499C156.844 54.241 156.778 53.6257 156.7 53.104C156.643 52.5617 156.574 52.1859 156.493 51.9767C156.392 51.7256 156.269 51.4743 156.126 51.2227C156.004 50.9922 155.85 50.751 155.665 50.499C155.48 50.2262 155.275 49.9427 155.049 49.6487Z" fill="black"/>
    <path d="M140.494 51.8059C140.599 51.682 140.664 51.4535 140.689 51.1205C140.734 50.7668 140.822 50.3718 140.951 49.9357C141.102 49.4998 141.346 49.044 141.685 48.5684C142.023 48.0929 142.57 47.6508 143.324 47.2421C144.058 46.8333 144.769 46.5908 145.457 46.5148C146.145 46.4389 146.801 46.4771 147.425 46.6296C148.048 46.7821 148.629 47.0175 149.167 47.3357C149.726 47.6542 150.233 48.0034 150.687 48.3833C150.997 48.6366 151.243 49.0038 151.426 49.485C151.608 49.9453 151.748 50.4676 151.846 51.0521C151.944 51.6365 152.011 52.2518 152.045 52.898C152.101 53.5237 152.136 54.1387 152.151 54.743C152.165 55.3265 152.17 55.8683 152.165 56.3683C152.18 56.8476 152.218 57.2439 152.277 57.557C152.355 58.0162 152.497 58.4136 152.702 58.7491C152.907 59.0638 153.133 59.3371 153.381 59.5689C153.628 59.7799 153.877 59.9492 154.125 60.0769C154.374 60.2046 154.592 60.3006 154.778 60.3651C154.903 60.429 155.017 60.4719 155.121 60.4938C155.328 60.5793 155.474 60.5809 155.558 60.4985C155.43 60.7888 155.313 61.0375 155.207 61.2448C155.1 61.452 155.015 61.6281 154.951 61.7733C154.866 61.9391 154.791 62.0737 154.728 62.1772C154.664 62.3015 154.59 62.4153 154.505 62.5186C154.442 62.6221 154.357 62.7358 154.252 62.8597C154.146 62.9835 154.041 63.1178 153.935 63.2625C153.665 63.1555 153.406 63.0277 153.158 62.8792C152.93 62.731 152.723 62.5933 152.537 62.4663C152.309 62.3181 152.103 62.17 151.917 62.0222C151.731 61.8744 151.556 61.7058 151.391 61.5165C151.247 61.3483 151.092 61.1696 150.928 60.9803C150.784 60.7913 150.661 60.5816 150.56 60.3513C150.432 60.6208 150.125 61.003 149.641 61.4979C149.177 61.9929 148.568 62.4448 147.814 62.8534C147.06 63.2412 146.182 63.5131 145.18 63.6691C144.199 63.8253 143.117 63.6992 141.934 63.2907C141.415 63.1185 140.928 62.8737 140.473 62.5563C140.018 62.2181 139.627 61.8181 139.298 61.3562C138.991 60.8946 138.767 60.3713 138.627 59.7864C138.509 59.181 138.526 58.5145 138.68 57.7869C138.834 57.0593 139.101 56.4476 139.481 55.9516C139.861 55.4556 140.313 55.0542 140.838 54.7473C141.362 54.4403 141.948 54.207 142.595 54.0472C143.243 53.8875 143.911 53.78 144.599 53.7248C145.141 53.7098 145.682 53.7468 146.223 53.8359C146.68 53.9242 147.157 54.0855 147.655 54.32C148.153 54.5337 148.576 54.8611 148.926 55.3024C148.917 54.198 148.884 53.3227 148.829 52.6762C148.794 52.0091 148.758 51.4983 148.72 51.1437C148.641 50.7262 148.572 50.4337 148.511 50.2664C148.408 50.1195 148.295 49.9516 148.172 49.7628C148.07 49.5742 147.937 49.4061 147.772 49.2585C147.607 49.09 147.4 48.9524 147.151 48.8456C146.902 48.7387 146.611 48.6939 146.277 48.7112C145.923 48.7283 145.641 48.819 145.431 48.9835C145.22 49.1479 145.052 49.344 144.924 49.5718C144.818 49.779 144.753 50.0075 144.729 50.2573C144.706 50.5071 144.714 50.7259 144.754 50.9138C144.794 51.0393 144.855 51.1753 144.937 51.3221C145.019 51.4479 145.132 51.5846 145.276 51.732C145.421 51.8793 145.617 52.0064 145.866 52.1133C145.386 52.1707 144.959 52.2182 144.583 52.2558C144.208 52.2727 143.885 52.3005 143.613 52.3392C143.3 52.3776 143.029 52.4059 142.8 52.4243C142.571 52.4427 142.299 52.4815 141.986 52.5406C141.715 52.5794 141.381 52.6279 140.985 52.6862C140.588 52.7445 140.129 52.8229 139.607 52.9215C139.734 52.777 139.85 52.6428 139.955 52.519C140.061 52.3742 140.156 52.2502 140.24 52.147C140.325 52.0229 140.409 51.9092 140.494 51.8059ZM145.141 55.5745C144.766 55.5913 144.39 55.6811 144.014 55.8437C143.637 55.9855 143.301 56.2007 143.007 56.4893C142.712 56.757 142.459 57.0772 142.246 57.4499C142.055 57.8021 141.957 58.1969 141.952 58.6344C141.948 59.0718 142.048 59.4584 142.253 59.7939C142.478 60.1088 142.767 60.3723 143.119 60.5844C143.492 60.7968 143.886 60.926 144.303 60.9721C144.74 61.0184 145.167 60.9813 145.585 60.8608C145.982 60.7192 146.36 60.494 146.717 60.1853C147.075 59.8558 147.381 59.5049 147.635 59.1326C147.889 58.7394 148.07 58.3559 148.178 57.982C148.287 57.5873 148.301 57.2646 148.22 57.0137C148.059 56.4703 147.688 56.0913 147.107 55.8767C146.526 55.6414 145.871 55.5406 145.141 55.5745Z" fill="black"/>
    <path d="M119.625 42.3013C120.103 42.4315 120.54 42.5299 120.935 42.5966C121.351 42.6427 121.705 42.6777 121.996 42.7017C122.35 42.7263 122.673 42.7402 122.965 42.7433C123.256 42.7464 123.621 42.7294 124.059 42.6924C124.83 42.6382 125.926 42.4936 127.345 42.2587C127.114 42.423 126.894 42.5873 126.684 42.7517C126.494 42.8955 126.326 43.0396 126.179 43.1839L125.705 43.6476C125.43 44.0197 125.153 44.6521 124.872 45.545C124.635 46.3134 124.373 47.394 124.088 48.7868C123.823 50.1799 123.574 52.0315 123.341 54.3417C124.372 53.3526 125.339 52.6129 126.24 52.1225C127.162 51.6115 127.968 51.2451 128.658 51.0233C129.473 50.7819 130.214 50.6544 130.881 50.6407C131.734 50.7123 132.472 50.8973 133.094 51.1956C133.737 51.4733 134.275 51.8124 134.708 52.2129C135.162 52.5928 135.523 52.9925 135.789 53.412C136.076 53.8109 136.291 54.1674 136.434 54.4815C136.515 54.6907 136.573 55.0767 136.609 55.6396C136.666 56.182 136.669 56.807 136.62 57.5149C136.571 58.2227 136.448 58.9715 136.253 59.7611C136.078 60.5301 135.789 61.2458 135.386 61.9082C135.004 62.55 134.498 63.0863 133.869 63.5171C133.26 63.9481 132.497 64.1796 131.58 64.2115C130.517 64.2001 129.487 64.0641 128.49 63.8034C127.638 63.586 126.736 63.2118 125.783 62.6807C124.852 62.1291 124.058 61.3497 123.402 60.3427C123.399 60.5927 123.396 60.8427 123.394 61.0926C123.391 61.3218 123.4 61.5198 123.419 61.6867C123.437 61.9161 123.456 62.1142 123.475 62.2811C123.494 62.4688 123.544 62.6672 123.625 62.8765C123.686 63.0438 123.777 63.2531 123.899 63.5044C124.043 63.7351 124.228 63.9663 124.454 64.1979C124.226 64.1746 123.997 64.1618 123.767 64.1593C123.538 64.136 123.309 64.1336 123.08 64.152C122.83 64.1701 122.579 64.1883 122.329 64.2065C122.079 64.2246 121.818 64.2531 121.547 64.2919C121.317 64.3311 121.046 64.3803 120.733 64.4394C120.42 64.4986 120.096 64.5681 119.762 64.6478C119.826 64.461 119.881 64.1907 119.927 63.837C119.973 63.4625 120.019 63.0567 120.065 62.6197C120.132 62.1621 120.179 61.6834 120.205 61.1836C120.252 60.6841 120.299 60.1846 120.346 59.685C120.442 58.5402 120.528 57.291 120.605 55.9376C120.69 53.8342 120.721 51.8761 120.699 50.0632C120.686 49.2922 120.653 48.5106 120.599 47.7183C120.566 46.9262 120.511 46.186 120.435 45.4977C120.359 44.7885 120.251 44.1623 120.111 43.6191C119.992 43.0553 119.83 42.6161 119.625 42.3013ZM123.525 57.5626C123.852 58.1703 124.201 58.6949 124.571 59.1363C124.942 59.557 125.313 59.9151 125.685 60.2108C126.056 60.5064 126.419 60.7395 126.771 60.9099C127.144 61.0806 127.497 61.2094 127.829 61.2963C128.598 61.5128 129.358 61.5418 130.11 61.3831C130.862 61.1828 131.45 60.7724 131.873 60.1519C132.296 59.5313 132.627 58.8265 132.864 58.0373C132.973 57.6634 133.04 57.185 133.067 56.6019C133.115 56.019 133.059 55.4559 132.898 54.9125C132.758 54.3485 132.492 53.856 132.101 53.4352C131.71 52.9935 131.14 52.7269 130.391 52.6356C129.87 52.63 129.264 52.7694 128.574 53.0537C127.967 53.2973 127.244 53.7062 126.404 54.2806C125.565 54.8342 124.608 55.6678 123.534 56.7814L123.525 57.5626Z" fill="black"/>
    <path d="M109.883 59.1046C110.466 59.1108 111.009 59.0541 111.51 58.9344C111.928 58.8347 112.325 58.6723 112.703 58.4471C113.101 58.2014 113.365 57.8396 113.496 57.3618C113.911 57.4495 114.265 57.5262 114.556 57.5918C114.847 57.6366 115.096 57.681 115.304 57.7248C115.533 57.7898 115.73 57.8336 115.897 57.8562C116.063 57.8996 116.26 57.9434 116.489 57.9875C116.697 58.0314 116.946 58.0861 117.237 58.1518C117.549 58.1968 117.913 58.2631 118.329 58.3509C118.017 58.3059 117.694 58.3337 117.359 58.4343C117.046 58.5351 116.742 58.6465 116.449 58.7684C116.115 58.9106 115.8 59.0844 115.506 59.2896C115.318 59.4126 115.097 59.5977 114.844 59.8451C114.612 60.0926 114.276 60.3286 113.837 60.5531C113.397 60.7776 112.811 60.9693 112.08 61.1281C111.37 61.2664 110.453 61.3087 109.329 61.255C107.975 61.1989 106.842 60.9472 105.93 60.4999C105.019 60.0319 104.285 59.4719 103.729 58.8201C103.174 58.1475 102.776 57.4244 102.534 56.651C102.292 55.8775 102.164 55.1574 102.151 54.4905C102.137 53.8237 102.342 53.1279 102.767 52.4032C103.191 51.6785 103.781 51.0181 104.538 50.422C105.315 49.8261 106.247 49.3464 107.335 48.983C108.422 48.5988 109.612 48.4136 110.903 48.4273C111.653 48.4353 112.34 48.5364 112.963 48.7306C113.607 48.9041 114.188 49.1395 114.705 49.4367C115.244 49.7342 115.709 50.0725 116.101 50.4517C116.493 50.8101 116.822 51.1782 117.089 51.556C117.356 51.9547 117.58 52.3738 117.763 52.8133C117.926 53.1901 118.057 53.6186 118.156 54.0988C118.255 54.5791 118.281 55.069 118.234 55.5685C116.65 55.5933 115.369 55.6108 114.389 55.6212C113.431 55.6318 112.681 55.6342 112.139 55.6284L110.733 55.6134L109.67 55.6021C109.295 55.5981 108.806 55.6033 108.201 55.6177C107.597 55.632 106.857 55.6554 105.982 55.6877C106.077 56.5221 106.331 57.1707 106.742 57.6334C107.175 58.0756 107.63 58.4138 108.107 58.6481C108.646 58.9038 109.238 59.056 109.883 59.1046ZM107.131 53.4499C107.797 53.4986 108.349 53.5358 108.786 53.5613C109.244 53.587 109.619 53.6118 109.91 53.6358C110.222 53.66 110.472 53.673 110.66 53.675L111.441 53.6834C111.962 53.6889 112.931 53.668 114.348 53.6207C114.295 52.7034 114.105 52.0034 113.777 51.5207C113.469 51.0382 113.14 50.6805 112.788 50.4476C112.374 50.1931 111.917 50.0424 111.418 49.9954C110.064 50.0018 109.05 50.2722 108.378 50.8068C107.726 51.3415 107.311 52.2225 107.131 53.4499Z" fill="black"/>
    <path d="M98.3668 40.0743C98.7623 40.0993 99.1893 40.1143 99.6476 40.1192C100.043 40.1234 100.491 40.1386 100.991 40.1648C101.512 40.1704 102.054 40.1553 102.617 40.1197C102.114 40.3435 101.673 40.6721 101.293 41.1056C100.914 41.5391 100.607 41.9733 100.373 42.4083C100.076 42.926 99.8306 43.4651 99.6372 44.0256C99.5294 44.3578 99.4398 44.9506 99.3682 45.8041C99.2968 46.6367 99.2342 47.6152 99.1806 48.7397C99.1477 49.8644 99.1246 51.0518 99.1113 52.3017C99.0979 53.5516 99.0956 54.7496 99.1042 55.8956C99.113 57.0207 99.1336 58.021 99.1659 58.8964C99.1982 59.7718 99.2437 60.3869 99.3024 60.7417C99.3813 61.1592 99.4813 61.5562 99.6023 61.9325C99.7029 62.2669 99.8346 62.6121 99.9975 62.968C100.161 63.3031 100.366 63.5761 100.614 63.7871L97.4111 65.1905C97.2469 64.9596 97.114 64.7186 97.0125 64.4675C96.9108 64.2372 96.8297 64.028 96.7692 63.8398C96.6883 63.6098 96.6385 63.4009 96.6197 63.2132C96.5807 62.9628 96.5419 62.6915 96.5033 62.3994C96.465 62.0865 96.416 61.7943 96.3564 61.5228C96.3179 61.2307 96.2892 60.9908 96.2704 60.8031C96.2515 60.6154 96.2528 60.5008 96.274 60.4594C96.2953 60.4179 96.1683 60.6041 95.8931 61.0178C95.618 61.4107 95.2068 61.8751 94.6594 62.411C94.133 62.9262 93.4818 63.4297 92.7056 63.9215C91.9297 64.3924 91.062 64.6852 90.1024 64.8C89.1219 64.9145 88.2177 64.7174 87.3898 64.2085C86.5826 63.6998 85.8922 62.9945 85.3185 62.0925C84.745 61.1697 84.3083 60.1129 84.0085 58.9221C83.7297 57.7107 83.6283 56.4804 83.7041 55.2311C83.7547 54.3983 83.9501 53.6608 84.2903 53.0185C84.6307 52.3554 85.0535 51.787 85.5586 51.3132C86.0847 50.8188 86.6516 50.4082 87.2593 50.0813C87.8881 49.7338 88.4953 49.4486 89.081 49.2257C89.6876 49.003 90.2519 48.8423 90.7738 48.7437C91.2957 48.6451 91.7131 48.5767 92.026 48.5383C92.4012 48.5215 92.8276 48.5886 93.3052 48.7395C93.7205 48.8689 94.1974 49.0824 94.736 49.3798C95.2953 49.6775 95.9156 50.1216 96.5969 50.7123C96.4941 48.6277 96.3973 46.9599 96.3065 45.7089C96.2159 44.437 96.1221 43.4672 96.025 42.7994C95.9293 42.0067 95.8414 41.4641 95.7611 41.1715C95.6592 40.9621 95.526 40.7523 95.3616 40.5422C95.2175 40.374 95.0318 40.2054 94.8045 40.0363C94.5981 39.8465 94.3497 39.6981 94.0592 39.5908C94.5997 39.7007 95.1197 39.7792 95.6193 39.8262C96.1188 39.8732 96.5766 39.9198 96.9928 39.9659C97.4715 40.0126 97.9295 40.0488 98.3668 40.0743ZM90.399 51.6461C90.0017 51.7877 89.6761 52.0343 89.4223 52.3858C89.1894 52.7375 88.9973 53.1625 88.8462 53.6609C88.6952 54.1385 88.5855 54.6582 88.517 55.22C88.4696 55.7612 88.4327 56.2921 88.4063 56.8127C88.4009 57.3126 88.396 57.7709 88.3916 58.1876C88.3871 58.6042 88.3838 58.9167 88.3816 59.125C88.3802 59.25 88.3986 59.4794 88.4367 59.8132C88.4959 60.1263 88.6173 60.461 88.801 60.8171C88.985 61.1524 89.2422 61.4573 89.5726 61.7317C89.9238 62.0062 90.3911 62.1467 90.9744 62.1529C91.454 62.1163 91.9662 61.9551 92.5109 61.6693C92.9927 61.4244 93.5386 61.0344 94.1485 60.4992C94.7795 59.9434 95.4547 59.1485 96.1741 58.1144C96.1395 57.4473 96.1142 56.895 96.098 56.4573C96.1027 56.0198 96.096 55.6655 96.0781 55.3945C96.0606 55.0818 96.0528 54.8317 96.0549 54.6442L96.0599 54.1755C96.0612 54.0505 96.0626 53.9151 96.0642 53.7692C96.0657 53.6234 96.0776 53.4881 96.0998 53.3633C95.5209 52.9405 95.0039 52.5808 94.5487 52.2842C94.1146 51.9671 93.6795 51.7333 93.2436 51.5828C92.8288 51.4117 92.3921 51.3341 91.9335 51.35C91.4961 51.3453 90.9846 51.4441 90.399 51.6461Z" fill="black"/>
    <path d="M75.2617 49.797L81.0107 49.9208C80.6638 51.188 80.4022 52.2686 80.226 53.1626C80.0706 54.0569 79.9689 54.8058 79.9208 55.4095C79.8301 56.0961 79.803 56.6792 79.8396 57.1587C79.8974 57.5969 79.9966 58.0667 80.1371 58.5683C80.2576 58.9862 80.44 59.4674 80.6842 60.0117C80.9284 60.556 81.2559 61.1012 81.6668 61.6473C81.4177 61.5613 81.1475 61.4959 80.8563 61.4511C80.5651 61.4063 80.2946 61.3722 80.0449 61.3487C79.7534 61.3247 79.4618 61.3216 79.1699 61.3393C78.878 61.3571 78.5548 61.3849 78.2002 61.4227C77.9081 61.4613 77.5534 61.5096 77.1361 61.5676C76.7188 61.6257 76.2804 61.7043 75.821 61.8036C76.1435 60.8695 76.3918 60.0596 76.5658 59.3739C76.7606 58.6885 76.9021 58.117 76.9903 57.6596C77.0794 57.1189 77.1362 56.6819 77.1606 56.3489C77.165 55.9322 77.17 55.4635 77.1756 54.9427C77.1814 54.401 77.1869 53.8802 77.1923 53.3803C77.1976 52.8803 77.1919 52.4427 77.175 52.0675C77.1584 51.6715 77.1194 51.4211 77.058 51.3162L76.7489 51.0004C76.625 50.8949 76.4391 50.7471 76.1911 50.5569C75.9642 50.3462 75.6544 50.0928 75.2617 49.797ZM77.5317 45.0084C77.9716 44.7839 78.4097 44.7261 78.8461 44.8349C79.3033 44.944 79.6553 45.1457 79.9022 45.44C80.1491 45.7343 80.2287 46.0789 80.1412 46.4739C80.0744 46.869 79.737 47.2508 79.1289 47.6194C78.521 47.9671 77.9884 48.0864 77.5312 47.9773C77.074 47.8683 76.7535 47.6461 76.5695 47.3108C76.3856 46.9755 76.3585 46.5897 76.4881 46.1536C76.618 45.6966 76.9658 45.3149 77.5317 45.0084Z" fill="black"/>
    <path d="M74.1781 45.9102C73.9857 46.3665 73.8146 46.7813 73.6648 47.1548C73.5358 47.5284 73.4176 47.8605 73.3104 48.151C73.2026 48.4832 73.1058 48.7739 73.0198 49.023C72.9334 49.3137 72.836 49.6461 72.7279 50.0199C72.6202 50.3521 72.4803 50.7673 72.3083 51.2655C72.1574 51.7431 71.9742 52.3141 71.7587 52.9785C71.6028 51.9768 71.3091 51.1819 70.8779 50.594C70.4469 49.9852 70.004 49.5117 69.5492 49.1734C69.0116 48.7927 68.4312 48.5156 67.808 48.3423C66.6851 48.1428 65.8724 48.155 65.37 48.3788C64.8676 48.6026 64.5311 48.8907 64.3607 49.2431C64.2758 49.388 64.1801 49.5745 64.0735 49.8025C63.9879 50.01 63.9127 50.2279 63.8477 50.4564C63.8036 50.6851 63.7907 50.9142 63.8091 51.1435C63.8275 51.3729 63.9193 51.5614 64.0844 51.709C64.1874 51.8143 64.4567 51.963 64.8921 52.1552C65.3278 52.3265 65.8465 52.5299 66.4482 52.7656C67.071 52.9805 67.7247 53.2167 68.4095 53.474C69.1151 53.7316 69.7791 53.9887 70.4014 54.2453C71.0237 54.502 71.5627 54.7578 72.0183 55.0126C72.4739 55.2675 72.7736 55.4999 72.9172 55.7098C73.0399 55.9194 73.1723 56.2021 73.3144 56.5578C73.4775 56.8929 73.5881 57.2691 73.6461 57.6864C73.7252 58.0831 73.7416 58.5 73.6953 58.937C73.67 59.3534 73.5509 59.7689 73.3382 60.1833C73.1254 60.5977 72.788 60.9795 72.3259 61.3288C71.8846 61.6783 71.2878 61.9636 70.5354 62.1847C69.6576 62.4462 68.8131 62.5101 68.002 62.3764C67.1908 62.2428 66.4429 62.0473 65.7581 61.7899C65.0941 61.5328 64.5134 61.287 64.0159 61.0526C63.5186 60.7972 63.1655 60.6893 62.9568 60.7287C62.7272 60.768 62.4655 60.8797 62.1719 61.0641C61.8782 61.2485 61.5949 61.4434 61.3219 61.6488C61.0699 61.8337 60.8492 62.0084 60.66 62.173C60.4709 62.3169 60.3766 62.368 60.3771 62.3263C60.3775 62.2846 60.4101 62.16 60.4748 61.9523C60.5604 61.7449 60.6464 61.4958 60.7328 61.205C60.8403 60.8937 60.9376 60.5613 61.0247 60.2081C61.1329 59.8342 61.2096 59.4808 61.2548 59.148C61.2993 58.8776 61.355 58.5448 61.4217 58.1497C61.4672 57.796 61.5238 57.3695 61.5916 56.8702C61.6805 56.3503 61.7809 55.7263 61.8929 54.9983C61.9913 55.541 62.1321 56.0113 62.3153 56.4091C62.5194 56.8072 62.7137 57.153 62.898 57.4467C63.1236 57.7824 63.3394 58.066 63.5453 58.2974C63.8546 58.5924 64.2163 58.8671 64.6303 59.1215C65.0651 59.3762 65.5002 59.5996 65.9357 59.7917C66.3714 59.9631 66.7869 60.0717 67.1823 60.1176C67.5776 60.1634 67.9114 60.1253 68.1836 60.0032C68.4557 59.8811 68.6873 59.6544 68.8784 59.3231C69.0902 58.992 69.24 58.629 69.3275 58.2341C69.4151 57.8392 69.4503 57.4645 69.4333 57.1102C69.4164 56.735 69.3259 56.4319 69.1617 56.201C69.0383 56.0538 68.7486 55.8632 68.2928 55.6292C67.8577 55.3953 67.3292 55.1397 66.7071 54.8622C66.1059 54.5849 65.4631 54.2968 64.7787 53.9978C64.1152 53.699 63.4829 53.4006 62.8819 53.1025C62.302 52.7838 61.8155 52.4869 61.4226 52.2119C61.0507 51.9162 60.8452 51.6536 60.806 51.424C60.7679 51.0902 60.7405 50.7253 60.7239 50.3293C60.7075 49.9124 60.7327 49.5064 60.7994 49.1113C60.8872 48.6955 61.0372 48.3013 61.2496 47.9285C61.4827 47.556 61.8194 47.2471 62.2595 47.0018C62.5529 46.8382 62.9397 46.7173 63.4197 46.6391C63.8997 46.5609 64.4314 46.5249 65.0147 46.5311C65.5982 46.5165 66.2021 46.5438 66.8264 46.613C67.4509 46.6613 68.044 46.7302 68.6056 46.8195C69.1882 46.8882 69.7081 46.9771 70.1653 47.0862C70.6433 47.1954 71.0069 47.2931 71.256 47.3791C71.5465 47.4863 71.8589 47.5001 72.1931 47.4203C72.4854 47.3609 72.7993 47.2289 73.1349 47.0241C73.4704 46.8193 73.8182 46.448 74.1781 45.9102Z" fill="black"/>
    <path d="M40.4495 58.3633C41.0328 58.3696 41.5751 58.3128 42.0764 58.1932C42.4941 58.0935 42.8917 57.931 43.2692 57.7059C43.6676 57.4601 43.9319 57.0984 44.062 56.6206C44.4778 56.7083 44.8312 56.785 45.1221 56.8506C45.4133 56.8954 45.6629 56.9397 45.8708 56.9836C46.0992 57.0486 46.2967 57.0923 46.4631 57.115C46.6294 57.1584 46.8268 57.2022 47.0555 57.2463C47.2634 57.2902 47.5128 57.3449 47.8038 57.4105C48.1159 57.4555 48.4797 57.5219 48.8955 57.6097C48.5835 57.5647 48.2602 57.5925 47.9258 57.6931C47.6122 57.7939 47.3089 57.9053 47.0159 58.0272C46.6811 58.1694 46.3667 58.3432 46.0728 58.5484C45.884 58.6714 45.6633 58.8565 45.4106 59.1038C45.1788 59.3514 44.8429 59.5874 44.403 59.8119C43.9631 60.0364 43.3777 60.228 42.6467 60.3869C41.9369 60.5252 41.0197 60.5675 39.8952 60.5138C38.5416 60.4577 37.4088 60.206 36.4969 59.7587C35.5851 59.2906 34.8515 58.7307 34.2959 58.0789C33.7406 57.4063 33.342 56.6832 33.1002 55.9097C32.8585 55.1363 32.7308 54.4161 32.717 53.7493C32.7033 53.0824 32.9087 52.3867 33.3331 51.662C33.7575 50.9373 34.3479 50.2769 35.1044 49.6808C35.8816 49.0849 36.8138 48.6052 37.9011 48.2418C38.9886 47.8576 40.1782 47.6723 41.4698 47.6861C42.2197 47.6941 42.9062 47.7952 43.5291 47.9894C44.1732 48.1629 44.754 48.3983 45.2717 48.6955C45.8102 48.9929 46.2754 49.3313 46.6672 49.7105C47.0592 50.0688 47.3886 50.437 47.6555 50.8148C47.9221 51.2135 48.1468 51.6326 48.3296 52.0721C48.4922 52.4489 48.6231 52.8774 48.7221 53.3576C48.8212 53.8379 48.8472 54.3277 48.8002 54.8273C47.2165 54.852 45.935 54.8696 44.9557 54.88C43.9972 54.8906 43.2471 54.893 42.7055 54.8872L41.2993 54.8722L40.2369 54.8609C39.8619 54.8569 39.3722 54.8621 38.7679 54.8764C38.1635 54.8908 37.4236 54.9142 36.5482 54.9465C36.6435 55.7809 36.897 56.4295 37.3087 56.8922C37.7416 57.3344 38.1963 57.6726 38.673 57.9068C39.212 58.1626 39.8041 58.3148 40.4495 58.3633ZM37.6972 52.7086C38.3634 52.7574 38.9151 52.7946 39.3523 52.8201C39.8104 52.8458 40.1852 52.8706 40.4766 52.8946C40.7889 52.9187 41.0387 52.9318 41.2262 52.9338L42.0074 52.9422C42.5282 52.9477 43.4973 52.9268 44.9145 52.8794C44.8618 51.9622 44.6714 51.2622 44.3432 50.7795C44.0358 50.297 43.7063 49.9393 43.3546 49.7064C42.9406 49.4519 42.4838 49.3012 41.9843 49.2542C40.63 49.2606 39.6166 49.531 38.9442 50.0655C38.2926 50.6003 37.877 51.4813 37.6972 52.7086Z" fill="black"/>
    <path d="M14.5564 39.4296C15.0346 39.5181 15.4714 39.5852 15.8668 39.6311C16.2624 39.6562 16.5955 39.6806 16.8661 39.7043C17.1783 39.7285 17.449 39.7418 17.6782 39.7442C17.9909 39.7267 18.3558 39.6994 18.7729 39.6621C19.1275 39.6243 19.5551 39.5767 20.0557 39.5196C20.5772 39.4626 21.1718 39.3856 21.8395 39.2886C21.5253 39.4519 21.2631 39.6158 21.053 39.7802C20.8431 39.9238 20.6748 40.0783 20.548 40.2436C20.4002 40.4296 20.2837 40.6054 20.1986 40.7712C20.0916 41.0409 19.971 41.6021 19.8369 42.4549C19.7041 43.1827 19.5363 44.2643 19.3335 45.6997C19.1515 47.1354 18.9119 49.0808 18.6149 51.5361C19.3728 50.7942 20.0871 50.2393 20.7578 49.8714C21.4494 49.4829 22.0566 49.2081 22.5792 49.0471C23.1853 48.866 23.7488 48.7783 24.2696 48.7838C24.9147 48.8532 25.5687 49.0685 26.2315 49.4298C26.9154 49.7705 27.5466 50.1731 28.125 50.6376C28.7242 51.1023 29.2398 51.5975 29.6717 52.1229C30.1245 52.6486 30.4425 53.1104 30.6257 53.5082C30.7478 53.7804 30.8066 54.1352 30.8019 54.5726C30.7974 54.9893 30.7509 55.4471 30.6622 55.9462C30.5736 56.4453 30.4535 56.9545 30.3021 57.4737C30.1508 57.993 29.9997 58.481 29.849 58.9377C29.7191 59.3947 29.6002 59.7997 29.4923 60.1527C29.3845 60.4849 29.3195 60.7238 29.2971 60.8694C29.2521 61.1815 29.2697 61.4838 29.3499 61.7763C29.4097 62.027 29.5318 62.2991 29.7162 62.5928C29.9008 62.8656 30.1796 63.0977 30.5526 63.2892C30.2614 63.2444 29.9492 63.2099 29.6161 63.1855C29.3041 63.1405 29.0024 63.106 28.7109 63.0821C28.3778 63.0577 28.0446 63.0437 27.7113 63.0401L26.5864 63.0281C26.2322 63.0243 25.8259 63.0304 25.3674 63.0464C24.9091 63.0415 24.409 63.0465 23.8671 63.0616C24.1599 62.9606 24.4113 62.8278 24.6214 62.6634C24.8318 62.4781 25.0107 62.3029 25.1583 62.1378C25.327 61.9521 25.4749 61.7558 25.6021 61.5488C25.6872 61.383 25.7947 61.0716 25.9246 60.6147C26.0547 60.1369 26.1751 59.5965 26.2857 58.9934C26.3965 58.3696 26.4764 57.7141 26.5255 57.0271C26.5953 56.3403 26.6127 55.6842 26.5777 55.0588C26.5638 54.4128 26.4761 53.8389 26.3148 53.3372C26.1743 52.8356 25.9491 52.4686 25.639 52.2361C24.7092 51.5178 23.8587 51.165 23.0877 51.1776C22.3377 51.1696 21.6158 51.464 20.9219 52.0608C20.6695 52.2873 20.4274 52.5139 20.1958 52.7406C19.9853 52.9467 19.7535 53.1942 19.5004 53.4832C19.2475 53.7513 19.0153 54.0301 18.8039 54.3196C18.8006 54.632 18.8073 54.9759 18.8242 55.3511C18.841 55.7263 18.8579 56.0911 18.875 56.4454C18.8916 56.8415 18.9186 57.2376 18.956 57.6339C18.9913 58.2384 19.0474 58.8328 19.1245 59.417C19.1817 59.9177 19.2591 60.4706 19.3568 61.0758C19.4548 61.6603 19.5845 62.1929 19.746 62.6738C19.4757 62.6293 19.1945 62.6159 18.9027 62.6336C18.611 62.6305 18.3298 62.6275 18.059 62.6246C17.7463 62.6421 17.4441 62.6493 17.1524 62.6461C16.8814 62.6641 16.5998 62.6923 16.3077 62.7309C16.0573 62.7699 15.786 62.8087 15.4939 62.8472C15.2021 62.8649 14.9204 62.9036 14.6489 62.9632C14.904 62.4867 15.1173 62.0202 15.2889 61.5637C15.4607 61.0863 15.6005 60.6711 15.7085 60.3181C15.8379 59.9028 15.9464 59.4977 16.0339 59.1028C16.0998 58.7909 16.1478 58.1977 16.178 57.3229C16.2292 56.4276 16.2713 55.4072 16.3044 54.2616C16.3377 53.0952 16.3612 51.8663 16.375 50.5747C16.3888 49.2831 16.3915 48.0539 16.3831 46.887C16.3747 45.7202 16.344 44.699 16.2908 43.8234C16.2585 42.948 16.2129 42.3433 16.1539 42.0093C16.0741 41.6751 15.9631 41.3406 15.8209 41.0057C15.699 40.7127 15.5353 40.4297 15.3299 40.1567C15.1247 39.8628 14.8668 39.6204 14.5564 39.4296Z" fill="black"/>
    <path d="M3.3893 43.3106C4.01359 43.3798 4.53384 43.4374 4.95004 43.4836C5.38707 43.5299 5.74088 43.5649 6.01148 43.5886C6.32374 43.6128 6.57361 43.6259 6.7611 43.6279C6.94837 43.6507 7.19836 43.6534 7.51106 43.6359C7.7821 43.618 8.13647 43.6009 8.57417 43.5847C9.01209 43.5477 9.56481 43.4911 10.2323 43.4149C10.0843 43.6217 9.9677 43.808 9.88259 43.9737C9.7977 44.1187 9.72335 44.2533 9.65951 44.3776L9.46802 44.7506C9.42502 44.8751 9.38203 44.9997 9.33903 45.1242C9.29625 45.228 9.25325 45.3525 9.21003 45.4979C9.18764 45.6435 9.16514 45.7995 9.14253 45.9659L13.9548 46.0173L13.4903 48.5438L9.08693 48.2467C8.97143 49.3081 8.88973 50.1302 8.84184 50.713C8.79395 51.2959 8.74773 51.7225 8.70317 51.9928L8.63467 52.5547C8.56372 53.3456 8.492 54.2095 8.41949 55.1463C8.34721 56.0622 8.31726 56.9161 8.32964 57.7079C8.34202 58.4998 8.40782 59.1672 8.52703 59.7102C8.64646 60.2323 8.86242 60.495 9.1749 60.4984C9.48739 60.5017 9.77993 60.4215 10.0525 60.2577C10.3251 60.094 10.5564 59.8985 10.7463 59.6713C10.9571 59.4444 11.1158 59.2169 11.2224 58.9889C11.3292 58.74 11.3833 58.5531 11.3846 58.4281C11.386 58.3031 11.3563 58.1569 11.2956 57.9896C11.1947 57.676 11.0115 57.2782 10.7458 56.7962C11.3483 56.9485 11.878 57.0999 12.3348 57.2507C12.563 57.3364 12.7704 57.422 12.957 57.5073C13.1645 57.5929 13.403 57.6892 13.6728 57.7962C13.9008 57.9028 14.1911 58.0309 14.5437 58.1805C14.8963 58.3302 15.311 58.5117 15.788 58.7251C15.3288 58.8035 14.994 58.9354 14.7837 59.1207C14.6578 59.2027 14.5631 59.2954 14.4994 59.3989C14.3512 59.6265 14.1812 59.9372 13.9895 60.331C13.798 60.704 13.5127 61.076 13.1338 61.4469C12.7548 61.8179 12.2408 62.1458 11.5919 62.4305C10.9638 62.7155 10.1184 62.8732 9.05547 62.9035C7.95093 62.9334 7.10923 62.7369 6.53037 62.314C5.97235 61.8913 5.56082 61.4078 5.29579 60.8632C5.05181 60.2981 4.91188 59.7445 4.87599 59.2024C4.84011 58.6603 4.81275 58.2954 4.79392 58.1077C4.77509 57.92 4.7801 57.4513 4.80894 56.7015C4.83777 55.9518 4.87781 55.1293 4.92903 54.2339C4.98048 53.3178 5.03149 52.4433 5.08205 51.6104C5.13283 50.7568 5.16033 50.132 5.16456 49.7362C5.16678 49.5279 5.17953 49.3092 5.20281 49.0803C5.20481 48.8928 5.20693 48.6949 5.20915 48.4866C5.23243 48.2577 5.24518 48.039 5.2474 47.8307L0.716745 47.7511L0.54827 45.968L5.10918 46.1417C5.06996 45.9121 5.0201 45.7032 4.95961 45.515C4.92017 45.3063 4.88028 45.1392 4.83995 45.0137C4.77901 44.8672 4.71785 44.7416 4.65646 44.6367C4.57425 44.5317 4.48173 44.4161 4.3789 44.29C4.27585 44.1847 4.14189 44.0479 3.97701 43.8794C3.81213 43.711 3.61623 43.5214 3.3893 43.3106Z" fill="black"/>
    <path d="M229.776 22.9761C229.929 22.2902 230.039 21.6871 230.107 21.167C230.196 20.6262 230.264 20.179 230.309 19.8253C230.355 19.4091 230.38 19.0552 230.383 18.7636C230.366 18.4092 230.35 17.9923 230.334 17.513C230.339 17.013 230.324 16.5232 230.287 16.0436C230.272 15.5434 230.245 15.1056 230.207 14.7302C230.17 14.3339 230.121 14.0522 230.06 13.8848C229.979 13.7173 229.866 13.539 229.722 13.3499C229.434 12.9927 229.011 12.6444 228.452 12.3051C228.932 12.206 229.339 12.127 229.673 12.0681C230.028 11.9885 230.321 11.9187 230.551 11.8587C230.801 11.778 231.021 11.7075 231.209 11.647C231.376 11.5862 231.575 11.5259 231.805 11.4658C231.993 11.4261 232.222 11.3765 232.494 11.3169C232.765 11.2573 233.079 11.1877 233.434 11.1082L233.31 13.9508C233.985 13.1663 234.668 12.5798 235.36 12.1913C236.051 11.8028 236.7 11.5285 237.306 11.3683C237.996 11.1673 238.674 11.0704 239.341 11.0775C240.173 11.128 240.943 11.2717 241.649 11.5084C242.375 11.7453 242.997 12.0228 243.515 12.3409C244.053 12.6383 244.488 12.9554 244.817 13.2923C245.147 13.6292 245.342 13.923 245.402 14.1736C245.643 14.9887 245.697 15.7394 245.565 16.4255C245.433 17.0908 245.259 17.7452 245.044 18.3888C244.85 19.0117 244.677 19.6349 244.524 20.2583C244.392 20.882 244.437 21.5596 244.659 22.2911C244.74 22.4795 244.821 22.6679 244.903 22.8563C244.984 23.0238 245.087 23.1916 245.21 23.3596C245.333 23.5276 245.477 23.6645 245.643 23.7705C245.414 23.7472 245.185 23.7343 244.956 23.7319C244.727 23.7086 244.519 23.6856 244.332 23.6627C244.103 23.6394 243.895 23.6164 243.707 23.5936C243.499 23.5705 243.218 23.5571 242.864 23.5533C242.26 23.5469 241.322 23.5681 240.051 23.617C240.243 23.1816 240.392 22.8185 240.5 22.528C240.628 22.2169 240.735 21.968 240.82 21.7814C240.906 21.5531 240.97 21.3767 241.013 21.2522C241.27 20.6507 241.423 19.9648 241.473 19.1945C241.544 18.4243 241.5 17.6426 241.342 16.8492C241.282 16.5777 241.181 16.2537 241.039 15.8771C240.898 15.5006 240.704 15.1339 240.457 14.7771C240.232 14.4205 239.954 14.1155 239.623 13.8619C239.314 13.6086 238.951 13.4589 238.534 13.4128C238.118 13.3666 237.648 13.4658 237.125 13.7102C236.622 13.9549 236.076 14.4074 235.485 15.0678C235.042 15.6256 234.691 16.3094 234.432 17.1192C234.196 17.8042 234.03 18.6671 233.936 19.7078C233.841 20.7277 233.954 21.9268 234.272 23.3053C233.981 23.2605 233.71 23.2368 233.46 23.2342C233.211 23.2107 233.003 23.1876 232.836 23.165C232.628 23.1419 232.441 23.1191 232.274 23.0965C232.087 23.0945 231.879 23.0818 231.65 23.0586C231.441 23.0563 231.181 23.0536 230.869 23.0502C230.556 23.0261 230.192 23.0013 229.776 22.9761Z" fill="black"/>
    <path d="M219.262 21.27C219.845 21.2762 220.387 21.2195 220.889 21.0998C221.307 21.0001 221.704 20.8377 222.082 20.6125C222.48 20.3668 222.744 20.005 222.874 19.5272C223.29 19.615 223.644 19.6917 223.935 19.7573C224.226 19.8021 224.475 19.8464 224.683 19.8903C224.912 19.9552 225.109 19.999 225.276 20.0216C225.442 20.065 225.639 20.1088 225.868 20.1529C226.076 20.1968 226.325 20.2516 226.616 20.3172C226.928 20.3622 227.292 20.4286 227.708 20.5163C227.396 20.4713 227.073 20.4992 226.738 20.5998C226.425 20.7006 226.121 20.8119 225.828 20.9338C225.493 21.0761 225.179 21.2498 224.885 21.455C224.696 21.578 224.476 21.7632 224.223 22.0105C223.991 22.258 223.655 22.494 223.215 22.7185C222.775 22.943 222.19 23.1347 221.459 23.2936C220.749 23.4318 219.832 23.4741 218.708 23.4204C217.354 23.3643 216.221 23.1126 215.309 22.6654C214.398 22.1973 213.664 21.6373 213.108 20.9855C212.553 20.3129 212.154 19.5899 211.913 18.8164C211.671 18.0429 211.543 17.3228 211.529 16.6559C211.516 15.9891 211.721 15.2933 212.145 14.5686C212.57 13.844 213.16 13.1836 213.917 12.5874C214.694 11.9915 215.626 11.5119 216.714 11.1485C217.801 10.7642 218.991 10.579 220.282 10.5928C221.032 10.6008 221.719 10.7019 222.342 10.896C222.986 11.0696 223.566 11.3049 224.084 11.6022C224.623 11.8996 225.088 12.2379 225.48 12.6171C225.872 12.9755 226.201 13.3436 226.468 13.7215C226.734 14.1202 226.959 14.5393 227.142 14.9787C227.305 15.3555 227.435 15.784 227.535 16.2643C227.634 16.7445 227.66 17.2344 227.613 17.7339C226.029 17.7587 224.747 17.7763 223.768 17.7866C222.81 17.7972 222.059 17.7996 221.518 17.7939L220.112 17.7789L219.049 17.7675C218.674 17.7635 218.185 17.7687 217.58 17.7831C216.976 17.7975 216.236 17.8208 215.361 17.8531C215.456 18.6875 215.709 19.3361 216.121 19.7989C216.554 20.241 217.009 20.5792 217.485 20.8135C218.024 21.0693 218.617 21.2214 219.262 21.27ZM216.51 15.6153C217.176 15.6641 217.727 15.7012 218.165 15.7267C218.623 15.7524 218.998 15.7773 219.289 15.8012C219.601 15.8254 219.851 15.8385 220.039 15.8405L220.82 15.8488C221.341 15.8544 222.31 15.8335 223.727 15.7861C223.674 14.8688 223.484 14.1688 223.156 13.6861C222.848 13.2036 222.519 12.8459 222.167 12.613C221.753 12.3586 221.296 12.2079 220.797 12.1608C219.442 12.1672 218.429 12.4377 217.757 12.9722C217.105 13.5069 216.689 14.388 216.51 15.6153Z" fill="black"/>
    <path d="M189.49 11.4204C190.158 11.3233 190.701 11.2458 191.118 11.1877C191.556 11.1091 191.911 11.0504 192.182 11.0116C192.496 10.9524 192.736 10.9029 192.903 10.863C193.07 10.8231 193.31 10.7632 193.623 10.6832C193.895 10.6028 194.25 10.5128 194.689 10.4133C195.128 10.293 195.682 10.1322 196.35 9.93101C196.181 10.1376 196.044 10.3236 195.938 10.4891C195.853 10.6341 195.769 10.7582 195.684 10.8615C195.599 10.9856 195.525 11.0994 195.462 11.2028C195.398 11.3063 195.334 11.4619 195.269 11.6696C195.226 11.8358 195.171 12.0748 195.105 12.3866C195.04 12.6776 194.984 13.0624 194.937 13.5411C196.069 12.8448 197.106 12.3246 198.047 11.9805C199.009 11.6366 199.845 11.3955 200.555 11.2572C201.39 11.0995 202.141 11.045 202.807 11.0937C203.64 11.1651 204.408 11.3609 205.113 11.6809C205.839 11.9803 206.492 12.3415 207.071 12.7644C207.65 13.1872 208.155 13.651 208.587 14.1556C209.019 14.6603 209.358 15.1639 209.602 15.6665C209.766 16.0016 209.865 16.4819 209.9 17.1073C209.955 17.7329 209.886 18.3989 209.691 19.1052C209.496 19.8115 209.155 20.5058 208.668 21.1881C208.203 21.8499 207.541 22.3741 206.683 22.7608C205.197 23.4116 203.724 23.7709 202.265 23.8387C201.639 23.8737 200.994 23.846 200.328 23.7555C199.683 23.6653 199.029 23.4812 198.365 23.2033C197.722 22.9256 197.101 22.5335 196.503 22.0271C195.904 21.4998 195.359 20.8273 194.868 20.0095C194.69 21.0702 194.555 21.9959 194.463 22.7866C194.392 23.5567 194.344 24.2021 194.317 24.7227C194.29 25.3266 194.285 25.8369 194.301 26.2538C194.338 26.6709 194.417 27.1197 194.537 27.6002C194.636 28.0179 194.777 28.4986 194.959 29.0422C195.161 29.6069 195.415 30.193 195.721 30.8005C195.597 30.7575 195.42 30.7243 195.191 30.7011C194.983 30.6988 194.764 30.7173 194.534 30.7566C194.284 30.7956 194.002 30.8342 193.689 30.8725C193.397 30.9319 193.073 31.0014 192.718 31.0809C192.426 31.1403 192.081 31.2096 191.685 31.2887C191.309 31.3888 190.922 31.4993 190.525 31.6201C190.757 31.3517 190.937 31.0411 191.066 30.6883C191.215 30.3565 191.333 30.0453 191.42 29.7545C191.507 29.4013 191.584 29.0479 191.65 28.6944C191.674 28.3821 191.712 27.7888 191.763 26.9143C191.834 26.0608 191.897 25.0718 191.951 23.9473C192.004 22.802 192.048 21.6045 192.083 20.3548C192.138 19.1053 192.171 17.9494 192.182 16.8869C192.215 15.8039 192.224 14.8872 192.211 14.1371C192.199 13.3869 192.162 12.949 192.101 12.8233C192.019 12.6766 191.864 12.5187 191.637 12.3496C191.451 12.2018 191.182 12.053 190.829 11.9034C190.497 11.7541 190.051 11.593 189.49 11.4204ZM196.867 17.1869C196.716 17.6645 196.68 18.1329 196.758 18.5921C196.836 19.0513 197.04 19.4806 197.369 19.88C197.719 20.2795 198.205 20.6389 198.827 20.9581C199.469 21.2566 200.269 21.4839 201.226 21.64C202.182 21.796 202.912 21.783 203.414 21.6008C203.916 21.4187 204.283 21.1309 204.517 20.7375C204.771 20.3236 204.943 19.8462 205.032 19.3055C205.121 18.7439 205.232 18.1617 205.363 17.5589C205.494 16.9769 205.48 16.383 205.32 15.7771C205.16 15.1503 204.926 14.5853 204.619 14.082C204.333 13.5789 204.004 13.1691 203.632 12.8527C203.282 12.5156 202.971 12.3456 202.7 12.3427C202.054 12.3358 201.417 12.4957 200.789 12.8223C200.16 13.1489 199.583 13.5595 199.057 14.0539C198.53 14.5483 198.066 15.085 197.664 15.6641C197.283 16.2226 197.017 16.7302 196.867 17.1869Z" fill="black"/>
    <path d="M181.766 11.9004C182.308 11.9062 182.869 12.0164 183.45 12.2309C184.031 12.4247 184.591 12.6806 185.129 12.9989C185.668 13.2963 186.154 13.6245 186.588 13.9833C187.043 14.3215 187.414 14.6484 187.702 14.964C188.217 15.532 188.563 16.2962 188.74 17.2564C188.939 18.1961 188.97 19.1653 188.834 20.1639C188.699 21.1416 188.397 22.0656 187.93 22.9356C187.462 23.8057 186.82 24.4447 186.003 24.8527C185.417 25.1381 184.841 25.3611 184.277 25.5218C183.713 25.6824 183.17 25.8016 182.648 25.8794C182.126 25.9572 181.636 25.9936 181.178 25.9887C180.72 25.9838 180.324 25.9692 179.991 25.9448C179.366 25.8965 178.713 25.6707 178.029 25.2676C177.367 24.8646 176.737 24.3683 176.139 23.7786C175.562 23.189 175.069 22.5483 174.659 21.8564C174.25 21.1437 174.007 20.4744 173.931 19.8485C173.815 18.9931 173.804 18.097 173.897 17.1605C173.99 16.2239 174.302 15.3626 174.831 14.5766C175.381 13.7907 176.2 13.1432 177.289 12.6339C178.399 12.1249 179.891 11.8804 181.766 11.9004ZM180.605 24.0137C180.834 24.0579 181.147 24.0091 181.544 23.8675C181.942 23.7051 182.33 23.4488 182.709 23.0986C183.109 22.7487 183.457 22.3045 183.755 21.766C184.073 21.2068 184.268 20.5318 184.339 19.7409C184.409 18.9707 184.417 18.2624 184.361 17.616C184.327 16.9697 184.239 16.4063 184.098 15.9256C183.958 15.424 183.795 15.016 183.611 14.7015C183.427 14.3871 183.231 14.1662 183.024 14.039C182.672 13.8477 182.247 13.6973 181.748 13.5878C181.249 13.4575 180.822 13.4738 180.466 13.6367C180.299 13.7182 180.088 13.8931 179.836 14.1612C179.583 14.4294 179.329 14.7704 179.075 15.1844C178.82 15.5775 178.586 16.0334 178.372 16.552C178.179 17.0708 178.038 17.611 177.949 18.1726C177.859 18.7341 177.832 19.338 177.867 19.9843C177.923 20.6307 178.051 21.2467 178.254 21.8323C178.456 22.397 178.742 22.8896 179.113 23.3103C179.504 23.7103 180.002 23.9448 180.605 24.0137Z" fill="black"/>
    <path d="M154.486 11.6092C155.028 11.615 155.589 11.7252 156.17 11.9397C156.752 12.1334 157.311 12.3894 157.85 12.7077C158.388 13.0051 158.874 13.3333 159.308 13.6921C159.763 14.0303 160.134 14.3572 160.423 14.6728C160.937 15.2408 161.284 16.005 161.461 16.9652C161.659 17.9049 161.69 18.874 161.555 19.8727C161.419 20.8504 161.118 21.7743 160.65 22.6444C160.182 23.5145 159.54 24.1535 158.723 24.5614C158.137 24.8469 157.562 25.0699 156.997 25.2306C156.433 25.3912 155.89 25.5104 155.368 25.5882C154.847 25.666 154.357 25.7024 153.898 25.6975C153.44 25.6926 153.044 25.678 152.711 25.6536C152.087 25.6052 151.433 25.3795 150.75 24.9764C150.087 24.5734 149.457 24.0771 148.859 23.4873C148.282 22.8978 147.789 22.2571 147.38 21.5652C146.971 20.8524 146.728 20.1831 146.651 19.5573C146.535 18.7018 146.524 17.8058 146.617 16.8693C146.711 15.9327 147.022 15.0714 147.551 14.2853C148.101 13.4995 148.921 12.852 150.009 12.3427C151.119 11.8337 152.611 11.5892 154.486 11.6092ZM153.326 23.7225C153.554 23.7666 153.867 23.7179 154.265 23.5763C154.662 23.4139 155.051 23.1576 155.429 22.8074C155.829 22.4575 156.177 22.0133 156.475 21.4748C156.793 20.9156 156.988 20.2406 157.059 19.4496C157.13 18.6795 157.137 17.9712 157.082 17.3248C157.047 16.6785 156.959 16.115 156.818 15.6344C156.678 15.1328 156.516 14.7248 156.332 14.4103C156.147 14.0959 155.952 13.875 155.745 13.7478C155.393 13.5565 154.967 13.4061 154.468 13.2966C153.97 13.1663 153.542 13.1826 153.186 13.3455C153.019 13.427 152.809 13.6019 152.556 13.87C152.303 14.1381 152.049 14.4792 151.795 14.8932C151.541 15.2863 151.307 15.7422 151.093 16.2608C150.9 16.7796 150.758 17.3198 150.669 17.8813C150.58 18.4429 150.553 19.0468 150.587 19.6931C150.643 20.3395 150.772 20.9555 150.974 21.541C151.176 22.1057 151.463 22.5984 151.833 23.0191C152.225 23.4191 152.722 23.6536 153.326 23.7225Z" fill="black"/>
    <path d="M134.892 5.71223C135.516 5.7814 136.036 5.83904 136.453 5.88515C136.89 5.93148 137.243 5.96651 137.514 5.99023C137.826 6.0144 138.076 6.02749 138.264 6.02949C138.451 6.05232 138.701 6.05499 139.014 6.03749C139.285 6.01955 139.639 6.0025 140.077 5.98634C140.515 5.94935 141.067 5.89274 141.735 5.81653C141.587 6.02329 141.47 6.20956 141.385 6.37533C141.3 6.52026 141.226 6.65489 141.162 6.77922L140.971 7.1522C140.928 7.27675 140.885 7.40129 140.842 7.52584C140.799 7.62956 140.756 7.75411 140.713 7.89949C140.69 8.04509 140.668 8.20111 140.645 8.36754L145.457 8.41891L144.993 10.9453L140.59 10.6483C140.474 11.7097 140.392 12.5317 140.344 13.1146C140.297 13.6975 140.25 14.1241 140.206 14.3944L140.137 14.9562C140.066 15.7472 139.995 16.6111 139.922 17.5478C139.85 18.4638 139.82 19.3177 139.832 20.1095C139.845 20.9014 139.91 21.5688 140.03 22.1118C140.149 22.6339 140.365 22.8966 140.678 22.9C140.99 22.9033 141.283 22.8231 141.555 22.6593C141.828 22.4956 142.059 22.3001 142.249 22.0729C142.46 21.846 142.618 21.6185 142.725 21.3905C142.832 21.1416 142.886 20.9547 142.887 20.8297C142.889 20.7047 142.859 20.5585 142.798 20.3912C142.697 20.0776 142.514 19.6798 142.248 19.1978C142.851 19.35 143.381 19.5015 143.837 19.6523C144.066 19.738 144.273 19.8236 144.46 19.9089C144.667 19.9945 144.906 20.0908 145.175 20.1978C145.403 20.3044 145.694 20.4325 146.046 20.5821C146.399 20.7317 146.814 20.9133 147.291 21.1267C146.831 21.2051 146.497 21.337 146.286 21.5223C146.16 21.6043 146.066 21.697 146.002 21.8005C145.854 22.0281 145.684 22.3388 145.492 22.7326C145.301 23.1056 145.015 23.4776 144.636 23.8485C144.257 24.2195 143.743 24.5474 143.095 24.8321C142.466 25.1171 141.621 25.2748 140.558 25.3051C139.454 25.335 138.612 25.1385 138.033 24.7156C137.475 24.2929 137.063 23.8094 136.798 23.2648C136.554 22.6997 136.414 22.1461 136.379 21.604C136.343 21.0619 136.315 20.697 136.297 20.5093C136.278 20.3216 136.283 19.8529 136.312 19.1031C136.34 18.3534 136.38 17.5309 136.432 16.6355C136.483 15.7194 136.534 14.8449 136.585 14.012C136.635 13.1583 136.663 12.5336 136.667 12.1378C136.669 11.9295 136.682 11.7108 136.705 11.4819C136.707 11.2944 136.71 11.0965 136.712 10.8882C136.735 10.6593 136.748 10.4406 136.75 10.2323L132.219 10.1527L132.051 8.36955L136.612 8.54325C136.573 8.31365 136.523 8.10477 136.462 7.91662C136.423 7.70785 136.383 7.54075 136.343 7.41531C136.282 7.26882 136.22 7.14316 136.159 7.03833C136.077 6.93328 135.984 6.8177 135.882 6.6916C135.778 6.58632 135.644 6.44947 135.48 6.28103C135.315 6.1126 135.119 5.923 134.892 5.71223Z" fill="black"/>
    <path d="M115.299 20.1602C115.882 20.1664 116.425 20.1097 116.926 19.99C117.344 19.8903 117.741 19.7279 118.119 19.5027C118.517 19.257 118.781 18.8952 118.912 18.4174C119.327 18.5051 119.681 18.5818 119.972 18.6474C120.263 18.6922 120.512 18.7366 120.72 18.7804C120.949 18.8454 121.146 18.8892 121.313 18.9118C121.479 18.9552 121.676 18.999 121.905 19.0431C122.113 19.087 122.362 19.1417 122.653 19.2074C122.965 19.2524 123.329 19.3187 123.745 19.4065C123.433 19.3615 123.11 19.3893 122.775 19.4899C122.462 19.5907 122.158 19.7021 121.866 19.824C121.531 19.9662 121.216 20.14 120.922 20.3452C120.734 20.4682 120.513 20.6533 120.26 20.9007C120.028 21.1482 119.692 21.3842 119.253 21.6087C118.813 21.8332 118.227 22.0248 117.496 22.1837C116.786 22.322 115.869 22.3643 114.745 22.3106C113.391 22.2545 112.258 22.0028 111.346 21.5555C110.435 21.0874 109.701 20.5275 109.145 19.8757C108.59 19.2031 108.192 18.48 107.95 17.7066C107.708 16.9331 107.58 16.2129 107.567 15.5461C107.553 14.8792 107.758 14.1835 108.183 13.4588C108.607 12.7341 109.198 12.0737 109.954 11.4776C110.731 10.8817 111.663 10.402 112.751 10.0386C113.838 9.65438 115.028 9.46915 116.319 9.48293C117.069 9.49094 117.756 9.59202 118.379 9.78618C119.023 9.95974 119.604 10.1951 120.121 10.4923C120.66 10.7898 121.125 11.1281 121.517 11.5073C121.909 11.8657 122.238 12.2338 122.505 12.6116C122.772 13.0103 122.996 13.4294 123.179 13.8689C123.342 14.2457 123.473 14.6742 123.572 15.1544C123.671 15.6347 123.697 16.1246 123.65 16.6241C122.066 16.6489 120.785 16.6664 119.805 16.6768C118.847 16.6874 118.097 16.6898 117.555 16.684L116.149 16.669L115.086 16.6577C114.711 16.6537 114.222 16.6589 113.617 16.6733C113.013 16.6876 112.273 16.711 111.398 16.7433C111.493 17.5777 111.747 18.2263 112.158 18.689C112.591 19.1312 113.046 19.4694 113.523 19.7037C114.062 19.9594 114.654 20.1116 115.299 20.1602ZM112.547 14.5054C113.213 14.5542 113.765 14.5914 114.202 14.6169C114.66 14.6426 115.035 14.6674 115.326 14.6914C115.638 14.7155 115.888 14.7286 116.076 14.7306L116.857 14.739C117.378 14.7445 118.347 14.7236 119.764 14.6763C119.711 13.759 119.521 13.059 119.193 12.5763C118.885 12.0938 118.556 11.7361 118.204 11.5032C117.79 11.2487 117.333 11.098 116.834 11.051C115.48 11.0574 114.466 11.3278 113.794 11.8624C113.142 12.3971 112.727 13.2781 112.547 14.5054Z" fill="black"/>
    <path d="M79.4993 9.99618C79.9788 9.95963 80.3855 9.9223 80.7193 9.88419C81.0739 9.84631 81.366 9.80776 81.5956 9.76854C81.8668 9.72977 82.0964 9.69055 82.2843 9.65089C82.4721 9.63206 82.6808 9.59262 82.9106 9.53257C83.1194 9.49313 83.3491 9.44349 83.5998 9.38366C83.8715 9.30323 84.1641 9.2126 84.4777 9.11177L84.2479 13.0783C84.714 12.3541 85.2511 11.8077 85.8592 11.4391C86.4676 11.0498 87.0436 10.7643 87.5872 10.5825C88.2354 10.3603 88.8827 10.2318 89.5289 10.197C90.1953 10.225 90.8088 10.3357 91.3692 10.5292C91.8466 10.7009 92.323 10.9665 92.7983 11.3257C93.2945 11.6852 93.6743 12.2101 93.9378 12.9005C94.6539 12.1789 95.3578 11.6239 96.0495 11.2354C96.7622 10.8263 97.3905 10.5205 97.9344 10.318C98.5826 10.0957 99.1882 9.96676 99.7511 9.9311C100.501 9.91828 101.187 10.0506 101.809 10.3281C102.452 10.6058 103.011 10.9555 103.486 11.3773C103.961 11.7782 104.342 12.2094 104.628 12.6708C104.915 13.1114 105.078 13.4986 105.116 13.8323C105.174 14.2913 105.136 14.8847 105.003 15.6125C104.871 16.3195 104.717 17.047 104.542 17.7952C104.368 18.5225 104.205 19.1979 104.052 19.8213C103.921 20.4241 103.864 20.8506 103.882 21.1008C103.942 21.3098 104.086 21.5614 104.312 21.8555C104.517 22.1077 104.816 22.4234 105.208 22.8026C105.621 23.1612 106.21 23.5842 106.976 24.0715C106.309 24.0436 105.716 24.0164 105.195 23.99C104.695 23.9638 104.269 23.928 103.915 23.8826C103.499 23.8365 103.134 23.8013 102.822 23.7772C102.572 23.7745 102.27 23.7505 101.917 23.705C101.625 23.6811 101.24 23.6457 100.762 23.5989C100.304 23.5524 99.7729 23.505 99.1692 23.4569C99.399 23.3969 99.5877 23.2843 99.7353 23.1192C99.8832 22.9333 100.01 22.7575 100.116 22.592C100.222 22.3848 100.308 22.1565 100.373 21.9072C100.417 21.6993 100.462 21.3664 100.509 20.9086C100.556 20.4507 100.592 19.9302 100.619 19.3472C100.667 18.7643 100.695 18.15 100.702 17.5042C100.729 16.8586 100.736 16.2441 100.721 15.6605C100.707 15.077 100.671 14.5453 100.613 14.0655C100.556 13.5857 100.476 13.2203 100.375 12.9692C100.294 12.7808 100.149 12.6334 99.9422 12.527C99.7352 12.3998 99.4964 12.3244 99.2258 12.3006C98.9554 12.2561 98.6845 12.2636 98.413 12.3232C98.1417 12.362 97.9013 12.4428 97.6916 12.5655C97.5026 12.7093 97.2505 12.9046 96.9353 13.1512C96.6621 13.3775 96.3046 13.6862 95.8629 14.0773C95.4212 14.4685 94.8638 14.9626 94.1907 15.5596C94.1142 16.8713 94.0508 17.9332 94.0004 18.7452C93.9712 19.5366 93.9439 20.1405 93.9186 20.557C93.8924 21.0567 93.8783 21.4003 93.8763 21.5878C93.8537 21.7542 93.8625 21.9106 93.9026 22.0569C93.9409 22.3698 94.0628 22.6628 94.2682 22.9358C94.0189 22.8707 93.7485 22.8261 93.4571 22.8022C93.1865 22.7784 92.9367 22.7549 92.7078 22.7316C92.4372 22.7079 92.1665 22.6946 91.8957 22.6917C91.6665 22.6893 91.4164 22.697 91.1454 22.715C90.916 22.7334 90.6345 22.7616 90.3007 22.7997C89.9672 22.817 89.6023 22.8443 89.206 22.8818C89.3738 22.7794 89.5105 22.6558 89.6162 22.5111C89.722 22.3664 89.8067 22.2319 89.8706 22.1076C89.9554 21.9626 90.0194 21.8279 90.0624 21.7034C90.0846 21.5786 90.1294 21.277 90.1971 20.7985C90.2649 20.2992 90.3128 19.7163 90.3407 19.0499C90.3687 18.3835 90.3761 17.6856 90.3631 16.9563C90.3503 16.2061 90.2846 15.5283 90.166 14.9228C90.0477 14.2965 89.8552 13.784 89.5887 13.3853C89.3429 12.9868 89.0115 12.8062 88.5944 12.8434C88.094 12.8798 87.5822 12.9993 87.0592 13.2021C86.62 13.364 86.1486 13.609 85.645 13.937C85.1415 14.265 84.668 14.7079 84.2245 15.2657C84.1245 16.8272 84.0592 18.0661 84.0286 18.9825C84.0188 19.8992 84.0218 20.5971 84.0375 21.0765C84.0523 21.6392 84.069 22.0248 84.0876 22.2334C84.1069 22.3794 84.1574 22.5258 84.2392 22.6725C84.3004 22.7982 84.3717 22.9448 84.4533 23.1123C84.5557 23.2801 84.6686 23.4375 84.792 23.5847L79.8262 23.2817C79.9938 23.2001 80.1407 23.0975 80.267 22.9739C80.3936 22.8294 80.4993 22.6847 80.5842 22.5397C80.6693 22.374 80.7544 22.2082 80.8395 22.0424C80.9035 21.8973 80.9593 21.5541 81.0067 21.0129C81.075 20.4719 81.1339 19.8371 81.1833 19.1084C81.233 18.3589 81.2726 17.578 81.3021 16.7658C81.3527 15.933 81.3817 15.1624 81.3893 14.4541C81.4179 13.7252 81.4349 13.1108 81.4402 12.6108C81.4458 12.09 81.4387 11.7774 81.419 11.673C81.3587 11.464 81.2465 11.2441 81.0822 11.0131C80.9382 10.8449 80.7422 10.6657 80.4942 10.4756C80.2464 10.2646 79.9148 10.1048 79.4993 9.99618Z" fill="black"/>
    <path d="M54.5831 2.011C54.8111 2.11761 55.0812 2.19341 55.3932 2.23841C55.7261 2.28363 56.0383 2.3078 56.33 2.31092C56.6841 2.3147 57.0488 2.30817 57.424 2.29134C57.7992 2.27451 58.2579 2.23774 58.8002 2.18103C59.2382 2.14403 59.7804 2.09773 60.4268 2.04213C61.0733 1.98653 61.7929 1.91087 62.5856 1.81516C62.2924 1.95788 62.0408 2.11145 61.8307 2.27588C61.6206 2.44031 61.4417 2.60508 61.2941 2.77018C61.1254 2.95589 60.988 3.14194 60.8819 3.32831C60.7334 3.57674 60.5308 4.0121 60.2741 4.6344C60.0385 5.23609 59.7917 5.91057 59.5338 6.65786C59.2966 7.40537 59.0802 8.16352 58.8844 8.93231C58.7095 9.70132 58.6088 10.3565 58.5822 10.8979C58.5565 11.356 58.5301 11.8766 58.503 12.4597C58.4768 12.9594 58.4494 13.5738 58.4208 14.3027C58.3922 15.0316 58.3625 15.8646 58.3316 16.8019C59.8431 15.7346 61.0085 14.8824 61.8279 14.2453C62.6475 13.5873 63.2466 13.0833 63.6254 12.7331C64.0671 12.342 64.3305 12.0635 64.4156 11.8978C64.3961 11.7726 64.3455 11.6366 64.2637 11.4899C64.1609 11.3638 64.0166 11.2164 63.8309 11.0477C63.6452 10.8791 63.3659 10.6886 62.9932 10.4763C63.5342 10.5445 64.0024 10.5912 64.398 10.6163C64.8144 10.6415 65.1684 10.6662 65.4598 10.6901C65.7929 10.7145 66.0845 10.7176 66.3347 10.6994C66.6056 10.7023 66.939 10.6955 67.335 10.6789C68.0227 10.6654 69.0855 10.6455 70.5233 10.6191C69.1198 11.3334 68.009 11.9466 67.191 12.4587C66.7296 12.7454 66.3205 13.0119 65.9637 13.2581C65.6066 13.5252 65.2391 13.8025 64.861 14.0902C64.525 14.3366 64.1365 14.6241 63.6954 14.9528C63.2752 15.2816 62.8548 15.6313 62.4342 16.0019C63.1506 17.1971 63.7756 18.183 64.309 18.9595C64.8632 19.7363 65.3252 20.3663 65.6951 20.8494C66.1266 21.4166 66.5072 21.8686 66.837 22.2055C67.1669 22.5215 67.6006 22.8803 68.138 23.2819C68.5926 23.6409 69.1818 24.0639 69.9058 24.5508C70.6509 25.0172 71.5514 25.5581 72.6074 26.1735C72.0669 26.0636 71.5469 25.9851 71.0473 25.9381C70.5476 25.9119 70.1205 25.9074 69.7662 25.9244C69.3285 25.9406 68.9322 25.978 68.5774 26.0368C68.2015 26.1161 67.7838 26.2158 67.3241 26.3359C66.9272 26.4358 66.457 26.5662 65.9136 26.7271C65.3908 26.909 64.8154 27.1425 64.1873 27.4275C64.5862 27.14 64.8809 26.8619 65.0713 26.5931C65.2823 26.3453 65.4303 26.1386 65.5154 25.9728C65.601 25.7654 65.6341 25.5886 65.6148 25.4426C65.5129 25.2332 65.2779 24.8035 64.9098 24.1537C64.5614 23.6083 64.0491 22.8111 63.3727 21.7622C62.6964 20.7133 61.7324 19.2862 60.4808 17.4811C60.4181 17.5013 60.3132 17.5626 60.1663 17.6652C60.0402 17.7681 59.8511 17.9119 59.5991 18.0967C59.3474 18.2607 59.0114 18.5071 58.5912 18.836L59.3765 24.3134C59.1881 24.3948 58.979 24.4655 58.7492 24.5255C58.5402 24.5858 58.3418 24.6357 58.1538 24.6754C57.924 24.7355 57.6944 24.7747 57.465 24.7931C57.2357 24.8114 56.9644 24.8502 56.6513 24.9094C56.38 24.9482 56.0565 24.9968 55.6809 25.0553C55.305 25.1346 54.877 25.2238 54.3967 25.3228C54.6695 25.1382 54.8906 24.9218 55.0599 24.6736C55.229 24.4463 55.3668 24.229 55.4732 24.0218C55.5798 23.7937 55.6761 23.5551 55.7621 23.306C55.806 23.0982 55.8534 22.557 55.9044 21.6825C55.9762 20.8082 56.0394 19.7671 56.094 18.5593C56.1488 17.3307 56.1941 16.0186 56.2298 14.623C56.2864 13.2277 56.3212 11.9155 56.3343 10.6864C56.3477 9.43651 56.3488 8.35313 56.3378 7.43629C56.3269 6.49862 56.2917 5.89404 56.2321 5.62256C56.1315 5.28813 56.0103 4.93265 55.8685 4.55612C55.747 4.22147 55.574 3.8446 55.3493 3.42551C55.1456 2.98581 54.8902 2.51431 54.5831 2.011Z" fill="black"/>
    <path d="M55.2422 13.4562C54.9926 13.4119 54.6805 13.3773 54.3057 13.3524C53.9518 13.3278 53.6082 13.3137 53.2749 13.3102C52.8999 13.3062 52.504 13.3124 52.0871 13.3287C51.6494 13.3449 51.2117 13.3611 50.774 13.3772C50.3988 13.3941 49.9714 13.4208 49.4918 13.4573C49.0333 13.4732 48.5851 13.4997 48.1472 13.5367C48.3147 13.4552 48.4618 13.3421 48.5883 13.1976C48.7357 13.0534 48.8622 12.9089 48.968 12.7642C49.0739 12.5986 49.1695 12.4226 49.2549 12.236C49.3624 11.9246 49.356 11.5495 49.2356 11.1107C49.1155 10.651 48.8908 10.232 48.5615 9.85341C48.253 9.4751 47.8499 9.17911 47.3522 8.96546C46.8755 8.73119 46.3448 8.67344 45.7602 8.7922C45.1337 8.93135 44.5689 9.14409 44.0658 9.4304C43.5835 9.71694 43.173 10.1188 42.8341 10.6361C42.5163 11.1327 42.2804 11.7552 42.1266 12.5036C41.9938 13.2314 41.9532 14.106 42.0048 15.1275C42.0746 16.3991 42.2721 17.4117 42.5974 18.1652C42.9228 18.9187 43.323 19.4855 43.7981 19.8656C44.2732 20.2457 44.7916 20.4804 45.3532 20.5698C45.9358 20.6385 46.5087 20.6446 47.0718 20.5881C47.4685 20.509 47.835 20.3358 48.1712 20.0686C48.4445 19.8423 48.698 19.5117 48.9318 19.0766C49.1657 18.6416 49.2763 18.0386 49.2637 17.2676L53.0776 17.152C52.627 18.3765 52.0853 19.3499 51.4526 20.0724C50.8201 20.774 50.21 21.3196 49.6225 21.7092C48.9302 22.1601 48.2394 22.4653 47.5501 22.6246C46.6945 22.7613 45.9334 22.8157 45.267 22.7877C44.6008 22.739 43.9978 22.6283 43.4579 22.4559C42.9181 22.2835 42.4203 22.0698 41.9647 21.8149C41.5091 21.56 41.0745 21.2846 40.6609 20.9885C40.3921 20.7981 40.0934 20.4824 39.7648 20.0413C39.4361 19.6003 39.1292 19.0762 38.844 18.4689C38.559 17.8408 38.3268 17.1508 38.1473 16.3989C37.9678 15.6469 37.9031 14.8753 37.9532 14.0842C38.0036 13.2722 38.1997 12.4617 38.5417 11.6528C38.8837 10.8439 39.4233 10.0684 40.1604 9.32621C41.2765 8.21306 42.4613 7.4965 43.7148 7.17653C44.9894 6.83594 46.1882 6.75499 47.3114 6.93365C48.4347 7.09149 49.4312 7.42506 50.3008 7.93437C51.1705 8.44368 51.7792 8.99188 52.1271 9.57896C52.4751 10.166 52.7307 10.6167 52.894 10.931C53.0784 11.2246 53.2113 11.4552 53.2929 11.6228C53.3955 11.7697 53.4776 11.8852 53.5392 11.9692C53.6219 12.0326 53.7354 12.1275 53.8799 12.2541C53.983 12.3593 54.1068 12.4753 54.2512 12.6018C54.3751 12.7073 54.5196 12.8339 54.6847 12.9815C54.8498 13.1291 55.0356 13.2873 55.2422 13.4562Z" fill="black"/>
    <path d="M30.1493 10.3132L35.8983 10.437C35.5514 11.7042 35.2899 12.7848 35.1137 13.6788C34.9583 14.5731 34.8565 15.322 34.8084 15.9257C34.7177 16.6123 34.6907 17.1954 34.7272 17.6749C34.7851 18.1131 34.8842 18.5829 35.0247 19.0844C35.1452 19.5024 35.3276 19.9836 35.5718 20.5279C35.816 21.0722 36.1436 21.6174 36.5544 22.1634C36.3053 22.0775 36.0352 22.0121 35.744 21.9673C35.4528 21.9225 35.1823 21.8884 34.9325 21.8649C34.6411 21.8409 34.3494 21.8378 34.0576 21.8555C33.7657 21.8732 33.4425 21.901 33.0879 21.9389C32.7958 21.9775 32.4411 22.0258 32.0238 22.0838C31.6065 22.1419 31.1681 22.2205 30.7087 22.3198C31.0312 21.3857 31.2794 20.5758 31.4534 19.8901C31.6482 19.2047 31.7898 18.6332 31.878 18.1758C31.9671 17.6351 32.0238 17.1981 32.0482 16.865C32.0527 16.4484 32.0577 15.9797 32.0632 15.4589C32.069 14.9172 32.0746 14.3964 32.0799 13.8965C32.0853 13.3965 32.0795 12.9589 32.0627 12.5837C32.0461 12.1877 32.0071 11.9372 31.9457 11.8324L31.6365 11.5166C31.5127 11.4111 31.3267 11.2633 31.0787 11.0731C30.8518 10.8623 30.542 10.609 30.1493 10.3132ZM32.4193 5.52461C32.8592 5.30013 33.2974 5.2423 33.7337 5.35113C34.1909 5.46018 34.543 5.66187 34.7898 5.95619C35.0367 6.25051 35.1164 6.59513 35.0288 6.99005C34.9621 7.38519 34.6247 7.76703 34.0165 8.13556C33.4086 8.48325 32.8761 8.60258 32.4189 8.49352C31.9617 8.38447 31.6411 8.16229 31.4572 7.82697C31.2732 7.49165 31.2461 7.10593 31.3758 6.66979C31.5057 6.21281 31.8535 5.83109 32.4193 5.52461Z" fill="black"/>
    <path d="M23.6475 25.0883C23.8591 24.7781 24.0289 24.4882 24.1568 24.2187C24.2847 23.9492 24.3913 23.7212 24.4766 23.5346C24.5624 23.3063 24.6271 23.0987 24.6708 22.9116C24.6929 22.7869 24.7072 22.4224 24.7137 21.8183C24.7201 21.2142 24.7074 20.4536 24.6755 19.5365C24.6645 18.6197 24.6443 17.5881 24.6148 16.4419C24.6062 15.2959 24.577 14.1289 24.5272 12.9408C24.4982 11.7529 24.4585 10.5962 24.408 9.47057C24.3783 8.34519 24.3474 7.33439 24.3153 6.43816C24.2835 5.5211 24.2498 4.7707 24.2144 4.18695C24.1789 3.60321 24.1512 3.26956 24.1313 3.18601C24.091 3.06057 24.0194 2.9348 23.9166 2.8087C23.7109 2.55649 23.3593 2.31314 22.8618 2.07865C23.9271 1.81917 24.7419 1.60911 25.3062 1.44845C25.6404 1.36868 25.9329 1.28847 26.1838 1.20781C26.4138 1.12692 26.6439 1.04604 26.8739 0.96516C27.0623 0.883833 27.2716 0.792312 27.5019 0.690598C27.7324 0.568051 27.9421 0.434866 28.1312 0.291042C28.0206 0.894063 27.931 1.47647 27.8625 2.03827C27.794 2.60007 27.7364 3.12032 27.6896 3.59902C27.6421 4.14021 27.6158 4.66079 27.6104 5.16076C27.4954 6.18042 27.421 7.29428 27.3872 8.50232C27.3746 9.68975 27.3721 10.8981 27.3798 12.1274C27.3875 13.3568 27.4164 14.5551 27.4664 15.7223C27.5165 16.8896 27.5676 17.9527 27.6199 18.9116C27.6932 19.85 27.7576 20.6528 27.8129 21.3201C27.8894 21.9668 27.9474 22.3841 27.9871 22.572C28.0671 22.8854 28.1472 23.1884 28.2274 23.4809C28.3081 23.7318 28.399 23.9932 28.5003 24.2651C28.6013 24.5579 28.7239 24.7883 28.8679 24.9566L25.8368 24.9242C25.566 24.9213 25.3055 24.9289 25.0553 24.9471C24.8259 24.9655 24.5861 24.9838 24.3359 25.0019C24.0857 25.0201 23.8562 25.0489 23.6475 25.0883Z" fill="black"/>
    <path d="M13.2164 1.00687C13.9456 1.01465 14.6004 1.14665 15.1811 1.40286C15.7828 1.63847 16.332 1.90476 16.8289 2.20175C17.3466 2.49896 17.8332 2.775 18.2889 3.02988C18.7447 3.26393 19.2122 3.38351 19.6914 3.38862C20.0666 3.37179 20.4942 3.32427 20.9742 3.24606C21.3918 3.16718 21.8722 3.0473 22.4156 2.88642C22.9801 2.70494 23.608 2.44079 24.2992 2.09399C23.6046 2.75328 23.0362 3.30974 22.5938 3.76338C22.1725 4.1964 21.8457 4.55752 21.6134 4.84672C21.3391 5.17715 21.1384 5.43543 21.0114 5.62159C20.8839 5.84941 20.6928 6.19114 20.4379 6.64678C20.2043 7.06097 19.8858 7.62011 19.4824 8.32417C19.0793 9.00741 18.5696 9.90827 17.9535 11.0268C17.9688 9.58934 17.8349 8.47326 17.5517 7.67853C17.2894 6.88401 16.9937 6.27666 16.6649 5.85646C16.2742 5.37309 15.8295 5.06624 15.3309 4.93591C14.8732 4.86852 14.414 4.94696 13.9533 5.17122C13.4927 5.37465 13.0311 5.68224 12.5683 6.09399C12.1264 6.50596 11.694 7.00138 11.2712 7.58023C10.8693 8.13847 10.4984 8.7283 10.1585 9.3497C9.8393 9.97133 9.57212 10.6039 9.3569 11.2475C9.14191 11.8702 9.00028 12.4521 8.932 12.9931C8.86439 13.4715 8.84796 14.0339 8.88274 14.6801C8.91773 15.3055 9.00458 15.9523 9.14329 16.6205C9.28222 17.2679 9.46292 17.9053 9.68541 18.5327C9.90789 19.1601 10.1831 19.7256 10.5111 20.2291C10.8601 20.712 11.2517 21.112 11.6859 21.4292C12.1202 21.7255 12.6187 21.8663 13.1814 21.8514C13.8068 21.8164 14.4234 21.6355 15.0311 21.3086C15.5548 21.0434 16.0904 20.6324 16.6381 20.0757C17.1859 19.4982 17.6635 18.6803 18.0706 17.6221L22.6863 18.5152C21.3357 20.1259 20.0207 21.3307 18.7413 22.1295C17.4827 22.9287 16.3516 23.4895 15.3481 23.8122C14.1775 24.1747 13.0715 24.34 12.0301 24.308C10.7193 24.1482 9.4944 23.7393 8.35553 23.0812C7.21665 22.4232 6.23547 21.6314 5.41196 20.7059C4.60952 19.7598 3.98503 18.7323 3.53851 17.6233C3.09199 16.5143 2.90565 15.4289 2.97949 14.3671C3.02872 13.6593 3.18333 12.8379 3.44332 11.9032C3.70353 10.9476 4.0473 9.972 4.47462 8.97651C4.92277 7.98123 5.45402 7.00768 6.06839 6.05585C6.68275 5.10402 7.35849 4.25702 8.09563 3.51485C8.83298 2.75184 9.63116 2.14575 10.4902 1.69656C11.3702 1.22676 12.279 0.996862 13.2164 1.00687Z" fill="black" />
</svg>
