<svg class="svg-text" viewBox="0 0 237 45" style="fill: #ffffff"
    xmlns="http://www.w3.org/2000/svg">
    <g >
        <path id="Vector" class="svg-text" d="M142.36 42.576C142.344 42.544 142.312 42.456 142.264 42.312C142.232 42.184 142.2 42.048 142.168 41.904C142.136 41.76 142.104 41.624 142.072 41.496C142.04 41.368 142.024 41.28 142.024 41.232V33.792C142.024 33.68 142.072 33.6 142.168 33.552C142.264 33.488 142.368 33.456 142.48 33.456C142.592 33.44 142.704 33.44 142.816 33.456C142.928 33.456 143 33.464 143.032 33.48C143.016 33.656 143.008 33.92 143.008 34.272C143.008 34.608 143 35 142.984 35.448C142.984 35.896 142.984 36.368 142.984 36.864C143 37.344 143.008 37.808 143.008 38.256V39.456C143.008 39.808 143.016 40.064 143.032 40.224C143.064 40.96 143.168 41.472 143.344 41.76C143.52 42.032 143.728 42.16 143.968 42.144C144.224 42.128 144.488 41.992 144.76 41.736C145.048 41.464 145.312 41.144 145.552 40.776C145.792 40.392 145.992 40.008 146.152 39.624C146.328 39.224 146.416 38.864 146.416 38.544V33.48H147.76C147.744 33.784 147.712 34.176 147.664 34.656C147.632 35.136 147.608 35.656 147.592 36.216C147.592 36.776 147.6 37.344 147.616 37.92C147.648 38.496 147.712 39.04 147.808 39.552C147.904 40.064 148.04 40.512 148.216 40.896C148.408 41.264 148.648 41.528 148.936 41.688C149.24 41.848 149.592 41.88 149.992 41.784C150.408 41.672 150.904 41.376 151.48 40.896C151.592 41.232 151.544 41.56 151.336 41.88C151.128 42.184 150.856 42.448 150.52 42.672C150.184 42.912 149.816 43.088 149.416 43.2C149.032 43.312 148.704 43.336 148.432 43.272C148.4 43.256 148.344 43.2 148.264 43.104C148.184 43.024 148.128 42.96 148.096 42.912C148.048 42.816 147.96 42.64 147.832 42.384C147.704 42.144 147.568 41.88 147.424 41.592C147.28 41.304 147.144 41.032 147.016 40.776C146.904 40.52 146.816 40.336 146.752 40.224C146.688 40.368 146.56 40.592 146.368 40.896C146.192 41.184 145.976 41.496 145.72 41.832C145.464 42.168 145.192 42.48 144.904 42.768C144.616 43.056 144.32 43.256 144.016 43.368C143.728 43.496 143.44 43.512 143.152 43.416C142.864 43.32 142.6 43.04 142.36 42.576Z" />
        <path id="Vector_2" class="svg-text" d="M132.876 43.272C132.892 43.096 132.9 42.8 132.9 42.384V39.744C132.9 39.328 132.892 39.032 132.876 38.856C132.86 38.792 132.836 38.632 132.804 38.376C132.772 38.12 132.732 37.816 132.684 37.464C132.636 37.096 132.588 36.72 132.54 36.336C132.492 35.952 132.436 35.592 132.372 35.256C132.324 34.904 132.284 34.6 132.252 34.344C132.22 34.072 132.196 33.888 132.18 33.792C132.164 33.616 132.156 33.432 132.156 33.24C132.172 33.048 132.212 32.88 132.276 32.736C132.34 32.592 132.436 32.496 132.564 32.448C132.708 32.384 132.916 32.392 133.188 32.472C133.204 32.744 133.228 33.064 133.26 33.432C133.308 33.8 133.356 34.184 133.404 34.584C133.452 34.984 133.516 35.384 133.596 35.784C133.676 36.168 133.772 36.528 133.884 36.864C134.044 36.368 134.204 35.936 134.364 35.568C134.54 35.2 134.732 34.864 134.94 34.56C135.148 34.256 135.38 33.96 135.636 33.672C135.892 33.384 136.204 33.096 136.572 32.808C137.02 32.424 137.396 32.272 137.7 32.352C138.004 32.416 138.252 32.64 138.444 33.024C138.652 33.392 138.82 33.872 138.948 34.464C139.092 35.04 139.212 35.656 139.308 36.312C139.404 36.968 139.508 37.608 139.62 38.232C139.732 38.856 139.868 39.4 140.028 39.864C140.204 40.328 140.42 40.664 140.676 40.872C140.932 41.08 141.252 41.088 141.636 40.896C141.748 41.248 141.764 41.504 141.684 41.664C141.604 41.824 141.46 41.912 141.252 41.928C141.044 41.944 140.804 41.896 140.532 41.784C140.276 41.656 140.012 41.488 139.74 41.28C139.484 41.072 139.252 40.816 139.044 40.512C138.836 40.208 138.684 39.888 138.588 39.552C138.556 39.328 138.516 38.952 138.468 38.424C138.42 37.88 138.356 37.304 138.276 36.696C138.212 36.088 138.092 35.488 137.916 34.896C137.756 34.304 137.532 33.832 137.244 33.48L135.876 34.8C135.844 34.864 135.748 35.104 135.588 35.52C135.444 35.92 135.284 36.392 135.108 36.936C134.932 37.48 134.756 38.032 134.58 38.592C134.404 39.136 134.284 39.576 134.22 39.912C134.188 40.024 134.148 40.24 134.1 40.56C134.068 40.864 134.028 41.2 133.98 41.568C133.948 41.936 133.924 42.28 133.908 42.6C133.892 42.92 133.884 43.144 133.884 43.272C133.772 43.512 133.604 43.632 133.38 43.632C133.156 43.632 132.988 43.512 132.876 43.272Z" />
        <path id="Vector_3" class="svg-text" d="M125.344 43.272C124.8 42.84 124.368 42.336 124.048 41.76C123.744 41.184 123.512 40.568 123.352 39.912C123.256 39.976 123.128 40.048 122.968 40.128C122.824 40.192 122.672 40.256 122.512 40.32C122.352 40.368 122.192 40.4 122.032 40.416C121.872 40.432 121.76 40.416 121.696 40.368C121.632 40.32 121.608 40.24 121.624 40.128C121.656 40 121.776 39.808 121.984 39.552C122.016 39.52 122.096 39.44 122.224 39.312C122.368 39.168 122.52 39.024 122.68 38.88C122.84 38.72 122.984 38.576 123.112 38.448C123.24 38.32 123.32 38.24 123.352 38.208C123.48 37.872 123.56 37.512 123.592 37.128C123.624 36.728 123.64 36.32 123.64 35.904C123.656 35.488 123.68 35.072 123.712 34.656C123.76 34.24 123.864 33.848 124.024 33.48C124.104 33.288 124.264 33.04 124.504 32.736C124.76 32.416 125.048 32.12 125.368 31.848C125.704 31.56 126.032 31.304 126.352 31.08C126.672 30.84 126.952 30.696 127.192 30.648C127.448 30.6 127.632 30.664 127.744 30.84C127.856 31 127.848 31.32 127.72 31.8C127.576 32.36 127.36 32.912 127.072 33.456C126.784 34 126.48 34.536 126.16 35.064C125.856 35.576 125.568 36.096 125.296 36.624C125.024 37.136 124.824 37.664 124.696 38.208C124.632 38.496 124.6 38.84 124.6 39.24C124.6 39.64 124.648 40.04 124.744 40.44C124.84 40.84 124.984 41.208 125.176 41.544C125.384 41.88 125.672 42.112 126.04 42.24C126.44 42.4 126.848 42.44 127.264 42.36C127.696 42.28 128.104 42.128 128.488 41.904C128.888 41.68 129.264 41.408 129.616 41.088C129.984 40.752 130.328 40.408 130.648 40.056C130.968 39.704 131.248 39.368 131.488 39.048C131.728 38.712 131.928 38.432 132.088 38.208L132.448 38.544C132.528 38.608 132.464 38.824 132.256 39.192C132.064 39.56 131.776 39.976 131.392 40.44C131.008 40.904 130.552 41.376 130.024 41.856C129.512 42.32 128.984 42.712 128.44 43.032C127.896 43.368 127.352 43.576 126.808 43.656C126.264 43.736 125.776 43.608 125.344 43.272ZM124.696 34.8C124.68 34.88 124.672 35 124.672 35.16C124.672 35.32 124.672 35.488 124.672 35.664C124.672 35.84 124.672 36.008 124.672 36.168C124.672 36.328 124.68 36.44 124.696 36.504C125.112 35.784 125.496 35.024 125.848 34.224C126.216 33.424 126.504 32.616 126.712 31.8C126.408 31.896 126.136 32.056 125.896 32.28C125.656 32.488 125.456 32.736 125.296 33.024C125.136 33.296 125 33.592 124.888 33.912C124.792 34.216 124.728 34.512 124.696 34.8Z" />
        <path id="Vector_4" class="svg-text" d="M113.068 43.272C113.1 42.76 113.116 42.216 113.116 41.64C113.132 41.064 113.124 40.488 113.092 39.912C113.06 39.32 113.012 38.736 112.948 38.16C112.9 37.584 112.828 37.032 112.732 36.504C112.54 35.56 112.3 34.84 112.012 34.344C111.74 33.848 111.452 33.584 111.148 33.552C110.844 33.504 110.556 33.696 110.284 34.128C110.028 34.56 109.828 35.24 109.684 36.168C109.652 36.312 109.62 36.536 109.588 36.84C109.556 37.144 109.516 37.488 109.468 37.872C109.42 38.24 109.372 38.632 109.324 39.048C109.276 39.464 109.228 39.864 109.18 40.248C109.132 40.616 109.1 40.952 109.084 41.256C109.068 41.544 109.052 41.76 109.036 41.904C108.94 42.112 108.788 42.232 108.58 42.264C108.372 42.312 108.18 42.304 108.004 42.24L107.332 32.136C107.316 31.96 107.356 31.816 107.452 31.704C107.548 31.576 107.652 31.488 107.764 31.44C107.876 31.392 107.988 31.392 108.1 31.44C108.212 31.488 108.292 31.608 108.34 31.8L109.036 34.8C109.436 33.84 109.804 33.16 110.14 32.76C110.476 32.344 110.796 32.128 111.1 32.112C111.404 32.096 111.684 32.24 111.94 32.544C112.212 32.848 112.468 33.208 112.708 33.624C112.964 34.04 113.196 34.488 113.404 34.968C113.628 35.432 113.852 35.832 114.076 36.168C114.62 34.344 115.228 33.032 115.9 32.232C116.572 31.416 117.22 31.08 117.844 31.224C118.484 31.368 119.044 31.976 119.524 33.048C120.004 34.104 120.324 35.6 120.484 37.536C120.516 37.84 120.532 38.232 120.532 38.712C120.548 39.192 120.556 39.664 120.556 40.128C120.556 40.592 120.548 41 120.532 41.352C120.532 41.704 120.516 41.888 120.484 41.904L120.124 42.24L119.476 41.568C119.54 40.912 119.556 40.216 119.524 39.48C119.492 38.744 119.42 38.008 119.308 37.272C119.212 36.52 119.084 35.8 118.924 35.112C118.764 34.408 118.604 33.752 118.444 33.144C118.268 32.632 118.052 32.336 117.796 32.256C117.54 32.16 117.276 32.2 117.004 32.376C116.748 32.536 116.508 32.792 116.284 33.144C116.06 33.496 115.892 33.832 115.78 34.152C115.7 34.344 115.604 34.6 115.492 34.92C115.38 35.24 115.268 35.568 115.156 35.904C115.06 36.224 114.972 36.512 114.892 36.768C114.812 37.008 114.764 37.144 114.748 37.176C114.716 37.416 114.66 37.824 114.58 38.4C114.516 38.96 114.444 39.568 114.364 40.224C114.3 40.864 114.236 41.472 114.172 42.048C114.124 42.624 114.092 43.032 114.076 43.272C114.076 43.464 114.02 43.568 113.908 43.584C113.812 43.616 113.7 43.608 113.572 43.56C113.428 43.512 113.26 43.416 113.068 43.272Z" />
        <path id="Vector_5" class="svg-text" d="M90.5841 34.968V43.392C90.3921 43.824 90.2241 44.04 90.0801 44.04C89.9361 44.056 89.8081 43.912 89.6961 43.608C89.6001 43.32 89.5201 42.904 89.4561 42.36C89.4081 41.832 89.3761 41.248 89.3601 40.608C89.3441 39.952 89.3361 39.272 89.3361 38.568C89.3521 37.848 89.3761 37.16 89.4081 36.504C89.4401 35.848 89.4801 35.248 89.5281 34.704C89.5921 34.144 89.6481 33.704 89.6961 33.384C89.7601 33.064 89.8241 32.888 89.8881 32.856C89.9521 32.824 90.0161 33.008 90.0801 33.408C90.4961 33.088 90.9441 32.792 91.4241 32.52C91.9041 32.232 92.4001 31.992 92.9121 31.8C93.4241 31.608 93.9441 31.488 94.4721 31.44C95.0001 31.392 95.5041 31.44 95.9841 31.584C96.0481 31.76 96.0561 31.96 96.0081 32.184C95.9601 32.392 95.8401 32.528 95.6481 32.592C95.4401 32.56 95.1681 32.544 94.8321 32.544C94.4961 32.544 94.1361 32.568 93.7521 32.616C93.3841 32.664 93.0081 32.744 92.6241 32.856C92.2401 32.968 91.8961 33.12 91.5921 33.312C91.3041 33.504 91.0641 33.736 90.8721 34.008C90.6801 34.264 90.5841 34.584 90.5841 34.968Z" />
        <path id="Vector_6" class="svg-text" d="M79.6603 43.272C79.4043 42.728 79.2603 42.176 79.2283 41.616C79.2123 41.056 79.2443 40.488 79.3243 39.912C79.3403 39.72 79.3723 39.448 79.4203 39.096C79.4683 38.728 79.5243 38.328 79.5883 37.896C79.6523 37.448 79.7243 36.976 79.8043 36.48C79.8843 35.984 79.9563 35.52 80.0203 35.088C80.0843 34.64 80.1403 34.248 80.1883 33.912C80.2523 33.576 80.3003 33.32 80.3323 33.144C80.4283 32.6 80.5403 32.136 80.6683 31.752C80.7963 31.368 80.9643 31.072 81.1723 30.864C81.3963 30.656 81.6763 30.544 82.0123 30.528C82.3643 30.512 82.8123 30.6 83.3563 30.792C83.4203 30.808 83.4923 30.864 83.5723 30.96C83.6523 31.04 83.6923 31.088 83.6923 31.104C83.7243 31.28 83.7723 31.544 83.8363 31.896C83.9163 32.248 83.9963 32.648 84.0763 33.096C84.1723 33.544 84.2683 34.008 84.3643 34.488C84.4763 34.968 84.5723 35.432 84.6523 35.88C84.7323 36.328 84.8043 36.728 84.8683 37.08C84.9483 37.432 85.0123 37.696 85.0603 37.872C85.2523 38.784 85.4923 39.424 85.7803 39.792C86.0683 40.144 86.3723 40.328 86.6923 40.344C87.0123 40.36 87.3483 40.256 87.7003 40.032C88.0523 39.792 88.3883 39.544 88.7083 39.288C89.0443 39.032 89.3643 38.816 89.6683 38.64C89.9723 38.464 90.2283 38.432 90.4363 38.544C90.4363 38.784 90.3803 39.024 90.2683 39.264C90.1563 39.488 90.0123 39.704 89.8363 39.912C89.6763 40.104 89.5003 40.288 89.3083 40.464C89.1163 40.64 88.9403 40.784 88.7803 40.896C88.0443 41.376 87.4363 41.632 86.9563 41.664C86.4763 41.68 86.0603 41.568 85.7083 41.328C85.3723 41.088 85.1003 40.752 84.8923 40.32C84.6843 39.888 84.5003 39.456 84.3403 39.024C84.1963 38.576 84.0443 38.184 83.8843 37.848C83.7403 37.496 83.5643 37.272 83.3563 37.176C83.3083 37.352 83.2203 37.648 83.0923 38.064C82.9803 38.464 82.8523 38.904 82.7083 39.384C82.5643 39.848 82.4283 40.288 82.3003 40.704C82.1723 41.12 82.0763 41.408 82.0123 41.568C81.9963 41.632 81.9483 41.76 81.8683 41.952C81.7883 42.128 81.6763 42.32 81.5323 42.528C81.4043 42.752 81.2603 42.96 81.1003 43.152C80.9403 43.36 80.7723 43.52 80.5963 43.632C80.4363 43.744 80.2683 43.776 80.0923 43.728C79.9323 43.696 79.7883 43.544 79.6603 43.272ZM80.6683 37.536C80.6523 37.696 80.6363 37.984 80.6203 38.4C80.6203 38.816 80.6203 39.256 80.6203 39.72C80.6203 40.168 80.6203 40.608 80.6203 41.04C80.6363 41.456 80.6523 41.744 80.6683 41.904C81.1163 41.216 81.5163 40.416 81.8683 39.504C82.2363 38.592 82.5163 37.648 82.7083 36.672C82.9003 35.68 82.9723 34.704 82.9243 33.744C82.8923 32.784 82.7083 31.904 82.3723 31.104C82.1323 31.52 81.9163 32.032 81.7243 32.64C81.5323 33.248 81.3643 33.864 81.2203 34.488C81.0923 35.112 80.9723 35.704 80.8603 36.264C80.7643 36.824 80.7003 37.248 80.6683 37.536Z" />
        <path id="Vector_7" class="svg-text" d="M72.1305 43.416C72.0665 43.224 72.1065 43.016 72.2505 42.792C72.4105 42.584 72.6345 42.36 72.9225 42.12C73.2105 41.896 73.5305 41.672 73.8825 41.448C74.2505 41.208 74.5945 40.976 74.9145 40.752C75.2505 40.528 75.5385 40.32 75.7785 40.128C76.0345 39.92 76.2105 39.728 76.3065 39.552C76.4985 39.168 76.6665 38.72 76.8105 38.208C76.9545 37.68 77.0425 37.176 77.0745 36.696C77.1225 36.2 77.1225 35.752 77.0745 35.352C77.0265 34.952 76.8985 34.688 76.6905 34.56C76.4985 34.416 76.2345 34.44 75.8985 34.632C75.5625 34.808 75.1385 35.208 74.6265 35.832C74.4825 36.024 74.3065 36.352 74.0985 36.816C73.9065 37.264 73.6985 37.768 73.4745 38.328C73.2505 38.888 73.0265 39.448 72.8025 40.008C72.5785 40.568 72.3545 41.048 72.1305 41.448C71.9065 41.832 71.6905 42.08 71.4825 42.192C71.2745 42.32 71.0905 42.224 70.9305 41.904C70.9305 41.808 70.9305 41.656 70.9305 41.448C70.9465 41.224 70.9545 40.992 70.9545 40.752C70.9545 40.496 70.9465 40.256 70.9305 40.032C70.9305 39.808 70.9305 39.648 70.9305 39.552C70.8825 38.672 70.8345 37.816 70.7865 36.984C70.7385 36.136 70.6825 35.296 70.6185 34.464C70.5705 33.632 70.5065 32.8 70.4265 31.968C70.3625 31.136 70.2985 30.288 70.2345 29.424C70.2185 29.056 70.2345 28.808 70.2825 28.68C70.3305 28.552 70.3945 28.512 70.4745 28.56C70.5705 28.592 70.6825 28.704 70.8105 28.896C70.9385 29.088 71.0585 29.32 71.1705 29.592C71.2825 29.864 71.3785 30.168 71.4585 30.504C71.5385 30.824 71.5865 31.144 71.6025 31.464C71.6025 31.608 71.6025 31.848 71.6025 32.184C71.6185 32.52 71.6425 32.904 71.6745 33.336C71.7065 33.752 71.7305 34.192 71.7465 34.656C71.7785 35.12 71.8025 35.568 71.8185 36C71.8345 36.416 71.8505 36.792 71.8665 37.128C71.8985 37.464 71.9225 37.712 71.9385 37.872C72.2265 37.664 72.4665 37.408 72.6585 37.104C72.8505 36.8 73.0425 36.488 73.2345 36.168C73.4425 35.848 73.6505 35.536 73.8585 35.232C74.0665 34.928 74.3225 34.68 74.6265 34.488C75.4585 33.96 76.1385 33.68 76.6665 33.648C77.2105 33.6 77.6265 33.72 77.9145 34.008C78.2185 34.296 78.3945 34.712 78.4425 35.256C78.5065 35.8 78.4585 36.408 78.2985 37.08C78.1385 37.736 77.8825 38.424 77.5305 39.144C77.1945 39.864 76.7705 40.544 76.2585 41.184C75.7625 41.808 75.1865 42.352 74.5305 42.816C73.8905 43.28 73.1945 43.592 72.4425 43.752L72.2745 43.608C72.1945 43.512 72.1465 43.448 72.1305 43.416Z" />
        <path id="Vector_8" class="svg-text" d="M63.3992 43.272C62.8552 42.84 62.4232 42.336 62.1032 41.76C61.7992 41.184 61.5672 40.568 61.4072 39.912C61.3112 39.976 61.1832 40.048 61.0232 40.128C60.8792 40.192 60.7272 40.256 60.5672 40.32C60.4072 40.368 60.2472 40.4 60.0872 40.416C59.9272 40.432 59.8152 40.416 59.7512 40.368C59.6872 40.32 59.6632 40.24 59.6792 40.128C59.7112 40 59.8312 39.808 60.0392 39.552C60.0712 39.52 60.1512 39.44 60.2792 39.312C60.4232 39.168 60.5752 39.024 60.7352 38.88C60.8952 38.72 61.0392 38.576 61.1672 38.448C61.2952 38.32 61.3752 38.24 61.4072 38.208C61.5352 37.872 61.6152 37.512 61.6472 37.128C61.6792 36.728 61.6952 36.32 61.6952 35.904C61.7112 35.488 61.7352 35.072 61.7672 34.656C61.8152 34.24 61.9192 33.848 62.0792 33.48C62.1592 33.288 62.3192 33.04 62.5592 32.736C62.8152 32.416 63.1032 32.12 63.4232 31.848C63.7592 31.56 64.0872 31.304 64.4072 31.08C64.7272 30.84 65.0072 30.696 65.2472 30.648C65.5032 30.6 65.6872 30.664 65.7992 30.84C65.9112 31 65.9032 31.32 65.7752 31.8C65.6312 32.36 65.4152 32.912 65.1272 33.456C64.8392 34 64.5352 34.536 64.2152 35.064C63.9112 35.576 63.6232 36.096 63.3512 36.624C63.0792 37.136 62.8792 37.664 62.7512 38.208C62.6872 38.496 62.6552 38.84 62.6552 39.24C62.6552 39.64 62.7032 40.04 62.7992 40.44C62.8952 40.84 63.0392 41.208 63.2312 41.544C63.4392 41.88 63.7272 42.112 64.0952 42.24C64.4952 42.4 64.9032 42.44 65.3192 42.36C65.7512 42.28 66.1592 42.128 66.5432 41.904C66.9432 41.68 67.3192 41.408 67.6712 41.088C68.0392 40.752 68.3832 40.408 68.7032 40.056C69.0232 39.704 69.3032 39.368 69.5432 39.048C69.7832 38.712 69.9832 38.432 70.1432 38.208L70.5032 38.544C70.5832 38.608 70.5192 38.824 70.3112 39.192C70.1192 39.56 69.8312 39.976 69.4472 40.44C69.0632 40.904 68.6072 41.376 68.0792 41.856C67.5672 42.32 67.0392 42.712 66.4952 43.032C65.9512 43.368 65.4072 43.576 64.8632 43.656C64.3192 43.736 63.8312 43.608 63.3992 43.272ZM62.7512 34.8C62.7352 34.88 62.7272 35 62.7272 35.16C62.7272 35.32 62.7272 35.488 62.7272 35.664C62.7272 35.84 62.7272 36.008 62.7272 36.168C62.7272 36.328 62.7352 36.44 62.7512 36.504C63.1672 35.784 63.5512 35.024 63.9032 34.224C64.2712 33.424 64.5592 32.616 64.7672 31.8C64.4632 31.896 64.1912 32.056 63.9512 32.28C63.7112 32.488 63.5112 32.736 63.3512 33.024C63.1912 33.296 63.0552 33.592 62.9432 33.912C62.8472 34.216 62.7832 34.512 62.7512 34.8Z" />
        <path id="Vector_9" class="svg-text" d="M49.7501 42.576C49.6061 42.272 49.5101 41.864 49.4621 41.352C49.4301 40.84 49.4381 40.264 49.4861 39.624C49.5501 38.968 49.6541 38.288 49.7981 37.584C49.9581 36.864 50.1501 36.192 50.3741 35.568C50.5981 34.928 50.8541 34.344 51.1421 33.816C51.4301 33.288 51.7501 32.88 52.1021 32.592C52.4701 32.304 52.8461 32.168 53.2301 32.184C53.6301 32.184 54.0461 32.392 54.4781 32.808L55.1501 27.384C55.1661 27.336 55.2141 27.272 55.2941 27.192C55.3901 27.096 55.4541 27.048 55.4861 27.048C55.5501 27.048 55.6141 27.064 55.6781 27.096C55.7581 27.128 55.8301 27.16 55.8941 27.192C55.9741 27.208 56.0381 27.24 56.0861 27.288C56.1341 27.336 56.1581 27.368 56.1581 27.384V36.864C56.1581 37.568 56.2861 38.184 56.5421 38.712C56.7981 39.224 57.1181 39.6 57.5021 39.84C57.9021 40.08 58.3661 40.16 58.8941 40.08C59.4221 40 59.9741 39.72 60.5501 39.24C60.7421 39.24 60.8301 39.32 60.8141 39.48C60.7981 39.64 60.7181 39.832 60.5741 40.056C60.4461 40.264 60.2541 40.488 59.9981 40.728C59.7421 40.952 59.4621 41.144 59.1581 41.304C58.8541 41.448 58.5261 41.528 58.1741 41.544C57.8381 41.544 57.5101 41.44 57.1901 41.232C56.9181 41.056 56.6781 40.856 56.4701 40.632C56.2621 40.392 56.0781 40.136 55.9181 39.864C55.7581 39.592 55.6061 39.32 55.4621 39.048C55.3341 38.76 55.2301 38.48 55.1501 38.208C55.0861 38.32 54.9901 38.488 54.8621 38.712C54.7501 38.936 54.6141 39.2 54.4541 39.504C54.2941 39.792 54.1341 40.096 53.9741 40.416C53.8141 40.72 53.6541 41.016 53.4941 41.304C53.3341 41.592 53.1901 41.848 53.0621 42.072C52.9341 42.312 52.8381 42.48 52.7741 42.576C52.5821 42.928 52.3501 43.184 52.0781 43.344C51.8221 43.52 51.5421 43.608 51.2381 43.608C50.9501 43.608 50.6701 43.52 50.3981 43.344C50.1421 43.184 49.9261 42.928 49.7501 42.576ZM50.7581 41.904C50.7741 41.936 50.8061 41.976 50.8541 42.024C50.9021 42.088 50.9581 42.144 51.0221 42.192C51.1021 42.256 51.1741 42.296 51.2381 42.312C51.3181 42.328 51.3901 42.304 51.4541 42.24C52.0941 41.76 52.6061 41.192 52.9901 40.536C53.3901 39.864 53.7101 39.16 53.9501 38.424C54.2061 37.688 54.4061 36.936 54.5501 36.168C54.6941 35.384 54.8301 34.648 54.9581 33.96C54.2541 33.864 53.6541 33.92 53.1581 34.128C52.6621 34.32 52.2381 34.616 51.8861 35.016C51.5501 35.416 51.2861 35.896 51.0941 36.456C50.9021 37.016 50.7661 37.608 50.6861 38.232C50.6061 38.84 50.5741 39.464 50.5901 40.104C50.6221 40.744 50.6781 41.344 50.7581 41.904Z" />
        <path id="Vector_10" class="svg-text" d="M45.8595 42.576C45.8435 42.544 45.8115 42.448 45.7635 42.288C45.7315 42.144 45.6915 41.984 45.6435 41.808C45.6115 41.616 45.5795 41.44 45.5475 41.28C45.5315 41.104 45.5235 40.976 45.5235 40.896V31.464C45.5235 31.336 45.5795 31.24 45.6915 31.176C45.8035 31.112 45.9315 31.08 46.0755 31.08C46.2355 31.08 46.3715 31.088 46.4835 31.104C46.6115 31.104 46.6835 31.104 46.6995 31.104V41.568C46.6995 41.792 46.7715 41.976 46.9155 42.12C47.0595 42.264 47.2275 42.376 47.4195 42.456C47.6115 42.536 47.8115 42.584 48.0195 42.6C48.2275 42.632 48.4035 42.624 48.5475 42.576C48.7235 42.848 48.7155 43.064 48.5235 43.224C48.3475 43.4 48.0835 43.496 47.7315 43.512C47.3955 43.528 47.0435 43.464 46.6755 43.32C46.3075 43.176 46.0355 42.928 45.8595 42.576ZM45.1875 28.056C45.1875 27.688 45.3315 27.456 45.6195 27.36C45.9235 27.248 46.2355 27.256 46.5555 27.384V28.416C46.5075 28.432 46.4355 28.448 46.3395 28.464C46.2435 28.464 46.1395 28.464 46.0275 28.464C45.9155 28.464 45.8115 28.464 45.7155 28.464C45.6195 28.448 45.5555 28.432 45.5235 28.416C45.4755 28.4 45.4035 28.352 45.3075 28.272C45.2275 28.176 45.1875 28.104 45.1875 28.056Z" />
        <path id="Vector_11" class="svg-text" d="M39.4573 43.272C39.1533 43.032 38.9213 42.704 38.7613 42.288C38.6173 41.872 38.5373 41.48 38.5213 41.112C38.5213 40.744 38.5693 40.456 38.6653 40.248C38.7773 40.04 38.9293 40.032 39.1213 40.224C39.0893 40.928 39.2173 41.464 39.5053 41.832C39.7933 42.184 40.1373 42.408 40.5373 42.504C40.9373 42.6 41.3693 42.576 41.8333 42.432C42.2973 42.288 42.6893 42.064 43.0093 41.76C43.3453 41.456 43.5773 41.088 43.7053 40.656C43.8333 40.208 43.7613 39.736 43.4893 39.24C43.1693 38.84 42.7933 38.464 42.3613 38.112C41.9453 37.76 41.5213 37.408 41.0893 37.056C40.6573 36.704 40.2413 36.344 39.8413 35.976C39.4413 35.608 39.0893 35.216 38.7853 34.8C38.7533 34.768 38.7373 34.72 38.7373 34.656C38.7373 34.576 38.7533 34.52 38.7853 34.488C38.8813 34.376 39.0093 34.2 39.1693 33.96C39.3293 33.704 39.5213 33.416 39.7453 33.096C39.9693 32.776 40.2013 32.448 40.4413 32.112C40.6973 31.776 40.9373 31.456 41.1613 31.152C41.3853 30.832 41.5773 30.552 41.7373 30.312C41.9133 30.056 42.0493 29.872 42.1453 29.76C42.3213 29.52 42.5053 29.384 42.6973 29.352C42.8893 29.32 43.1533 29.344 43.4893 29.424C43.4733 29.488 43.4253 29.608 43.3453 29.784C43.2653 29.944 43.2013 30.048 43.1533 30.096C43.0573 30.256 42.8653 30.528 42.5773 30.912C42.2893 31.296 41.9773 31.712 41.6413 32.16C41.3213 32.592 41.0173 33 40.7293 33.384C40.4573 33.752 40.2653 34.008 40.1533 34.152C40.0413 34.296 40.0733 34.472 40.2493 34.68C40.4413 34.888 40.6973 35.128 41.0173 35.4C41.3533 35.656 41.7373 35.944 42.1693 36.264C42.6013 36.568 43.0093 36.904 43.3933 37.272C43.7773 37.64 44.0973 38.032 44.3533 38.448C44.6253 38.864 44.7693 39.312 44.7853 39.792C44.8173 40.256 44.6813 40.752 44.3773 41.28C44.0893 41.792 43.5693 42.336 42.8173 42.912C42.5933 43.104 42.3373 43.264 42.0493 43.392C41.7773 43.52 41.4893 43.6 41.1853 43.632C40.8973 43.68 40.6013 43.68 40.2973 43.632C39.9933 43.584 39.7133 43.464 39.4573 43.272Z" />
        <path id="Vector_12" class="svg-text" d="M21.8211 43.272C21.2771 42.84 20.8451 42.336 20.5251 41.76C20.2211 41.184 19.9891 40.568 19.8291 39.912C19.7331 39.976 19.6051 40.048 19.4451 40.128C19.3011 40.192 19.1491 40.256 18.9891 40.32C18.8291 40.368 18.6691 40.4 18.5091 40.416C18.3491 40.432 18.2371 40.416 18.1731 40.368C18.1091 40.32 18.0851 40.24 18.1011 40.128C18.1331 40 18.2531 39.808 18.4611 39.552C18.4931 39.52 18.5731 39.44 18.7011 39.312C18.8451 39.168 18.9971 39.024 19.1571 38.88C19.3171 38.72 19.4611 38.576 19.5891 38.448C19.7171 38.32 19.7971 38.24 19.8291 38.208C19.9571 37.872 20.0371 37.512 20.0691 37.128C20.1011 36.728 20.1171 36.32 20.1171 35.904C20.1331 35.488 20.1571 35.072 20.1891 34.656C20.2371 34.24 20.3411 33.848 20.5011 33.48C20.5811 33.288 20.7411 33.04 20.9811 32.736C21.2371 32.416 21.5251 32.12 21.8451 31.848C22.1811 31.56 22.5091 31.304 22.8291 31.08C23.1491 30.84 23.4291 30.696 23.6691 30.648C23.9251 30.6 24.1091 30.664 24.2211 30.84C24.3331 31 24.3251 31.32 24.1971 31.8C24.0531 32.36 23.8371 32.912 23.5491 33.456C23.2611 34 22.9571 34.536 22.6371 35.064C22.3331 35.576 22.0451 36.096 21.7731 36.624C21.5011 37.136 21.3011 37.664 21.1731 38.208C21.1091 38.496 21.0771 38.84 21.0771 39.24C21.0771 39.64 21.1251 40.04 21.2211 40.44C21.3171 40.84 21.4611 41.208 21.6531 41.544C21.8611 41.88 22.1491 42.112 22.5171 42.24C22.9171 42.4 23.3251 42.44 23.7411 42.36C24.1731 42.28 24.5811 42.128 24.9651 41.904C25.3651 41.68 25.7411 41.408 26.0931 41.088C26.4611 40.752 26.8051 40.408 27.1251 40.056C27.4451 39.704 27.7251 39.368 27.9651 39.048C28.2051 38.712 28.4051 38.432 28.5651 38.208L28.9251 38.544C29.0051 38.608 28.9411 38.824 28.7331 39.192C28.5411 39.56 28.2531 39.976 27.8691 40.44C27.4851 40.904 27.0291 41.376 26.5011 41.856C25.9891 42.32 25.4611 42.712 24.9171 43.032C24.3731 43.368 23.8291 43.576 23.2851 43.656C22.7411 43.736 22.2531 43.608 21.8211 43.272ZM21.1731 34.8C21.1571 34.88 21.1491 35 21.1491 35.16C21.1491 35.32 21.1491 35.488 21.1491 35.664C21.1491 35.84 21.1491 36.008 21.1491 36.168C21.1491 36.328 21.1571 36.44 21.1731 36.504C21.5891 35.784 21.9731 35.024 22.3251 34.224C22.6931 33.424 22.9811 32.616 23.1891 31.8C22.8851 31.896 22.6131 32.056 22.3731 32.28C22.1331 32.488 21.9331 32.736 21.7731 33.024C21.6131 33.296 21.4771 33.592 21.3651 33.912C21.2691 34.216 21.2051 34.512 21.1731 34.8Z" />
        <path id="Vector_13" class="svg-text" d="M11.3839 43.608L10.7119 42.912C10.8239 41.536 10.8479 40.224 10.7839 38.976C10.7359 37.728 10.6319 36.48 10.4719 35.232C10.3119 33.984 10.1279 32.72 9.91987 31.44C9.71187 30.16 9.51987 28.808 9.34387 27.384C9.34387 27.352 9.34387 27.288 9.34387 27.192C9.34387 27.096 9.34387 27 9.34387 26.904C9.34387 26.792 9.34387 26.688 9.34387 26.592C9.34387 26.496 9.34387 26.432 9.34387 26.4H10.0399C10.0719 26.64 10.1279 27.008 10.2079 27.504C10.2879 27.984 10.3839 28.536 10.4959 29.16C10.6239 29.784 10.7439 30.44 10.8559 31.128C10.9839 31.816 11.1039 32.472 11.2159 33.096C11.3279 33.704 11.4239 34.256 11.5039 34.752C11.5999 35.248 11.6719 35.608 11.7199 35.832C11.7199 35.88 11.7359 35.952 11.7679 36.048C11.7999 36.144 11.8319 36.248 11.8639 36.36C11.8959 36.456 11.9279 36.552 11.9599 36.648C12.0079 36.744 12.0399 36.816 12.0559 36.864C12.0879 36.752 12.1599 36.568 12.2719 36.312C12.3999 36.056 12.5359 35.784 12.6799 35.496C12.8239 35.208 12.9599 34.944 13.0879 34.704C13.2319 34.448 13.3359 34.264 13.3999 34.152C13.6079 33.784 13.8719 33.44 14.1919 33.12C14.5119 32.8 14.8239 32.608 15.1279 32.544C15.4479 32.464 15.7279 32.536 15.9679 32.76C16.2239 32.984 16.3759 33.448 16.4239 34.152C16.4399 34.312 16.4559 34.568 16.4719 34.92C16.5039 35.272 16.5279 35.672 16.5439 36.12C16.5599 36.568 16.5839 37.04 16.6159 37.536C16.6479 38.016 16.6719 38.48 16.6879 38.928C16.7199 39.376 16.7439 39.776 16.7599 40.128C16.7759 40.464 16.7839 40.72 16.7839 40.896C16.9279 41.072 17.0319 41.28 17.0959 41.52C17.1759 41.76 17.1839 42 17.1199 42.24C16.8639 42.32 16.6399 42.312 16.4479 42.216C16.2559 42.12 16.0959 41.976 15.9679 41.784C15.8399 41.592 15.7279 41.384 15.6319 41.16C15.5519 40.92 15.4799 40.72 15.4159 40.56C15.4479 40.064 15.4639 39.528 15.4639 38.952C15.4799 38.376 15.4799 37.792 15.4639 37.2C15.4479 36.608 15.4079 36.024 15.3439 35.448C15.2959 34.856 15.2079 34.304 15.0799 33.792C14.8559 33.68 14.6399 33.728 14.4319 33.936C14.2399 34.144 14.0559 34.464 13.8799 34.896C13.7039 35.312 13.5359 35.808 13.3759 36.384C13.2159 36.944 13.0639 37.536 12.9199 38.16C12.7759 38.784 12.6319 39.408 12.4879 40.032C12.3599 40.656 12.2319 41.224 12.1039 41.736C11.9919 42.248 11.8719 42.664 11.7439 42.984C11.6319 43.32 11.5119 43.528 11.3839 43.608Z" />
        <path id="Vector_14" class="svg-text" d="M5.544 40.296C5.272 39.816 5.056 39.28 4.896 38.688C4.736 38.08 4.624 37.456 4.56 36.816C4.496 36.176 4.464 35.544 4.464 34.92C4.48 34.296 4.504 33.728 4.536 33.216C4.344 33.168 4.136 33.184 3.912 33.264C3.688 33.344 3.44 33.448 3.168 33.576C2.912 33.688 2.648 33.816 2.376 33.96C2.104 34.104 1.848 34.208 1.608 34.272C1.368 34.336 1.152 34.352 0.959998 34.32C0.767998 34.272 0.615998 34.128 0.503998 33.888C0.391998 33.68 0.399998 33.512 0.527998 33.384C0.671998 33.256 0.871998 33.16 1.128 33.096C1.4 33.016 1.712 32.96 2.064 32.928C2.416 32.88 2.744 32.832 3.048 32.784C3.368 32.736 3.632 32.672 3.84 32.592C4.064 32.496 4.184 32.368 4.2 32.208L4.872 24.816C4.888 24.688 4.952 24.592 5.064 24.528C5.176 24.464 5.288 24.432 5.4 24.432C5.528 24.432 5.64 24.464 5.736 24.528C5.848 24.576 5.904 24.672 5.904 24.816V31.2C6.08 31.248 6.248 31.248 6.408 31.2C6.584 31.136 6.752 31.072 6.912 31.008C7.088 30.944 7.256 30.896 7.416 30.864C7.592 30.832 7.76 30.832 7.92 30.864C8.016 31.008 8.008 31.144 7.896 31.272C7.784 31.4 7.68 31.488 7.584 31.536L7.248 31.752C7.088 31.848 6.92 31.952 6.744 32.064C6.568 32.176 6.392 32.28 6.216 32.376C6.056 32.456 5.952 32.512 5.904 32.544C5.888 32.72 5.872 33.032 5.856 33.48C5.856 33.928 5.856 34.408 5.856 34.92C5.856 35.416 5.856 35.888 5.856 36.336C5.872 36.784 5.888 37.104 5.904 37.296C5.936 37.904 6.04 38.464 6.216 38.976C6.408 39.472 6.664 39.864 6.984 40.152C7.304 40.44 7.68 40.584 8.112 40.584C8.544 40.584 9.048 40.376 9.624 39.96C9.72 40.248 9.712 40.512 9.6 40.752C9.488 40.992 9.32 41.184 9.096 41.328C8.872 41.456 8.592 41.544 8.256 41.592C7.936 41.624 7.608 41.6 7.272 41.52C6.952 41.44 6.632 41.304 6.312 41.112C6.008 40.904 5.752 40.632 5.544 40.296Z" />
        <path id="Vector_15" class="svg-text" d="M228.962 19.272C228.418 18.84 227.986 18.336 227.666 17.76C227.362 17.184 227.13 16.568 226.97 15.912C226.874 15.976 226.746 16.048 226.586 16.128C226.442 16.192 226.29 16.256 226.13 16.32C225.97 16.368 225.81 16.4 225.65 16.416C225.49 16.432 225.378 16.416 225.314 16.368C225.25 16.32 225.226 16.24 225.242 16.128C225.274 16 225.394 15.808 225.602 15.552C225.634 15.52 225.714 15.44 225.842 15.312C225.986 15.168 226.138 15.024 226.298 14.88C226.458 14.72 226.602 14.576 226.73 14.448C226.858 14.32 226.938 14.24 226.97 14.208C227.098 13.872 227.178 13.512 227.21 13.128C227.242 12.728 227.258 12.32 227.258 11.904C227.274 11.488 227.298 11.072 227.33 10.656C227.378 10.24 227.482 9.848 227.642 9.48C227.722 9.288 227.882 9.04 228.122 8.736C228.378 8.416 228.666 8.12 228.986 7.848C229.322 7.56 229.65 7.304 229.97 7.08C230.29 6.84 230.57 6.696 230.81 6.648C231.066 6.6 231.25 6.664 231.362 6.84C231.474 7 231.466 7.32 231.338 7.8C231.194 8.36 230.978 8.912 230.69 9.456C230.402 10 230.098 10.536 229.778 11.064C229.474 11.576 229.186 12.096 228.914 12.624C228.642 13.136 228.442 13.664 228.314 14.208C228.25 14.496 228.218 14.84 228.218 15.24C228.218 15.64 228.266 16.04 228.362 16.44C228.458 16.84 228.602 17.208 228.794 17.544C229.002 17.88 229.29 18.112 229.658 18.24C230.058 18.4 230.466 18.44 230.882 18.36C231.314 18.28 231.722 18.128 232.106 17.904C232.506 17.68 232.882 17.408 233.234 17.088C233.602 16.752 233.946 16.408 234.266 16.056C234.586 15.704 234.866 15.368 235.106 15.048C235.346 14.712 235.546 14.432 235.706 14.208L236.066 14.544C236.146 14.608 236.082 14.824 235.874 15.192C235.682 15.56 235.394 15.976 235.01 16.44C234.626 16.904 234.17 17.376 233.642 17.856C233.13 18.32 232.602 18.712 232.058 19.032C231.514 19.368 230.97 19.576 230.426 19.656C229.882 19.736 229.394 19.608 228.962 19.272ZM228.314 10.8C228.298 10.88 228.29 11 228.29 11.16C228.29 11.32 228.29 11.488 228.29 11.664C228.29 11.84 228.29 12.008 228.29 12.168C228.29 12.328 228.298 12.44 228.314 12.504C228.73 11.784 229.114 11.024 229.466 10.224C229.834 9.424 230.122 8.616 230.33 7.8C230.026 7.896 229.754 8.056 229.514 8.28C229.274 8.488 229.074 8.736 228.914 9.024C228.754 9.296 228.618 9.592 228.506 9.912C228.41 10.216 228.346 10.512 228.314 10.8Z" />
        <path id="Vector_16" class="svg-text" d="M218.766 19.272C218.222 18.84 217.79 18.336 217.47 17.76C217.166 17.184 216.934 16.568 216.774 15.912C216.678 15.976 216.55 16.048 216.39 16.128C216.246 16.192 216.094 16.256 215.934 16.32C215.774 16.368 215.614 16.4 215.454 16.416C215.294 16.432 215.182 16.416 215.118 16.368C215.054 16.32 215.03 16.24 215.046 16.128C215.078 16 215.198 15.808 215.406 15.552C215.438 15.52 215.518 15.44 215.646 15.312C215.79 15.168 215.942 15.024 216.102 14.88C216.262 14.72 216.406 14.576 216.534 14.448C216.662 14.32 216.742 14.24 216.774 14.208C216.902 13.872 216.982 13.512 217.014 13.128C217.046 12.728 217.062 12.32 217.062 11.904C217.078 11.488 217.102 11.072 217.134 10.656C217.182 10.24 217.286 9.848 217.446 9.48C217.526 9.288 217.686 9.04 217.926 8.736C218.182 8.416 218.47 8.12 218.79 7.848C219.126 7.56 219.454 7.304 219.774 7.08C220.094 6.84 220.374 6.696 220.614 6.648C220.87 6.6 221.054 6.664 221.166 6.84C221.278 7 221.27 7.32 221.142 7.8C220.998 8.36 220.782 8.912 220.494 9.456C220.206 10 219.902 10.536 219.582 11.064C219.278 11.576 218.99 12.096 218.718 12.624C218.446 13.136 218.246 13.664 218.118 14.208C218.054 14.496 218.022 14.84 218.022 15.24C218.022 15.64 218.07 16.04 218.166 16.44C218.262 16.84 218.406 17.208 218.598 17.544C218.806 17.88 219.094 18.112 219.462 18.24C219.862 18.4 220.27 18.44 220.686 18.36C221.118 18.28 221.526 18.128 221.91 17.904C222.31 17.68 222.686 17.408 223.038 17.088C223.406 16.752 223.75 16.408 224.07 16.056C224.39 15.704 224.67 15.368 224.91 15.048C225.15 14.712 225.35 14.432 225.51 14.208L225.87 14.544C225.95 14.608 225.886 14.824 225.678 15.192C225.486 15.56 225.198 15.976 224.814 16.44C224.43 16.904 223.974 17.376 223.446 17.856C222.934 18.32 222.406 18.712 221.862 19.032C221.318 19.368 220.774 19.576 220.23 19.656C219.686 19.736 219.198 19.608 218.766 19.272ZM218.118 10.8C218.102 10.88 218.094 11 218.094 11.16C218.094 11.32 218.094 11.488 218.094 11.664C218.094 11.84 218.094 12.008 218.094 12.168C218.094 12.328 218.102 12.44 218.118 12.504C218.534 11.784 218.918 11.024 219.27 10.224C219.638 9.424 219.926 8.616 220.134 7.8C219.83 7.896 219.558 8.056 219.318 8.28C219.078 8.488 218.878 8.736 218.718 9.024C218.558 9.296 218.422 9.592 218.31 9.912C218.214 10.216 218.15 10.512 218.118 10.8Z" />
        <path id="Vector_17" class="svg-text" d="M209.004 19.272C208.7 19.032 208.468 18.704 208.308 18.288C208.164 17.872 208.084 17.48 208.068 17.112C208.068 16.744 208.116 16.456 208.212 16.248C208.324 16.04 208.476 16.032 208.668 16.224C208.636 16.928 208.764 17.464 209.052 17.832C209.34 18.184 209.684 18.408 210.084 18.504C210.484 18.6 210.916 18.576 211.38 18.432C211.844 18.288 212.236 18.064 212.556 17.76C212.892 17.456 213.124 17.088 213.252 16.656C213.38 16.208 213.308 15.736 213.036 15.24C212.716 14.84 212.34 14.464 211.908 14.112C211.492 13.76 211.068 13.408 210.636 13.056C210.204 12.704 209.788 12.344 209.388 11.976C208.988 11.608 208.636 11.216 208.332 10.8C208.3 10.768 208.284 10.72 208.284 10.656C208.284 10.576 208.3 10.52 208.332 10.488C208.428 10.376 208.556 10.2 208.716 9.96C208.876 9.704 209.068 9.416 209.292 9.096C209.516 8.776 209.748 8.448 209.988 8.112C210.244 7.776 210.484 7.456 210.708 7.152C210.932 6.832 211.124 6.552 211.284 6.312C211.46 6.056 211.596 5.872 211.692 5.76C211.868 5.52 212.052 5.384 212.244 5.352C212.436 5.32 212.7 5.344 213.036 5.424C213.02 5.488 212.972 5.608 212.892 5.784C212.812 5.944 212.748 6.048 212.7 6.096C212.604 6.256 212.412 6.528 212.124 6.912C211.836 7.296 211.524 7.712 211.188 8.16C210.868 8.592 210.564 9 210.276 9.384C210.004 9.752 209.812 10.008 209.7 10.152C209.588 10.296 209.62 10.472 209.796 10.68C209.988 10.888 210.244 11.128 210.564 11.4C210.9 11.656 211.284 11.944 211.716 12.264C212.148 12.568 212.556 12.904 212.94 13.272C213.324 13.64 213.644 14.032 213.9 14.448C214.172 14.864 214.316 15.312 214.332 15.792C214.364 16.256 214.228 16.752 213.924 17.28C213.636 17.792 213.116 18.336 212.364 18.912C212.14 19.104 211.884 19.264 211.596 19.392C211.324 19.52 211.036 19.6 210.732 19.632C210.444 19.68 210.148 19.68 209.844 19.632C209.54 19.584 209.26 19.464 209.004 19.272Z" />
        <path id="Vector_18" class="svg-text" d="M192.796 18.576C192.46 18.112 192.26 17.584 192.196 16.992C192.132 16.4 192.132 15.784 192.196 15.144C192.26 14.488 192.364 13.832 192.508 13.176C192.652 12.504 192.78 11.864 192.892 11.256C193.004 10.632 193.06 10.056 193.06 9.528C193.076 8.984 192.988 8.52 192.796 8.136C192.7 7.928 192.556 7.832 192.364 7.848C192.188 7.848 191.996 7.872 191.788 7.92C191.596 7.952 191.404 7.968 191.212 7.968C191.02 7.952 190.844 7.824 190.684 7.584C190.7 7.536 190.748 7.472 190.828 7.392C190.908 7.312 190.964 7.264 190.996 7.248C192.164 7.072 193.14 7.192 193.924 7.608C194.708 8.008 195.332 8.584 195.796 9.336C196.276 10.072 196.596 10.92 196.756 11.88C196.932 12.84 196.996 13.792 196.948 14.736C196.9 15.68 196.748 16.56 196.492 17.376C196.252 18.176 195.94 18.792 195.556 19.224C195.188 19.672 194.764 19.872 194.284 19.824C193.804 19.776 193.308 19.36 192.796 18.576ZM193.804 17.904C193.82 17.936 193.86 17.984 193.924 18.048C193.988 18.112 194.052 18.184 194.116 18.264C194.18 18.344 194.244 18.408 194.308 18.456C194.372 18.52 194.42 18.56 194.452 18.576C194.948 18.304 195.308 17.936 195.532 17.472C195.772 17.008 195.908 16.496 195.94 15.936C195.988 15.36 195.964 14.76 195.868 14.136C195.772 13.496 195.636 12.888 195.46 12.312C195.284 11.72 195.068 11.184 194.812 10.704C194.572 10.208 194.348 9.8 194.14 9.48C194.124 9.656 194.092 9.92 194.044 10.272C194.012 10.608 193.972 11 193.924 11.448C193.892 11.896 193.852 12.368 193.804 12.864C193.756 13.344 193.708 13.808 193.66 14.256C193.612 14.704 193.564 15.104 193.516 15.456C193.484 15.808 193.46 16.064 193.444 16.224C193.444 16.352 193.452 16.504 193.468 16.68C193.484 16.84 193.508 17 193.54 17.16C193.588 17.304 193.636 17.448 193.684 17.592C193.732 17.72 193.772 17.824 193.804 17.904Z" />
        <path id="Vector_19" class="svg-text" d="M187.7 16.296C187.428 15.816 187.212 15.28 187.052 14.688C186.892 14.08 186.78 13.456 186.716 12.816C186.652 12.176 186.62 11.544 186.62 10.92C186.636 10.296 186.66 9.728 186.692 9.216C186.5 9.168 186.292 9.184 186.068 9.264C185.844 9.344 185.596 9.448 185.324 9.576C185.068 9.688 184.804 9.816 184.532 9.96C184.26 10.104 184.004 10.208 183.764 10.272C183.524 10.336 183.308 10.352 183.116 10.32C182.924 10.272 182.772 10.128 182.66 9.888C182.548 9.68 182.556 9.512 182.684 9.384C182.828 9.256 183.028 9.16 183.284 9.096C183.556 9.016 183.868 8.96 184.22 8.928C184.572 8.88 184.9 8.832 185.204 8.784C185.524 8.736 185.788 8.672 185.996 8.592C186.22 8.496 186.34 8.368 186.356 8.208L187.028 0.816C187.044 0.688 187.108 0.592 187.22 0.527999C187.332 0.463999 187.444 0.431999 187.556 0.431999C187.684 0.431999 187.796 0.463999 187.892 0.527999C188.004 0.576 188.06 0.672 188.06 0.816V7.2C188.236 7.248 188.404 7.248 188.564 7.2C188.74 7.136 188.908 7.072 189.068 7.008C189.244 6.944 189.412 6.896 189.572 6.864C189.748 6.832 189.916 6.832 190.076 6.864C190.172 7.008 190.164 7.144 190.052 7.272C189.94 7.4 189.836 7.488 189.74 7.536L189.404 7.752C189.244 7.848 189.076 7.952 188.9 8.064C188.724 8.176 188.548 8.28 188.372 8.376C188.212 8.456 188.108 8.512 188.06 8.544C188.044 8.72 188.028 9.032 188.012 9.48C188.012 9.928 188.012 10.408 188.012 10.92C188.012 11.416 188.012 11.888 188.012 12.336C188.028 12.784 188.044 13.104 188.06 13.296C188.092 13.904 188.196 14.464 188.372 14.976C188.564 15.472 188.82 15.864 189.14 16.152C189.46 16.44 189.836 16.584 190.268 16.584C190.7 16.584 191.204 16.376 191.78 15.96C191.876 16.248 191.868 16.512 191.756 16.752C191.644 16.992 191.476 17.184 191.252 17.328C191.028 17.456 190.748 17.544 190.412 17.592C190.092 17.624 189.764 17.6 189.428 17.52C189.108 17.44 188.788 17.304 188.468 17.112C188.164 16.904 187.908 16.632 187.7 16.296Z" />
        <path id="Vector_20" class="svg-text" d="M163.72 19.272C163.736 19.096 163.744 18.8 163.744 18.384V15.744C163.744 15.328 163.736 15.032 163.72 14.856C163.704 14.792 163.68 14.632 163.648 14.376C163.616 14.12 163.576 13.816 163.528 13.464C163.48 13.096 163.432 12.72 163.384 12.336C163.336 11.952 163.28 11.592 163.216 11.256C163.168 10.904 163.128 10.6 163.096 10.344C163.064 10.072 163.04 9.888 163.024 9.792C163.008 9.616 163 9.432 163 9.24C163.016 9.048 163.056 8.88 163.12 8.736C163.184 8.592 163.28 8.496 163.408 8.448C163.552 8.384 163.76 8.392 164.032 8.472C164.048 8.744 164.072 9.064 164.104 9.432C164.152 9.8 164.2 10.184 164.248 10.584C164.296 10.984 164.36 11.384 164.44 11.784C164.52 12.168 164.616 12.528 164.728 12.864C164.888 12.368 165.048 11.936 165.208 11.568C165.384 11.2 165.576 10.864 165.784 10.56C165.992 10.256 166.224 9.96 166.48 9.672C166.736 9.384 167.048 9.096 167.416 8.808C167.864 8.424 168.24 8.272 168.544 8.352C168.848 8.416 169.096 8.64 169.288 9.024C169.496 9.392 169.664 9.872 169.792 10.464C169.936 11.04 170.056 11.656 170.152 12.312C170.248 12.968 170.352 13.608 170.464 14.232C170.576 14.856 170.712 15.4 170.872 15.864C171.048 16.328 171.264 16.664 171.52 16.872C171.776 17.08 172.096 17.088 172.48 16.896C172.592 17.248 172.608 17.504 172.528 17.664C172.448 17.824 172.304 17.912 172.096 17.928C171.888 17.944 171.648 17.896 171.376 17.784C171.12 17.656 170.856 17.488 170.584 17.28C170.328 17.072 170.096 16.816 169.888 16.512C169.68 16.208 169.528 15.888 169.432 15.552C169.4 15.328 169.36 14.952 169.312 14.424C169.264 13.88 169.2 13.304 169.12 12.696C169.056 12.088 168.936 11.488 168.76 10.896C168.6 10.304 168.376 9.832 168.088 9.48L166.72 10.8C166.688 10.864 166.592 11.104 166.432 11.52C166.288 11.92 166.128 12.392 165.952 12.936C165.776 13.48 165.6 14.032 165.424 14.592C165.248 15.136 165.128 15.576 165.064 15.912C165.032 16.024 164.992 16.24 164.944 16.56C164.912 16.864 164.872 17.2 164.824 17.568C164.792 17.936 164.768 18.28 164.752 18.6C164.736 18.92 164.728 19.144 164.728 19.272C164.616 19.512 164.448 19.632 164.224 19.632C164 19.632 163.832 19.512 163.72 19.272Z" />
        <path id="Vector_21" class="svg-text" d="M157.616 18.576C157.28 18.112 157.08 17.584 157.016 16.992C156.952 16.4 156.952 15.784 157.016 15.144C157.08 14.488 157.184 13.832 157.328 13.176C157.472 12.504 157.6 11.864 157.712 11.256C157.824 10.632 157.88 10.056 157.88 9.528C157.896 8.984 157.808 8.52 157.616 8.136C157.52 7.928 157.376 7.832 157.184 7.848C157.008 7.848 156.816 7.872 156.608 7.92C156.416 7.952 156.224 7.968 156.032 7.968C155.84 7.952 155.664 7.824 155.504 7.584C155.52 7.536 155.568 7.472 155.648 7.392C155.728 7.312 155.784 7.264 155.816 7.248C156.984 7.072 157.96 7.192 158.744 7.608C159.528 8.008 160.152 8.584 160.616 9.336C161.096 10.072 161.416 10.92 161.576 11.88C161.752 12.84 161.816 13.792 161.768 14.736C161.72 15.68 161.568 16.56 161.312 17.376C161.072 18.176 160.76 18.792 160.376 19.224C160.008 19.672 159.584 19.872 159.104 19.824C158.624 19.776 158.128 19.36 157.616 18.576ZM158.624 17.904C158.64 17.936 158.68 17.984 158.744 18.048C158.808 18.112 158.872 18.184 158.936 18.264C159 18.344 159.064 18.408 159.128 18.456C159.192 18.52 159.24 18.56 159.272 18.576C159.768 18.304 160.128 17.936 160.352 17.472C160.592 17.008 160.728 16.496 160.76 15.936C160.808 15.36 160.784 14.76 160.688 14.136C160.592 13.496 160.456 12.888 160.28 12.312C160.104 11.72 159.888 11.184 159.632 10.704C159.392 10.208 159.168 9.8 158.96 9.48C158.944 9.656 158.912 9.92 158.864 10.272C158.832 10.608 158.792 11 158.744 11.448C158.712 11.896 158.672 12.368 158.624 12.864C158.576 13.344 158.528 13.808 158.48 14.256C158.432 14.704 158.384 15.104 158.336 15.456C158.304 15.808 158.28 16.064 158.264 16.224C158.264 16.352 158.272 16.504 158.288 16.68C158.304 16.84 158.328 17 158.36 17.16C158.408 17.304 158.456 17.448 158.504 17.592C158.552 17.72 158.592 17.824 158.624 17.904Z" />
        <path id="Vector_22" class="svg-text" d="M147.227 18.912C146.763 18.544 146.419 18.104 146.195 17.592C145.987 17.08 145.875 16.528 145.859 15.936C145.843 15.344 145.907 14.728 146.051 14.088C146.195 13.448 146.387 12.832 146.627 12.24C146.867 11.648 147.139 11.096 147.443 10.584C147.763 10.056 148.075 9.616 148.379 9.264C148.699 8.912 148.995 8.664 149.267 8.52C149.539 8.36 149.755 8.344 149.915 8.472C149.947 8.616 149.995 8.88 150.059 9.264C150.139 9.648 150.211 10.064 150.275 10.512C150.355 10.944 150.419 11.352 150.467 11.736C150.531 12.104 150.579 12.36 150.611 12.504C150.627 12.664 150.627 12.84 150.611 13.032C150.611 13.224 150.579 13.4 150.515 13.56C150.451 13.704 150.339 13.816 150.179 13.896C150.035 13.96 149.835 13.952 149.579 13.872C149.563 13.776 149.523 13.624 149.459 13.416C149.411 13.192 149.347 12.952 149.267 12.696C149.203 12.44 149.131 12.2 149.051 11.976C148.987 11.736 148.947 11.576 148.931 11.496L148.595 11.16C148.195 11.432 147.859 11.824 147.587 12.336C147.315 12.848 147.123 13.4 147.011 13.992C146.899 14.568 146.867 15.152 146.915 15.744C146.979 16.32 147.131 16.832 147.371 17.28C147.627 17.728 147.971 18.064 148.403 18.288C148.835 18.528 149.379 18.568 150.035 18.408C150.691 18.248 151.459 17.872 152.339 17.28C153.219 16.672 154.227 15.76 155.363 14.544V15.24C155.363 15.272 155.283 15.384 155.123 15.576C154.963 15.768 154.771 15.992 154.547 16.248C154.323 16.488 154.099 16.736 153.875 16.992C153.651 17.232 153.459 17.424 153.299 17.568C152.867 17.968 152.411 18.336 151.931 18.672C151.451 19.024 150.947 19.28 150.419 19.44C149.907 19.6 149.379 19.648 148.835 19.584C148.307 19.536 147.771 19.312 147.227 18.912Z" />
        <path id="Vector_23" class="svg-text" d="M142.328 18.576C142.312 18.544 142.28 18.448 142.232 18.288C142.2 18.144 142.16 17.984 142.112 17.808C142.08 17.616 142.048 17.44 142.016 17.28C142 17.104 141.992 16.976 141.992 16.896V7.464C141.992 7.336 142.048 7.24 142.16 7.176C142.272 7.112 142.4 7.08 142.544 7.08C142.704 7.08 142.84 7.088 142.952 7.104C143.08 7.104 143.152 7.104 143.168 7.104V17.568C143.168 17.792 143.24 17.976 143.384 18.12C143.528 18.264 143.696 18.376 143.888 18.456C144.08 18.536 144.28 18.584 144.488 18.6C144.696 18.632 144.872 18.624 145.016 18.576C145.192 18.848 145.184 19.064 144.992 19.224C144.816 19.4 144.552 19.496 144.2 19.512C143.864 19.528 143.512 19.464 143.144 19.32C142.776 19.176 142.504 18.928 142.328 18.576ZM141.656 4.056C141.656 3.688 141.8 3.456 142.088 3.36C142.392 3.248 142.704 3.256 143.024 3.384V4.416C142.976 4.432 142.904 4.448 142.808 4.464C142.712 4.464 142.608 4.464 142.496 4.464C142.384 4.464 142.28 4.464 142.184 4.464C142.088 4.448 142.024 4.432 141.992 4.416C141.944 4.4 141.872 4.352 141.776 4.272C141.696 4.176 141.656 4.104 141.656 4.056Z" />
        <path id="Vector_24" class="svg-text" d="M123.961 18.576C123.945 18.544 123.913 18.456 123.865 18.312C123.833 18.184 123.801 18.048 123.769 17.904C123.737 17.76 123.705 17.624 123.673 17.496C123.641 17.368 123.625 17.28 123.625 17.232V9.792C123.625 9.68 123.673 9.6 123.769 9.552C123.865 9.488 123.969 9.456 124.081 9.456C124.193 9.44 124.305 9.44 124.417 9.456C124.529 9.456 124.601 9.464 124.633 9.48C124.617 9.656 124.609 9.92 124.609 10.272C124.609 10.608 124.601 11 124.585 11.448C124.585 11.896 124.585 12.368 124.585 12.864C124.601 13.344 124.609 13.808 124.609 14.256V15.456C124.609 15.808 124.617 16.064 124.633 16.224C124.665 16.96 124.769 17.472 124.945 17.76C125.121 18.032 125.329 18.16 125.569 18.144C125.825 18.128 126.089 17.992 126.361 17.736C126.649 17.464 126.913 17.144 127.153 16.776C127.393 16.392 127.593 16.008 127.753 15.624C127.929 15.224 128.017 14.864 128.017 14.544V9.48H129.361C129.345 9.784 129.313 10.176 129.265 10.656C129.233 11.136 129.209 11.656 129.193 12.216C129.193 12.776 129.201 13.344 129.217 13.92C129.249 14.496 129.313 15.04 129.409 15.552C129.505 16.064 129.641 16.512 129.817 16.896C130.009 17.264 130.249 17.528 130.537 17.688C130.841 17.848 131.193 17.88 131.593 17.784C132.009 17.672 132.505 17.376 133.081 16.896C133.193 17.232 133.145 17.56 132.937 17.88C132.729 18.184 132.457 18.448 132.121 18.672C131.785 18.912 131.417 19.088 131.017 19.2C130.633 19.312 130.305 19.336 130.033 19.272C130.001 19.256 129.945 19.2 129.865 19.104C129.785 19.024 129.729 18.96 129.697 18.912C129.649 18.816 129.561 18.64 129.433 18.384C129.305 18.144 129.169 17.88 129.025 17.592C128.881 17.304 128.745 17.032 128.617 16.776C128.505 16.52 128.417 16.336 128.353 16.224C128.289 16.368 128.161 16.592 127.969 16.896C127.793 17.184 127.577 17.496 127.321 17.832C127.065 18.168 126.793 18.48 126.505 18.768C126.217 19.056 125.921 19.256 125.617 19.368C125.329 19.496 125.041 19.512 124.753 19.416C124.465 19.32 124.201 19.04 123.961 18.576Z" />
        <path id="Vector_25" class="svg-text" d="M114.477 19.272C114.493 19.096 114.501 18.8 114.501 18.384V15.744C114.501 15.328 114.493 15.032 114.477 14.856C114.461 14.792 114.437 14.632 114.405 14.376C114.373 14.12 114.333 13.816 114.285 13.464C114.237 13.096 114.189 12.72 114.141 12.336C114.093 11.952 114.037 11.592 113.973 11.256C113.925 10.904 113.885 10.6 113.853 10.344C113.821 10.072 113.797 9.888 113.781 9.792C113.765 9.616 113.757 9.432 113.757 9.24C113.773 9.048 113.813 8.88 113.877 8.736C113.941 8.592 114.037 8.496 114.165 8.448C114.309 8.384 114.517 8.392 114.789 8.472C114.805 8.744 114.829 9.064 114.861 9.432C114.909 9.8 114.957 10.184 115.005 10.584C115.053 10.984 115.117 11.384 115.197 11.784C115.277 12.168 115.373 12.528 115.485 12.864C115.645 12.368 115.805 11.936 115.965 11.568C116.141 11.2 116.333 10.864 116.541 10.56C116.749 10.256 116.981 9.96 117.237 9.672C117.493 9.384 117.805 9.096 118.173 8.808C118.621 8.424 118.997 8.272 119.301 8.352C119.605 8.416 119.853 8.64 120.045 9.024C120.253 9.392 120.421 9.872 120.549 10.464C120.693 11.04 120.813 11.656 120.909 12.312C121.005 12.968 121.109 13.608 121.221 14.232C121.333 14.856 121.469 15.4 121.629 15.864C121.805 16.328 122.021 16.664 122.277 16.872C122.533 17.08 122.853 17.088 123.237 16.896C123.349 17.248 123.365 17.504 123.285 17.664C123.205 17.824 123.061 17.912 122.853 17.928C122.645 17.944 122.405 17.896 122.133 17.784C121.877 17.656 121.613 17.488 121.341 17.28C121.085 17.072 120.853 16.816 120.645 16.512C120.437 16.208 120.285 15.888 120.189 15.552C120.157 15.328 120.117 14.952 120.069 14.424C120.021 13.88 119.957 13.304 119.877 12.696C119.813 12.088 119.693 11.488 119.517 10.896C119.357 10.304 119.133 9.832 118.845 9.48L117.477 10.8C117.445 10.864 117.349 11.104 117.189 11.52C117.045 11.92 116.885 12.392 116.709 12.936C116.533 13.48 116.357 14.032 116.181 14.592C116.005 15.136 115.885 15.576 115.821 15.912C115.789 16.024 115.749 16.24 115.701 16.56C115.669 16.864 115.629 17.2 115.581 17.568C115.549 17.936 115.525 18.28 115.509 18.6C115.493 18.92 115.485 19.144 115.485 19.272C115.373 19.512 115.205 19.632 114.981 19.632C114.757 19.632 114.589 19.512 114.477 19.272Z" />
        <path id="Vector_26" class="svg-text" d="M106.946 19.272C106.402 18.84 105.97 18.336 105.65 17.76C105.346 17.184 105.114 16.568 104.954 15.912C104.858 15.976 104.73 16.048 104.57 16.128C104.426 16.192 104.274 16.256 104.114 16.32C103.954 16.368 103.794 16.4 103.634 16.416C103.474 16.432 103.362 16.416 103.298 16.368C103.234 16.32 103.21 16.24 103.226 16.128C103.258 16 103.378 15.808 103.586 15.552C103.618 15.52 103.698 15.44 103.826 15.312C103.97 15.168 104.122 15.024 104.282 14.88C104.442 14.72 104.586 14.576 104.714 14.448C104.842 14.32 104.922 14.24 104.954 14.208C105.082 13.872 105.162 13.512 105.194 13.128C105.226 12.728 105.242 12.32 105.242 11.904C105.258 11.488 105.282 11.072 105.314 10.656C105.362 10.24 105.466 9.848 105.626 9.48C105.706 9.288 105.866 9.04 106.106 8.736C106.362 8.416 106.65 8.12 106.97 7.848C107.306 7.56 107.634 7.304 107.954 7.08C108.274 6.84 108.554 6.696 108.794 6.648C109.05 6.6 109.234 6.664 109.346 6.84C109.458 7 109.45 7.32 109.322 7.8C109.178 8.36 108.962 8.912 108.674 9.456C108.386 10 108.082 10.536 107.762 11.064C107.458 11.576 107.17 12.096 106.898 12.624C106.626 13.136 106.426 13.664 106.298 14.208C106.234 14.496 106.202 14.84 106.202 15.24C106.202 15.64 106.25 16.04 106.346 16.44C106.442 16.84 106.586 17.208 106.778 17.544C106.986 17.88 107.274 18.112 107.642 18.24C108.042 18.4 108.45 18.44 108.866 18.36C109.298 18.28 109.706 18.128 110.09 17.904C110.49 17.68 110.866 17.408 111.218 17.088C111.586 16.752 111.93 16.408 112.25 16.056C112.57 15.704 112.85 15.368 113.09 15.048C113.33 14.712 113.53 14.432 113.69 14.208L114.05 14.544C114.13 14.608 114.066 14.824 113.858 15.192C113.666 15.56 113.378 15.976 112.994 16.44C112.61 16.904 112.154 17.376 111.626 17.856C111.114 18.32 110.586 18.712 110.042 19.032C109.498 19.368 108.954 19.576 108.41 19.656C107.866 19.736 107.378 19.608 106.946 19.272ZM106.298 10.8C106.282 10.88 106.274 11 106.274 11.16C106.274 11.32 106.274 11.488 106.274 11.664C106.274 11.84 106.274 12.008 106.274 12.168C106.274 12.328 106.282 12.44 106.298 12.504C106.714 11.784 107.098 11.024 107.45 10.224C107.818 9.424 108.106 8.616 108.314 7.8C108.01 7.896 107.738 8.056 107.498 8.28C107.258 8.488 107.058 8.736 106.898 9.024C106.738 9.296 106.602 9.592 106.49 9.912C106.394 10.216 106.33 10.512 106.298 10.8Z" />
        <path id="Vector_27" class="svg-text" d="M94.6697 19.272C94.7017 18.76 94.7177 18.216 94.7177 17.64C94.7337 17.064 94.7257 16.488 94.6937 15.912C94.6617 15.32 94.6137 14.736 94.5497 14.16C94.5017 13.584 94.4297 13.032 94.3337 12.504C94.1417 11.56 93.9017 10.84 93.6137 10.344C93.3417 9.848 93.0537 9.584 92.7497 9.552C92.4457 9.504 92.1577 9.696 91.8857 10.128C91.6297 10.56 91.4297 11.24 91.2857 12.168C91.2537 12.312 91.2217 12.536 91.1897 12.84C91.1577 13.144 91.1177 13.488 91.0697 13.872C91.0217 14.24 90.9737 14.632 90.9257 15.048C90.8777 15.464 90.8297 15.864 90.7817 16.248C90.7337 16.616 90.7017 16.952 90.6857 17.256C90.6697 17.544 90.6537 17.76 90.6377 17.904C90.5417 18.112 90.3897 18.232 90.1817 18.264C89.9737 18.312 89.7817 18.304 89.6057 18.24L88.9337 8.136C88.9177 7.96 88.9577 7.816 89.0537 7.704C89.1497 7.576 89.2537 7.488 89.3657 7.44C89.4777 7.392 89.5897 7.392 89.7017 7.44C89.8137 7.488 89.8937 7.608 89.9417 7.8L90.6377 10.8C91.0377 9.84 91.4057 9.16 91.7417 8.76C92.0777 8.344 92.3977 8.128 92.7017 8.112C93.0057 8.096 93.2857 8.24 93.5417 8.544C93.8137 8.848 94.0697 9.208 94.3097 9.624C94.5657 10.04 94.7977 10.488 95.0057 10.968C95.2297 11.432 95.4537 11.832 95.6777 12.168C96.2217 10.344 96.8297 9.032 97.5017 8.232C98.1737 7.416 98.8217 7.08 99.4457 7.224C100.086 7.368 100.646 7.976 101.126 9.048C101.606 10.104 101.926 11.6 102.086 13.536C102.118 13.84 102.134 14.232 102.134 14.712C102.15 15.192 102.158 15.664 102.158 16.128C102.158 16.592 102.15 17 102.134 17.352C102.134 17.704 102.118 17.888 102.086 17.904L101.726 18.24L101.078 17.568C101.142 16.912 101.158 16.216 101.126 15.48C101.094 14.744 101.022 14.008 100.91 13.272C100.814 12.52 100.686 11.8 100.526 11.112C100.366 10.408 100.206 9.752 100.046 9.144C99.8697 8.632 99.6537 8.336 99.3977 8.256C99.1417 8.16 98.8777 8.2 98.6057 8.376C98.3497 8.536 98.1097 8.792 97.8857 9.144C97.6617 9.496 97.4937 9.832 97.3817 10.152C97.3017 10.344 97.2057 10.6 97.0937 10.92C96.9817 11.24 96.8697 11.568 96.7577 11.904C96.6617 12.224 96.5737 12.512 96.4937 12.768C96.4137 13.008 96.3657 13.144 96.3497 13.176C96.3177 13.416 96.2617 13.824 96.1817 14.4C96.1177 14.96 96.0457 15.568 95.9657 16.224C95.9017 16.864 95.8377 17.472 95.7737 18.048C95.7257 18.624 95.6937 19.032 95.6777 19.272C95.6777 19.464 95.6217 19.568 95.5097 19.584C95.4137 19.616 95.3017 19.608 95.1737 19.56C95.0297 19.512 94.8617 19.416 94.6697 19.272Z" />
        <path id="Vector_28" class="svg-text" d="M72.3054 19.272C71.7614 18.84 71.3294 18.336 71.0094 17.76C70.7054 17.184 70.4734 16.568 70.3134 15.912C70.2174 15.976 70.0894 16.048 69.9294 16.128C69.7854 16.192 69.6334 16.256 69.4734 16.32C69.3134 16.368 69.1534 16.4 68.9934 16.416C68.8334 16.432 68.7214 16.416 68.6574 16.368C68.5934 16.32 68.5694 16.24 68.5854 16.128C68.6174 16 68.7374 15.808 68.9454 15.552C68.9774 15.52 69.0574 15.44 69.1854 15.312C69.3294 15.168 69.4814 15.024 69.6414 14.88C69.8014 14.72 69.9454 14.576 70.0734 14.448C70.2014 14.32 70.2814 14.24 70.3134 14.208C70.4414 13.872 70.5214 13.512 70.5534 13.128C70.5854 12.728 70.6014 12.32 70.6014 11.904C70.6174 11.488 70.6414 11.072 70.6734 10.656C70.7214 10.24 70.8254 9.848 70.9854 9.48C71.0654 9.288 71.2254 9.04 71.4654 8.736C71.7214 8.416 72.0094 8.12 72.3294 7.848C72.6654 7.56 72.9934 7.304 73.3134 7.08C73.6334 6.84 73.9134 6.696 74.1534 6.648C74.4094 6.6 74.5934 6.664 74.7054 6.84C74.8174 7 74.8094 7.32 74.6814 7.8C74.5374 8.36 74.3214 8.912 74.0334 9.456C73.7454 10 73.4414 10.536 73.1214 11.064C72.8174 11.576 72.5294 12.096 72.2574 12.624C71.9854 13.136 71.7854 13.664 71.6574 14.208C71.5934 14.496 71.5614 14.84 71.5614 15.24C71.5614 15.64 71.6094 16.04 71.7054 16.44C71.8014 16.84 71.9454 17.208 72.1374 17.544C72.3454 17.88 72.6334 18.112 73.0014 18.24C73.4014 18.4 73.8094 18.44 74.2254 18.36C74.6574 18.28 75.0654 18.128 75.4494 17.904C75.8494 17.68 76.2254 17.408 76.5774 17.088C76.9454 16.752 77.2894 16.408 77.6094 16.056C77.9294 15.704 78.2094 15.368 78.4494 15.048C78.6894 14.712 78.8894 14.432 79.0494 14.208L79.4094 14.544C79.4894 14.608 79.4254 14.824 79.2174 15.192C79.0254 15.56 78.7374 15.976 78.3534 16.44C77.9694 16.904 77.5134 17.376 76.9854 17.856C76.4734 18.32 75.9454 18.712 75.4014 19.032C74.8574 19.368 74.3134 19.576 73.7694 19.656C73.2254 19.736 72.7374 19.608 72.3054 19.272ZM71.6574 10.8C71.6414 10.88 71.6334 11 71.6334 11.16C71.6334 11.32 71.6334 11.488 71.6334 11.664C71.6334 11.84 71.6334 12.008 71.6334 12.168C71.6334 12.328 71.6414 12.44 71.6574 12.504C72.0734 11.784 72.4574 11.024 72.8094 10.224C73.1774 9.424 73.4654 8.616 73.6734 7.8C73.3694 7.896 73.0974 8.056 72.8574 8.28C72.6174 8.488 72.4174 8.736 72.2574 9.024C72.0974 9.296 71.9614 9.592 71.8494 9.912C71.7534 10.216 71.6894 10.512 71.6574 10.8Z" />
        <path id="Vector_29" class="svg-text" d="M61.8682 19.608L61.1962 18.912C61.3082 17.536 61.3322 16.224 61.2682 14.976C61.2202 13.728 61.1162 12.48 60.9562 11.232C60.7962 9.984 60.6122 8.72 60.4042 7.44C60.1962 6.16 60.0042 4.808 59.8282 3.384C59.8282 3.352 59.8282 3.288 59.8282 3.192C59.8282 3.096 59.8282 3 59.8282 2.904C59.8282 2.792 59.8282 2.688 59.8282 2.592C59.8282 2.496 59.8282 2.432 59.8282 2.4H60.5242C60.5562 2.64 60.6122 3.008 60.6922 3.504C60.7722 3.984 60.8682 4.536 60.9802 5.16C61.1082 5.784 61.2282 6.44 61.3402 7.128C61.4682 7.816 61.5882 8.472 61.7002 9.096C61.8122 9.704 61.9082 10.256 61.9882 10.752C62.0842 11.248 62.1562 11.608 62.2042 11.832C62.2042 11.88 62.2202 11.952 62.2522 12.048C62.2842 12.144 62.3162 12.248 62.3482 12.36C62.3802 12.456 62.4122 12.552 62.4442 12.648C62.4922 12.744 62.5242 12.816 62.5402 12.864C62.5722 12.752 62.6442 12.568 62.7562 12.312C62.8842 12.056 63.0202 11.784 63.1642 11.496C63.3082 11.208 63.4442 10.944 63.5722 10.704C63.7162 10.448 63.8202 10.264 63.8842 10.152C64.0922 9.784 64.3562 9.44 64.6762 9.12C64.9962 8.8 65.3082 8.608 65.6122 8.544C65.9322 8.464 66.2122 8.536 66.4522 8.76C66.7082 8.984 66.8602 9.448 66.9082 10.152C66.9242 10.312 66.9402 10.568 66.9562 10.92C66.9882 11.272 67.0122 11.672 67.0282 12.12C67.0442 12.568 67.0682 13.04 67.1002 13.536C67.1322 14.016 67.1562 14.48 67.1722 14.928C67.2042 15.376 67.2282 15.776 67.2442 16.128C67.2602 16.464 67.2682 16.72 67.2682 16.896C67.4122 17.072 67.5162 17.28 67.5802 17.52C67.6602 17.76 67.6682 18 67.6042 18.24C67.3482 18.32 67.1242 18.312 66.9322 18.216C66.7402 18.12 66.5802 17.976 66.4522 17.784C66.3242 17.592 66.2122 17.384 66.1162 17.16C66.0362 16.92 65.9642 16.72 65.9002 16.56C65.9322 16.064 65.9482 15.528 65.9482 14.952C65.9642 14.376 65.9642 13.792 65.9482 13.2C65.9322 12.608 65.8922 12.024 65.8282 11.448C65.7802 10.856 65.6922 10.304 65.5642 9.792C65.3402 9.68 65.1242 9.728 64.9162 9.936C64.7242 10.144 64.5402 10.464 64.3642 10.896C64.1882 11.312 64.0202 11.808 63.8602 12.384C63.7002 12.944 63.5482 13.536 63.4042 14.16C63.2602 14.784 63.1162 15.408 62.9722 16.032C62.8442 16.656 62.7162 17.224 62.5882 17.736C62.4762 18.248 62.3562 18.664 62.2282 18.984C62.1162 19.32 61.9962 19.528 61.8682 19.608Z" />
        <path id="Vector_30" class="svg-text" d="M56.0284 16.296C55.7564 15.816 55.5404 15.28 55.3804 14.688C55.2204 14.08 55.1084 13.456 55.0444 12.816C54.9804 12.176 54.9484 11.544 54.9484 10.92C54.9644 10.296 54.9884 9.728 55.0204 9.216C54.8284 9.168 54.6204 9.184 54.3964 9.264C54.1724 9.344 53.9244 9.448 53.6524 9.576C53.3964 9.688 53.1324 9.816 52.8604 9.96C52.5884 10.104 52.3324 10.208 52.0924 10.272C51.8524 10.336 51.6364 10.352 51.4444 10.32C51.2524 10.272 51.1004 10.128 50.9884 9.888C50.8764 9.68 50.8844 9.512 51.0124 9.384C51.1564 9.256 51.3564 9.16 51.6124 9.096C51.8844 9.016 52.1964 8.96 52.5484 8.928C52.9004 8.88 53.2284 8.832 53.5324 8.784C53.8524 8.736 54.1164 8.672 54.3244 8.592C54.5484 8.496 54.6684 8.368 54.6844 8.208L55.3564 0.816C55.3724 0.688 55.4364 0.592 55.5484 0.527999C55.6604 0.463999 55.7724 0.431999 55.8844 0.431999C56.0124 0.431999 56.1244 0.463999 56.2204 0.527999C56.3324 0.576 56.3884 0.672 56.3884 0.816V7.2C56.5644 7.248 56.7324 7.248 56.8924 7.2C57.0684 7.136 57.2364 7.072 57.3964 7.008C57.5724 6.944 57.7404 6.896 57.9004 6.864C58.0764 6.832 58.2444 6.832 58.4044 6.864C58.5004 7.008 58.4924 7.144 58.3804 7.272C58.2684 7.4 58.1644 7.488 58.0684 7.536L57.7324 7.752C57.5724 7.848 57.4044 7.952 57.2284 8.064C57.0524 8.176 56.8764 8.28 56.7004 8.376C56.5404 8.456 56.4364 8.512 56.3884 8.544C56.3724 8.72 56.3564 9.032 56.3404 9.48C56.3404 9.928 56.3404 10.408 56.3404 10.92C56.3404 11.416 56.3404 11.888 56.3404 12.336C56.3564 12.784 56.3724 13.104 56.3884 13.296C56.4204 13.904 56.5244 14.464 56.7004 14.976C56.8924 15.472 57.1484 15.864 57.4684 16.152C57.7884 16.44 58.1644 16.584 58.5964 16.584C59.0284 16.584 59.5324 16.376 60.1084 15.96C60.2044 16.248 60.1964 16.512 60.0844 16.752C59.9724 16.992 59.8044 17.184 59.5804 17.328C59.3564 17.456 59.0764 17.544 58.7404 17.592C58.4204 17.624 58.0924 17.6 57.7564 17.52C57.4364 17.44 57.1164 17.304 56.7964 17.112C56.4924 16.904 56.2364 16.632 56.0284 16.296Z" />
        <path id="Vector_31" class="svg-text" d="M32.9239 18.24C32.9399 18.032 32.9879 17.736 33.0679 17.352C33.1639 16.952 33.2439 16.528 33.3079 16.08C33.3719 15.632 33.4119 15.184 33.4279 14.736C33.4439 14.288 33.4039 13.912 33.3079 13.608C33.2119 13.304 33.0279 13.104 32.7559 13.008C32.4999 12.912 32.1159 12.968 31.6039 13.176C31.3159 13.112 31.1559 13.008 31.1239 12.864C31.0759 12.72 31.1079 12.56 31.2199 12.384C31.3479 12.192 31.5159 11.992 31.7239 11.784C31.9319 11.56 32.1479 11.336 32.3719 11.112C32.5959 10.872 32.7959 10.648 32.9719 10.44C33.1479 10.216 33.2439 10 33.2599 9.792C33.2439 9.696 33.2199 9.472 33.1879 9.12C33.1719 8.768 33.1399 8.368 33.0919 7.92C33.0439 7.456 32.9879 6.968 32.9239 6.456C32.8759 5.928 32.8279 5.432 32.7799 4.968C32.7319 4.504 32.6919 4.096 32.6599 3.744C32.6279 3.392 32.6039 3.16 32.5879 3.048C32.5879 2.872 32.5879 2.712 32.5879 2.568C32.6039 2.424 32.6519 2.304 32.7319 2.208C32.8119 2.096 32.9159 2.024 33.0439 1.992C33.1879 1.96 33.3719 1.984 33.5959 2.064C33.6599 2.544 33.7239 3.104 33.7879 3.744C33.8519 4.368 33.9239 5.008 34.0039 5.664C34.0839 6.32 34.1719 6.976 34.2679 7.632C34.3639 8.288 34.4759 8.904 34.6039 9.48C34.7319 9.384 34.8839 9.216 35.0599 8.976C35.2519 8.72 35.4519 8.44 35.6599 8.136C35.8679 7.816 36.0839 7.504 36.3079 7.2C36.5479 6.896 36.7719 6.656 36.9799 6.48C37.1879 6.288 37.3799 6.176 37.5559 6.144C37.7319 6.112 37.8759 6.208 37.9879 6.432C38.0039 6.464 38.0119 6.52 38.0119 6.6C38.0119 6.68 38.0039 6.744 37.9879 6.792C37.8279 7.304 37.5639 7.784 37.1959 8.232C36.8279 8.664 36.4519 9.088 36.0679 9.504C35.6839 9.92 35.3479 10.344 35.0599 10.776C34.7719 11.208 34.6199 11.672 34.6039 12.168C34.7159 12.264 34.8919 12.44 35.1319 12.696L36.8119 14.376C37.1319 14.696 37.4359 15 37.7239 15.288C38.0119 15.576 38.2599 15.832 38.4679 16.056L38.9959 16.56C39.0599 16.624 39.1799 16.744 39.3559 16.92C39.5319 17.096 39.6839 17.288 39.8119 17.496C39.9399 17.704 40.0039 17.904 40.0039 18.096C40.0199 18.288 39.9079 18.448 39.6679 18.576C39.6359 18.592 39.5799 18.6 39.4999 18.6C39.4199 18.6 39.3639 18.592 39.3319 18.576C38.6759 17.76 37.9479 16.928 37.1479 16.08C36.3479 15.232 35.4999 14.496 34.6039 13.872C34.5879 13.984 34.5719 14.168 34.5559 14.424C34.5399 14.664 34.4999 14.944 34.4359 15.264C34.3879 15.568 34.3399 15.896 34.2919 16.248C34.2599 16.584 34.2199 16.904 34.1719 17.208C34.1239 17.512 34.0759 17.784 34.0279 18.024C33.9959 18.28 33.9639 18.464 33.9319 18.576C33.9159 18.656 33.8759 18.76 33.8119 18.888C33.7639 19.032 33.6919 19.168 33.5959 19.296C33.4999 19.424 33.3959 19.52 33.2839 19.584C33.1719 19.648 33.0519 19.656 32.9239 19.608C32.9239 19.544 32.9159 19.448 32.8999 19.32C32.8999 19.208 32.8999 19.08 32.8999 18.936C32.8999 18.792 32.8999 18.656 32.8999 18.528C32.9159 18.4 32.9239 18.304 32.9239 18.24Z" />
        <path id="Vector_32" class="svg-text" d="M22.7503 18.912C22.2863 18.544 21.9423 18.104 21.7183 17.592C21.5103 17.08 21.3983 16.528 21.3823 15.936C21.3663 15.344 21.4303 14.728 21.5743 14.088C21.7183 13.448 21.9103 12.832 22.1503 12.24C22.3903 11.648 22.6623 11.096 22.9663 10.584C23.2863 10.056 23.5983 9.616 23.9023 9.264C24.2223 8.912 24.5183 8.664 24.7903 8.52C25.0623 8.36 25.2783 8.344 25.4383 8.472C25.4703 8.616 25.5183 8.88 25.5823 9.264C25.6623 9.648 25.7343 10.064 25.7983 10.512C25.8783 10.944 25.9423 11.352 25.9903 11.736C26.0543 12.104 26.1023 12.36 26.1343 12.504C26.1503 12.664 26.1503 12.84 26.1343 13.032C26.1343 13.224 26.1023 13.4 26.0383 13.56C25.9743 13.704 25.8623 13.816 25.7023 13.896C25.5583 13.96 25.3583 13.952 25.1023 13.872C25.0863 13.776 25.0463 13.624 24.9823 13.416C24.9343 13.192 24.8703 12.952 24.7903 12.696C24.7263 12.44 24.6543 12.2 24.5743 11.976C24.5103 11.736 24.4703 11.576 24.4543 11.496L24.1183 11.16C23.7183 11.432 23.3823 11.824 23.1103 12.336C22.8383 12.848 22.6463 13.4 22.5343 13.992C22.4223 14.568 22.3903 15.152 22.4383 15.744C22.5023 16.32 22.6543 16.832 22.8943 17.28C23.1503 17.728 23.4943 18.064 23.9263 18.288C24.3583 18.528 24.9023 18.568 25.5583 18.408C26.2143 18.248 26.9823 17.872 27.8623 17.28C28.7423 16.672 29.7503 15.76 30.8863 14.544V15.24C30.8863 15.272 30.8063 15.384 30.6463 15.576C30.4863 15.768 30.2943 15.992 30.0703 16.248C29.8463 16.488 29.6223 16.736 29.3983 16.992C29.1743 17.232 28.9823 17.424 28.8223 17.568C28.3903 17.968 27.9343 18.336 27.4543 18.672C26.9743 19.024 26.4703 19.28 25.9423 19.44C25.4303 19.6 24.9023 19.648 24.3583 19.584C23.8303 19.536 23.2943 19.312 22.7503 18.912Z" />
        <path id="Vector_33" class="svg-text" d="M17.8517 18.576C17.8357 18.544 17.8037 18.448 17.7557 18.288C17.7237 18.144 17.6837 17.984 17.6357 17.808C17.6037 17.616 17.5717 17.44 17.5397 17.28C17.5237 17.104 17.5157 16.976 17.5157 16.896V7.464C17.5157 7.336 17.5717 7.24 17.6837 7.176C17.7957 7.112 17.9237 7.08 18.0677 7.08C18.2277 7.08 18.3637 7.088 18.4757 7.104C18.6037 7.104 18.6757 7.104 18.6917 7.104V17.568C18.6917 17.792 18.7637 17.976 18.9077 18.12C19.0517 18.264 19.2197 18.376 19.4117 18.456C19.6037 18.536 19.8037 18.584 20.0117 18.6C20.2197 18.632 20.3957 18.624 20.5397 18.576C20.7157 18.848 20.7077 19.064 20.5157 19.224C20.3397 19.4 20.0757 19.496 19.7237 19.512C19.3877 19.528 19.0357 19.464 18.6677 19.32C18.2997 19.176 18.0277 18.928 17.8517 18.576ZM17.1797 4.056C17.1797 3.688 17.3237 3.456 17.6117 3.36C17.9157 3.248 18.2277 3.256 18.5477 3.384V4.416C18.4997 4.432 18.4277 4.448 18.3317 4.464C18.2357 4.464 18.1317 4.464 18.0197 4.464C17.9077 4.464 17.8037 4.464 17.7077 4.464C17.6117 4.448 17.5477 4.432 17.5157 4.416C17.4677 4.4 17.3957 4.352 17.2997 4.272C17.2197 4.176 17.1797 4.104 17.1797 4.056Z" />
        <path id="Vector_34" class="svg-text" d="M13.8401 19.272C13.5521 19.08 13.3361 18.792 13.1921 18.408C13.0641 18.04 12.9681 17.648 12.9041 17.232C12.8561 16.8 12.8321 16.4 12.8321 16.032V15.24C12.8321 15.096 12.8401 14.808 12.8561 14.376C12.8721 13.928 12.8881 13.416 12.9041 12.84C12.9361 12.264 12.9601 11.648 12.9761 10.992C13.0081 10.336 13.0321 9.72 13.0481 9.144C13.0801 8.568 13.1041 8.072 13.1201 7.656C13.1521 7.224 13.1681 6.936 13.1681 6.792C13.1681 6.584 13.1681 6.248 13.1681 5.784C13.1841 5.304 13.1921 4.792 13.1921 4.248C13.1921 3.704 13.1841 3.2 13.1681 2.736C13.1681 2.256 13.1681 1.912 13.1681 1.704C13.3601 1.56 13.5281 1.472 13.6721 1.44C13.8001 1.376 13.9121 1.36 14.0081 1.392C14.1201 1.424 14.1761 1.528 14.1761 1.704V17.568C14.1761 17.664 14.2081 17.776 14.2721 17.904C14.3361 18.032 14.4081 18.136 14.4881 18.216C14.5681 18.296 14.6721 18.344 14.8001 18.36C14.9281 18.392 15.0561 18.352 15.1841 18.24L17.5361 16.224C17.6001 16.528 17.5921 16.848 17.5121 17.184C17.4481 17.504 17.3281 17.808 17.1521 18.096C16.9761 18.384 16.7601 18.64 16.5041 18.864C16.2481 19.088 15.9681 19.264 15.6641 19.392C15.3601 19.52 15.0481 19.576 14.7281 19.56C14.4241 19.56 14.1281 19.464 13.8401 19.272Z" />
        <path id="Vector_35" class="svg-text" d="M2.712 19.272C2.168 19.064 1.728 18.688 1.392 18.144C1.072 17.616 0.839999 16.992 0.695999 16.272C0.551999 15.552 0.495999 14.776 0.527999 13.944C0.575999 13.096 0.695999 12.248 0.887999 11.4C1.08 10.552 1.336 9.752 1.656 9C1.976 8.232 2.352 7.568 2.784 7.008C3.232 6.432 3.728 6 4.272 5.712C4.832 5.424 5.432 5.328 6.072 5.424C6.104 5.552 6.152 5.776 6.216 6.096C6.28 6.416 6.344 6.76 6.408 7.128C6.488 7.48 6.552 7.816 6.6 8.136C6.664 8.456 6.712 8.68 6.744 8.808C6.776 8.952 6.728 9.112 6.6 9.288C6.488 9.448 6.352 9.584 6.192 9.696C6.032 9.792 5.872 9.84 5.712 9.84C5.568 9.824 5.464 9.704 5.4 9.48C5.352 9.352 5.32 9.168 5.304 8.928C5.288 8.688 5.256 8.432 5.208 8.16C5.16 7.872 5.104 7.616 5.04 7.392C4.976 7.152 4.888 6.976 4.776 6.864C4.664 6.752 4.52 6.736 4.344 6.816C4.168 6.88 3.96 7.096 3.72 7.464C3.624 7.56 3.52 7.696 3.408 7.872C3.312 8.048 3.208 8.224 3.096 8.4C2.984 8.576 2.888 8.736 2.808 8.88C2.744 9.024 2.712 9.112 2.712 9.144L1.68 14.544C1.568 15.136 1.576 15.672 1.704 16.152C1.832 16.616 2.04 17.016 2.328 17.352C2.616 17.688 2.968 17.944 3.384 18.12C3.8 18.312 4.232 18.416 4.68 18.432C5.144 18.464 5.616 18.408 6.096 18.264C6.576 18.136 7.024 17.904 7.44 17.568C7.6 17.456 7.8 17.24 8.04 16.92C8.296 16.584 8.56 16.216 8.832 15.816C9.12 15.416 9.416 14.992 9.72 14.544C10.04 14.096 10.336 13.696 10.608 13.344C10.88 12.976 11.12 12.68 11.328 12.456C11.536 12.232 11.688 12.136 11.784 12.168C11.992 12.744 11.984 13.352 11.76 13.992C11.552 14.616 11.208 15.232 10.728 15.84C10.248 16.448 9.664 17.016 8.976 17.544C8.288 18.056 7.576 18.472 6.84 18.792C6.104 19.128 5.376 19.352 4.656 19.464C3.936 19.576 3.288 19.512 2.712 19.272Z" />
    </g>
</svg>
