<svg viewBox="0 0 232 49" fill="none"
    xmlns="http://www.w3.org/2000/svg">
    <path d="M144.73 43.2773C144.822 43.2773 144.913 43.2513 145.004 43.1992C145.082 43.1602 145.154 43.1016 145.219 43.0234C145.297 42.9453 145.362 42.8281 145.414 42.6719H145.707C145.694 42.8021 145.655 42.9518 145.59 43.1211C145.525 43.2773 145.427 43.4271 145.297 43.5703C145.167 43.7005 145.004 43.8112 144.809 43.9023C144.613 43.9935 144.385 44.026 144.125 44C143.292 43.9219 142.79 43.1146 142.621 41.5781C142.504 41.8906 142.367 42.2096 142.211 42.5352C142.068 42.8607 141.892 43.1602 141.684 43.4336C141.475 43.707 141.228 43.9284 140.941 44.0977C140.668 44.2799 140.336 44.3711 139.945 44.3711C139.451 44.3711 139.014 44.2669 138.637 44.0586C138.272 43.8633 137.966 43.5964 137.719 43.2578C137.471 42.9193 137.296 42.5352 137.191 42.1055C137.087 41.6628 137.048 41.207 137.074 40.7383C137.113 40.0872 137.204 39.4297 137.348 38.7656C137.491 38.0885 137.576 37.457 137.602 36.8711C137.641 36.2721 137.569 35.7513 137.387 35.3086C137.217 34.8529 136.833 34.5208 136.234 34.3125L136.312 34.0195C136.508 34.0586 136.723 34.1107 136.957 34.1758C137.191 34.2409 137.439 34.293 137.699 34.332C137.96 34.3711 138.233 34.3906 138.52 34.3906C138.819 34.3906 139.118 34.3516 139.418 34.2734C139.262 34.612 139.118 34.931 138.988 35.2305C138.871 35.5299 138.773 35.862 138.695 36.2266C138.617 36.5911 138.559 37.0078 138.52 37.4766C138.48 37.9453 138.461 38.5247 138.461 39.2148C138.461 39.9049 138.513 40.4844 138.617 40.9531C138.734 41.4219 138.891 41.793 139.086 42.0664C139.294 42.3398 139.535 42.5352 139.809 42.6523C140.082 42.7565 140.388 42.7956 140.727 42.7695C141.052 42.7305 141.326 42.5807 141.547 42.3203C141.781 42.0469 141.97 41.6953 142.113 41.2656C142.27 40.8229 142.387 40.3216 142.465 39.7617C142.556 39.2018 142.615 38.6094 142.641 37.9844C142.667 37.3594 142.667 36.8255 142.641 36.3828C142.628 35.9401 142.582 35.569 142.504 35.2695C142.426 34.9701 142.309 34.7292 142.152 34.5469C141.996 34.3516 141.788 34.2018 141.527 34.0977L141.566 33.7852C141.801 33.7852 142.081 33.7852 142.406 33.7852C142.732 33.7852 143.057 33.7786 143.383 33.7656C143.708 33.7396 144.008 33.707 144.281 33.668C144.568 33.6289 144.783 33.5768 144.926 33.5117C144.704 33.9414 144.503 34.4883 144.32 35.1523C144.151 35.8034 144.008 36.4935 143.891 37.2227C143.773 37.9388 143.695 38.6615 143.656 39.3906C143.617 40.1068 143.63 40.7578 143.695 41.3438C143.76 41.9167 143.871 42.3854 144.027 42.75C144.197 43.1016 144.431 43.2773 144.73 43.2773Z" fill="black"/>
    <path d="M128.93 36.6367C129.086 36.155 129.307 35.6732 129.594 35.1914C129.88 34.7096 130.206 34.28 130.57 33.9024C130.948 33.5117 131.352 33.2057 131.781 32.9844C132.224 32.763 132.68 32.6654 133.148 32.6914C133.578 32.7305 133.93 32.9193 134.203 33.2578C134.49 33.5964 134.717 34 134.887 34.4688C135.056 34.9245 135.167 35.3997 135.219 35.8945C135.284 36.3763 135.31 36.78 135.297 37.1055C135.271 37.5091 135.186 37.8997 135.043 38.2774C134.913 38.6419 134.763 39.013 134.594 39.3906C134.438 39.7552 134.288 40.1328 134.145 40.5234C134.001 40.9141 133.917 41.3242 133.891 41.7539C133.865 42.1836 133.91 42.5938 134.027 42.9844C134.158 43.362 134.34 43.655 134.574 43.8633C134.809 44.0716 135.082 44.1563 135.395 44.1172C135.72 44.0912 136.052 43.8698 136.391 43.4531L136.645 43.668C136.514 43.8893 136.299 44.1042 136 44.3125C135.701 44.5339 135.349 44.6445 134.945 44.6445C134.672 44.6445 134.398 44.5859 134.125 44.4688C133.865 44.3646 133.624 44.1953 133.402 43.9609C133.194 43.7135 133.018 43.401 132.875 43.0234C132.745 42.6458 132.673 42.1836 132.66 41.6367C132.66 41.181 132.719 40.7578 132.836 40.3672C132.953 39.9766 133.077 39.5859 133.207 39.1953C133.35 38.8047 133.474 38.401 133.578 37.9844C133.695 37.5547 133.747 37.0794 133.734 36.5586C133.708 36.0768 133.63 35.6862 133.5 35.3867C133.383 35.0742 133.233 34.8399 133.051 34.6836C132.882 34.5143 132.693 34.4102 132.484 34.3711C132.289 34.319 132.107 34.306 131.938 34.332C131.586 34.3971 131.228 34.599 130.863 34.9375C130.499 35.263 130.167 35.6797 129.867 36.1875C129.581 36.6823 129.346 37.2487 129.164 37.8867C128.982 38.5247 128.884 39.1758 128.871 39.8399V39.8008C128.871 40.1263 128.865 40.4128 128.852 40.6602C128.839 40.9076 128.845 41.1159 128.871 41.2852C128.871 41.6628 128.904 41.9622 128.969 42.1836C129.047 42.3919 129.132 42.5547 129.223 42.6719C129.314 42.7891 129.411 42.8737 129.516 42.9258C129.633 42.9649 129.73 42.9909 129.809 43.0039L129.789 43.3555C129.607 43.3164 129.372 43.2969 129.086 43.2969C128.812 43.2839 128.513 43.2969 128.188 43.3359C127.862 43.375 127.523 43.4466 127.172 43.5508C126.833 43.655 126.521 43.7982 126.234 43.9805L126.098 43.707C126.293 43.5508 126.462 43.4141 126.605 43.2969C126.762 43.1667 126.892 43.0039 126.996 42.8086C127.113 42.6133 127.211 42.3594 127.289 42.0469C127.367 41.7344 127.426 41.3242 127.465 40.8164C127.543 39.7878 127.595 38.7787 127.621 37.7891C127.647 36.7865 127.621 35.8555 127.543 34.9961C127.517 34.7227 127.445 34.5143 127.328 34.3711C127.224 34.2279 127.094 34.1302 126.938 34.0781C126.781 34.013 126.618 33.9805 126.449 33.9805C126.28 33.9805 126.117 33.987 125.961 34L125.941 33.668C126.228 33.6419 126.521 33.6094 126.82 33.5703C127.133 33.5313 127.432 33.4922 127.719 33.4531C128.005 33.4141 128.259 33.375 128.48 33.3359C128.715 33.2839 128.897 33.2253 129.027 33.1602C129.001 33.5768 128.982 33.9935 128.969 34.4102C128.969 34.8138 128.962 35.1849 128.949 35.5234C128.936 35.9141 128.93 36.2852 128.93 36.6367Z" fill="black"/>
    <path d="M117.309 38.707C117.348 37.9388 117.51 37.2227 117.797 36.5586C118.096 35.8945 118.48 35.3281 118.949 34.8594C119.418 34.3776 119.945 34.013 120.531 33.7656C121.13 33.5182 121.749 33.4336 122.387 33.5117C123.025 33.5898 123.513 33.7852 123.852 34.0977C124.203 34.4102 124.451 34.7617 124.594 35.1523C124.737 35.53 124.815 35.9076 124.828 36.2852C124.841 36.6628 124.841 36.9557 124.828 37.1641C124.815 37.3594 124.789 37.5742 124.75 37.8086C124.724 38.043 124.691 38.2773 124.652 38.5117C124.626 38.7331 124.613 38.9479 124.613 39.1563C124.613 39.3516 124.633 39.5143 124.672 39.6445C124.346 39.5404 123.969 39.4297 123.539 39.3125C123.109 39.1823 122.641 39.0846 122.133 39.0195C121.638 38.9544 121.117 38.9349 120.57 38.9609C120.036 38.974 119.503 39.0651 118.969 39.2344C118.956 39.7292 118.988 40.224 119.066 40.7188C119.158 41.2005 119.301 41.6628 119.496 42.1055C119.665 42.4831 119.861 42.8151 120.082 43.1016C120.303 43.388 120.538 43.6094 120.785 43.7656C121.046 43.9089 121.306 43.987 121.566 44C121.84 44.013 122.113 43.9349 122.387 43.7656C122.608 43.6094 122.777 43.4206 122.895 43.1992C122.999 43.0169 123.038 42.7956 123.012 42.5352C122.999 42.2747 122.862 41.9753 122.602 41.6367L125.043 41.5195C124.952 41.78 124.815 42.1055 124.633 42.4961C124.464 42.8867 124.229 43.2643 123.93 43.6289C123.63 43.9935 123.259 44.2995 122.816 44.5469C122.374 44.7943 121.84 44.905 121.215 44.8789C120.59 44.8398 120.023 44.638 119.516 44.2734C119.021 43.9219 118.604 43.4596 118.266 42.8867C117.927 42.3138 117.673 41.6693 117.504 40.9531C117.335 40.224 117.27 39.4753 117.309 38.707ZM122.152 34.0195C121.788 33.9805 121.43 34.0716 121.078 34.293C120.74 34.5143 120.427 34.8333 120.141 35.25C119.867 35.6536 119.633 36.1354 119.438 36.6953C119.242 37.2552 119.105 37.8411 119.027 38.4531C119.77 38.362 120.46 38.3164 121.098 38.3164C121.736 38.3034 122.328 38.3425 122.875 38.4336C123.018 38.1341 123.148 37.75 123.266 37.2813C123.383 36.7995 123.435 36.3307 123.422 35.875C123.409 35.4063 123.305 34.9961 123.109 34.6445C122.927 34.293 122.608 34.0846 122.152 34.0195Z" fill="black"/>
    <path d="M106.41 44.0781C106.124 44.0391 105.805 44 105.453 43.9609C105.102 43.9219 104.743 43.8958 104.379 43.8828C104.027 43.8568 103.689 43.8568 103.363 43.8828C103.051 43.8958 102.79 43.9414 102.582 44.0195L102.426 43.6875C102.608 43.6094 102.758 43.5378 102.875 43.4727C103.005 43.4076 103.103 43.3294 103.168 43.2383C103.246 43.1341 103.305 42.9974 103.344 42.8281C103.383 42.6458 103.415 42.3984 103.441 42.0859C103.454 41.8776 103.467 41.5846 103.48 41.207C103.493 40.8164 103.507 40.3932 103.52 39.9375C103.533 39.4688 103.539 38.9805 103.539 38.4727C103.539 37.9648 103.533 37.4766 103.52 37.0078C103.507 36.526 103.487 36.0833 103.461 35.6797C103.435 35.276 103.402 34.9505 103.363 34.7031C103.324 34.4427 103.259 34.2474 103.168 34.1172C103.077 33.974 102.96 33.8698 102.816 33.8047C102.686 33.7396 102.53 33.7005 102.348 33.6875C102.178 33.6745 101.99 33.668 101.781 33.668V33.3164C102.602 33.3815 103.344 33.4141 104.008 33.4141C104.672 33.4141 105.212 33.3555 105.629 33.2383L105.648 33.4922C105.57 33.5182 105.499 33.5833 105.434 33.6875C105.368 33.7786 105.303 33.9284 105.238 34.1367C105.186 34.3451 105.134 34.6185 105.082 34.957C105.043 35.2956 105.017 35.7253 105.004 36.2461C105.16 35.9336 105.342 35.6211 105.551 35.3086C105.759 34.9961 105.987 34.7227 106.234 34.4883C106.495 34.2539 106.775 34.0716 107.074 33.9414C107.387 33.7982 107.719 33.7396 108.07 33.7656C108.63 33.8177 109.047 34.026 109.32 34.3906C109.607 34.7552 109.802 35.1849 109.906 35.6797C110.297 34.9245 110.792 34.332 111.391 33.9023C112.003 33.4727 112.693 33.3034 113.461 33.3945C113.917 33.4596 114.32 33.668 114.672 34.0195C115.023 34.3581 115.31 34.7812 115.531 35.2891C115.766 35.7969 115.915 36.3568 115.98 36.9688C116.059 37.5807 116.052 38.1732 115.961 38.7461C115.857 39.319 115.661 39.9505 115.375 40.6406C115.102 41.3307 114.809 42.0208 114.496 42.7109C114.197 43.401 113.93 44.0521 113.695 44.6641C113.461 45.276 113.344 45.7773 113.344 46.168C113.344 46.7669 113.487 47.2031 113.773 47.4766C114.073 47.763 114.431 47.9062 114.848 47.9062C115.056 47.9062 115.264 47.8737 115.473 47.8086C115.694 47.7435 115.889 47.6393 116.059 47.4961C116.241 47.3659 116.384 47.1966 116.488 46.9883C116.605 46.793 116.664 46.5586 116.664 46.2852C116.664 45.9076 116.527 45.6341 116.254 45.4648C115.98 45.2956 115.707 45.2109 115.434 45.2109C115.16 45.2109 114.926 45.2891 114.73 45.4453C114.535 45.6146 114.438 45.8229 114.438 46.0703C114.438 46.1354 114.444 46.207 114.457 46.2852C114.483 46.3763 114.516 46.4609 114.555 46.5391C114.607 46.6172 114.678 46.6823 114.77 46.7344C114.861 46.7995 114.978 46.832 115.121 46.832C115.238 46.832 115.336 46.8125 115.414 46.7734C115.492 46.7344 115.564 46.6823 115.629 46.6172C115.447 46.5521 115.303 46.4544 115.199 46.3242C115.108 46.194 115.115 46.0443 115.219 45.875C115.271 45.7969 115.349 45.7448 115.453 45.7188C115.557 45.7057 115.661 45.7188 115.766 45.7578C115.883 45.8099 115.974 45.888 116.039 45.9922C116.117 46.0964 116.156 46.2266 116.156 46.3828C116.156 46.6432 116.052 46.8516 115.844 47.0078C115.635 47.1771 115.401 47.2682 115.141 47.2812C114.867 47.2943 114.62 47.2096 114.398 47.0273C114.177 46.8581 114.066 46.5846 114.066 46.207C114.066 45.8164 114.19 45.4909 114.438 45.2305C114.698 44.9701 115.036 44.8398 115.453 44.8398C115.948 44.8398 116.339 44.9831 116.625 45.2695C116.924 45.569 117.074 45.9336 117.074 46.3633C117.074 46.5846 117.035 46.8255 116.957 47.0859C116.879 47.3594 116.742 47.6133 116.547 47.8477C116.365 48.082 116.111 48.2773 115.785 48.4336C115.473 48.6029 115.069 48.6875 114.574 48.6875C114.262 48.6875 113.962 48.6289 113.676 48.5117C113.402 48.3945 113.155 48.2188 112.934 47.9844C112.725 47.75 112.556 47.4635 112.426 47.125C112.309 46.7995 112.243 46.4219 112.23 45.9922C112.23 45.5234 112.322 44.9961 112.504 44.4102C112.699 43.8372 112.927 43.2122 113.188 42.5352C113.591 41.4414 113.871 40.4128 114.027 39.4492C114.184 38.4857 114.223 37.6458 114.145 36.9297C114.066 36.2135 113.878 35.6471 113.578 35.2305C113.292 34.8138 112.901 34.6055 112.406 34.6055C112.081 34.6055 111.794 34.7422 111.547 35.0156C111.312 35.2891 111.117 35.6406 110.961 36.0703C110.805 36.5 110.681 36.9818 110.59 37.5156C110.499 38.0495 110.427 38.5833 110.375 39.1172C110.323 39.638 110.29 40.1263 110.277 40.582C110.264 41.0247 110.258 41.3828 110.258 41.6562C110.258 41.9818 110.297 42.2422 110.375 42.4375C110.466 42.6198 110.57 42.763 110.688 42.8672C110.818 42.9714 110.948 43.0495 111.078 43.1016C111.221 43.1406 111.352 43.1797 111.469 43.2188L111.352 43.5312C111.208 43.5052 110.967 43.4792 110.629 43.4531C110.29 43.4141 109.932 43.3945 109.555 43.3945C109.177 43.3815 108.812 43.3945 108.461 43.4336C108.122 43.4727 107.868 43.5508 107.699 43.668L107.621 43.2578C107.738 43.2188 107.855 43.1862 107.973 43.1602C108.09 43.1211 108.194 43.0495 108.285 42.9453C108.389 42.8411 108.467 42.6784 108.52 42.457C108.585 42.2227 108.63 41.8906 108.656 41.4609C108.695 40.5885 108.754 39.7617 108.832 38.9805C108.923 38.1992 108.988 37.5156 109.027 36.9297C109.04 36.6302 109.034 36.3503 109.008 36.0898C108.982 35.8164 108.923 35.582 108.832 35.3867C108.741 35.1784 108.611 35.0221 108.441 34.918C108.272 34.8008 108.057 34.7422 107.797 34.7422C107.523 34.7552 107.224 34.8724 106.898 35.0938C106.573 35.3151 106.273 35.6276 106 36.0312C105.727 36.4349 105.492 36.9232 105.297 37.4961C105.115 38.056 105.023 38.6745 105.023 39.3516L105.004 39.332C105.03 39.7878 105.049 40.237 105.062 40.6797C105.076 41.1094 105.095 41.4805 105.121 41.793C105.147 42.1185 105.173 42.3919 105.199 42.6133C105.225 42.8216 105.277 42.9974 105.355 43.1406C105.447 43.2839 105.577 43.401 105.746 43.4922C105.915 43.5703 106.15 43.6354 106.449 43.6875L106.41 44.0781Z" fill="black"/>
    <path d="M95.5898 35.582C95.5768 35.8034 95.5508 35.9922 95.5117 36.1484C95.4857 36.3047 95.4661 36.4479 95.4531 36.5781C95.4401 36.6953 95.4466 36.806 95.4727 36.9102C95.4987 37.0143 95.5703 37.1315 95.6875 37.2617C95.3359 37.1576 95.0169 37.0859 94.7305 37.0469C94.444 36.9948 94.1901 36.9557 93.9688 36.9297C93.7214 36.9167 93.5 36.9167 93.3047 36.9297C93.4349 36.7474 93.5195 36.5456 93.5586 36.3242C93.6107 36.1029 93.6497 35.8294 93.6758 35.5039C93.6888 35.2695 93.6758 35.0287 93.6367 34.7813C93.5977 34.5339 93.4674 34.3776 93.2461 34.3125C93.1549 34.2995 93.0573 34.293 92.9531 34.293C92.849 34.293 92.7318 34.3255 92.6016 34.3906C92.4714 34.4427 92.3216 34.5339 92.1523 34.6641C91.9831 34.7943 91.7943 34.9831 91.5859 35.2305C91.2865 35.582 91.0195 35.9596 90.7852 36.3633C90.5508 36.7539 90.349 37.1445 90.1797 37.5352C90.0104 37.9258 89.8737 38.2969 89.7695 38.6484C89.6784 38.987 89.6263 39.28 89.6133 39.5273C89.6133 39.5664 89.6068 39.5925 89.5938 39.6055C89.6198 40.1133 89.6523 40.5885 89.6914 41.0313C89.7305 41.474 89.7695 41.8516 89.8086 42.1641C89.8477 42.4635 89.8997 42.7109 89.9648 42.9063C90.043 43.1016 90.1276 43.2643 90.2188 43.3945C90.3099 43.5117 90.4076 43.6094 90.5117 43.6875C90.6159 43.7656 90.7135 43.8372 90.8047 43.9023L90.8438 44.3125C90.6615 44.2344 90.401 44.1758 90.0625 44.1367C89.724 44.1107 89.3594 44.1107 88.9688 44.1367C88.5911 44.1628 88.207 44.2214 87.8164 44.3125C87.4258 44.4037 87.0938 44.5273 86.8203 44.6836L86.7617 44.2344C87.1263 44.0912 87.4583 43.8242 87.7578 43.4336C88.0703 43.03 88.2656 42.405 88.3438 41.5586C88.3828 41.1419 88.4219 40.7122 88.4609 40.2695C88.513 39.8268 88.5456 39.3776 88.5586 38.9219C88.5716 38.4662 88.5651 37.9974 88.5391 37.5156C88.513 37.0339 88.4414 36.5391 88.3242 36.0313C88.2201 35.6667 88.1029 35.3281 87.9727 35.0156C87.8685 34.7552 87.7318 34.5143 87.5625 34.293C87.4062 34.0586 87.2305 33.9154 87.0352 33.8633L86.9961 33.4141C87.1523 33.4401 87.3477 33.4662 87.582 33.4922C87.8294 33.5182 88.0898 33.5443 88.3633 33.5703C88.6367 33.5833 88.9167 33.5898 89.2031 33.5898C89.4896 33.5898 89.763 33.5768 90.0234 33.5508C89.9714 33.7852 89.8997 34.2214 89.8086 34.8594C89.7305 35.4974 89.6654 36.2135 89.6133 37.0078C89.7826 36.6172 90.0039 36.181 90.2773 35.6992C90.5508 35.2175 90.8698 34.7747 91.2344 34.3711C91.599 33.9675 92.0091 33.6419 92.4648 33.3945C92.9206 33.1341 93.4219 33.03 93.9688 33.082C94.2943 33.1211 94.5612 33.2318 94.7695 33.4141C94.9909 33.5964 95.1602 33.8112 95.2773 34.0586C95.4076 34.306 95.4922 34.5664 95.5312 34.8398C95.5833 35.1133 95.6029 35.3607 95.5898 35.582Z" fill="black"/>
    <path d="M87.1523 43.2773C87.1133 43.4466 87.0482 43.6354 86.957 43.8438C86.8659 44.0391 86.7357 44.2148 86.5664 44.3711C86.3971 44.5404 86.1888 44.6641 85.9414 44.7422C85.707 44.8333 85.4271 44.8398 85.1016 44.7617C84.776 44.6836 84.5156 44.5013 84.3203 44.2148C84.138 43.9284 84.0078 43.5638 83.9297 43.1211C83.8125 43.3034 83.6628 43.4987 83.4805 43.707C83.3112 43.9023 83.1029 44.0781 82.8555 44.2344C82.6211 44.4036 82.3477 44.5339 82.0352 44.625C81.7357 44.7292 81.4037 44.7682 81.0391 44.7422C80.5443 44.7031 80.1016 44.5664 79.7109 44.332C79.3333 44.1107 79.0143 43.8242 78.7539 43.4727C78.4935 43.1081 78.2982 42.6979 78.168 42.2422C78.0508 41.7865 78.0182 41.3112 78.0703 40.8164C78.1224 40.3216 78.2526 39.8984 78.4609 39.5469C78.6823 39.1953 78.9557 38.9154 79.2813 38.707C79.6068 38.4857 79.9779 38.3359 80.3945 38.2578C80.8112 38.1797 81.2409 38.1602 81.6836 38.1992C82.2695 38.2643 82.7578 38.4401 83.1484 38.7266C83.5391 39 83.8385 39.306 84.0469 39.6445C84.112 39.0456 84.1315 38.4076 84.1055 37.7305C84.0794 37.0404 83.9753 36.4154 83.793 35.8555C83.6107 35.2826 83.3307 34.8138 82.9531 34.4492C82.5755 34.0716 82.0612 33.8893 81.4102 33.9023C80.9544 33.9023 80.5768 33.987 80.2773 34.1562C79.9909 34.3125 79.7565 34.5013 79.5742 34.7227C79.405 34.944 79.2878 35.1719 79.2227 35.4062C79.1576 35.6276 79.125 35.8034 79.125 35.9336C79.125 36.0638 79.1641 36.2135 79.2422 36.3828C79.3203 36.5391 79.431 36.6888 79.5742 36.832C79.7175 36.9622 79.8867 37.0664 80.082 37.1445C80.2773 37.2227 80.4987 37.2422 80.7461 37.2031C80.9154 37.1771 81.0651 37.1185 81.1953 37.0273C81.3255 36.9362 81.4297 36.832 81.5078 36.7148C81.5859 36.5977 81.638 36.474 81.6641 36.3438C81.7031 36.2135 81.7227 36.0898 81.7227 35.9727C81.7227 35.8424 81.6836 35.7318 81.6055 35.6406C81.5273 35.5365 81.4362 35.4583 81.332 35.4062C81.2279 35.3542 81.1107 35.3411 80.9805 35.3672C80.8503 35.3802 80.7331 35.4388 80.6289 35.543C80.7461 35.5299 80.8633 35.556 80.9805 35.6211C81.0977 35.6732 81.1563 35.7904 81.1563 35.9727C81.1563 36.1159 81.0977 36.2266 80.9805 36.3047C80.8633 36.3698 80.7331 36.3958 80.5898 36.3828C80.4466 36.3698 80.3164 36.3112 80.1992 36.207C80.082 36.0898 80.0234 35.9141 80.0234 35.6797C80.0234 35.4583 80.1146 35.2695 80.2969 35.1133C80.4922 34.957 80.7135 34.8789 80.9609 34.8789C81.2604 34.8789 81.5339 34.9961 81.7813 35.2305C82.0417 35.4648 82.1719 35.7904 82.1719 36.207C82.1719 36.3503 82.1328 36.5065 82.0547 36.6758C81.9896 36.832 81.8854 36.9818 81.7422 37.125C81.599 37.2682 81.4102 37.3919 81.1758 37.4961C80.9414 37.5872 80.668 37.6328 80.3555 37.6328C80.043 37.6328 79.763 37.5742 79.5156 37.457C79.2682 37.3268 79.0599 37.1706 78.8906 36.9883C78.7214 36.793 78.5912 36.5846 78.5 36.3633C78.4219 36.1289 78.3828 35.9076 78.3828 35.6992C78.3828 35.4909 78.4479 35.2305 78.5781 34.918C78.7083 34.5924 78.9102 34.2865 79.1836 34C79.4701 33.7135 79.8216 33.4661 80.2383 33.2578C80.668 33.0495 81.1758 32.9453 81.7617 32.9453C83.3372 32.9453 84.4245 33.4987 85.0234 34.6055C85.6224 35.6992 85.7201 37.3333 85.3164 39.5078C85.1602 40.3802 85.0755 41.0898 85.0625 41.6367C85.0495 42.1836 85.082 42.6198 85.1602 42.9453C85.2383 43.2708 85.349 43.4987 85.4922 43.6289C85.6484 43.7591 85.8112 43.8372 85.9805 43.8633C86.1237 43.8893 86.2604 43.8763 86.3906 43.8242C86.4948 43.7982 86.5925 43.7396 86.6836 43.6484C86.7878 43.5443 86.8594 43.388 86.8984 43.1797L87.1523 43.2773ZM83.8516 42.2812C83.8385 41.8125 83.8581 41.3177 83.9102 40.7969C83.806 40.3932 83.5912 40.0221 83.2656 39.6836C82.9531 39.332 82.5951 39.1237 82.1914 39.0586C81.8919 39.0065 81.5794 39.013 81.2539 39.0781C80.9414 39.1302 80.6615 39.2474 80.4141 39.4297C80.1667 39.599 79.9714 39.8398 79.8281 40.1523C79.6849 40.4648 79.6328 40.849 79.6719 41.3047C79.737 42.0078 79.9323 42.5417 80.2578 42.9062C80.5964 43.2708 81.0912 43.4336 81.7422 43.3945C82.237 43.3685 82.6537 43.2448 82.9922 43.0234C83.3438 42.7891 83.6302 42.5417 83.8516 42.2812Z" fill="black"/>
    <path d="M72.8945 43.668C72.2826 43.668 71.6901 43.4727 71.1172 43.082C70.5573 42.6784 70.0885 42.125 69.7109 41.4219C69.8281 42.2682 69.9974 43.043 70.2188 43.7461C69.8672 43.7201 69.5156 43.7201 69.1641 43.7461C68.8125 43.7591 68.4674 43.7917 68.1289 43.8438C67.7904 43.8828 67.4583 43.9349 67.1328 44C66.8073 44.0521 66.5013 44.1042 66.2148 44.1562L66.0977 43.8828C66.3711 43.7135 66.6315 43.5312 66.8789 43.3359C67.1263 43.1276 67.3411 42.8867 67.5234 42.6133C67.7057 42.3268 67.8555 41.9883 67.9727 41.5977C68.0898 41.194 68.1615 40.7188 68.1875 40.1719C68.2005 39.625 68.2201 38.974 68.2461 38.2188C68.2852 37.4635 68.3112 36.6823 68.3242 35.875C68.3372 35.0547 68.3242 34.2604 68.2852 33.4922C68.2591 32.7109 68.2005 32.0339 68.1094 31.4609C68.0052 30.875 67.875 30.4193 67.7188 30.0938C67.5755 29.7552 67.4062 29.5013 67.2109 29.332C67.0156 29.1497 66.8073 29.0326 66.5859 28.9805C66.3646 28.9154 66.1432 28.8633 65.9219 28.8242V28.4531C66.0911 28.4792 66.332 28.5052 66.6445 28.5312C66.957 28.5443 67.2956 28.5443 67.6602 28.5312C68.0378 28.5182 68.4154 28.4857 68.793 28.4336C69.1836 28.3685 69.5352 28.2578 69.8477 28.1016C69.8086 28.4141 69.763 28.8307 69.7109 29.3516C69.6589 29.8594 69.6068 30.4388 69.5547 31.0898C69.5026 31.7409 69.457 32.444 69.418 33.1992C69.3919 33.9544 69.3789 34.7292 69.3789 35.5234C69.5482 35.2109 69.75 34.9115 69.9844 34.625C70.2188 34.3255 70.4727 34.0586 70.7461 33.8242C71.0195 33.5768 71.306 33.375 71.6055 33.2188C71.918 33.0495 72.237 32.9453 72.5625 32.9062C72.9531 32.8542 73.3828 32.9258 73.8516 33.1211C74.3203 33.3034 74.763 33.6289 75.1797 34.0977C75.5964 34.5534 75.9414 35.1523 76.2148 35.8945C76.5013 36.6237 76.6445 37.5026 76.6445 38.5312C76.6445 39.2474 76.5404 39.918 76.332 40.543C76.1237 41.168 75.8438 41.7148 75.4922 42.1836C75.1536 42.6393 74.7565 43.0039 74.3008 43.2773C73.8581 43.5378 73.3893 43.668 72.8945 43.668ZM69.5156 38.043C69.5156 38.3945 69.5872 38.7982 69.7305 39.2539C69.8737 39.6966 70.0755 40.1263 70.3359 40.543C70.6094 40.9466 70.9479 41.2917 71.3516 41.5781C71.7552 41.8516 72.224 41.9883 72.7578 41.9883C73.2786 41.9883 73.6953 41.8125 74.0078 41.4609C74.3203 41.0964 74.5547 40.6667 74.7109 40.1719C74.8672 39.6641 74.9648 39.1432 75.0039 38.6094C75.056 38.0755 75.0755 37.6393 75.0625 37.3008C75.0495 36.9492 74.9844 36.5716 74.8672 36.168C74.763 35.7643 74.6068 35.3932 74.3984 35.0547C74.2031 34.7031 73.9622 34.4167 73.6758 34.1953C73.3893 33.9609 73.0638 33.8503 72.6992 33.8633C72.2695 33.8763 71.8594 34.0195 71.4688 34.293C71.0781 34.5534 70.7331 34.8919 70.4336 35.3086C70.1471 35.7122 69.9193 36.1615 69.75 36.6562C69.5807 37.138 69.5026 37.6003 69.5156 38.043Z" fill="black"/>
    <path d="M57.7969 38.707C57.8359 37.9388 57.9987 37.2227 58.2852 36.5586C58.5846 35.8945 58.9688 35.3281 59.4375 34.8594C59.9062 34.3776 60.4336 34.013 61.0195 33.7656C61.6185 33.5182 62.237 33.4336 62.875 33.5117C63.513 33.5898 64.0013 33.7852 64.3398 34.0977C64.6914 34.4102 64.9388 34.7617 65.082 35.1523C65.2253 35.53 65.3034 35.9076 65.3164 36.2852C65.3294 36.6628 65.3294 36.9557 65.3164 37.1641C65.3034 37.3594 65.2773 37.5742 65.2383 37.8086C65.2122 38.043 65.1797 38.2773 65.1406 38.5117C65.1146 38.7331 65.1016 38.9479 65.1016 39.1563C65.1016 39.3516 65.1211 39.5143 65.1602 39.6445C64.8346 39.5404 64.457 39.4297 64.0273 39.3125C63.5977 39.1823 63.1289 39.0846 62.6211 39.0195C62.1263 38.9544 61.6055 38.9349 61.0586 38.9609C60.5247 38.974 59.9909 39.0651 59.457 39.2344C59.444 39.7292 59.4766 40.224 59.5547 40.7188C59.6458 41.2005 59.7891 41.6628 59.9844 42.1055C60.1536 42.4831 60.349 42.8151 60.5703 43.1016C60.7917 43.388 61.026 43.6094 61.2734 43.7656C61.5339 43.9089 61.7943 43.987 62.0547 44C62.3281 44.013 62.6016 43.9349 62.875 43.7656C63.0964 43.6094 63.2656 43.4206 63.3828 43.1992C63.487 43.0169 63.526 42.7956 63.5 42.5352C63.487 42.2747 63.3503 41.9753 63.0898 41.6367L65.5312 41.5195C65.4401 41.78 65.3034 42.1055 65.1211 42.4961C64.9518 42.8867 64.7174 43.2643 64.418 43.6289C64.1185 43.9935 63.7474 44.2995 63.3047 44.5469C62.862 44.7943 62.3281 44.905 61.7031 44.8789C61.0781 44.8398 60.5117 44.638 60.0039 44.2734C59.5091 43.9219 59.0924 43.4596 58.7539 42.8867C58.4154 42.3138 58.1615 41.6693 57.9922 40.9531C57.8229 40.224 57.7578 39.4753 57.7969 38.707ZM62.6406 34.0195C62.276 33.9805 61.918 34.0716 61.5664 34.293C61.2279 34.5143 60.9154 34.8333 60.6289 35.25C60.3555 35.6536 60.1211 36.1354 59.9258 36.6953C59.7305 37.2552 59.5938 37.8411 59.5156 38.4531C60.2578 38.362 60.9479 38.3164 61.5859 38.3164C62.224 38.3034 62.8164 38.3425 63.3633 38.4336C63.5065 38.1341 63.6367 37.75 63.7539 37.2813C63.8711 36.7995 63.9232 36.3307 63.9102 35.875C63.8971 35.4063 63.793 34.9961 63.5977 34.6445C63.4154 34.293 63.0964 34.0846 62.6406 34.0195Z" fill="black"/>
    <path d="M46.9375 37.8281C46.9635 37.2031 47.0872 36.5846 47.3086 35.9727C47.543 35.3477 47.849 34.7943 48.2266 34.3125C48.6042 33.8177 49.0404 33.4271 49.5352 33.1406C50.0299 32.8542 50.5573 32.7305 51.1172 32.7695C51.5469 32.7956 51.918 32.9062 52.2305 33.1016C52.543 33.2839 52.8099 33.5247 53.0312 33.8242C53.2656 34.1107 53.4609 34.4427 53.6172 34.8203C53.7734 35.1849 53.9036 35.5625 54.0078 35.9531C53.9818 35.1589 53.9427 34.3516 53.8906 33.5312C53.8385 32.7109 53.7604 31.9427 53.6562 31.2266C53.5911 30.7578 53.513 30.2956 53.4219 29.8398C53.3438 29.4492 53.2461 29.0456 53.1289 28.6289C53.0247 28.1992 52.901 27.8151 52.7578 27.4766C53.3307 27.5677 53.9557 27.6458 54.6328 27.7109C55.3229 27.763 56.0911 27.6589 56.9375 27.3984V27.7891C56.7422 27.8411 56.5404 27.8997 56.332 27.9648C56.1237 28.0169 55.9349 28.1146 55.7656 28.2578C55.6094 28.401 55.4727 28.6094 55.3555 28.8828C55.2513 29.1432 55.1927 29.5013 55.1797 29.957C55.1667 30.2695 55.1602 30.6667 55.1602 31.1484C55.1602 31.6172 55.1602 32.1445 55.1602 32.7305C55.1602 33.3034 55.1602 33.9089 55.1602 34.5469C55.1732 35.1719 55.1862 35.7904 55.1992 36.4023C55.2122 37.0013 55.2253 37.5742 55.2383 38.1211C55.2643 38.6549 55.2904 39.1237 55.3164 39.5273C55.3555 40.1263 55.4336 40.6146 55.5508 40.9922C55.668 41.3698 55.8177 41.6758 56 41.9102C56.1823 42.1315 56.3906 42.3073 56.625 42.4375C56.8594 42.5677 57.1133 42.6784 57.3867 42.7695L57.2891 43.1211C57.0677 43.082 56.8008 43.043 56.4883 43.0039C56.1758 42.9648 55.8438 42.9453 55.4922 42.9453C55.1406 42.9453 54.776 42.9648 54.3984 43.0039C54.0208 43.043 53.6693 43.1146 53.3438 43.2188C53.4479 42.737 53.5521 42.2682 53.6562 41.8125C53.7604 41.3568 53.8451 40.8294 53.9102 40.2305C53.7669 40.543 53.5716 40.8815 53.3242 41.2461C53.0898 41.6107 52.8034 41.9492 52.4648 42.2617C52.1393 42.5742 51.7617 42.8281 51.332 43.0234C50.9023 43.2188 50.4336 43.2969 49.9258 43.2578C49.3138 43.2188 48.806 43.0299 48.4023 42.6914C48.0117 42.3529 47.6992 41.9297 47.4648 41.4219C47.2435 40.901 47.0938 40.3281 47.0156 39.7031C46.9375 39.0781 46.9115 38.4531 46.9375 37.8281ZM51.4492 33.5508C51.0716 33.5378 50.7135 33.6419 50.375 33.8633C50.0495 34.0846 49.7565 34.3971 49.4961 34.8008C49.2357 35.1914 49.0208 35.6602 48.8516 36.207C48.6953 36.7409 48.5977 37.3203 48.5586 37.9453C48.5195 38.5964 48.5391 39.1432 48.6172 39.5859C48.6953 40.0286 48.819 40.3932 48.9883 40.6797C49.1706 40.9661 49.3919 41.181 49.6523 41.3242C49.9258 41.4674 50.2188 41.5521 50.5312 41.5781C51.0521 41.6302 51.5143 41.5586 51.918 41.3633C52.3216 41.168 52.6602 40.9076 52.9336 40.582C53.207 40.2565 53.4154 39.9049 53.5586 39.5273C53.7148 39.1367 53.7995 38.7721 53.8125 38.4336C53.8255 38.1081 53.7799 37.6784 53.6758 37.1445C53.5716 36.5977 53.4154 36.0638 53.207 35.543C53.0117 35.0091 52.7643 34.5469 52.4648 34.1562C52.1654 33.7656 51.8268 33.5638 51.4492 33.5508Z" fill="black"/>
    <path d="M41.4688 43.9023C41.7682 43.7982 42.0156 43.6615 42.2109 43.4922C42.4062 43.3229 42.556 43.1536 42.6602 42.9844C42.7904 42.7891 42.875 42.5872 42.9141 42.3789C43.2005 41.0508 43.3438 39.7878 43.3438 38.5898C43.3438 37.3789 43.2526 36.3438 43.0703 35.4844C43.0182 35.2109 42.9206 34.957 42.7773 34.7227C42.6602 34.5273 42.4974 34.3451 42.2891 34.1758C42.0807 33.9935 41.8138 33.8763 41.4883 33.8242L41.4688 33.5117C41.7292 33.5378 41.9701 33.5573 42.1914 33.5703C42.4258 33.5703 42.6276 33.5703 42.7969 33.5703H43.3438C43.5 33.5833 43.6562 33.5898 43.8125 33.5898C43.9557 33.6029 44.099 33.6094 44.2422 33.6094C44.3984 33.6094 44.5482 33.6224 44.6914 33.6484C44.6523 34.1172 44.6198 34.599 44.5938 35.0938C44.5677 35.5755 44.5482 36.0117 44.5352 36.4023C44.5091 36.8581 44.4961 37.3008 44.4961 37.7305C44.4701 38.2122 44.4505 38.7396 44.4375 39.3125C44.4245 39.8724 44.431 40.4063 44.457 40.9141C44.4831 41.4219 44.5286 41.8711 44.5938 42.2617C44.6589 42.6393 44.763 42.8867 44.9062 43.0039C44.9844 43.056 45.0885 43.1081 45.2188 43.1602C45.3229 43.2122 45.4596 43.2643 45.6289 43.3164C45.8112 43.3685 46.0326 43.4206 46.293 43.4727L46.3125 43.8047C46.0521 43.7917 45.7982 43.7917 45.5508 43.8047C45.3164 43.8047 45.1081 43.8047 44.9258 43.8047C44.7044 43.8177 44.4961 43.8242 44.3008 43.8242C44.0273 43.8372 43.7344 43.8633 43.4219 43.9023C43.1615 43.9284 42.8685 43.9609 42.543 44C42.2174 44.0391 41.9049 44.0846 41.6055 44.1367L41.4688 43.9023ZM43.4805 32.2031C43.0768 32.2292 42.7643 32.138 42.543 31.9297C42.3216 31.7083 42.1979 31.4609 42.1719 31.1875C42.1458 30.9141 42.2174 30.6602 42.3867 30.4258C42.569 30.1784 42.8555 30.0286 43.2461 29.9766C43.6497 29.9245 43.9688 30.0091 44.2031 30.2305C44.4505 30.4518 44.5938 30.7057 44.6328 30.9922C44.6719 31.2656 44.6003 31.5326 44.418 31.793C44.2357 32.0404 43.9232 32.1771 43.4805 32.2031Z" fill="black"/>
    <path d="M39.7891 43.1211C39.7109 43.3945 39.5937 43.6875 39.4375 44C39.2943 44.3125 39.099 44.6055 38.8516 44.8789C38.6042 45.1523 38.3047 45.3802 37.9531 45.5625C37.6146 45.7578 37.224 45.8685 36.7812 45.8945C36.4687 45.9206 36.1693 45.8945 35.8828 45.8164C35.6094 45.7513 35.3555 45.6536 35.1211 45.5234C34.8997 45.3932 34.7044 45.2435 34.5352 45.0742C34.3659 44.9049 34.2357 44.7357 34.1445 44.5664C33.9883 44.2279 33.9036 43.8893 33.8906 43.5508C33.8776 43.1992 33.9427 42.8932 34.0859 42.6328C34.2943 42.2943 34.5156 42.0794 34.75 41.9883C34.9974 41.8971 35.2318 41.8385 35.4531 41.8125C35.6615 41.7865 35.8763 41.7995 36.0977 41.8516C36.319 41.9036 36.5143 41.9883 36.6836 42.1055C36.8529 42.2227 36.9896 42.3724 37.0937 42.5547C37.1979 42.724 37.2435 42.9193 37.2305 43.1406C37.2174 43.3229 37.1654 43.4922 37.0742 43.6484C36.9961 43.7917 36.8919 43.9154 36.7617 44.0195C36.6315 44.1367 36.4948 44.2214 36.3516 44.2734C36.2083 44.3385 36.0781 44.3646 35.9609 44.3516C35.7786 44.3255 35.5898 44.2604 35.3945 44.1562C35.1992 44.0651 35.0885 43.9219 35.0625 43.7266C35.0365 43.5312 35.056 43.3555 35.1211 43.1992C35.1992 43.0299 35.3164 42.9128 35.4727 42.8477C35.707 42.7565 35.8893 42.724 36.0195 42.75C36.1628 42.763 36.2604 42.8086 36.3125 42.8867C36.3776 42.9648 36.4167 43.0495 36.4297 43.1406C36.4427 43.2318 36.4427 43.3034 36.4297 43.3555C36.3906 43.4857 36.3255 43.5768 36.2344 43.6289C36.1562 43.681 36.0521 43.7005 35.9219 43.6875C35.7917 43.6615 35.6289 43.5703 35.4336 43.4141C35.3945 43.5573 35.401 43.6745 35.4531 43.7656C35.5052 43.8568 35.5703 43.9219 35.6484 43.9609C35.7396 44.013 35.8568 44.0456 36 44.0586C36.2734 44.0846 36.4883 44 36.6445 43.8047C36.8008 43.5964 36.8659 43.3685 36.8398 43.1211C36.8268 42.8737 36.7096 42.6523 36.4883 42.457C36.2669 42.2617 35.9219 42.1771 35.4531 42.2031C35.1667 42.2292 34.9453 42.3203 34.7891 42.4766C34.6328 42.6328 34.5286 42.8216 34.4766 43.043C34.4245 43.2513 34.4245 43.4727 34.4766 43.707C34.5417 43.9414 34.6458 44.1432 34.7891 44.3125C34.9453 44.4948 35.1211 44.638 35.3164 44.7422C35.5117 44.8464 35.7135 44.918 35.9219 44.957C36.1302 44.9961 36.3385 45.0026 36.5469 44.9766C36.7552 44.9635 36.9505 44.918 37.1328 44.8398C37.3411 44.7487 37.5495 44.5859 37.7578 44.3516C37.9661 44.1172 38.1224 43.8372 38.2266 43.5117C38.3307 43.1732 38.3503 42.8021 38.2852 42.3984C38.2331 41.9818 38.0443 41.5586 37.7187 41.1289C37.5495 40.8945 37.2435 40.6211 36.8008 40.3086C36.3581 39.9831 35.8828 39.638 35.375 39.2734C34.8672 38.8958 34.3789 38.5052 33.9102 38.1016C33.4544 37.6979 33.1224 37.2812 32.9141 36.8516C32.7187 36.4349 32.6146 35.9531 32.6016 35.4062C32.5885 34.8594 32.7122 34.332 32.9727 33.8242C33.2331 33.3164 33.6562 32.8607 34.2422 32.457C34.8411 32.0534 35.6419 31.7865 36.6445 31.6562C37.3607 31.5651 38.0117 31.6172 38.5977 31.8125C39.1966 32.0078 39.6914 32.2943 40.082 32.6719C40.4727 33.0495 40.7331 33.5052 40.8633 34.0391C41.0065 34.5599 40.9805 35.1068 40.7852 35.6797C40.7331 35.862 40.6419 36.0508 40.5117 36.2461C40.3945 36.4414 40.2383 36.6237 40.043 36.793C39.8607 36.9622 39.6393 37.099 39.3789 37.2031C39.1185 37.2943 38.832 37.3268 38.5195 37.3008C38.2852 37.2878 38.0378 37.2292 37.7773 37.125C37.5169 37.0078 37.276 36.8646 37.0547 36.6953C36.8333 36.513 36.638 36.3112 36.4687 36.0898C36.2995 35.8685 36.1953 35.6341 36.1562 35.3867C36.0521 34.8398 36.1367 34.3971 36.4102 34.0586C36.6966 33.7201 37.1328 33.5247 37.7187 33.4727C37.9792 33.4596 38.2201 33.5052 38.4414 33.6094C38.6628 33.7005 38.8516 33.8242 39.0078 33.9805C39.1641 34.1367 39.2812 34.319 39.3594 34.5273C39.4375 34.7227 39.4635 34.9049 39.4375 35.0742C39.3594 35.6602 39.0339 35.9922 38.4609 36.0703C38.2526 36.0964 38.0247 36.0638 37.7773 35.9727C37.543 35.8815 37.3737 35.7057 37.2695 35.4453C37.2044 35.263 37.1914 35.0547 37.2305 34.8203C37.2695 34.5729 37.3997 34.3906 37.6211 34.2734C37.7253 34.2214 37.8359 34.2018 37.9531 34.2148C38.0833 34.2279 38.194 34.2669 38.2852 34.332C38.3763 34.3841 38.4414 34.4622 38.4805 34.5664C38.5195 34.6706 38.5195 34.7943 38.4805 34.9375C38.4414 35.0286 38.3828 35.1003 38.3047 35.1523C38.2396 35.1914 38.1484 35.2174 38.0312 35.2305C37.9141 35.2305 37.7578 35.1849 37.5625 35.0937C37.5755 35.263 37.6211 35.3867 37.6992 35.4648C37.7904 35.543 37.888 35.5951 37.9922 35.6211C38.1094 35.6602 38.2331 35.6797 38.3633 35.6797C38.5977 35.6536 38.7734 35.5885 38.8906 35.4844C39.0208 35.3672 39.099 35.237 39.125 35.0937C39.151 34.9375 39.125 34.7747 39.0469 34.6055C38.9687 34.4362 38.8385 34.2734 38.6562 34.1172C38.3958 33.9219 38.0898 33.8307 37.7383 33.8437C37.3867 33.8437 37.0807 33.987 36.8203 34.2734C36.4818 34.6901 36.3906 35.1003 36.5469 35.5039C36.7161 35.9076 37.0482 36.2396 37.543 36.5C37.6211 36.5391 37.7122 36.5846 37.8164 36.6367C37.9336 36.6888 38.0638 36.7214 38.207 36.7344C38.3633 36.7344 38.5326 36.7083 38.7148 36.6562C38.8971 36.6042 39.1055 36.5 39.3398 36.3437C39.6914 36.1094 39.8997 35.7969 39.9648 35.4062C40.0299 35.0156 39.9974 34.625 39.8672 34.2344C39.75 33.8437 39.5417 33.4922 39.2422 33.1797C38.9557 32.8672 38.6237 32.6719 38.2461 32.5937C37.8294 32.5156 37.4518 32.4961 37.1133 32.5352C36.7878 32.5612 36.4948 32.6263 36.2344 32.7305C35.974 32.8216 35.7396 32.9388 35.5312 33.082C35.3229 33.2122 35.1406 33.3424 34.9844 33.4727C34.9193 33.5378 34.8216 33.6549 34.6914 33.8242C34.5612 33.9935 34.4505 34.2083 34.3594 34.4687C34.2682 34.7161 34.2227 35.0091 34.2227 35.3477C34.2357 35.6732 34.3529 36.0247 34.5742 36.4023C34.7826 36.7669 35.0495 37.0859 35.375 37.3594C35.7135 37.6198 36.0651 37.8672 36.4297 38.1016C36.8073 38.3229 37.1784 38.5443 37.543 38.7656C37.9076 38.974 38.2331 39.2018 38.5195 39.4492C38.832 39.7096 39.0794 40.0091 39.2617 40.3477C39.457 40.6732 39.6003 41.0117 39.6914 41.3633C39.7956 41.7018 39.8477 42.0273 39.8477 42.3398C39.8607 42.6523 39.8411 42.9128 39.7891 43.1211Z" fill="black"/>
    <path d="M17.6602 38.707C17.6992 37.9388 17.862 37.2227 18.1484 36.5586C18.4479 35.8945 18.832 35.3281 19.3008 34.8594C19.7695 34.3776 20.2969 34.013 20.8828 33.7656C21.4818 33.5182 22.1003 33.4336 22.7383 33.5117C23.3763 33.5898 23.8646 33.7852 24.2031 34.0977C24.5547 34.4102 24.8021 34.7617 24.9453 35.1523C25.0885 35.53 25.1667 35.9076 25.1797 36.2852C25.1927 36.6628 25.1927 36.9557 25.1797 37.1641C25.1667 37.3594 25.1406 37.5742 25.1016 37.8086C25.0755 38.043 25.043 38.2773 25.0039 38.5117C24.9779 38.7331 24.9648 38.9479 24.9648 39.1563C24.9648 39.3516 24.9844 39.5143 25.0234 39.6445C24.6979 39.5404 24.3203 39.4297 23.8906 39.3125C23.4609 39.1823 22.9922 39.0846 22.4844 39.0195C21.9896 38.9544 21.4688 38.9349 20.9219 38.9609C20.388 38.974 19.8542 39.0651 19.3203 39.2344C19.3073 39.7292 19.3398 40.224 19.418 40.7188C19.5091 41.2005 19.6523 41.6628 19.8477 42.1055C20.0169 42.4831 20.2122 42.8151 20.4336 43.1016C20.6549 43.388 20.8893 43.6094 21.1367 43.7656C21.3971 43.9089 21.6576 43.987 21.918 44C22.1914 44.013 22.4648 43.9349 22.7383 43.7656C22.9596 43.6094 23.1289 43.4206 23.2461 43.1992C23.3503 43.0169 23.3893 42.7956 23.3633 42.5352C23.3503 42.2747 23.2135 41.9753 22.9531 41.6367L25.3945 41.5195C25.3034 41.78 25.1667 42.1055 24.9844 42.4961C24.8151 42.8867 24.5807 43.2643 24.2812 43.6289C23.9818 43.9935 23.6107 44.2995 23.168 44.5469C22.7253 44.7943 22.1914 44.905 21.5664 44.8789C20.9414 44.8398 20.375 44.638 19.8672 44.2734C19.3724 43.9219 18.9557 43.4596 18.6172 42.8867C18.2786 42.3138 18.0247 41.6693 17.8555 40.9531C17.6862 40.224 17.6211 39.4753 17.6602 38.707ZM22.5039 34.0195C22.1393 33.9805 21.7812 34.0716 21.4297 34.293C21.0911 34.5143 20.7786 34.8333 20.4922 35.25C20.2188 35.6536 19.9844 36.1354 19.7891 36.6953C19.5938 37.2552 19.457 37.8411 19.3789 38.4531C20.1211 38.362 20.8112 38.3164 21.4492 38.3164C22.0872 38.3034 22.6797 38.3425 23.2266 38.4336C23.3698 38.1341 23.5 37.75 23.6172 37.2813C23.7344 36.7995 23.7865 36.3307 23.7734 35.875C23.7604 35.4063 23.6562 34.9961 23.4609 34.6445C23.2786 34.293 22.9596 34.0846 22.5039 34.0195Z" fill="black"/>
    <path d="M9.82812 36.9688C10.0104 36.5391 10.2318 36.1224 10.4922 35.7188C10.7656 35.3021 11.0716 34.9375 11.4102 34.625C11.7617 34.3125 12.1393 34.0781 12.543 33.9219C12.9466 33.7526 13.3763 33.7135 13.832 33.8047C14.3529 33.8958 14.763 34.1497 15.0625 34.5664C15.375 34.9701 15.6029 35.4453 15.7461 35.9922C15.9023 36.5391 15.9935 37.1185 16.0195 37.7305C16.0456 38.3294 16.0521 38.8698 16.0391 39.3516C16.013 39.8464 15.9805 40.3021 15.9414 40.7188C15.9154 41.1354 15.8763 41.5326 15.8242 41.9102C15.7852 42.2878 15.7396 42.6654 15.6875 43.043C15.6354 43.4206 15.5833 43.8112 15.5312 44.2148C15.4661 44.7747 15.5117 45.1914 15.668 45.4648C15.8372 45.7513 16.0391 45.9141 16.2734 45.9531C16.5078 45.9922 16.7357 45.9206 16.957 45.7383C17.1914 45.556 17.3477 45.2891 17.4258 44.9375L17.7383 45.0742C17.7122 45.3086 17.6471 45.5365 17.543 45.7578C17.4518 45.9792 17.3151 46.1615 17.1328 46.3047C16.9635 46.4609 16.7552 46.5651 16.5078 46.6172C16.2604 46.6693 15.9805 46.6497 15.668 46.5586C15.3685 46.4674 15.1146 46.3372 14.9062 46.168C14.7109 45.9987 14.5612 45.7578 14.457 45.4453C14.3529 45.1328 14.2878 44.7292 14.2617 44.2344C14.2487 43.7396 14.2747 43.1211 14.3398 42.3789C14.3919 41.8841 14.4375 41.3633 14.4766 40.8164C14.5286 40.2565 14.5612 39.7096 14.5742 39.1758C14.5872 38.6289 14.5677 38.1081 14.5156 37.6133C14.4766 37.1185 14.3789 36.6888 14.2227 36.3242C14.0794 35.9466 13.8711 35.6471 13.5977 35.4258C13.3372 35.2044 12.9922 35.0938 12.5625 35.0938C12.2109 35.0938 11.8724 35.237 11.5469 35.5234C11.2344 35.8099 10.9609 36.1875 10.7266 36.6562C10.4922 37.125 10.3034 37.6654 10.1602 38.2773C10.0299 38.8893 9.96484 39.5208 9.96484 40.1719V40.1523C9.96484 40.2174 9.96484 40.2695 9.96484 40.3086C9.97786 40.3477 9.98438 40.3932 9.98438 40.4453C10.0495 41.1094 10.1276 41.6367 10.2188 42.0273C10.3229 42.418 10.4531 42.7305 10.6094 42.9648C10.7656 43.1992 10.9544 43.388 11.1758 43.5312C11.4102 43.6745 11.6836 43.8307 11.9961 44L11.8984 44.3516C11.651 44.2734 11.2995 44.1823 10.8438 44.0781C10.401 43.974 9.92578 43.8893 9.41797 43.8242C8.91016 43.7461 8.41536 43.7005 7.93359 43.6875C7.45182 43.6745 7.05469 43.7266 6.74219 43.8438L6.58594 43.375C6.75521 43.3099 6.9375 43.2448 7.13281 43.1797C7.34115 43.1146 7.53646 42.9779 7.71875 42.7695C7.90104 42.5612 8.05729 42.2487 8.1875 41.832C8.31771 41.4023 8.40234 40.7904 8.44141 39.9961C8.48047 39.2148 8.50651 38.375 8.51953 37.4766C8.54557 36.5781 8.55208 35.6927 8.53906 34.8203C8.52604 33.9479 8.49349 33.1211 8.44141 32.3398C8.40234 31.5456 8.33724 30.862 8.24609 30.2891C8.16797 29.8464 8.05729 29.5078 7.91406 29.2734C7.77083 29.026 7.60807 28.8438 7.42578 28.7266C7.25651 28.5964 7.08724 28.5117 6.91797 28.4727C6.73568 28.4336 6.57943 28.3945 6.44922 28.3555L6.42969 28.043C7.22396 28.1081 8.03125 28.1146 8.85156 28.0625C9.6849 27.9974 10.4857 27.7956 11.2539 27.457L11.293 27.7891C11.1497 27.9323 11.0065 28.0625 10.8633 28.1797C10.7331 28.2969 10.6094 28.4531 10.4922 28.6484C10.375 28.8438 10.2708 29.0977 10.1797 29.4102C10.1016 29.7227 10.043 30.1393 10.0039 30.6602C9.97786 30.9987 9.95182 31.4089 9.92578 31.8906C9.91276 32.3724 9.89323 32.8932 9.86719 33.4531C9.85417 34 9.84115 34.5794 9.82812 35.1914C9.82812 35.7904 9.82812 36.3828 9.82812 36.9688Z" fill="black"/>
    <path d="M5.94141 43.3555C6.24089 43.3555 6.52083 43.2513 6.78125 43.043C7.04167 42.8346 7.22396 42.4831 7.32812 41.9883L7.73828 42.1445C7.69922 42.457 7.57552 42.776 7.36719 43.1016C7.15885 43.4141 6.89193 43.681 6.56641 43.9023C6.24089 44.1237 5.86979 44.2669 5.45312 44.332C5.04948 44.3971 4.63281 44.332 4.20312 44.1367C3.73438 43.9154 3.39583 43.6289 3.1875 43.2773C2.97917 42.9258 2.84896 42.5221 2.79688 42.0664C2.74479 41.5977 2.73828 41.0964 2.77734 40.5625C2.81641 40.0156 2.83594 39.4492 2.83594 38.8633C2.83594 38.5247 2.82943 38.1276 2.81641 37.6719C2.81641 37.2031 2.80339 36.7083 2.77734 36.1875C2.76432 35.6667 2.73828 35.1328 2.69922 34.5859C2.66016 34.026 2.62109 33.4792 2.58203 32.9453C2.13932 32.9974 1.71615 33.0625 1.3125 33.1406C0.921875 33.2057 0.589844 33.2904 0.316406 33.3945C0.303385 33.2773 0.303385 33.1862 0.316406 33.1211C0.316406 33.056 0.322917 32.9974 0.335938 32.9453C0.335938 32.8802 0.335938 32.8151 0.335938 32.75C0.335938 32.6719 0.322917 32.5677 0.296875 32.4375C0.609375 32.4115 0.954427 32.3854 1.33203 32.3594C1.72266 32.3333 2.11979 32.3073 2.52344 32.2812C2.51042 32.099 2.4974 31.9232 2.48438 31.7539C2.47135 31.5716 2.45182 31.3958 2.42578 31.2266C2.36068 30.6146 2.23698 30.1263 2.05469 29.7617C1.88542 29.3971 1.69661 29.1172 1.48828 28.9219C1.27995 28.7266 1.08464 28.5964 0.902344 28.5312C0.720052 28.4531 0.583333 28.401 0.492188 28.375L0.550781 28.0039C0.798177 28.1081 1.10417 28.1797 1.46875 28.2188C1.83333 28.2448 2.21094 28.2448 2.60156 28.2188C3.00521 28.1797 3.39583 28.1146 3.77344 28.0234C4.16406 27.9323 4.5026 27.8151 4.78906 27.6719C4.65885 28.0365 4.54167 28.6159 4.4375 29.4102C4.34635 30.2044 4.26823 31.1289 4.20312 32.1836C4.88021 32.1445 5.36849 32.0924 5.66797 32.0273C5.60286 32.1055 5.57031 32.2357 5.57031 32.418C5.57031 32.5872 5.58984 32.7435 5.62891 32.8867C5.40755 32.8607 5.17318 32.8477 4.92578 32.8477C4.67839 32.8346 4.42448 32.8281 4.16406 32.8281C4.125 33.5833 4.09896 34.3711 4.08594 35.1914C4.07292 36.0117 4.07943 36.8255 4.10547 37.6328C4.14453 38.4271 4.19661 39.2083 4.26172 39.9766C4.33984 40.7318 4.4375 41.4284 4.55469 42.0664C4.65885 42.5221 4.84115 42.8477 5.10156 43.043C5.36198 43.2383 5.64193 43.3424 5.94141 43.3555Z" fill="black"/>
    <path d="M223.871 9.63673C224.027 9.15496 224.249 8.67318 224.535 8.19141C224.822 7.70964 225.147 7.27996 225.512 6.90235C225.889 6.51173 226.293 6.20574 226.723 5.98438C227.165 5.76303 227.621 5.66537 228.09 5.69141C228.52 5.73048 228.871 5.91928 229.145 6.25782C229.431 6.59636 229.659 7.00001 229.828 7.46876C229.997 7.92449 230.108 8.39975 230.16 8.89454C230.225 9.37631 230.251 9.77996 230.238 10.1055C230.212 10.5091 230.128 10.8997 229.984 11.2774C229.854 11.6419 229.704 12.013 229.535 12.3906C229.379 12.7552 229.229 13.1328 229.086 13.5234C228.943 13.9141 228.858 14.3242 228.832 14.7539C228.806 15.1836 228.852 15.5938 228.969 15.9844C229.099 16.362 229.281 16.655 229.516 16.8633C229.75 17.0716 230.023 17.1563 230.336 17.1172C230.661 17.0912 230.993 16.8698 231.332 16.4531L231.586 16.668C231.456 16.8893 231.241 17.1042 230.941 17.3125C230.642 17.5339 230.29 17.6445 229.887 17.6445C229.613 17.6445 229.34 17.5859 229.066 17.4688C228.806 17.3646 228.565 17.1953 228.344 16.9609C228.135 16.7135 227.96 16.401 227.816 16.0234C227.686 15.6458 227.615 15.1836 227.602 14.6367C227.602 14.181 227.66 13.7578 227.777 13.3672C227.895 12.9766 228.018 12.5859 228.148 12.1953C228.292 11.8047 228.415 11.401 228.52 10.9844C228.637 10.5547 228.689 10.0794 228.676 9.5586C228.65 9.07683 228.572 8.68621 228.441 8.38673C228.324 8.07423 228.174 7.83985 227.992 7.6836C227.823 7.51433 227.634 7.41016 227.426 7.3711C227.23 7.31902 227.048 7.306 226.879 7.33204C226.527 7.39714 226.169 7.59897 225.805 7.93751C225.44 8.26303 225.108 8.67969 224.809 9.18751C224.522 9.6823 224.288 10.2487 224.105 10.8867C223.923 11.5247 223.826 12.1758 223.812 12.8399V12.8008C223.812 13.1263 223.806 13.4128 223.793 13.6602C223.78 13.9076 223.786 14.1159 223.812 14.2852C223.812 14.6628 223.845 14.9622 223.91 15.1836C223.988 15.3919 224.073 15.5547 224.164 15.6719C224.255 15.7891 224.353 15.8737 224.457 15.9258C224.574 15.9649 224.672 15.9909 224.75 16.0039L224.73 16.3555C224.548 16.3164 224.314 16.2969 224.027 16.2969C223.754 16.2839 223.454 16.2969 223.129 16.3359C222.803 16.375 222.465 16.4466 222.113 16.5508C221.775 16.655 221.462 16.7982 221.176 16.9805L221.039 16.707C221.234 16.5508 221.404 16.4141 221.547 16.2969C221.703 16.1667 221.833 16.0039 221.938 15.8086C222.055 15.6133 222.152 15.3594 222.23 15.0469C222.309 14.7344 222.367 14.3242 222.406 13.8164C222.484 12.7878 222.536 11.7787 222.562 10.7891C222.589 9.78647 222.562 8.85548 222.484 7.9961C222.458 7.72266 222.387 7.51433 222.27 7.3711C222.165 7.22787 222.035 7.13022 221.879 7.07813C221.723 7.01303 221.56 6.98048 221.391 6.98048C221.221 6.98048 221.059 6.98699 220.902 7.00001L220.883 6.66798C221.169 6.64193 221.462 6.60938 221.762 6.57032C222.074 6.53126 222.374 6.49219 222.66 6.45313C222.947 6.41407 223.201 6.37501 223.422 6.33594C223.656 6.28386 223.839 6.22527 223.969 6.16016C223.943 6.57683 223.923 6.9935 223.91 7.41016C223.91 7.81381 223.904 8.1849 223.891 8.52344C223.878 8.91407 223.871 9.28516 223.871 9.63673Z" fill="black"/>
    <path d="M212.25 11.707C212.289 10.9388 212.452 10.2227 212.738 9.5586C213.038 8.89453 213.422 8.32813 213.891 7.85938C214.359 7.37761 214.887 7.01302 215.473 6.76563C216.072 6.51823 216.69 6.4336 217.328 6.51172C217.966 6.58985 218.454 6.78516 218.793 7.09766C219.145 7.41016 219.392 7.76172 219.535 8.15235C219.678 8.52995 219.757 8.90756 219.77 9.28516C219.783 9.66276 219.783 9.95573 219.77 10.1641C219.757 10.3594 219.73 10.5742 219.691 10.8086C219.665 11.043 219.633 11.2773 219.594 11.5117C219.568 11.7331 219.555 11.9479 219.555 12.1563C219.555 12.3516 219.574 12.5143 219.613 12.6445C219.288 12.5404 218.91 12.4297 218.48 12.3125C218.051 12.1823 217.582 12.0846 217.074 12.0195C216.579 11.9544 216.059 11.9349 215.512 11.9609C214.978 11.974 214.444 12.0651 213.91 12.2344C213.897 12.7292 213.93 13.224 214.008 13.7188C214.099 14.2005 214.242 14.6628 214.438 15.1055C214.607 15.4831 214.802 15.8151 215.023 16.1016C215.245 16.388 215.479 16.6094 215.727 16.7656C215.987 16.9089 216.247 16.987 216.508 17C216.781 17.013 217.055 16.9349 217.328 16.7656C217.549 16.6094 217.719 16.4206 217.836 16.1992C217.94 16.0169 217.979 15.7956 217.953 15.5352C217.94 15.2747 217.803 14.9753 217.543 14.6367L219.984 14.5195C219.893 14.78 219.757 15.1055 219.574 15.4961C219.405 15.8867 219.171 16.2643 218.871 16.6289C218.572 16.9935 218.201 17.2995 217.758 17.5469C217.315 17.7943 216.781 17.905 216.156 17.8789C215.531 17.8398 214.965 17.638 214.457 17.2734C213.962 16.9219 213.546 16.4596 213.207 15.8867C212.868 15.3138 212.615 14.6693 212.445 13.9531C212.276 13.224 212.211 12.4753 212.25 11.707ZM217.094 7.01953C216.729 6.98047 216.371 7.07162 216.02 7.29297C215.681 7.51433 215.368 7.83334 215.082 8.25C214.809 8.65365 214.574 9.13542 214.379 9.69532C214.184 10.2552 214.047 10.8411 213.969 11.4531C214.711 11.362 215.401 11.3164 216.039 11.3164C216.677 11.3034 217.27 11.3425 217.816 11.4336C217.96 11.1341 218.09 10.75 218.207 10.2813C218.324 9.79948 218.376 9.33073 218.363 8.875C218.35 8.40625 218.246 7.9961 218.051 7.64453C217.868 7.29297 217.549 7.08464 217.094 7.01953Z" fill="black"/>
    <path d="M207.406 5.88672C207.81 5.8737 208.22 5.98438 208.637 6.21875C209.053 6.4401 209.431 6.79167 209.77 7.27344C210.121 7.75521 210.401 8.36719 210.609 9.10938C210.831 9.83854 210.941 10.6979 210.941 11.6875C210.941 12.6771 210.798 13.543 210.512 14.2852C210.225 15.0273 209.861 15.6458 209.418 16.1406C208.988 16.6224 208.507 16.9805 207.973 17.2148C207.439 17.4622 206.924 17.5729 206.43 17.5469C205.922 17.5208 205.486 17.4036 205.121 17.1953C204.77 16.987 204.477 16.7266 204.242 16.4141C204.229 16.7656 204.216 17.1693 204.203 17.625C204.203 18.0938 204.197 18.556 204.184 19.0117C204.184 19.4674 204.184 19.8906 204.184 20.2812C204.197 20.6849 204.203 21.0104 204.203 21.2578C204.229 21.8568 204.405 22.306 204.73 22.6055C205.056 22.918 205.499 23.1198 206.059 23.2109L205.902 23.582C205.564 23.5299 205.147 23.4974 204.652 23.4844C204.158 23.4844 203.663 23.5039 203.168 23.543C202.686 23.5951 202.237 23.6602 201.82 23.7383C201.404 23.8294 201.104 23.9336 200.922 24.0508L200.746 23.7188C201.007 23.5495 201.241 23.3867 201.449 23.2305C201.658 23.0742 201.84 22.8398 201.996 22.5273C202.165 22.2279 202.302 21.8112 202.406 21.2773C202.523 20.7435 202.615 20.0273 202.68 19.1289C202.732 18.2305 202.771 17.3516 202.797 16.4922C202.823 15.6198 202.836 14.7995 202.836 14.0312C202.849 13.263 202.855 12.5469 202.855 11.8828C202.855 11.2057 202.862 10.6133 202.875 10.1055C202.888 9.57161 202.842 9.07682 202.738 8.62109C202.634 8.15234 202.478 7.7487 202.27 7.41016C202.061 7.05859 201.801 6.78516 201.488 6.58984C201.189 6.38151 200.844 6.26432 200.453 6.23828L200.57 5.76953C201.013 5.82161 201.404 5.86068 201.742 5.88672C202.094 5.89974 202.413 5.90625 202.699 5.90625C202.986 5.89323 203.246 5.8737 203.48 5.84766C203.728 5.80859 203.962 5.75651 204.184 5.69141C204.132 6.1862 204.092 6.66146 204.066 7.11719C204.04 7.57292 204.021 7.98958 204.008 8.36719C204.385 7.625 204.867 7.03906 205.453 6.60938C206.052 6.16667 206.703 5.92578 207.406 5.88672ZM209.535 11.3555C209.548 10.9518 209.503 10.4896 209.398 9.96875C209.294 9.4349 209.132 8.93359 208.91 8.46484C208.689 7.99609 208.402 7.61198 208.051 7.3125C207.699 7.01302 207.283 6.88932 206.801 6.94141C206.306 7.00651 205.889 7.22786 205.551 7.60547C205.225 7.97005 204.958 8.40625 204.75 8.91406C204.555 9.42188 204.411 9.96224 204.32 10.5352C204.229 11.1081 204.184 11.6159 204.184 12.0586C204.171 12.293 204.184 12.6445 204.223 13.1133C204.262 13.569 204.353 14.0247 204.496 14.4805C204.639 14.9232 204.848 15.3138 205.121 15.6523C205.408 15.9909 205.785 16.1602 206.254 16.1602C206.645 16.1602 207.029 16.043 207.406 15.8086C207.784 15.5612 208.122 15.2292 208.422 14.8125C208.734 14.3828 208.988 13.875 209.184 13.2891C209.392 12.7031 209.509 12.0586 209.535 11.3555Z" fill="black"/>
    <path d="M196.254 6.1211C196.801 6.10808 197.341 6.21876 197.875 6.45313C198.409 6.68751 198.891 7.03907 199.32 7.50782C199.75 7.97657 200.095 8.54948 200.355 9.22657C200.629 9.89063 200.766 10.6523 200.766 11.5117C200.766 12.3711 200.655 13.1328 200.434 13.7969C200.225 14.4479 199.939 15.0013 199.574 15.457C199.223 15.9128 198.812 16.2643 198.344 16.5117C197.888 16.7461 197.406 16.8828 196.898 16.9219C196.326 16.9609 195.766 16.8698 195.219 16.6484C194.672 16.4141 194.177 16.069 193.734 15.6133C193.305 15.1445 192.953 14.5716 192.68 13.8945C192.406 13.2044 192.263 12.4167 192.25 11.5313C192.224 10.6198 192.335 9.83204 192.582 9.16797C192.842 8.49089 193.168 7.931 193.559 7.48829C193.949 7.04558 194.385 6.71355 194.867 6.49219C195.349 6.27084 195.811 6.14714 196.254 6.1211ZM197.074 15.6328C197.348 15.6068 197.641 15.4896 197.953 15.2813C198.266 15.0729 198.539 14.7669 198.773 14.3633C199.008 13.9466 199.177 13.4388 199.281 12.8398C199.398 12.2279 199.392 11.5117 199.262 10.6914C199.132 9.8711 198.936 9.20704 198.676 8.69922C198.415 8.19141 198.129 7.80079 197.816 7.52735C197.517 7.24089 197.211 7.0586 196.898 6.98047C196.586 6.88933 196.312 6.85027 196.078 6.86329C195.701 6.88933 195.382 7.01954 195.121 7.25391C194.861 7.47527 194.639 7.76823 194.457 8.13282C194.288 8.48438 194.158 8.88803 194.066 9.34376C193.988 9.79948 193.943 10.2747 193.93 10.7695C193.904 11.3945 193.949 12.0195 194.066 12.6445C194.184 13.2695 194.385 13.8294 194.672 14.3242C194.945 14.806 195.29 15.1576 195.707 15.3789C196.124 15.6003 196.579 15.6849 197.074 15.6328Z" fill="black"/>
    <path d="M180.746 6.1211C181.293 6.10808 181.833 6.21876 182.367 6.45313C182.901 6.68751 183.383 7.03907 183.812 7.50782C184.242 7.97657 184.587 8.54948 184.848 9.22657C185.121 9.89063 185.258 10.6523 185.258 11.5117C185.258 12.3711 185.147 13.1328 184.926 13.7969C184.717 14.4479 184.431 15.0013 184.066 15.457C183.715 15.9128 183.305 16.2643 182.836 16.5117C182.38 16.7461 181.898 16.8828 181.391 16.9219C180.818 16.9609 180.258 16.8698 179.711 16.6484C179.164 16.4141 178.669 16.069 178.227 15.6133C177.797 15.1445 177.445 14.5716 177.172 13.8945C176.898 13.2044 176.755 12.4167 176.742 11.5313C176.716 10.6198 176.827 9.83204 177.074 9.16797C177.335 8.49089 177.66 7.931 178.051 7.48829C178.441 7.04558 178.878 6.71355 179.359 6.49219C179.841 6.27084 180.303 6.14714 180.746 6.1211ZM181.566 15.6328C181.84 15.6068 182.133 15.4896 182.445 15.2813C182.758 15.0729 183.031 14.7669 183.266 14.3633C183.5 13.9466 183.669 13.4388 183.773 12.8398C183.891 12.2279 183.884 11.5117 183.754 10.6914C183.624 9.8711 183.428 9.20704 183.168 8.69922C182.908 8.19141 182.621 7.80079 182.309 7.52735C182.009 7.24089 181.703 7.0586 181.391 6.98047C181.078 6.88933 180.805 6.85027 180.57 6.86329C180.193 6.88933 179.874 7.01954 179.613 7.25391C179.353 7.47527 179.132 7.76823 178.949 8.13282C178.78 8.48438 178.65 8.88803 178.559 9.34376C178.48 9.79948 178.435 10.2747 178.422 10.7695C178.396 11.3945 178.441 12.0195 178.559 12.6445C178.676 13.2695 178.878 13.8294 179.164 14.3242C179.437 14.806 179.783 15.1576 180.199 15.3789C180.616 15.6003 181.072 15.6849 181.566 15.6328Z" fill="black"/>
    <path d="M175.238 16.3555C175.538 16.3555 175.818 16.2513 176.078 16.043C176.339 15.8346 176.521 15.4831 176.625 14.9883L177.035 15.1445C176.996 15.457 176.872 15.776 176.664 16.1016C176.456 16.4141 176.189 16.681 175.863 16.9023C175.538 17.1237 175.167 17.2669 174.75 17.332C174.346 17.3971 173.93 17.332 173.5 17.1367C173.031 16.9154 172.693 16.6289 172.484 16.2773C172.276 15.9258 172.146 15.5221 172.094 15.0664C172.042 14.5977 172.035 14.0964 172.074 13.5625C172.113 13.0156 172.133 12.4492 172.133 11.8633C172.133 11.5247 172.126 11.1276 172.113 10.6719C172.113 10.2031 172.1 9.70833 172.074 9.1875C172.061 8.66667 172.035 8.13281 171.996 7.58594C171.957 7.02604 171.918 6.47917 171.879 5.94531C171.436 5.9974 171.013 6.0625 170.609 6.14062C170.219 6.20573 169.887 6.29036 169.613 6.39453C169.6 6.27734 169.6 6.1862 169.613 6.12109C169.613 6.05599 169.62 5.9974 169.633 5.94531C169.633 5.88021 169.633 5.8151 169.633 5.75C169.633 5.67188 169.62 5.56771 169.594 5.4375C169.906 5.41146 170.251 5.38542 170.629 5.35938C171.02 5.33333 171.417 5.30729 171.82 5.28125C171.807 5.09896 171.794 4.92318 171.781 4.75391C171.768 4.57161 171.749 4.39583 171.723 4.22656C171.658 3.61458 171.534 3.1263 171.352 2.76172C171.182 2.39714 170.993 2.11719 170.785 1.92188C170.577 1.72656 170.382 1.59635 170.199 1.53125C170.017 1.45312 169.88 1.40104 169.789 1.375L169.848 1.00391C170.095 1.10807 170.401 1.17969 170.766 1.21875C171.13 1.24479 171.508 1.24479 171.898 1.21875C172.302 1.17969 172.693 1.11458 173.07 1.02344C173.461 0.932292 173.799 0.815104 174.086 0.671875C173.956 1.03646 173.839 1.61589 173.734 2.41016C173.643 3.20443 173.565 4.12891 173.5 5.18359C174.177 5.14453 174.665 5.09245 174.965 5.02734C174.9 5.10547 174.867 5.23568 174.867 5.41797C174.867 5.58724 174.887 5.74349 174.926 5.88672C174.704 5.86068 174.47 5.84766 174.223 5.84766C173.975 5.83464 173.721 5.82812 173.461 5.82812C173.422 6.58333 173.396 7.37109 173.383 8.19141C173.37 9.01172 173.376 9.82552 173.402 10.6328C173.441 11.4271 173.493 12.2083 173.559 12.9766C173.637 13.7318 173.734 14.4284 173.852 15.0664C173.956 15.5221 174.138 15.8477 174.398 16.043C174.659 16.2383 174.939 16.3424 175.238 16.3555Z" fill="black"/>
    <path d="M157.191 9.63673C157.348 9.15496 157.569 8.67318 157.855 8.19141C158.142 7.70964 158.467 7.27996 158.832 6.90235C159.21 6.51173 159.613 6.20574 160.043 5.98438C160.486 5.76303 160.941 5.66537 161.41 5.69141C161.84 5.73048 162.191 5.91928 162.465 6.25782C162.751 6.59636 162.979 7.00001 163.148 7.46876C163.318 7.92449 163.428 8.39975 163.48 8.89454C163.546 9.37631 163.572 9.77996 163.559 10.1055C163.533 10.5091 163.448 10.8997 163.305 11.2774C163.174 11.6419 163.025 12.013 162.855 12.3906C162.699 12.7552 162.549 13.1328 162.406 13.5234C162.263 13.9141 162.178 14.3242 162.152 14.7539C162.126 15.1836 162.172 15.5938 162.289 15.9844C162.419 16.362 162.602 16.655 162.836 16.8633C163.07 17.0716 163.344 17.1563 163.656 17.1172C163.982 17.0912 164.314 16.8698 164.652 16.4531L164.906 16.668C164.776 16.8893 164.561 17.1042 164.262 17.3125C163.962 17.5339 163.611 17.6445 163.207 17.6445C162.934 17.6445 162.66 17.5859 162.387 17.4688C162.126 17.3646 161.885 17.1953 161.664 16.9609C161.456 16.7135 161.28 16.401 161.137 16.0234C161.007 15.6458 160.935 15.1836 160.922 14.6367C160.922 14.181 160.98 13.7578 161.098 13.3672C161.215 12.9766 161.339 12.5859 161.469 12.1953C161.612 11.8047 161.736 11.401 161.84 10.9844C161.957 10.5547 162.009 10.0794 161.996 9.5586C161.97 9.07683 161.892 8.68621 161.762 8.38673C161.645 8.07423 161.495 7.83985 161.312 7.6836C161.143 7.51433 160.954 7.41016 160.746 7.3711C160.551 7.31902 160.368 7.306 160.199 7.33204C159.848 7.39714 159.49 7.59897 159.125 7.93751C158.76 8.26303 158.428 8.67969 158.129 9.18751C157.842 9.6823 157.608 10.2487 157.426 10.8867C157.243 11.5247 157.146 12.1758 157.133 12.8399V12.8008C157.133 13.1263 157.126 13.4128 157.113 13.6602C157.1 13.9076 157.107 14.1159 157.133 14.2852C157.133 14.6628 157.165 14.9622 157.23 15.1836C157.309 15.3919 157.393 15.5547 157.484 15.6719C157.576 15.7891 157.673 15.8737 157.777 15.9258C157.895 15.9649 157.992 15.9909 158.07 16.0039L158.051 16.3555C157.868 16.3164 157.634 16.2969 157.348 16.2969C157.074 16.2839 156.775 16.2969 156.449 16.3359C156.124 16.375 155.785 16.4466 155.434 16.5508C155.095 16.655 154.783 16.7982 154.496 16.9805L154.359 16.707C154.555 16.5508 154.724 16.4141 154.867 16.2969C155.023 16.1667 155.154 16.0039 155.258 15.8086C155.375 15.6133 155.473 15.3594 155.551 15.0469C155.629 14.7344 155.688 14.3242 155.727 13.8164C155.805 12.7878 155.857 11.7787 155.883 10.7891C155.909 9.78647 155.883 8.85548 155.805 7.9961C155.779 7.72266 155.707 7.51433 155.59 7.3711C155.486 7.22787 155.355 7.13022 155.199 7.07813C155.043 7.01303 154.88 6.98048 154.711 6.98048C154.542 6.98048 154.379 6.98699 154.223 7.00001L154.203 6.66798C154.49 6.64193 154.783 6.60938 155.082 6.57032C155.395 6.53126 155.694 6.49219 155.98 6.45313C156.267 6.41407 156.521 6.37501 156.742 6.33594C156.977 6.28386 157.159 6.22527 157.289 6.16016C157.263 6.57683 157.243 6.9935 157.23 7.41016C157.23 7.81381 157.224 8.1849 157.211 8.52344C157.198 8.91407 157.191 9.28516 157.191 9.63673Z" fill="black"/>
    <path d="M149.203 6.1211C149.75 6.10808 150.29 6.21876 150.824 6.45313C151.358 6.68751 151.84 7.03907 152.27 7.50782C152.699 7.97657 153.044 8.54948 153.305 9.22657C153.578 9.89063 153.715 10.6523 153.715 11.5117C153.715 12.3711 153.604 13.1328 153.383 13.7969C153.174 14.4479 152.888 15.0013 152.523 15.457C152.172 15.9128 151.762 16.2643 151.293 16.5117C150.837 16.7461 150.355 16.8828 149.848 16.9219C149.275 16.9609 148.715 16.8698 148.168 16.6484C147.621 16.4141 147.126 16.069 146.684 15.6133C146.254 15.1445 145.902 14.5716 145.629 13.8945C145.355 13.2044 145.212 12.4167 145.199 11.5313C145.173 10.6198 145.284 9.83204 145.531 9.16797C145.792 8.49089 146.117 7.931 146.508 7.48829C146.898 7.04558 147.335 6.71355 147.816 6.49219C148.298 6.27084 148.76 6.14714 149.203 6.1211ZM150.023 15.6328C150.297 15.6068 150.59 15.4896 150.902 15.2813C151.215 15.0729 151.488 14.7669 151.723 14.3633C151.957 13.9466 152.126 13.4388 152.23 12.8398C152.348 12.2279 152.341 11.5117 152.211 10.6914C152.081 9.8711 151.885 9.20704 151.625 8.69922C151.365 8.19141 151.078 7.80079 150.766 7.52735C150.466 7.24089 150.16 7.0586 149.848 6.98047C149.535 6.88933 149.262 6.85027 149.027 6.86329C148.65 6.88933 148.331 7.01954 148.07 7.25391C147.81 7.47527 147.589 7.76823 147.406 8.13282C147.237 8.48438 147.107 8.88803 147.016 9.34376C146.937 9.79948 146.892 10.2747 146.879 10.7695C146.853 11.3945 146.898 12.0195 147.016 12.6445C147.133 13.2695 147.335 13.8294 147.621 14.3242C147.895 14.806 148.24 15.1576 148.656 15.3789C149.073 15.6003 149.529 15.6849 150.023 15.6328Z" fill="black"/>
    <path d="M140.336 7.07812C139.776 7.07812 139.301 7.20833 138.91 7.46875C138.533 7.71615 138.227 8.05469 137.992 8.48438C137.758 8.91406 137.589 9.40885 137.484 9.96875C137.38 10.5286 137.341 11.1146 137.367 11.7266C137.419 13.0938 137.693 14.181 138.188 14.9883C138.682 15.7826 139.346 16.1797 140.18 16.1797C140.648 16.1797 141.065 16.0885 141.43 15.9062C141.794 15.724 142.1 15.5091 142.348 15.2617C142.608 15.0013 142.81 14.7344 142.953 14.4609C143.096 14.1745 143.174 13.9401 143.188 13.7578H143.656C143.591 14.1615 143.448 14.5716 143.227 14.9883C143.018 15.3919 142.732 15.763 142.367 16.1016C142.003 16.4271 141.573 16.6875 141.078 16.8828C140.583 17.0781 140.03 17.1562 139.418 17.1172C138.637 17.0651 137.966 16.8438 137.406 16.4531C136.859 16.0495 136.417 15.5482 136.078 14.9492C135.74 14.3372 135.512 13.6667 135.395 12.9375C135.277 12.1953 135.264 11.4727 135.355 10.7695C135.434 10.0664 135.596 9.4349 135.844 8.875C136.091 8.3151 136.397 7.83984 136.762 7.44922C137.126 7.05859 137.536 6.75911 137.992 6.55078C138.461 6.34245 138.956 6.23177 139.477 6.21875C139.88 6.19271 140.303 6.26432 140.746 6.43359C141.189 6.58984 141.625 6.77865 142.055 7C142.471 7.22135 142.79 7.27344 143.012 7.15625C143.233 7.03906 143.415 6.64193 143.559 5.96484L143.988 5.94531L143.891 10.6133L143.422 10.7695C143.383 10.4701 143.298 10.112 143.168 9.69531C143.038 9.26562 142.849 8.86198 142.602 8.48438C142.354 8.09375 142.042 7.76172 141.664 7.48828C141.286 7.21484 140.844 7.07812 140.336 7.07812Z" fill="black"/>
    <path d="M129.945 16.9023C130.245 16.7982 130.492 16.6615 130.688 16.4922C130.883 16.3229 131.033 16.1536 131.137 15.9844C131.267 15.7891 131.352 15.5872 131.391 15.3789C131.677 14.0508 131.82 12.7878 131.82 11.5898C131.82 10.3789 131.729 9.34375 131.547 8.48438C131.495 8.21094 131.397 7.95704 131.254 7.72266C131.137 7.52735 130.974 7.34506 130.766 7.17579C130.557 6.99349 130.29 6.87631 129.965 6.82422L129.945 6.51172C130.206 6.53776 130.447 6.5573 130.668 6.57032C130.902 6.57032 131.104 6.57032 131.273 6.57032H131.82C131.977 6.58334 132.133 6.58985 132.289 6.58985C132.432 6.60287 132.576 6.60938 132.719 6.60938C132.875 6.60938 133.025 6.6224 133.168 6.64844C133.129 7.11719 133.096 7.59896 133.07 8.09375C133.044 8.57552 133.025 9.01172 133.012 9.40235C132.986 9.85808 132.973 10.3008 132.973 10.7305C132.947 11.2122 132.927 11.7396 132.914 12.3125C132.901 12.8724 132.908 13.4063 132.934 13.9141C132.96 14.4219 133.005 14.8711 133.07 15.2617C133.135 15.6393 133.24 15.8867 133.383 16.0039C133.461 16.056 133.565 16.1081 133.695 16.1602C133.799 16.2122 133.936 16.2643 134.105 16.3164C134.288 16.3685 134.509 16.4206 134.77 16.4727L134.789 16.8047C134.529 16.7917 134.275 16.7917 134.027 16.8047C133.793 16.8047 133.585 16.8047 133.402 16.8047C133.181 16.8177 132.973 16.8242 132.777 16.8242C132.504 16.8372 132.211 16.8633 131.898 16.9023C131.638 16.9284 131.345 16.9609 131.02 17C130.694 17.0391 130.382 17.0846 130.082 17.1367L129.945 16.9023ZM131.957 5.20313C131.553 5.22917 131.241 5.13802 131.02 4.92969C130.798 4.70834 130.674 4.46094 130.648 4.1875C130.622 3.91407 130.694 3.66016 130.863 3.42578C131.046 3.17839 131.332 3.02865 131.723 2.97657C132.126 2.92448 132.445 3.00912 132.68 3.23047C132.927 3.45183 133.07 3.70573 133.109 3.99219C133.148 4.26563 133.077 4.53256 132.895 4.79297C132.712 5.04037 132.4 5.17709 131.957 5.20313Z" fill="black"/>
    <path d="M122.895 16.2773C122.986 16.2773 123.077 16.2513 123.168 16.1992C123.246 16.1602 123.318 16.1016 123.383 16.0234C123.461 15.9453 123.526 15.8281 123.578 15.6719H123.871C123.858 15.8021 123.819 15.9518 123.754 16.1211C123.689 16.2773 123.591 16.4271 123.461 16.5703C123.331 16.7005 123.168 16.8112 122.973 16.9023C122.777 16.9935 122.549 17.026 122.289 17C121.456 16.9219 120.954 16.1146 120.785 14.5781C120.668 14.8906 120.531 15.2096 120.375 15.5352C120.232 15.8607 120.056 16.1602 119.848 16.4336C119.639 16.707 119.392 16.9284 119.105 17.0977C118.832 17.2799 118.5 17.3711 118.109 17.3711C117.615 17.3711 117.178 17.2669 116.801 17.0586C116.436 16.8633 116.13 16.5964 115.883 16.2578C115.635 15.9193 115.46 15.5352 115.355 15.1055C115.251 14.6628 115.212 14.207 115.238 13.7383C115.277 13.0872 115.368 12.4297 115.512 11.7656C115.655 11.0885 115.74 10.457 115.766 9.87109C115.805 9.27214 115.733 8.7513 115.551 8.30859C115.382 7.85286 114.997 7.52083 114.398 7.3125L114.477 7.01953C114.672 7.05859 114.887 7.11068 115.121 7.17578C115.355 7.24089 115.603 7.29297 115.863 7.33203C116.124 7.37109 116.397 7.39062 116.684 7.39062C116.983 7.39062 117.283 7.35156 117.582 7.27344C117.426 7.61198 117.283 7.93099 117.152 8.23047C117.035 8.52995 116.938 8.86198 116.859 9.22656C116.781 9.59115 116.723 10.0078 116.684 10.4766C116.645 10.9453 116.625 11.5247 116.625 12.2148C116.625 12.9049 116.677 13.4844 116.781 13.9531C116.898 14.4219 117.055 14.793 117.25 15.0664C117.458 15.3398 117.699 15.5352 117.973 15.6523C118.246 15.7565 118.552 15.7956 118.891 15.7695C119.216 15.7305 119.49 15.5807 119.711 15.3203C119.945 15.0469 120.134 14.6953 120.277 14.2656C120.434 13.8229 120.551 13.3216 120.629 12.7617C120.72 12.2018 120.779 11.6094 120.805 10.9844C120.831 10.3594 120.831 9.82552 120.805 9.38281C120.792 8.9401 120.746 8.56901 120.668 8.26953C120.59 7.97005 120.473 7.72917 120.316 7.54688C120.16 7.35156 119.952 7.20182 119.691 7.09766L119.73 6.78516C119.965 6.78516 120.245 6.78516 120.57 6.78516C120.896 6.78516 121.221 6.77865 121.547 6.76562C121.872 6.73958 122.172 6.70703 122.445 6.66797C122.732 6.62891 122.947 6.57682 123.09 6.51172C122.868 6.94141 122.667 7.48828 122.484 8.15234C122.315 8.80339 122.172 9.49349 122.055 10.2227C121.938 10.9388 121.859 11.6615 121.82 12.3906C121.781 13.1068 121.794 13.7578 121.859 14.3438C121.924 14.9167 122.035 15.3854 122.191 15.75C122.361 16.1016 122.595 16.2773 122.895 16.2773Z" fill="black"/>
    <path d="M107.094 9.63673C107.25 9.15496 107.471 8.67318 107.758 8.19141C108.044 7.70964 108.37 7.27996 108.734 6.90235C109.112 6.51173 109.516 6.20574 109.945 5.98438C110.388 5.76303 110.844 5.66537 111.312 5.69141C111.742 5.73048 112.094 5.91928 112.367 6.25782C112.654 6.59636 112.882 7.00001 113.051 7.46876C113.22 7.92449 113.331 8.39975 113.383 8.89454C113.448 9.37631 113.474 9.77996 113.461 10.1055C113.435 10.5091 113.35 10.8997 113.207 11.2774C113.077 11.6419 112.927 12.013 112.758 12.3906C112.602 12.7552 112.452 13.1328 112.309 13.5234C112.165 13.9141 112.081 14.3242 112.055 14.7539C112.029 15.1836 112.074 15.5938 112.191 15.9844C112.322 16.362 112.504 16.655 112.738 16.8633C112.973 17.0716 113.246 17.1563 113.559 17.1172C113.884 17.0912 114.216 16.8698 114.555 16.4531L114.809 16.668C114.678 16.8893 114.464 17.1042 114.164 17.3125C113.865 17.5339 113.513 17.6445 113.109 17.6445C112.836 17.6445 112.562 17.5859 112.289 17.4688C112.029 17.3646 111.788 17.1953 111.566 16.9609C111.358 16.7135 111.182 16.401 111.039 16.0234C110.909 15.6458 110.837 15.1836 110.824 14.6367C110.824 14.181 110.883 13.7578 111 13.3672C111.117 12.9766 111.241 12.5859 111.371 12.1953C111.514 11.8047 111.638 11.401 111.742 10.9844C111.859 10.5547 111.911 10.0794 111.898 9.5586C111.872 9.07683 111.794 8.68621 111.664 8.38673C111.547 8.07423 111.397 7.83985 111.215 7.6836C111.046 7.51433 110.857 7.41016 110.648 7.3711C110.453 7.31902 110.271 7.306 110.102 7.33204C109.75 7.39714 109.392 7.59897 109.027 7.93751C108.663 8.26303 108.331 8.67969 108.031 9.18751C107.745 9.6823 107.51 10.2487 107.328 10.8867C107.146 11.5247 107.048 12.1758 107.035 12.8399V12.8008C107.035 13.1263 107.029 13.4128 107.016 13.6602C107.003 13.9076 107.009 14.1159 107.035 14.2852C107.035 14.6628 107.068 14.9622 107.133 15.1836C107.211 15.3919 107.296 15.5547 107.387 15.6719C107.478 15.7891 107.576 15.8737 107.68 15.9258C107.797 15.9649 107.895 15.9909 107.973 16.0039L107.953 16.3555C107.771 16.3164 107.536 16.2969 107.25 16.2969C106.977 16.2839 106.677 16.2969 106.352 16.3359C106.026 16.375 105.688 16.4466 105.336 16.5508C104.997 16.655 104.685 16.7982 104.398 16.9805L104.262 16.707C104.457 16.5508 104.626 16.4141 104.77 16.2969C104.926 16.1667 105.056 16.0039 105.16 15.8086C105.277 15.6133 105.375 15.3594 105.453 15.0469C105.531 14.7344 105.59 14.3242 105.629 13.8164C105.707 12.7878 105.759 11.7787 105.785 10.7891C105.811 9.78647 105.785 8.85548 105.707 7.9961C105.681 7.72266 105.609 7.51433 105.492 7.3711C105.388 7.22787 105.258 7.13022 105.102 7.07813C104.945 7.01303 104.783 6.98048 104.613 6.98048C104.444 6.98048 104.281 6.98699 104.125 7.00001L104.105 6.66798C104.392 6.64193 104.685 6.60938 104.984 6.57032C105.297 6.53126 105.596 6.49219 105.883 6.45313C106.169 6.41407 106.423 6.37501 106.645 6.33594C106.879 6.28386 107.061 6.22527 107.191 6.16016C107.165 6.57683 107.146 6.9935 107.133 7.41016C107.133 7.81381 107.126 8.1849 107.113 8.52344C107.1 8.91407 107.094 9.28516 107.094 9.63673Z" fill="black"/>
    <path d="M95.4727 11.707C95.5117 10.9388 95.6745 10.2227 95.9609 9.5586C96.2604 8.89453 96.6445 8.32813 97.1133 7.85938C97.582 7.37761 98.1094 7.01302 98.6953 6.76563C99.2943 6.51823 99.9128 6.4336 100.551 6.51172C101.189 6.58985 101.677 6.78516 102.016 7.09766C102.367 7.41016 102.615 7.76172 102.758 8.15235C102.901 8.52995 102.979 8.90756 102.992 9.28516C103.005 9.66276 103.005 9.95573 102.992 10.1641C102.979 10.3594 102.953 10.5742 102.914 10.8086C102.888 11.043 102.855 11.2773 102.816 11.5117C102.79 11.7331 102.777 11.9479 102.777 12.1563C102.777 12.3516 102.797 12.5143 102.836 12.6445C102.51 12.5404 102.133 12.4297 101.703 12.3125C101.273 12.1823 100.805 12.0846 100.297 12.0195C99.8021 11.9544 99.2812 11.9349 98.7344 11.9609C98.2005 11.974 97.6667 12.0651 97.1328 12.2344C97.1198 12.7292 97.1523 13.224 97.2305 13.7188C97.3216 14.2005 97.4648 14.6628 97.6602 15.1055C97.8294 15.4831 98.0247 15.8151 98.2461 16.1016C98.4674 16.388 98.7018 16.6094 98.9492 16.7656C99.2096 16.9089 99.4701 16.987 99.7305 17C100.004 17.013 100.277 16.9349 100.551 16.7656C100.772 16.6094 100.941 16.4206 101.059 16.1992C101.163 16.0169 101.202 15.7956 101.176 15.5352C101.163 15.2747 101.026 14.9753 100.766 14.6367L103.207 14.5195C103.116 14.78 102.979 15.1055 102.797 15.4961C102.628 15.8867 102.393 16.2643 102.094 16.6289C101.794 16.9935 101.423 17.2995 100.98 17.5469C100.538 17.7943 100.004 17.905 99.3789 17.8789C98.7539 17.8398 98.1875 17.638 97.6797 17.2734C97.1849 16.9219 96.7682 16.4596 96.4297 15.8867C96.0911 15.3138 95.8372 14.6693 95.668 13.9531C95.4987 13.224 95.4336 12.4753 95.4727 11.707ZM100.316 7.01953C99.9518 6.98047 99.5938 7.07162 99.2422 7.29297C98.9036 7.51433 98.5911 7.83334 98.3047 8.25C98.0312 8.65365 97.7969 9.13542 97.6016 9.69532C97.4062 10.2552 97.2695 10.8411 97.1914 11.4531C97.9336 11.362 98.6237 11.3164 99.2617 11.3164C99.8997 11.3034 100.492 11.3425 101.039 11.4336C101.182 11.1341 101.312 10.75 101.43 10.2813C101.547 9.79948 101.599 9.33073 101.586 8.875C101.573 8.40625 101.469 7.9961 101.273 7.64453C101.091 7.29297 100.772 7.08464 100.316 7.01953Z" fill="black"/>
    <path d="M84.5742 17.0781C84.2878 17.0391 83.9688 17 83.6172 16.9609C83.2656 16.9219 82.9076 16.8958 82.543 16.8828C82.1914 16.8568 81.8529 16.8568 81.5273 16.8828C81.2148 16.8958 80.9544 16.9414 80.7461 17.0195L80.5898 16.6875C80.7721 16.6094 80.9219 16.5378 81.0391 16.4727C81.1693 16.4076 81.2669 16.3294 81.332 16.2383C81.4102 16.1341 81.4688 15.9974 81.5078 15.8281C81.5469 15.6458 81.5794 15.3984 81.6055 15.0859C81.6185 14.8776 81.6315 14.5846 81.6445 14.207C81.6576 13.8164 81.6706 13.3932 81.6836 12.9375C81.6966 12.4688 81.7031 11.9805 81.7031 11.4727C81.7031 10.9648 81.6966 10.4766 81.6836 10.0078C81.6706 9.52604 81.651 9.08333 81.625 8.67969C81.599 8.27604 81.5664 7.95052 81.5273 7.70312C81.4883 7.44271 81.4232 7.2474 81.332 7.11719C81.2409 6.97396 81.1237 6.86979 80.9805 6.80469C80.8503 6.73958 80.694 6.70052 80.5117 6.6875C80.3424 6.67448 80.1536 6.66797 79.9453 6.66797V6.31641C80.7656 6.38151 81.5078 6.41406 82.1719 6.41406C82.8359 6.41406 83.3763 6.35547 83.793 6.23828L83.8125 6.49219C83.7344 6.51823 83.6628 6.58333 83.5977 6.6875C83.5326 6.77865 83.4674 6.92839 83.4023 7.13672C83.3503 7.34505 83.2982 7.61849 83.2461 7.95703C83.207 8.29557 83.181 8.72526 83.168 9.24609C83.3242 8.93359 83.5065 8.62109 83.7148 8.30859C83.9232 7.99609 84.151 7.72266 84.3984 7.48828C84.6589 7.25391 84.9388 7.07161 85.2383 6.94141C85.5508 6.79818 85.8828 6.73958 86.2344 6.76562C86.7943 6.81771 87.2109 7.02604 87.4844 7.39062C87.7708 7.75521 87.9661 8.1849 88.0703 8.67969C88.4609 7.92448 88.9557 7.33203 89.5547 6.90234C90.1667 6.47266 90.8568 6.30339 91.625 6.39453C92.0807 6.45964 92.4844 6.66797 92.8359 7.01953C93.1875 7.35807 93.474 7.78125 93.6953 8.28906C93.9297 8.79688 94.0794 9.35677 94.1445 9.96875C94.2227 10.5807 94.2161 11.1732 94.125 11.7461C94.0208 12.319 93.8255 12.9505 93.5391 13.6406C93.2656 14.3307 92.9727 15.0208 92.6602 15.7109C92.3607 16.401 92.0938 17.0521 91.8594 17.6641C91.625 18.276 91.5078 18.7773 91.5078 19.168C91.5078 19.7669 91.651 20.2031 91.9375 20.4766C92.237 20.763 92.5951 20.9062 93.0117 20.9062C93.2201 20.9062 93.4284 20.8737 93.6367 20.8086C93.8581 20.7435 94.0534 20.6393 94.2227 20.4961C94.4049 20.3659 94.5482 20.1966 94.6523 19.9883C94.7695 19.793 94.8281 19.5586 94.8281 19.2852C94.8281 18.9076 94.6914 18.6341 94.418 18.4648C94.1445 18.2956 93.8711 18.2109 93.5977 18.2109C93.3242 18.2109 93.0898 18.2891 92.8945 18.4453C92.6992 18.6146 92.6016 18.8229 92.6016 19.0703C92.6016 19.1354 92.6081 19.207 92.6211 19.2852C92.6471 19.3763 92.6797 19.4609 92.7188 19.5391C92.7708 19.6172 92.8424 19.6823 92.9336 19.7344C93.0247 19.7995 93.1419 19.832 93.2852 19.832C93.4023 19.832 93.5 19.8125 93.5781 19.7734C93.6562 19.7344 93.7279 19.6823 93.793 19.6172C93.6107 19.5521 93.4674 19.4544 93.3633 19.3242C93.2721 19.194 93.2786 19.0443 93.3828 18.875C93.4349 18.7969 93.513 18.7448 93.6172 18.7188C93.7214 18.7057 93.8255 18.7188 93.9297 18.7578C94.0469 18.8099 94.138 18.888 94.2031 18.9922C94.2812 19.0964 94.3203 19.2266 94.3203 19.3828C94.3203 19.6432 94.2161 19.8516 94.0078 20.0078C93.7995 20.1771 93.5651 20.2682 93.3047 20.2812C93.0312 20.2943 92.7839 20.2096 92.5625 20.0273C92.3411 19.8581 92.2305 19.5846 92.2305 19.207C92.2305 18.8164 92.3542 18.4909 92.6016 18.2305C92.862 17.9701 93.2005 17.8398 93.6172 17.8398C94.112 17.8398 94.5026 17.9831 94.7891 18.2695C95.0885 18.569 95.2383 18.9336 95.2383 19.3633C95.2383 19.5846 95.1992 19.8255 95.1211 20.0859C95.043 20.3594 94.9062 20.6133 94.7109 20.8477C94.5286 21.082 94.2747 21.2773 93.9492 21.4336C93.6367 21.6029 93.2331 21.6875 92.7383 21.6875C92.4258 21.6875 92.1263 21.6289 91.8398 21.5117C91.5664 21.3945 91.319 21.2188 91.0977 20.9844C90.8893 20.75 90.7201 20.4635 90.5898 20.125C90.4727 19.7995 90.4076 19.4219 90.3945 18.9922C90.3945 18.5234 90.4857 17.9961 90.668 17.4102C90.8633 16.8372 91.0911 16.2122 91.3516 15.5352C91.7552 14.4414 92.0352 13.4128 92.1914 12.4492C92.3477 11.4857 92.3867 10.6458 92.3086 9.92969C92.2305 9.21354 92.0417 8.64714 91.7422 8.23047C91.4557 7.8138 91.0651 7.60547 90.5703 7.60547C90.2448 7.60547 89.9583 7.74219 89.7109 8.01562C89.4766 8.28906 89.2812 8.64062 89.125 9.07031C88.9688 9.5 88.8451 9.98177 88.7539 10.5156C88.6628 11.0495 88.5911 11.5833 88.5391 12.1172C88.487 12.638 88.4544 13.1263 88.4414 13.582C88.4284 14.0247 88.4219 14.3828 88.4219 14.6562C88.4219 14.9818 88.4609 15.2422 88.5391 15.4375C88.6302 15.6198 88.7344 15.763 88.8516 15.8672C88.9818 15.9714 89.112 16.0495 89.2422 16.1016C89.3854 16.1406 89.5156 16.1797 89.6328 16.2188L89.5156 16.5312C89.3724 16.5052 89.1315 16.4792 88.793 16.4531C88.4544 16.4141 88.0964 16.3945 87.7188 16.3945C87.3411 16.3815 86.9766 16.3945 86.625 16.4336C86.2865 16.4727 86.0326 16.5508 85.8633 16.668L85.7852 16.2578C85.9023 16.2188 86.0195 16.1862 86.1367 16.1602C86.2539 16.1211 86.3581 16.0495 86.4492 15.9453C86.5534 15.8411 86.6315 15.6784 86.6836 15.457C86.7487 15.2227 86.7943 14.8906 86.8203 14.4609C86.8594 13.5885 86.918 12.7617 86.9961 11.9805C87.0872 11.1992 87.1523 10.5156 87.1914 9.92969C87.2044 9.63021 87.1979 9.35026 87.1719 9.08984C87.1458 8.81641 87.0872 8.58203 86.9961 8.38672C86.9049 8.17839 86.7747 8.02214 86.6055 7.91797C86.4362 7.80078 86.2214 7.74219 85.9609 7.74219C85.6875 7.75521 85.388 7.8724 85.0625 8.09375C84.737 8.3151 84.4375 8.6276 84.1641 9.03125C83.8906 9.4349 83.6562 9.92318 83.4609 10.4961C83.2786 11.056 83.1875 11.6745 83.1875 12.3516L83.168 12.332C83.194 12.7878 83.2135 13.237 83.2266 13.6797C83.2396 14.1094 83.2591 14.4805 83.2852 14.793C83.3112 15.1185 83.3372 15.3919 83.3633 15.6133C83.3893 15.8216 83.4414 15.9974 83.5195 16.1406C83.6107 16.2839 83.7409 16.401 83.9102 16.4922C84.0794 16.5703 84.3138 16.6354 84.6133 16.6875L84.5742 17.0781Z" fill="black"/>
    <path d="M65.3164 11.707C65.3555 10.9388 65.5182 10.2227 65.8047 9.5586C66.1042 8.89453 66.4883 8.32813 66.957 7.85938C67.4258 7.37761 67.9531 7.01302 68.5391 6.76563C69.138 6.51823 69.7565 6.4336 70.3945 6.51172C71.0326 6.58985 71.5208 6.78516 71.8594 7.09766C72.2109 7.41016 72.4583 7.76172 72.6016 8.15235C72.7448 8.52995 72.8229 8.90756 72.8359 9.28516C72.849 9.66276 72.849 9.95573 72.8359 10.1641C72.8229 10.3594 72.7969 10.5742 72.7578 10.8086C72.7318 11.043 72.6992 11.2773 72.6602 11.5117C72.6341 11.7331 72.6211 11.9479 72.6211 12.1563C72.6211 12.3516 72.6406 12.5143 72.6797 12.6445C72.3542 12.5404 71.9766 12.4297 71.5469 12.3125C71.1172 12.1823 70.6484 12.0846 70.1406 12.0195C69.6458 11.9544 69.125 11.9349 68.5781 11.9609C68.0443 11.974 67.5104 12.0651 66.9766 12.2344C66.9635 12.7292 66.9961 13.224 67.0742 13.7188C67.1654 14.2005 67.3086 14.6628 67.5039 15.1055C67.6732 15.4831 67.8685 15.8151 68.0898 16.1016C68.3112 16.388 68.5456 16.6094 68.793 16.7656C69.0534 16.9089 69.3138 16.987 69.5742 17C69.8477 17.013 70.1211 16.9349 70.3945 16.7656C70.6159 16.6094 70.7852 16.4206 70.9023 16.1992C71.0065 16.0169 71.0456 15.7956 71.0195 15.5352C71.0065 15.2747 70.8698 14.9753 70.6094 14.6367L73.0508 14.5195C72.9596 14.78 72.8229 15.1055 72.6406 15.4961C72.4714 15.8867 72.237 16.2643 71.9375 16.6289C71.638 16.9935 71.2669 17.2995 70.8242 17.5469C70.3815 17.7943 69.8477 17.905 69.2227 17.8789C68.5977 17.8398 68.0312 17.638 67.5234 17.2734C67.0286 16.9219 66.612 16.4596 66.2734 15.8867C65.9349 15.3138 65.681 14.6693 65.5117 13.9531C65.3424 13.224 65.2773 12.4753 65.3164 11.707ZM70.1602 7.01953C69.7956 6.98047 69.4375 7.07162 69.0859 7.29297C68.7474 7.51433 68.4349 7.83334 68.1484 8.25C67.875 8.65365 67.6406 9.13542 67.4453 9.69532C67.25 10.2552 67.1133 10.8411 67.0352 11.4531C67.7773 11.362 68.4674 11.3164 69.1055 11.3164C69.7435 11.3034 70.3359 11.3425 70.8828 11.4336C71.026 11.1341 71.1562 10.75 71.2734 10.2813C71.3906 9.79948 71.4427 9.33073 71.4297 8.875C71.4167 8.40625 71.3125 7.9961 71.1172 7.64453C70.9349 7.29297 70.6159 7.08464 70.1602 7.01953Z" fill="black"/>
    <path d="M57.4844 9.96875C57.6667 9.53906 57.888 9.1224 58.1484 8.71875C58.4219 8.30208 58.7279 7.9375 59.0664 7.625C59.418 7.3125 59.7956 7.07812 60.1992 6.92188C60.6029 6.7526 61.0326 6.71354 61.4883 6.80469C62.0091 6.89583 62.4193 7.14974 62.7188 7.56641C63.0312 7.97005 63.2591 8.44531 63.4023 8.99219C63.5586 9.53906 63.6497 10.1185 63.6758 10.7305C63.7018 11.3294 63.7083 11.8698 63.6953 12.3516C63.6693 12.8464 63.6367 13.3021 63.5977 13.7188C63.5716 14.1354 63.5326 14.5326 63.4805 14.9102C63.4414 15.2878 63.3958 15.6654 63.3438 16.043C63.2917 16.4206 63.2396 16.8112 63.1875 17.2148C63.1224 17.7747 63.168 18.1914 63.3242 18.4648C63.4935 18.7513 63.6953 18.9141 63.9297 18.9531C64.1641 18.9922 64.3919 18.9206 64.6133 18.7383C64.8477 18.556 65.0039 18.2891 65.082 17.9375L65.3945 18.0742C65.3685 18.3086 65.3034 18.5365 65.1992 18.7578C65.1081 18.9792 64.9714 19.1615 64.7891 19.3047C64.6198 19.4609 64.4115 19.5651 64.1641 19.6172C63.9167 19.6693 63.6367 19.6497 63.3242 19.5586C63.0247 19.4674 62.7708 19.3372 62.5625 19.168C62.3672 18.9987 62.2174 18.7578 62.1133 18.4453C62.0091 18.1328 61.944 17.7292 61.918 17.2344C61.9049 16.7396 61.931 16.1211 61.9961 15.3789C62.0482 14.8841 62.0938 14.3633 62.1328 13.8164C62.1849 13.2565 62.2174 12.7096 62.2305 12.1758C62.2435 11.6289 62.224 11.1081 62.1719 10.6133C62.1328 10.1185 62.0352 9.6888 61.8789 9.32422C61.7357 8.94661 61.5273 8.64714 61.2539 8.42578C60.9935 8.20443 60.6484 8.09375 60.2188 8.09375C59.8672 8.09375 59.5286 8.23698 59.2031 8.52344C58.8906 8.8099 58.6172 9.1875 58.3828 9.65625C58.1484 10.125 57.9596 10.6654 57.8164 11.2773C57.6862 11.8893 57.6211 12.5208 57.6211 13.1719V13.1523C57.6211 13.2174 57.6211 13.2695 57.6211 13.3086C57.6341 13.3477 57.6406 13.3932 57.6406 13.4453C57.7057 14.1094 57.7839 14.6367 57.875 15.0273C57.9792 15.418 58.1094 15.7305 58.2656 15.9648C58.4219 16.1992 58.6107 16.388 58.832 16.5312C59.0664 16.6745 59.3398 16.8307 59.6523 17L59.5547 17.3516C59.3073 17.2734 58.9557 17.1823 58.5 17.0781C58.0573 16.974 57.582 16.8893 57.0742 16.8242C56.5664 16.7461 56.0716 16.7005 55.5898 16.6875C55.1081 16.6745 54.7109 16.7266 54.3984 16.8438L54.2422 16.375C54.4115 16.3099 54.5938 16.2448 54.7891 16.1797C54.9974 16.1146 55.1927 15.9779 55.375 15.7695C55.5573 15.5612 55.7135 15.2487 55.8438 14.832C55.974 14.4023 56.0586 13.7904 56.0977 12.9961C56.1367 12.2148 56.1628 11.375 56.1758 10.4766C56.2018 9.57812 56.2083 8.69271 56.1953 7.82031C56.1823 6.94792 56.1497 6.12109 56.0977 5.33984C56.0586 4.54557 55.9935 3.86198 55.9023 3.28906C55.8242 2.84635 55.7135 2.50781 55.5703 2.27344C55.4271 2.02604 55.2643 1.84375 55.082 1.72656C54.9128 1.59635 54.7435 1.51172 54.5742 1.47266C54.3919 1.43359 54.2357 1.39453 54.1055 1.35547L54.0859 1.04297C54.8802 1.10807 55.6875 1.11458 56.5078 1.0625C57.3411 0.997396 58.1419 0.795573 58.9102 0.457031L58.9492 0.789062C58.806 0.932292 58.6628 1.0625 58.5195 1.17969C58.3893 1.29688 58.2656 1.45312 58.1484 1.64844C58.0312 1.84375 57.9271 2.09766 57.8359 2.41016C57.7578 2.72266 57.6992 3.13932 57.6602 3.66016C57.6341 3.9987 57.6081 4.40885 57.582 4.89062C57.569 5.3724 57.5495 5.89323 57.5234 6.45312C57.5104 7 57.4974 7.57943 57.4844 8.19141C57.4844 8.79036 57.4844 9.38281 57.4844 9.96875Z" fill="black"/>
    <path d="M53.5977 16.3555C53.8971 16.3555 54.1771 16.2513 54.4375 16.043C54.6979 15.8346 54.8802 15.4831 54.9844 14.9883L55.3945 15.1445C55.3555 15.457 55.2318 15.776 55.0234 16.1016C54.8151 16.4141 54.5482 16.681 54.2227 16.9023C53.8971 17.1237 53.526 17.2669 53.1094 17.332C52.7057 17.3971 52.2891 17.332 51.8594 17.1367C51.3906 16.9154 51.0521 16.6289 50.8438 16.2773C50.6354 15.9258 50.5052 15.5221 50.4531 15.0664C50.401 14.5977 50.3945 14.0964 50.4336 13.5625C50.4727 13.0156 50.4922 12.4492 50.4922 11.8633C50.4922 11.5247 50.4857 11.1276 50.4727 10.6719C50.4727 10.2031 50.4596 9.70833 50.4336 9.1875C50.4206 8.66667 50.3945 8.13281 50.3555 7.58594C50.3164 7.02604 50.2773 6.47917 50.2383 5.94531C49.7956 5.9974 49.3724 6.0625 48.9688 6.14062C48.5781 6.20573 48.2461 6.29036 47.9727 6.39453C47.9596 6.27734 47.9596 6.1862 47.9727 6.12109C47.9727 6.05599 47.9792 5.9974 47.9922 5.94531C47.9922 5.88021 47.9922 5.8151 47.9922 5.75C47.9922 5.67188 47.9792 5.56771 47.9531 5.4375C48.2656 5.41146 48.6107 5.38542 48.9883 5.35938C49.3789 5.33333 49.776 5.30729 50.1797 5.28125C50.1667 5.09896 50.1536 4.92318 50.1406 4.75391C50.1276 4.57161 50.1081 4.39583 50.082 4.22656C50.0169 3.61458 49.8932 3.1263 49.7109 2.76172C49.5417 2.39714 49.3529 2.11719 49.1445 1.92188C48.9362 1.72656 48.7409 1.59635 48.5586 1.53125C48.3763 1.45312 48.2396 1.40104 48.1484 1.375L48.207 1.00391C48.4544 1.10807 48.7604 1.17969 49.125 1.21875C49.4896 1.24479 49.8672 1.24479 50.2578 1.21875C50.6615 1.17969 51.0521 1.11458 51.4297 1.02344C51.8203 0.932292 52.1589 0.815104 52.4453 0.671875C52.3151 1.03646 52.1979 1.61589 52.0938 2.41016C52.0026 3.20443 51.9245 4.12891 51.8594 5.18359C52.5365 5.14453 53.0247 5.09245 53.3242 5.02734C53.2591 5.10547 53.2266 5.23568 53.2266 5.41797C53.2266 5.58724 53.2461 5.74349 53.2852 5.88672C53.0638 5.86068 52.8294 5.84766 52.582 5.84766C52.3346 5.83464 52.0807 5.82812 51.8203 5.82812C51.7812 6.58333 51.7552 7.37109 51.7422 8.19141C51.7292 9.01172 51.7357 9.82552 51.7617 10.6328C51.8008 11.4271 51.8529 12.2083 51.918 12.9766C51.9961 13.7318 52.0938 14.4284 52.2109 15.0664C52.3151 15.5221 52.4974 15.8477 52.7578 16.043C53.0182 16.2383 53.2982 16.3424 53.5977 16.3555Z" fill="black"/>
    <path d="M42.6602 21.9414C42.2044 21.9414 41.7552 21.8698 41.3125 21.7266C40.8698 21.5833 40.4857 21.3424 40.1602 21.0039C39.8346 20.6784 39.5938 20.2357 39.4375 19.6758C39.2812 19.1289 39.2617 18.4453 39.3789 17.625C39.4701 17 39.5417 16.388 39.5938 15.7891C39.6589 15.1771 39.6784 14.6172 39.6523 14.1094C39.6263 13.5885 39.5352 13.1328 39.3789 12.7422C39.2227 12.3385 38.9688 12.026 38.6172 11.8047C38.2917 11.5833 37.8685 11.4531 37.3477 11.4141C36.8268 11.375 36.1953 11.4661 35.4531 11.6875C35.4792 12.2474 35.5117 12.7747 35.5508 13.2695C35.6029 13.7643 35.6615 14.207 35.7266 14.5977C35.7656 14.9883 35.8372 15.3268 35.9414 15.6133C36.0195 15.8607 36.1302 16.082 36.2734 16.2773C36.4167 16.4727 36.599 16.5443 36.8203 16.4922L36.6836 16.9805C36.4232 16.8893 36.1237 16.8242 35.7852 16.7852C35.4596 16.7461 35.1081 16.7396 34.7305 16.7656C34.3529 16.7917 33.9622 16.8503 33.5586 16.9414C33.168 17.0326 32.7904 17.1693 32.4258 17.3516L32.3281 17.0195C32.5234 16.8763 32.6992 16.7461 32.8555 16.6289C33.0117 16.5117 33.1484 16.362 33.2656 16.1797C33.3958 15.9974 33.5065 15.763 33.5977 15.4766C33.6888 15.1901 33.7669 14.806 33.832 14.3242C33.8971 13.8424 33.9753 13.2174 34.0664 12.4492C34.1706 11.668 34.2617 10.8281 34.3398 9.92969C34.418 9.03125 34.4701 8.10677 34.4961 7.15625C34.5221 6.20573 34.4961 5.32031 34.418 4.5C34.3398 3.88802 34.2227 3.33464 34.0664 2.83984C34.0013 2.63151 33.9167 2.42969 33.8125 2.23438C33.7214 2.02604 33.6107 1.84375 33.4805 1.6875C33.3503 1.51823 33.2005 1.38151 33.0312 1.27734C32.875 1.17318 32.6992 1.11458 32.5039 1.10156V0.808594C32.7513 0.847656 33.0312 0.893229 33.3438 0.945312C33.6693 0.984375 34.0339 1.01042 34.4375 1.02344C34.8542 1.03646 35.3164 1.01693 35.8242 0.964844C36.3451 0.89974 36.9245 0.776042 37.5625 0.59375V0.984375C37.3281 1.11458 37.1133 1.2513 36.918 1.39453C36.7227 1.52474 36.5404 1.71354 36.3711 1.96094C36.2148 2.20833 36.0781 2.53385 35.9609 2.9375C35.8438 3.34115 35.7591 3.875 35.707 4.53906C35.6419 5.16406 35.5703 5.88672 35.4922 6.70703C35.4271 7.52734 35.3945 8.3737 35.3945 9.24609C35.3945 9.55859 35.3945 9.8776 35.3945 10.2031C35.3945 10.5156 35.4076 10.8281 35.4336 11.1406C36.0586 10.9193 36.6185 10.6328 37.1133 10.2812C37.6081 9.91667 38.0247 9.54557 38.3633 9.16797C38.7018 8.77734 38.9622 8.39974 39.1445 8.03516C39.3268 7.67057 39.418 7.35807 39.418 7.09766C39.3919 6.90234 39.3464 6.72656 39.2812 6.57031C39.2161 6.4401 39.1185 6.32292 38.9883 6.21875C38.8581 6.10156 38.6823 6.03646 38.4609 6.02344L38.5195 5.53516C39.3268 5.63932 40.1016 5.6849 40.8438 5.67188C41.5859 5.64583 42.3281 5.47005 43.0703 5.14453L43.1484 5.53516C42.9531 5.6263 42.7773 5.71745 42.6211 5.80859C42.4648 5.88672 42.3151 5.98438 42.1719 6.10156C42.0417 6.21875 41.9115 6.375 41.7812 6.57031C41.651 6.7526 41.5078 6.99349 41.3516 7.29297C41.2344 7.54036 41.0781 7.82682 40.8828 8.15234C40.6875 8.47786 40.4531 8.80339 40.1797 9.12891C39.9193 9.44141 39.6133 9.74089 39.2617 10.0273C38.9232 10.3008 38.5521 10.5221 38.1484 10.6914C39.1901 10.6654 40.0039 10.9388 40.5898 11.5117C41.1758 12.0716 41.5078 13.0026 41.5859 14.3047C41.612 14.9688 41.5534 15.6393 41.4102 16.3164C41.2669 16.9805 41.1432 17.6055 41.0391 18.1914C40.9349 18.7904 40.8958 19.3242 40.9219 19.793C40.9479 20.2747 41.1432 20.6523 41.5078 20.9258C41.8594 21.1992 42.2044 21.362 42.543 21.4141C42.8945 21.4792 43.2201 21.4531 43.5195 21.3359C43.819 21.2318 44.0794 21.0495 44.3008 20.7891C44.5352 20.5286 44.7174 20.2227 44.8477 19.8711C44.9648 19.5195 45.0169 19.2135 45.0039 18.9531C44.9909 18.7057 44.9323 18.4974 44.8281 18.3281C44.724 18.1719 44.5872 18.0547 44.418 17.9766C44.2617 17.8984 44.0924 17.8594 43.9102 17.8594C43.5456 17.8594 43.2201 17.9961 42.9336 18.2695C42.6471 18.543 42.4909 18.901 42.4648 19.3438C42.4518 19.5 42.4714 19.6302 42.5234 19.7344C42.5755 19.8385 42.6406 19.9167 42.7188 19.9688C42.8099 20.0339 42.901 20.0794 42.9922 20.1055C43.0964 20.1315 43.194 20.1315 43.2852 20.1055C43.4544 20.0794 43.6237 19.9818 43.793 19.8125C43.9753 19.6432 44.0599 19.4414 44.0469 19.207C43.9688 19.2591 43.8711 19.3047 43.7539 19.3438C43.6367 19.3958 43.526 19.4219 43.4219 19.4219C43.3307 19.4219 43.2461 19.3893 43.168 19.3242C43.1029 19.2721 43.0703 19.168 43.0703 19.0117C43.0703 18.8294 43.1354 18.6862 43.2656 18.582C43.4089 18.4909 43.5651 18.4453 43.7344 18.4453C43.9036 18.4453 44.0599 18.4974 44.2031 18.6016C44.3464 18.7188 44.418 18.888 44.418 19.1094C44.431 19.5391 44.2878 19.8971 43.9883 20.1836C43.7018 20.4831 43.3633 20.6328 42.9727 20.6328C42.6862 20.6328 42.4583 20.5482 42.2891 20.3789C42.1328 20.2227 42.0221 20.0208 41.957 19.7734C41.9049 19.5391 41.9049 19.2786 41.957 18.9922C42.0221 18.7057 42.1393 18.4388 42.3086 18.1914C42.4779 17.957 42.6992 17.7552 42.9727 17.5859C43.2591 17.4297 43.5977 17.3516 43.9883 17.3516C44.2617 17.3516 44.4896 17.4036 44.6719 17.5078C44.8542 17.612 44.9974 17.7422 45.1016 17.8984C45.2188 18.0677 45.3034 18.25 45.3555 18.4453C45.4076 18.6406 45.4336 18.8359 45.4336 19.0312C45.4466 19.4089 45.3945 19.7669 45.2773 20.1055C45.1602 20.457 44.9844 20.7695 44.75 21.043C44.5156 21.3164 44.2227 21.5312 43.8711 21.6875C43.5195 21.8568 43.1159 21.9414 42.6602 21.9414Z" fill="black"/>
    <path d="M28.3633 7.07812C27.8034 7.07812 27.3281 7.20833 26.9375 7.46875C26.5599 7.71615 26.2539 8.05469 26.0195 8.48438C25.7852 8.91406 25.6159 9.40885 25.5117 9.96875C25.4076 10.5286 25.3685 11.1146 25.3945 11.7266C25.4466 13.0938 25.7201 14.181 26.2148 14.9883C26.7096 15.7826 27.3737 16.1797 28.207 16.1797C28.6758 16.1797 29.0924 16.0885 29.457 15.9062C29.8216 15.724 30.1276 15.5091 30.375 15.2617C30.6354 15.0013 30.8372 14.7344 30.9805 14.4609C31.1237 14.1745 31.2018 13.9401 31.2148 13.7578H31.6836C31.6185 14.1615 31.4753 14.5716 31.2539 14.9883C31.0456 15.3919 30.7591 15.763 30.3945 16.1016C30.0299 16.4271 29.6003 16.6875 29.1055 16.8828C28.6107 17.0781 28.0573 17.1562 27.4453 17.1172C26.6641 17.0651 25.9935 16.8438 25.4336 16.4531C24.8867 16.0495 24.444 15.5482 24.1055 14.9492C23.7669 14.3372 23.5391 13.6667 23.4219 12.9375C23.3047 12.1953 23.2917 11.4727 23.3828 10.7695C23.4609 10.0664 23.6237 9.4349 23.8711 8.875C24.1185 8.3151 24.4245 7.83984 24.7891 7.44922C25.1536 7.05859 25.5638 6.75911 26.0195 6.55078C26.4883 6.34245 26.9831 6.23177 27.5039 6.21875C27.9076 6.19271 28.3307 6.26432 28.7734 6.43359C29.2161 6.58984 29.6523 6.77865 30.082 7C30.4987 7.22135 30.8177 7.27344 31.0391 7.15625C31.2604 7.03906 31.4427 6.64193 31.5859 5.96484L32.0156 5.94531L31.918 10.6133L31.4492 10.7695C31.4102 10.4701 31.3255 10.112 31.1953 9.69531C31.0651 9.26562 30.8763 8.86198 30.6289 8.48438C30.3815 8.09375 30.069 7.76172 29.6914 7.48828C29.3138 7.21484 28.8711 7.07812 28.3633 7.07812Z" fill="black"/>
    <path d="M17.9727 16.9023C18.2721 16.7982 18.5195 16.6615 18.7148 16.4922C18.9102 16.3229 19.0599 16.1536 19.1641 15.9844C19.2943 15.7891 19.3789 15.5872 19.418 15.3789C19.7044 14.0508 19.8477 12.7878 19.8477 11.5898C19.8477 10.3789 19.7565 9.34375 19.5742 8.48438C19.5221 8.21094 19.4245 7.95704 19.2812 7.72266C19.1641 7.52735 19.0013 7.34506 18.793 7.17579C18.5846 6.99349 18.3177 6.87631 17.9922 6.82422L17.9727 6.51172C18.2331 6.53776 18.474 6.5573 18.6953 6.57032C18.9297 6.57032 19.1315 6.57032 19.3008 6.57032H19.8477C20.0039 6.58334 20.1602 6.58985 20.3164 6.58985C20.4596 6.60287 20.6029 6.60938 20.7461 6.60938C20.9023 6.60938 21.0521 6.6224 21.1953 6.64844C21.1562 7.11719 21.1237 7.59896 21.0977 8.09375C21.0716 8.57552 21.0521 9.01172 21.0391 9.40235C21.013 9.85808 21 10.3008 21 10.7305C20.974 11.2122 20.9544 11.7396 20.9414 12.3125C20.9284 12.8724 20.9349 13.4063 20.9609 13.9141C20.987 14.4219 21.0326 14.8711 21.0977 15.2617C21.1628 15.6393 21.2669 15.8867 21.4102 16.0039C21.4883 16.056 21.5924 16.1081 21.7227 16.1602C21.8268 16.2122 21.9635 16.2643 22.1328 16.3164C22.3151 16.3685 22.5365 16.4206 22.7969 16.4727L22.8164 16.8047C22.556 16.7917 22.3021 16.7917 22.0547 16.8047C21.8203 16.8047 21.612 16.8047 21.4297 16.8047C21.2083 16.8177 21 16.8242 20.8047 16.8242C20.5312 16.8372 20.2383 16.8633 19.9258 16.9023C19.6654 16.9284 19.3724 16.9609 19.0469 17C18.7214 17.0391 18.4089 17.0846 18.1094 17.1367L17.9727 16.9023ZM19.9844 5.20313C19.5807 5.22917 19.2682 5.13802 19.0469 4.92969C18.8255 4.70834 18.7018 4.46094 18.6758 4.1875C18.6497 3.91407 18.7214 3.66016 18.8906 3.42578C19.0729 3.17839 19.3594 3.02865 19.75 2.97657C20.1536 2.92448 20.4727 3.00912 20.707 3.23047C20.9544 3.45183 21.0977 3.70573 21.1367 3.99219C21.1758 4.26563 21.1042 4.53256 20.9219 4.79297C20.7396 5.04037 20.4271 5.17709 19.9844 5.20313Z" fill="black"/>
    <path d="M17.875 16.4922C17.5104 16.4401 17.1719 16.4076 16.8594 16.3945C16.5469 16.3815 16.2669 16.3685 16.0195 16.3555H15.2188C14.9323 16.3685 14.6523 16.3815 14.3789 16.3945C14.1445 16.4076 13.8971 16.4271 13.6367 16.4531C13.3893 16.4661 13.168 16.4857 12.9727 16.5117L12.8555 16.2578C13.1549 16.1536 13.4023 16.0234 13.5977 15.8672C13.793 15.6979 13.9427 15.5286 14.0469 15.3594C14.1771 15.1641 14.2617 14.9622 14.3008 14.7539C14.3919 14.3112 14.4635 13.7773 14.5156 13.1523C14.5807 12.5143 14.6198 11.8307 14.6328 11.1016C14.6589 10.3594 14.6654 9.60417 14.6523 8.83594C14.6393 8.05469 14.6133 7.29948 14.5742 6.57031C14.5352 5.84115 14.4766 5.17057 14.3984 4.55859C14.3333 3.93359 14.2552 3.41276 14.1641 2.99609C14.0859 2.73568 13.9753 2.48828 13.832 2.25391C13.7148 2.05859 13.5521 1.8763 13.3438 1.70703C13.1484 1.52474 12.8945 1.40755 12.582 1.35547L12.5625 1.0625C12.8099 1.08854 13.0443 1.10807 13.2656 1.12109C13.487 1.12109 13.6823 1.12109 13.8516 1.12109H14.3789C14.6133 1.10807 14.8411 1.08854 15.0625 1.0625C15.2448 1.03646 15.4401 1.01042 15.6484 0.984375C15.8568 0.958333 16.0326 0.919271 16.1758 0.867188C16.1107 2.63802 16.0586 4.11589 16.0195 5.30078C15.9935 6.47266 15.9674 7.41667 15.9414 8.13281C15.9154 8.96615 15.8958 9.6237 15.8828 10.1055C15.8698 10.5872 15.8698 11.1081 15.8828 11.668C15.8958 12.2279 15.9219 12.7682 15.9609 13.2891C16.013 13.7969 16.0781 14.2526 16.1562 14.6562C16.2344 15.0599 16.332 15.3464 16.4492 15.5156C16.5143 15.6328 16.6185 15.737 16.7617 15.8281C16.8659 15.9062 17.0091 15.9779 17.1914 16.043C17.3737 16.1081 17.5951 16.1536 17.8555 16.1797L17.875 16.4922Z" fill="black"/>
    <path d="M6.78125 18.4063C6.05209 18.3802 5.34245 18.1784 4.65235 17.8008C3.97526 17.4362 3.37631 16.9089 2.85547 16.2188C2.34766 15.5156 1.95052 14.6563 1.66407 13.6406C1.37761 12.625 1.26042 11.4531 1.3125 10.125C1.36459 8.79688 1.59896 7.6185 2.01563 6.58985C2.44532 5.5612 2.97266 4.70834 3.59766 4.03126C4.22266 3.34115 4.90625 2.83334 5.64844 2.50782C6.40365 2.1823 7.14584 2.0586 7.875 2.13673C8.31771 2.18881 8.70834 2.31251 9.04688 2.50782C9.38542 2.70313 9.67839 2.94402 9.92578 3.23048C10.1732 3.50391 10.3815 3.80339 10.5508 4.12891C10.7201 4.44141 10.8568 4.7474 10.9609 5.04688C11.0391 5.12501 11.1237 5.16407 11.2148 5.16407C11.4622 5.17709 11.6836 4.9948 11.8789 4.61719C12.0872 4.22657 12.263 3.58855 12.4063 2.70313L12.9531 2.76173C12.8359 3.20443 12.7057 3.71876 12.5625 4.30469C12.4323 4.87761 12.3086 5.47006 12.1914 6.08204C12.0872 6.69402 11.9961 7.29949 11.918 7.89844C11.8529 8.4974 11.8333 9.03777 11.8594 9.51954C11.6641 9.44141 11.4818 9.38933 11.3125 9.36329C11.1432 9.32423 10.987 9.29818 10.8438 9.28516C10.6875 9.27214 10.5443 9.27214 10.4141 9.28516C10.4401 8.47787 10.4141 7.70313 10.3359 6.96094C10.2708 6.21876 10.1406 5.56772 9.94532 5.00782C9.75 4.4349 9.48959 3.97266 9.16407 3.6211C8.85157 3.26954 8.46094 3.07423 7.99219 3.03516C7.57552 2.9961 7.1263 3.08725 6.64453 3.3086C6.16276 3.51693 5.70703 3.90105 5.27735 4.46094C4.84766 5.00782 4.47657 5.7435 4.16407 6.66798C3.85157 7.59245 3.65625 8.7448 3.57813 10.125C3.53907 10.8542 3.56511 11.6224 3.65625 12.4297C3.7474 13.237 3.92969 13.9857 4.20313 14.6758C4.47657 15.3529 4.84766 15.9193 5.31641 16.375C5.78516 16.8177 6.37761 17.0326 7.09375 17.0195C7.64063 16.9805 8.14844 16.8372 8.61719 16.5899C9.02084 16.3685 9.41797 16.0365 9.8086 15.5938C10.1992 15.151 10.4792 14.513 10.6484 13.6797L11.293 14.0703C11.1888 14.4089 11.0326 14.832 10.8242 15.3399C10.6159 15.8346 10.3294 16.3164 9.96485 16.7852C9.61328 17.2539 9.17058 17.6445 8.63672 17.957C8.11589 18.2826 7.4974 18.4323 6.78125 18.4063Z" fill="black"/>
</svg>
