<svg width="188" height="61" viewBox="0 0 188 61" fill="none" xmlns="http://www.w3.org/2000/svg">
<path fill-rule="evenodd" clip-rule="evenodd" d="M170.766 4.59898C160.165 3.83351 151.414 3.74349 140.57 4.11316C120.302 4.80411 100.803 7.39772 81.624 13.9955C81.5329 14.0269 81.4416 14.0584 81.3501 14.0901C94.6197 10.9153 107.955 9.20735 121.798 8.51837C129.57 8.1316 137.335 8.12537 145.062 8.14258C145.579 8.14373 146.096 8.14499 146.612 8.14624C153.829 8.16378 161.011 8.18123 168.187 7.91234C169.035 7.88059 169.928 7.86316 170.854 7.8451C172.717 7.80875 174.714 7.76979 176.741 7.60628C179.103 7.4158 181.321 7.06439 183.151 6.41607C179.351 5.27165 174.758 4.88724 170.766 4.59898ZM184.872 7.03202C184.872 7.03203 184.87 7.03091 184.867 7.0286C184.87 7.03084 184.872 7.032 184.872 7.03202ZM53.0474 26.065C58.6243 23.9903 64.2799 22.0905 69.9883 20.3181C87.0633 15.0162 104.046 12.4056 121.948 11.5147C129.631 11.1323 137.325 11.1254 145.056 11.1426C145.576 11.1437 146.097 11.145 146.618 11.1463C153.822 11.1638 161.06 11.1815 168.3 10.9102C169.046 10.8823 169.884 10.8657 170.779 10.848C172.692 10.8101 174.868 10.7671 176.983 10.5966C180.098 10.3453 183.383 9.80396 185.973 8.46189C186.324 8.28004 186.668 8.05922 186.948 7.77761C187.231 7.49256 187.527 7.06168 187.579 6.48646C187.632 5.89368 187.402 5.41891 187.161 5.10818C186.934 4.81409 186.657 4.60976 186.442 4.47389C186.01 4.2018 185.505 4.01156 185.139 3.88802C184.876 3.79926 184.555 3.70523 184.389 3.65662C184.339 3.64205 184.303 3.63157 184.287 3.62653C180.057 2.30455 175.009 1.89755 170.982 1.60677C160.259 0.832486 151.4 0.742214 140.468 1.1149C120.012 1.81227 100.196 4.43389 80.6481 11.1587C72.0025 14.1329 61.4715 18.6755 51.8706 23.3019C40.1584 27.6656 28.7493 32.8097 17.8986 39.1705C17.1839 39.5894 16.9442 40.5084 17.3631 41.2231C17.7087 41.8126 18.3944 42.0789 19.0251 41.9191C12.2845 46.6386 5.98729 52.0013 0.739517 58.3656C0.212487 59.0048 0.303389 59.9502 0.942553 60.4772C1.58172 61.0042 2.5271 60.9133 3.05413 60.2742C12.8138 48.438 26.4471 40.1014 40.0451 32.7036C43.9343 30.5878 48.3796 28.3165 53.0474 26.065Z" fill="black"/>
</svg>
